M48
METRIC,LZ,000.000
;FILE_FORMAT=3:3
;TYPE=NON_PLATED
;Layer: NPTH_Through
;EasyEDA v6.5.54, 2026-02-11 06:23:56
;3bbecb6fe9b747f29c0abc7b8abece35,92e600de7ff74937a4e092c024f19ce6,10
;Gerber Generator version 0.2
;Holesize 1 = 0.800 mm
T01C0.800
;Holesize 2 = 1.000 mm
T02C1.000
;Holesize 3 = 1.200 mm
T03C1.200
;Holesize 4 = 1.400 mm
T04C1.400
;Holesize 5 = 2.032 mm
T05C2.032
%
G05
G90
T01
X-050038Y088773
X-047879Y084455
X-047879Y084455
X-043561Y080137
X-045339Y082169
X-088011Y084455
X-086007Y082186
X-073000Y077000
X-065000Y068540
X-065000Y066000
X-065000Y071080
X-065000Y073620
X-065000Y076160
X-065000Y078700
X-065000Y081240
X-065000Y083780
X-050038Y070993
X-013000Y094000
X019050Y089281
X017018Y087249
X021209Y076454
X014351Y070739
X005080Y026797
X006731Y-006096
X-043561Y004445
X-043688Y000762
X-045847Y-000381
X-084836Y-005080
X-053069Y015680
X-037609Y008028
X-037609Y010579
X-065151Y016510
X-060960Y016129
X-058293Y041148
X-066167Y050673
X-033528Y051943
X-002159Y074803
X-009398Y061849
X-009398Y055626
X003683Y004699
X-029718Y031115
X-031115Y037846
X-026289Y040640
X-032766Y048641
X-030861Y022479
X-011000Y094000
X-035000Y035000
X-022000Y094000
T02
X-075057Y074422
X-086233Y067056
X-060325Y084328
X-058420Y068961
X-061976Y066675
X-042926Y066675
X-039751Y063754
X-043561Y080137
X-045339Y082169
X-047879Y084455
X-050038Y088773
X021082Y056007
X014224Y043815
X018923Y041275
X021082Y036195
X021082Y029210
X016764Y032385
X011684Y029083
X020955Y010668
X018288Y005588
X020447Y000381
X016002Y-005715
X018288Y-008001
X020320Y-010287
X-019431Y000762
X-023749Y007239
X-027000Y009000
X-057000Y005000
X-063000Y006000
X-063119Y-003302
X-069088Y-001397
X-071501Y004826
X-078105Y-010033
X-067065Y023495
X-065082Y023495
X-063065Y023495
X-061065Y023495
X-058166Y030734
X-073025Y026162
X-076962Y030734
X-090000Y040000
X-071501Y021590
X-068834Y021463
X-060325Y050927
X-078867Y053721
X-080518Y056134
X-035052Y060325
X-026000Y061000
X-024000Y069000
X-003000Y012000
X001270Y010033
X-013462Y019812
X-008890Y022352
X-016383Y025781
X-018542Y029210
X-016637Y033147
X-016256Y035814
X-018542Y035052
X-023876Y043434
X-006096Y015621
X006731Y013462
X-084836Y-005080
X-066802Y064389
X-084963Y012827
X-081999Y026000
X-063000Y037000
X-063000Y034000
X-065000Y020000
X-061000Y021000
X-063000Y027000
X-004000Y082000
X-062000Y073000
X-061999Y013000
X-057000Y008000
X-092000Y038000
X-092000Y-007000
X-090000Y-012000
X-037000Y-011000
X-086000Y038000
T03
X-006742Y081494
X-006742Y078994
X-006742Y076494
X007758Y081494
X007758Y076494
X011684Y081407
X-053069Y008028
X-053069Y010579
X-053069Y013129
X-053069Y015680
X-053069Y018230
X-053069Y020781
X-053069Y023331
X-053069Y025882
X-053069Y028432
X-053069Y030983
X-047879Y031242
X-050165Y025908
X-042799Y028702
X-037609Y025882
X-037609Y008028
X-037609Y010579
X-037609Y013129
X-037609Y015680
X-037609Y018230
X-037609Y020781
X-037609Y023331
X-037609Y028432
X-037609Y030983
X014478Y029210
X014478Y026670
X014478Y024130
X014478Y021590
X014478Y019050
X-002921Y025957
X-002921Y022457
X010668Y008001
X010668Y005461
X010668Y002921
X010668Y000381
X010668Y-002159
X-019347Y014422
X-021887Y014422
X-030816Y014422
X-033347Y014422
X-033347Y-008382
X-030808Y-008384
X-021898Y-008391
X-019347Y-008382
X-053069Y038634
X-053069Y041185
X-053069Y043735
X-053069Y046286
X-053069Y048836
X-053069Y051387
X-053069Y053937
X-053069Y056488
X-037609Y056488
X-037609Y053937
X-037609Y051387
X-037609Y048836
X-037609Y046286
X-037609Y043735
X-037609Y041185
X-040005Y041148
X-037609Y038634
X-037609Y036084
X-037609Y033533
X-046000Y023000
X-053069Y036084
X-053069Y033533
X-045339Y038735
X-070993Y050673
X-068580Y050673
X-070993Y048133
X-068580Y048133
X-070993Y045593
X-068580Y045593
X-070993Y043053
X-068580Y043053
X-070993Y040513
X-068580Y040513
X-070993Y037973
X-068580Y037973
X-070993Y035433
X-068580Y035433
X-070993Y032893
X-068580Y032893
X007885Y060793
X007885Y055793
X-006719Y036362
X-006719Y038862
X-006719Y041362
X-013716Y049403
X-011430Y050292
X007781Y041362
X007781Y036362
X-088265Y000635
T04
X-065095Y038187
X-065095Y033187
X-058095Y033187
X-058095Y038187
X-034189Y043540
X-034189Y040540
X-034189Y037540
X-006615Y060793
X-006615Y058293
X-006615Y055793
X-019689Y043013
X-019689Y038013
T05
X-003937Y029464
X-003937Y018796
M30
