M48
METRIC,LZ,000.000
;FILE_FORMAT=3:3
;TYPE=PLATED
;Layer: PTH_Through_Via
;EasyEDA v6.5.54, 2026-02-11 06:23:56
;3bbecb6fe9b747f29c0abc7b8abece35,92e600de7ff74937a4e092c024f19ce6,10
;Gerber Generator version 0.2
;Holesize 1 = 0.310 mm
T01C0.310
;Holesize 2 = 0.800 mm
T02C0.800
;Holesize 3 = 0.901 mm
T03C0.901
;Holesize 4 = 1.000 mm
T04C1.000
%
G05
G90
T01
X-037000Y-011000
X-090000Y-011000
X-041000Y010579
X-041000Y-007000
X-092000Y-007000
T02
X-043561Y004445
X-043688Y000762
X-084963Y012827
X-086233Y067056
X-019431Y000762
X-086007Y082186
X020447Y000381
X-084836Y-005080
X018288Y-008001
X018288Y005588
X003683Y004699
X005080Y026797
X-013716Y049403
X-013462Y019812
X-011430Y050292
X-023749Y007239
X-027000Y009000
X-029718Y031115
X-026289Y040640
X001270Y010033
X-003000Y012000
X-002159Y074803
X-016383Y025781
X-016637Y033147
X011684Y081407
X-040005Y041148
X-039751Y063754
X-032766Y048641
X-026000Y061000
X-009398Y061849
X-009398Y055626
X-042799Y028702
X-042926Y066675
X-058293Y041148
X-043561Y080137
X014224Y043815
X-045339Y038735
X-045339Y082169
X017018Y087249
X016764Y032385
X-047879Y031242
X-047879Y084455
X019050Y089281
X018923Y041275
X-057000Y005000
X-066167Y050673
X-066802Y064389
X-050165Y025908
X-056000Y081000
X-046000Y023000
X-045847Y-000381
X-069088Y-001397
X-068834Y021463
X-073025Y026162
X-076962Y030734
X-031115Y037846
X-024000Y069000
X-061976Y066675
X-017000Y088000
X-016256Y035814
X-018542Y035052
X-018542Y029210
X-058166Y030734
X-060325Y050927
X-065151Y016510
X-060960Y016129
X-063000Y006000
X-023876Y043434
X020320Y-010287
X-078105Y-010033
X011684Y029083
X016002Y-005715
X-030861Y022479
X020955Y010668
X-050038Y070993
X-050038Y088773
X-060325Y084328
X021082Y036195
X-073000Y077000
X-075057Y074422
X-061999Y013000
X-057000Y008000
X-092000Y-007000
X-090000Y-012000
X-037000Y-011000
T03
X-063119Y-003302
X-088011Y084455
T04
X014351Y070739
X-013716Y049404
X-011430Y050293
X-081999Y026000
M30
