M48
METRIC,LZ,000.000
;FILE_FORMAT=3:3
;TYPE=PLATED
;Layer: PTH_Through
;EasyEDA v6.5.54, 2026-02-11 06:23:56
;3bbecb6fe9b747f29c0abc7b8abece35,92e600de7ff74937a4e092c024f19ce6,10
;Gerber Generator version 0.2
;Holesize 1 = 0.310 mm
T01C0.310
;Holesize 2 = 0.600 mm
T02C0.600
;Holesize 3 = 0.701 mm
T03C0.701
;Holesize 4 = 0.762 mm
T04C0.762
;Holesize 5 = 0.800 mm
T05C0.800
;Holesize 6 = 0.901 mm
T06C0.901
;Holesize 7 = 0.915 mm
T07C0.915
;Holesize 8 = 1.000 mm
T08C1.000
;Holesize 9 = 1.101 mm
T09C1.101
;Holesize 10 = 1.200 mm
T10C1.200
;Holesize 11 = 1.501 mm
T11C1.501
;Holesize 12 = 2.200 mm
T12C2.200
%
G05
G90
T01
X-037000Y-011000
X-090000Y-011000
X-041000Y010579
X-041000Y-007000
X-092000Y-007000
T02
X-056000Y018000
T03
X-092000Y038000
X-008890Y022352
X-013000Y094000
X-011000Y094000
X-022000Y094000
T04
X-065082Y023498G85X-065082Y023492
X-067065Y023498G85X-067065Y023492
X-061065Y023498G85X-061065Y023492
X-063065Y023498G85X-063065Y023492
T05
X-083137Y017117G85X-081437Y017117
X-075187Y016767G85X-075187Y018467
X-080437Y024317G85X-078737Y024317
X-079437Y026917G85X-077737Y026917
X-086487Y020867G85X-086487Y022567
X-083143Y000755G85X-081443Y000755
X-075308Y000413G85X-075308Y002113
X-080443Y007955G85X-078743Y007955
X-079443Y010555G85X-077743Y010555
X-086493Y004505G85X-086493Y006205
X-043561Y004445
X-043688Y000762
X-084963Y012827
X-086233Y067056
X-019431Y000762
X-086007Y082186
X020447Y000381
X-084836Y-005080
X018288Y-008001
X018288Y005588
X003683Y004699
X005080Y026797
X-013716Y049403
X-013462Y019812
X-011430Y050292
X-023749Y007239
X-027000Y009000
X-029718Y031115
X-026289Y040640
X001270Y010033
X-003000Y012000
X-002159Y074803
X-016383Y025781
X-016637Y033147
X011684Y081407
X-040005Y041148
X-039751Y063754
X-032766Y048641
X-026000Y061000
X-009398Y061849
X-009398Y055626
X-042799Y028702
X-042926Y066675
X-058293Y041148
X-043561Y080137
X014224Y043815
X-045339Y038735
X-045339Y082169
X017018Y087249
X016764Y032385
X-047879Y031242
X-047879Y084455
X019050Y089281
X018923Y041275
X-057000Y005000
X-066167Y050673
X-066802Y064389
X-050165Y025908
X-056000Y081000
X-046000Y023000
X-045847Y-000381
X-069088Y-001397
X-068834Y021463
X-073025Y026162
X-076962Y030734
X-031115Y037846
X-024000Y069000
X-061976Y066675
X-017000Y088000
X-016256Y035814
X-018542Y035052
X-018542Y029210
X-058166Y030734
X-060325Y050927
X-065151Y016510
X-060960Y016129
X-063000Y006000
X-023876Y043434
X-090000Y040000
X020320Y-010287
X-078105Y-010033
X011684Y029083
X016002Y-005715
X006731Y013462
X021082Y029210
X-030861Y022479
X020955Y010668
X-050038Y070993
X-050038Y088773
X-060325Y084328
X021082Y036195
X-073000Y077000
X-075057Y074422
X-061999Y013000
X-057000Y008000
X-092000Y-007000
X-090000Y-012000
X-037000Y-011000
X-086000Y038000
T06
X-037609Y008028
X-037609Y010579
X-037609Y013129
X-037609Y051387
X-037609Y025882
X-037609Y036084
X-037609Y041185
X-037609Y023331
X-037609Y043735
X-037609Y038634
X-037609Y033533
X-037609Y053937
X-037609Y048836
X-037609Y028432
X-037609Y018230
X-037609Y015680
X-037609Y020781
X-037609Y056488
X-037609Y030983
X-037609Y046286
X-053069Y046286
X-053069Y030983
X-053069Y056488
X-053069Y020781
X-053069Y015680
X-053069Y028432
X-053069Y048836
X-053069Y053937
X-053069Y033533
X-053069Y038634
X-053069Y043735
X-053069Y023331
X-053069Y041185
X-053069Y036084
X-053069Y025882
X-053069Y051387
X-053069Y013129
X-053069Y010579
X-053069Y008028
X-063119Y-003302
X006731Y-006096
X-006096Y015621
X-058420Y068961
X-088011Y084455
X-077000Y023000
X-081999Y026000
X-035000Y035000
X-063000Y037000
X-063000Y034000
X-065000Y020000
X-063000Y027000
X-061000Y021000
X-004000Y082000
X-062000Y073000
X-064997Y083780
X-064997Y081240
X-064997Y078700
X-065000Y076000
X-064997Y073620
X-064997Y071081
X-064997Y068540
X-064997Y066001
T07
X021082Y056007
X021209Y076454
X-033528Y051943
X-080518Y056134
X-035052Y060325
X-071501Y004826
X-078867Y053721
X-071501Y021590
X-088265Y000635
T08
X-034189Y043540
X-034189Y040540
X-034189Y037540
X-019689Y038013
X-019689Y043013
X-002921Y025957G85X-002921Y025957
X-002921Y022457
X-053069Y018230
X014351Y070739
X-013716Y049404
X-011430Y050293
X-050165Y025908
X-081999Y026000
T09
X-065122Y038187G85X-065067Y038187
X-058123Y038187G85X-058068Y038187
X-065122Y033187G85X-065067Y033187
X-058123Y033187G85X-058068Y033187
X010668Y-002159
X010668Y000381
X010668Y002921
X010668Y005461
X010668Y008001
X014450Y029210G85X014506Y029210
X014450Y019050G85X014506Y019050
X014450Y021590G85X014506Y021590
X014450Y024130G85X014506Y024130
X014450Y026670G85X014506Y026670
X-033347Y-008382
X-033347Y014422
X-019347Y014422
X-030816Y014422
X-021887Y014422
X-030808Y-008384
X-070993Y050673
X-070993Y048133
X-070993Y045593
X-070993Y043053
X-070993Y040513
X-070993Y037973
X-070993Y035433
X-070993Y032893
X-068580Y050673
X-068580Y048133
X-068580Y045593
X-068580Y043053
X-068580Y040513
X-068580Y037973
X-068580Y035433
X-068580Y032893
X-006719Y041362
X-006719Y038862
X-006719Y036362
X007781Y036362
X007781Y041362
X-006742Y081494
X-006742Y078994
X-006742Y076494
X007758Y076494
X007758Y081494
X-006615Y060793
X-006615Y058293
X-006615Y055793
X007885Y055793
X007885Y060793
X-043000Y013000
T10
X-019347Y-008382
X-021898Y-008391
T11
X-026989Y046013G85X-026389Y046013
X-026989Y035013G85X-026389Y035013
X000481Y044362G85X001081Y044362
X000481Y033362G85X001081Y033362
X000458Y084494G85X001058Y084494
X000458Y073494G85X001058Y073494
X000585Y063793G85X001185Y063793
X000585Y052793G85X001185Y052793
T12
X-011303Y-002286
X-011303Y007747
M30
