G04 Layer: BottomSilkscreenLayer*
G04 EasyEDA v6.5.54, 2026-02-11 06:23:56*
G04 3bbecb6fe9b747f29c0abc7b8abece35,92e600de7ff74937a4e092c024f19ce6,10*
G04 Gerber Generator version 0.2*
G04 Scale: 100 percent, Rotated: No, Reflected: No *
G04 Dimensions in millimeters *
G04 leading zeros omitted , absolute positions ,4 integer and 5 decimal *
%FSLAX45Y45*%
%MOMM*%

%ADD10C,0.1270*%
%ADD11C,0.0140*%

%LPD*%
G36*
X-2977388Y6800596D02*
G01*
X-3010916Y6798360D01*
X-3029559Y6789521D01*
X-3044850Y6772605D01*
X-3044850Y6769404D01*
X-3051251Y6758838D01*
X-3051251Y6285433D01*
X-3042208Y6269278D01*
X-3028899Y6255461D01*
X-3017164Y6249162D01*
X-2996692Y6244640D01*
X-2981807Y6246520D01*
X-2966313Y6251498D01*
X-2953258Y6261506D01*
X-2946450Y6268161D01*
X-2936189Y6288074D01*
X-2934766Y6684873D01*
X-2931058Y6688328D01*
X-2747264Y6689699D01*
X-2727858Y6697319D01*
X-2711399Y6711543D01*
X-2701899Y6729577D01*
X-2701848Y6758838D01*
X-2710586Y6776110D01*
X-2724404Y6788861D01*
X-2738729Y6796430D01*
X-2754376Y6799376D01*
X-2761488Y6800291D01*
G37*
G36*
X-1502816Y6800443D02*
G01*
X-1511350Y6799529D01*
X-1534109Y6797903D01*
X-1559661Y6795211D01*
X-1602232Y6783120D01*
X-1615033Y6776770D01*
X-1619656Y6776770D01*
X-1626412Y6771792D01*
X-1636928Y6766814D01*
X-1659077Y6755130D01*
X-1678838Y6740194D01*
X-1684680Y6735572D01*
X-1702816Y6720230D01*
X-1730146Y6689648D01*
X-1735785Y6681774D01*
X-1749298Y6659067D01*
X-1752701Y6652463D01*
X-1756562Y6648043D01*
X-1763725Y6629857D01*
X-1767382Y6616344D01*
X-1770481Y6610959D01*
X-1778000Y6583273D01*
X-1781860Y6531457D01*
X-1781962Y6306261D01*
X-1778914Y6285738D01*
X-1770329Y6271463D01*
X-1758137Y6259677D01*
X-1740357Y6251295D01*
X-1722120Y6248654D01*
X-1703476Y6251651D01*
X-1689252Y6258407D01*
X-1675536Y6270447D01*
X-1664766Y6288074D01*
X-1663242Y6556705D01*
X-1656638Y6580631D01*
X-1648053Y6603847D01*
X-1644192Y6606895D01*
X-1644192Y6609994D01*
X-1634947Y6623253D01*
X-1626412Y6633667D01*
X-1616456Y6644335D01*
X-1610563Y6649770D01*
X-1596593Y6660946D01*
X-1589227Y6666280D01*
X-1563827Y6678422D01*
X-1534668Y6686296D01*
X-1503273Y6689445D01*
X-1471574Y6686346D01*
X-1442415Y6678371D01*
X-1417574Y6666179D01*
X-1397355Y6651752D01*
X-1383487Y6638950D01*
X-1376426Y6630162D01*
X-1368856Y6621780D01*
X-1355598Y6597903D01*
X-1347216Y6574739D01*
X-1342390Y6540754D01*
X-1343253Y6459118D01*
X-1338529Y6403797D01*
X-1331671Y6384696D01*
X-1331569Y6381191D01*
X-1326083Y6370523D01*
X-1325829Y6366560D01*
X-1314653Y6347917D01*
X-1310487Y6339281D01*
X-1287170Y6312052D01*
X-1274927Y6300978D01*
X-1253083Y6285433D01*
X-1240028Y6278270D01*
X-1222248Y6268872D01*
X-1214475Y6267145D01*
X-1211630Y6265062D01*
X-1193241Y6260592D01*
X-1187704Y6257848D01*
X-1160475Y6253937D01*
X-1070965Y6252006D01*
X-600760Y6252413D01*
X-570941Y6255258D01*
X-562406Y6257137D01*
X-535432Y6265214D01*
X-512724Y6276390D01*
X-498500Y6285382D01*
X-488645Y6293408D01*
X-473303Y6306718D01*
X-455879Y6327241D01*
X-441198Y6354572D01*
X-433933Y6375857D01*
X-428955Y6398463D01*
X-428955Y6441033D01*
X-436727Y6468008D01*
X-442569Y6480911D01*
X-451408Y6498183D01*
X-467563Y6520789D01*
X-470763Y6526580D01*
X-459993Y6539433D01*
X-449478Y6554317D01*
X-449478Y6556705D01*
X-444906Y6564680D01*
X-436626Y6583273D01*
X-429209Y6611213D01*
X-428040Y6644436D01*
X-432155Y6667093D01*
X-436372Y6683044D01*
X-443534Y6701637D01*
X-459333Y6728206D01*
X-478586Y6749643D01*
X-499922Y6766915D01*
X-513181Y6775399D01*
X-520903Y6778142D01*
X-528523Y6783273D01*
X-541121Y6787540D01*
X-565251Y6795008D01*
X-590854Y6798716D01*
X-1034034Y6798716D01*
X-1050747Y6792772D01*
X-1065530Y6783273D01*
X-1075588Y6770776D01*
X-1081887Y6757466D01*
X-1083360Y6736232D01*
X-1075994Y6716522D01*
X-1064107Y6702145D01*
X-1058214Y6699300D01*
X-1052525Y6694779D01*
X-1036878Y6688328D01*
X-590854Y6687007D01*
X-575411Y6680860D01*
X-563829Y6672478D01*
X-557580Y6665925D01*
X-550367Y6653479D01*
X-545998Y6633921D01*
X-550519Y6615226D01*
X-555701Y6604558D01*
X-568096Y6592417D01*
X-583742Y6584391D01*
X-590854Y6582054D01*
X-1032611Y6580631D01*
X-1051153Y6574739D01*
X-1068628Y6562598D01*
X-1077163Y6550050D01*
X-1083360Y6532778D01*
X-1081887Y6511493D01*
X-1074267Y6495542D01*
X-1064615Y6484467D01*
X-1051102Y6475374D01*
X-1031189Y6468922D01*
X-588010Y6467602D01*
X-571500Y6460032D01*
X-554482Y6445300D01*
X-551281Y6439712D01*
X-546506Y6419646D01*
X-548589Y6403797D01*
X-552653Y6393027D01*
X-561746Y6380683D01*
X-573786Y6371539D01*
X-583184Y6367068D01*
X-604570Y6363208D01*
X-1015593Y6363512D01*
X-1157630Y6365392D01*
X-1171854Y6370167D01*
X-1187450Y6377178D01*
X-1208786Y6397345D01*
X-1214983Y6405321D01*
X-1217015Y6413093D01*
X-1222959Y6423710D01*
X-1224737Y6556705D01*
X-1229156Y6577990D01*
X-1231087Y6596583D01*
X-1235252Y6607251D01*
X-1240637Y6624523D01*
X-1247648Y6643116D01*
X-1256233Y6657746D01*
X-1267815Y6678574D01*
X-1274114Y6687007D01*
X-1300175Y6717690D01*
X-1315313Y6730949D01*
X-1345895Y6754672D01*
X-1379220Y6772402D01*
X-1387754Y6776516D01*
X-1400556Y6781800D01*
X-1434642Y6791604D01*
X-1441754Y6793890D01*
X-1457350Y6796531D01*
X-1497126Y6799580D01*
G37*
G36*
X163474Y6795312D02*
G01*
X-154686Y6794703D01*
X-181711Y6788810D01*
X-202996Y6781952D01*
X-232816Y6767118D01*
X-252679Y6752183D01*
X-265633Y6740194D01*
X-281482Y6721602D01*
X-294589Y6699808D01*
X-301294Y6685584D01*
X-305003Y6671056D01*
X-308711Y6665722D01*
X-312013Y6622694D01*
X-308762Y6591604D01*
X-306273Y6587236D01*
X-301548Y6570014D01*
X-297942Y6564680D01*
X-293268Y6551777D01*
X-271830Y6521450D01*
X-251307Y6501993D01*
X-237998Y6492036D01*
X-237032Y6486245D01*
X-241350Y6479590D01*
X-250545Y6470142D01*
X-262382Y6454292D01*
X-271424Y6443675D01*
X-287375Y6413093D01*
X-294182Y6395161D01*
X-302158Y6371844D01*
X-305866Y6350609D01*
X-308965Y6337300D01*
X-309422Y6289446D01*
X-299212Y6270802D01*
X-287528Y6258407D01*
X-272389Y6250432D01*
X-252933Y6245860D01*
X-232816Y6249111D01*
X-215798Y6256426D01*
X-203809Y6267399D01*
X-196138Y6278778D01*
X-192481Y6290157D01*
X-186639Y6345275D01*
X-181152Y6358585D01*
X-177850Y6370523D01*
X-175361Y6373418D01*
X-162661Y6397345D01*
X-149047Y6412941D01*
X-141935Y6420104D01*
X-123647Y6434175D01*
X-100634Y6446570D01*
X-85090Y6450025D01*
X-70002Y6454902D01*
X-24028Y6460388D01*
X-9804Y6463284D01*
X4978Y6471056D01*
X16814Y6483553D01*
X25450Y6500825D01*
X25704Y6530085D01*
X16916Y6547408D01*
X4064Y6560667D01*
X-14071Y6569100D01*
X-19761Y6571132D01*
X-147624Y6572707D01*
X-164490Y6579006D01*
X-184556Y6597954D01*
X-194208Y6621018D01*
X-192328Y6639915D01*
X-185521Y6655612D01*
X-177444Y6665671D01*
X-167792Y6673697D01*
X-157886Y6680047D01*
X-143357Y6683654D01*
X89814Y6683705D01*
X94488Y6680352D01*
X95402Y6443675D01*
X105714Y6405118D01*
X111404Y6390487D01*
X117449Y6378498D01*
X120192Y6374536D01*
X125882Y6362547D01*
X133654Y6351524D01*
X147878Y6332016D01*
X176377Y6305397D01*
X205892Y6285026D01*
X238760Y6269228D01*
X255828Y6263741D01*
X275742Y6257950D01*
X309829Y6252362D01*
X612394Y6251295D01*
X645058Y6254394D01*
X680313Y6258102D01*
X697636Y6263284D01*
X727456Y6271818D01*
X767232Y6290970D01*
X778510Y6297015D01*
X819810Y6329578D01*
X848614Y6361430D01*
X862685Y6381191D01*
X884428Y6421069D01*
X884428Y6424117D01*
X898448Y6463639D01*
X902106Y6491528D01*
X902208Y6542074D01*
X898245Y6573926D01*
X884275Y6613855D01*
X877011Y6631178D01*
X874725Y6633819D01*
X862736Y6655104D01*
X857453Y6661454D01*
X857453Y6664553D01*
X852474Y6669836D01*
X842771Y6681673D01*
X836218Y6688328D01*
X821994Y6704634D01*
X797052Y6724192D01*
X779678Y6739128D01*
X731570Y6763156D01*
X687679Y6776466D01*
X664972Y6780631D01*
X616661Y6784949D01*
X441909Y6784086D01*
X420573Y6774484D01*
X403199Y6757111D01*
X395478Y6738569D01*
X396494Y6714947D01*
X404164Y6699554D01*
X420624Y6683298D01*
X436219Y6676694D01*
X444754Y6673900D01*
X637946Y6672021D01*
X657860Y6669278D01*
X685647Y6660845D01*
X704748Y6651548D01*
X721664Y6640728D01*
X740105Y6626098D01*
X755040Y6608572D01*
X760425Y6601917D01*
X776224Y6573977D01*
X778256Y6564680D01*
X782167Y6557518D01*
X785317Y6518097D01*
X782320Y6479489D01*
X776935Y6467602D01*
X775208Y6459321D01*
X766622Y6446316D01*
X759561Y6434378D01*
X747369Y6419392D01*
X733653Y6405676D01*
X715924Y6391605D01*
X689762Y6377787D01*
X674878Y6372758D01*
X652170Y6366154D01*
X606704Y6362954D01*
X311251Y6363970D01*
X283819Y6372352D01*
X268630Y6379565D01*
X260502Y6385153D01*
X239115Y6403797D01*
X226821Y6421069D01*
X219811Y6435699D01*
X216611Y6447637D01*
X212496Y6457696D01*
X212496Y6736232D01*
X209804Y6757924D01*
X200710Y6773418D01*
X191922Y6782206D01*
X178714Y6790181D01*
G37*
G36*
X-1975866Y6795109D02*
G01*
X-2436164Y6794500D01*
X-2457450Y6790181D01*
X-2468829Y6787286D01*
X-2480208Y6783171D01*
X-2512415Y6768134D01*
X-2535580Y6750913D01*
X-2552141Y6735013D01*
X-2557729Y6725564D01*
X-2566111Y6713626D01*
X-2570683Y6704279D01*
X-2574188Y6700316D01*
X-2582875Y6679031D01*
X-2588869Y6661607D01*
X-2591553Y6631279D01*
X-2475077Y6631279D01*
X-2471521Y6647434D01*
X-2459634Y6665722D01*
X-2449017Y6673697D01*
X-2437638Y6679895D01*
X-2422042Y6683705D01*
X-2051202Y6683654D01*
X-2044090Y6680301D01*
X-2043531Y6578803D01*
X-2049272Y6571996D01*
X-2421128Y6571996D01*
X-2442108Y6578244D01*
X-2455164Y6586626D01*
X-2464917Y6597903D01*
X-2472436Y6611924D01*
X-2475077Y6631279D01*
X-2591553Y6631279D01*
X-2591917Y6627164D01*
X-2590038Y6600901D01*
X-2585720Y6585966D01*
X-2583281Y6576364D01*
X-2574340Y6555384D01*
X-2568549Y6546088D01*
X-2545994Y6513728D01*
X-2534005Y6503517D01*
X-2519273Y6493002D01*
X-2519273Y6489750D01*
X-2517698Y6485940D01*
X-2534158Y6467195D01*
X-2552039Y6444386D01*
X-2555849Y6434378D01*
X-2562047Y6422390D01*
X-2568956Y6410045D01*
X-2569006Y6406438D01*
X-2572918Y6399428D01*
X-2583078Y6366560D01*
X-2584856Y6351930D01*
X-2587650Y6343243D01*
X-2589885Y6306718D01*
X-2587650Y6288074D01*
X-2581300Y6274816D01*
X-2572512Y6263894D01*
X-2561183Y6255715D01*
X-2546959Y6248857D01*
X-2525369Y6247180D01*
X-2510028Y6250533D01*
X-2496870Y6257086D01*
X-2482596Y6270802D01*
X-2474925Y6284722D01*
X-2472486Y6304076D01*
X-2468118Y6344005D01*
X-2460802Y6365240D01*
X-2449423Y6386474D01*
X-2440432Y6400190D01*
X-2421940Y6419900D01*
X-2402078Y6434480D01*
X-2380742Y6446316D01*
X-2358034Y6452362D01*
X-2340203Y6456172D01*
X-2306370Y6460286D01*
X-2050796Y6460286D01*
X-2044090Y6455206D01*
X-2042668Y6288074D01*
X-2032965Y6271361D01*
X-2021992Y6260744D01*
X-2006650Y6251600D01*
X-1992934Y6248704D01*
X-1973072Y6248704D01*
X-1964537Y6251244D01*
X-1951736Y6256731D01*
X-1935530Y6270904D01*
X-1926183Y6289446D01*
X-1926183Y6753504D01*
X-1935886Y6772909D01*
X-1952955Y6787692D01*
X-1965960Y6793077D01*
G37*
G36*
X441909Y6095847D02*
G01*
X424789Y6092393D01*
X411581Y6085179D01*
X401116Y6074308D01*
X394004Y6059779D01*
X394004Y6036767D01*
X402844Y6020511D01*
X415391Y6009690D01*
X427735Y6003544D01*
X593902Y6002883D01*
X599592Y6001664D01*
X603199Y5996178D01*
X603148Y5611266D01*
X605993Y5590184D01*
X611682Y5579160D01*
X621436Y5568543D01*
X639368Y5559399D01*
X666394Y5559450D01*
X681177Y5566714D01*
X691032Y5574792D01*
X699770Y5589320D01*
X702106Y5607304D01*
X701903Y6060694D01*
X694893Y6074003D01*
X683768Y6085281D01*
X673709Y6091123D01*
X656437Y6095746D01*
G37*
G36*
X-2609799Y6090615D02*
G01*
X-2626156Y6083858D01*
X-2635910Y6076899D01*
X-2646121Y6062522D01*
X-2648407Y6051397D01*
X-2648508Y5589676D01*
X-2645664Y5575503D01*
X-2635046Y5561025D01*
X-2612288Y5550611D01*
X-2583891Y5551627D01*
X-2563266Y5561736D01*
X-2552649Y5578043D01*
X-2552649Y6060694D01*
X-2561285Y6074460D01*
X-2575356Y6085382D01*
X-2585313Y6087973D01*
X-2589580Y6090615D01*
G37*
G36*
X-3005328Y6090615D02*
G01*
X-3022854Y6083046D01*
X-3033826Y6071666D01*
X-3040735Y6057595D01*
X-3043428Y6042101D01*
X-3043428Y5592419D01*
X-3036265Y5571388D01*
X-3026562Y5559044D01*
X-3010052Y5551525D01*
X-2978810Y5551525D01*
X-2960319Y5561076D01*
X-2951327Y5571947D01*
X-2945434Y5586780D01*
X-2945434Y6052718D01*
X-2950413Y6064707D01*
X-2957118Y6075730D01*
X-2970276Y6085128D01*
X-2984500Y6090513D01*
G37*
G36*
X160629Y6090310D02*
G01*
X-418947Y6089954D01*
X-437642Y6081725D01*
X-449173Y6070447D01*
X-457149Y6056782D01*
X-458368Y6034938D01*
X-449834Y6018174D01*
X-439013Y6006541D01*
X-428904Y6002578D01*
X-414680Y5998413D01*
X162052Y5996889D01*
X170586Y5992469D01*
X180949Y5982258D01*
X186029Y5972962D01*
X186182Y5954318D01*
X177139Y5941060D01*
X162407Y5931712D01*
X-373481Y5930290D01*
X-396900Y5924448D01*
X-414274Y5916269D01*
X-428904Y5906820D01*
X-443941Y5893155D01*
X-458012Y5874105D01*
X-458012Y5872632D01*
X-464820Y5858611D01*
X-471017Y5835243D01*
X-469900Y5812078D01*
X-464820Y5791149D01*
X-458571Y5778804D01*
X-448919Y5763107D01*
X-432409Y5746546D01*
X-417525Y5735828D01*
X-401878Y5728817D01*
X-396748Y5726176D01*
X-374904Y5720384D01*
X159258Y5718962D01*
X165100Y5716320D01*
X178409Y5708345D01*
X178409Y5705652D01*
X186232Y5695035D01*
X186131Y5676442D01*
X177088Y5661812D01*
X162407Y5652516D01*
X-424637Y5651144D01*
X-433730Y5646521D01*
X-437946Y5646521D01*
X-455269Y5633008D01*
X-464210Y5616600D01*
X-464362Y5592673D01*
X-455168Y5576163D01*
X-443077Y5565089D01*
X-427482Y5558078D01*
X164896Y5558078D01*
X194767Y5564276D01*
X220776Y5575960D01*
X243484Y5592013D01*
X257352Y5607304D01*
X264515Y5616600D01*
X273913Y5632348D01*
X279501Y5647182D01*
X283210Y5660491D01*
X286816Y5683504D01*
X285089Y5697677D01*
X280974Y5722366D01*
X276809Y5728309D01*
X274777Y5737606D01*
X267919Y5747512D01*
X267919Y5749696D01*
X258825Y5761532D01*
X245211Y5776468D01*
X222910Y5792419D01*
X201574Y5803138D01*
X169164Y5811875D01*
X-360680Y5813399D01*
X-369824Y5818581D01*
X-371094Y5821629D01*
X-369214Y5829808D01*
X-362864Y5836666D01*
X133654Y5836716D01*
X176580Y5839206D01*
X206552Y5848604D01*
X224586Y5858510D01*
X240182Y5869127D01*
X253187Y5881217D01*
X265938Y5897168D01*
X279247Y5922568D01*
X283311Y5941060D01*
X286359Y5958636D01*
X286359Y5971794D01*
X281787Y5996838D01*
X272389Y6018174D01*
X265938Y6030112D01*
X246634Y6052972D01*
X233121Y6063437D01*
X222504Y6070803D01*
X194767Y6083604D01*
X167741Y6089294D01*
G37*
G36*
X879449Y6086602D02*
G01*
X861618Y6083909D01*
X844702Y6075629D01*
X828090Y6059373D01*
X820419Y6044996D01*
X817118Y6025286D01*
X820521Y6006846D01*
X829462Y5991555D01*
X841095Y5980023D01*
X855421Y5971336D01*
X865276Y5968542D01*
X884224Y5965190D01*
X906475Y5969762D01*
X919226Y5975502D01*
X932891Y5987440D01*
X941425Y5999226D01*
X947013Y6012840D01*
X948740Y6028893D01*
X942746Y6050940D01*
X934872Y6063335D01*
X920191Y6076696D01*
X904849Y6083960D01*
X889406Y6086348D01*
G37*
G36*
X-883462Y6086348D02*
G01*
X-2343810Y6085992D01*
X-2360879Y6076848D01*
X-2371547Y6066028D01*
X-2377897Y6054090D01*
X-2377897Y6027470D01*
X-2370988Y6014313D01*
X-2361641Y6004610D01*
X-2342134Y5996228D01*
X-880618Y5995466D01*
X-847750Y5989878D01*
X-823823Y5982817D01*
X-793953Y5968949D01*
X-776071Y5956350D01*
X-774700Y5956350D01*
X-757428Y5941060D01*
X-738530Y5919774D01*
X-730300Y5907836D01*
X-719531Y5888837D01*
X-708152Y5857036D01*
X-704545Y5828030D01*
X-704545Y5808065D01*
X-708152Y5779312D01*
X-717600Y5752236D01*
X-725474Y5737606D01*
X-731520Y5726938D01*
X-741781Y5712307D01*
X-759866Y5693511D01*
X-771144Y5684418D01*
X-785723Y5673191D01*
X-803910Y5663336D01*
X-826058Y5653176D01*
X-829005Y5653176D01*
X-850188Y5646318D01*
X-886307Y5642000D01*
X-2343810Y5640527D01*
X-2357221Y5634126D01*
X-2367229Y5626404D01*
X-2377897Y5608624D01*
X-2377897Y5582005D01*
X-2371039Y5569000D01*
X-2362606Y5559958D01*
X-2345232Y5551424D01*
X-880618Y5550712D01*
X-850900Y5553456D01*
X-812444Y5560060D01*
X-785469Y5567629D01*
X-758444Y5580329D01*
X-736955Y5591454D01*
X-727202Y5597804D01*
X-712978Y5608675D01*
X-690270Y5626506D01*
X-678281Y5639206D01*
X-652475Y5668467D01*
X-639419Y5693714D01*
X-627430Y5716320D01*
X-615492Y5750915D01*
X-610057Y5773521D01*
X-605536Y5816041D01*
X-608736Y5854598D01*
X-612902Y5877204D01*
X-621690Y5903823D01*
X-628446Y5922772D01*
X-636117Y5937046D01*
X-639521Y5941060D01*
X-641553Y5947714D01*
X-650290Y5964986D01*
X-657606Y5974283D01*
X-681075Y6001359D01*
X-708761Y6023660D01*
X-731469Y6040678D01*
X-774039Y6062878D01*
X-786892Y6068314D01*
X-811022Y6074968D01*
X-840841Y6082792D01*
G37*
G36*
X-893419Y5944057D02*
G01*
X-2339543Y5943701D01*
X-2356002Y5937453D01*
X-2371445Y5923737D01*
X-2377694Y5910478D01*
X-2378913Y5890514D01*
X-2374138Y5875070D01*
X-2360574Y5859830D01*
X-2340762Y5851296D01*
X-887679Y5850636D01*
X-873506Y5842050D01*
X-865784Y5832906D01*
X-862888Y5820918D01*
X-865682Y5807303D01*
X-873353Y5797854D01*
X-887730Y5790133D01*
X-2332431Y5790082D01*
X-2347468Y5786323D01*
X-2359456Y5780582D01*
X-2368804Y5772200D01*
X-2375458Y5761532D01*
X-2380335Y5745226D01*
X-2375916Y5725261D01*
X-2367940Y5713577D01*
X-2356612Y5704179D01*
X-2339238Y5697067D01*
X-886307Y5697067D01*
X-869187Y5699404D01*
X-848664Y5705144D01*
X-832256Y5712409D01*
X-823366Y5718302D01*
X-820978Y5718352D01*
X-806754Y5730544D01*
X-803656Y5732272D01*
X-784047Y5754928D01*
X-775106Y5772150D01*
X-770382Y5782157D01*
X-766114Y5804103D01*
X-763625Y5821121D01*
X-770382Y5857290D01*
X-778662Y5875883D01*
X-785266Y5886500D01*
X-797966Y5902452D01*
X-814933Y5916980D01*
X-825246Y5923940D01*
X-843686Y5933490D01*
X-865022Y5940602D01*
G37*
G36*
X-2811272Y5873902D02*
G01*
X-2827629Y5869889D01*
X-2839161Y5864402D01*
X-2851556Y5853734D01*
X-2858973Y5841847D01*
X-2864764Y5825337D01*
X-2864561Y5813653D01*
X-2856992Y5792419D01*
X-2838196Y5774588D01*
X-2818282Y5767730D01*
X-2804769Y5766003D01*
X-2782773Y5771642D01*
X-2769463Y5779617D01*
X-2759252Y5791301D01*
X-2750820Y5809894D01*
X-2750820Y5830112D01*
X-2760065Y5850229D01*
X-2772816Y5862675D01*
X-2788716Y5871210D01*
X-2804058Y5873597D01*
G37*
G36*
X-4504334Y7304176D02*
G01*
X-5667197Y7301992D01*
X-5804103Y7297115D01*
X-5849366Y7290866D01*
X-5893003Y7287869D01*
X-5923788Y7281367D01*
X-5964834Y7277252D01*
X-5985357Y7272477D01*
X-6021273Y7264958D01*
X-6057188Y7258913D01*
X-6095085Y7249668D01*
X-6100826Y7245654D01*
X-6128715Y7240422D01*
X-6134404Y7236256D01*
X-6154724Y7231786D01*
X-6190691Y7219848D01*
X-6208268Y7215174D01*
X-6226505Y7206538D01*
X-6231382Y7206538D01*
X-6295847Y7179868D01*
X-6324092Y7167829D01*
X-6365189Y7147661D01*
X-6377990Y7141870D01*
X-6457492Y7096556D01*
X-6481267Y7080656D01*
X-6495592Y7071563D01*
X-6526784Y7049566D01*
X-6529374Y7046315D01*
X-6557568Y7026859D01*
X-6580467Y7008469D01*
X-5999480Y7008469D01*
X-5989777Y7033006D01*
X-5975400Y7055459D01*
X-5957062Y7071563D01*
X-5924651Y7086752D01*
X-5885281Y7088022D01*
X-5859983Y7086041D01*
X-5846775Y7078370D01*
X-5827776Y7069836D01*
X-5808167Y7048906D01*
X-5799836Y7037273D01*
X-5796917Y7028484D01*
X-5771083Y7028484D01*
X-5771083Y7056983D01*
X-5764174Y7071563D01*
X-5742889Y7088581D01*
X-5723636Y7087920D01*
X-5704433Y7085177D01*
X-5676290Y7067042D01*
X-5673090Y7054240D01*
X-5675934Y7051700D01*
X-5682538Y7054748D01*
X-5695391Y7061301D01*
X-5714898Y7061352D01*
X-5727446Y7050227D01*
X-5727481Y7049770D01*
X-5673598Y7049770D01*
X-5669026Y7052259D01*
X-5663641Y7046468D01*
X-5667908Y7040321D01*
X-5673598Y7049770D01*
X-5727481Y7049770D01*
X-5728208Y7039813D01*
X-5727792Y7030212D01*
X-5660796Y7030212D01*
X-5654344Y7037070D01*
X-5651652Y7081520D01*
X-5649214Y7083552D01*
X-5618124Y7086650D01*
X-5610758Y7078827D01*
X-5609082Y6926376D01*
X-5609322Y6909511D01*
X-5578602Y6909511D01*
X-5578449Y6921855D01*
X-5570931Y6930644D01*
X-5570931Y6938619D01*
X-5565749Y6941413D01*
X-5543499Y6925259D01*
X-5522874Y6925259D01*
X-5509260Y6934708D01*
X-5501640Y6947712D01*
X-5501640Y7049922D01*
X-5514035Y7057085D01*
X-5557977Y7053935D01*
X-5570931Y7061453D01*
X-5570931Y7077557D01*
X-5565241Y7086904D01*
X-5519877Y7083907D01*
X-5501640Y7090613D01*
X-5501640Y7120636D01*
X-5496306Y7129424D01*
X-5492699Y7129119D01*
X-5467045Y7113778D01*
X-5458002Y7106716D01*
X-5458002Y7093508D01*
X-5454904Y7086295D01*
X-5429808Y7086295D01*
X-5419039Y7076795D01*
X-5422544Y7060234D01*
X-5427472Y7055713D01*
X-5456732Y7053427D01*
X-5456902Y7044944D01*
X-5394401Y7044944D01*
X-5386679Y7055713D01*
X-5383225Y7066025D01*
X-5370525Y7077252D01*
X-5367985Y7077252D01*
X-5354015Y7086396D01*
X-5313070Y7088327D01*
X-5303012Y7085787D01*
X-5289956Y7078573D01*
X-5265521Y7060946D01*
X-5265521Y7051802D01*
X-5284774Y7055103D01*
X-5326786Y7055713D01*
X-5340451Y7044334D01*
X-5345770Y7035292D01*
X-5250942Y7035292D01*
X-5249773Y7046620D01*
X-5248452Y7076084D01*
X-5247589Y7081062D01*
X-5234584Y7086295D01*
X-5206847Y7086295D01*
X-5203799Y7081977D01*
X-5203373Y6987082D01*
X-5155234Y6987082D01*
X-5155031Y7014870D01*
X-5145532Y7045706D01*
X-5137251Y7053783D01*
X-5137251Y7058812D01*
X-5113934Y7075678D01*
X-5087264Y7086752D01*
X-5035854Y7088428D01*
X-5020513Y7084568D01*
X-4918811Y7084568D01*
X-4902454Y7113778D01*
X-4869129Y7144410D01*
X-4848555Y7152233D01*
X-4833162Y7159650D01*
X-4753610Y7160971D01*
X-4738217Y7157161D01*
X-4715103Y7147001D01*
X-4691989Y7130643D01*
X-4678883Y7119213D01*
X-4660950Y7096506D01*
X-4647590Y7062470D01*
X-4644847Y7020001D01*
X-4649724Y6982053D01*
X-4659680Y6959803D01*
X-4677867Y6934708D01*
X-4700473Y6914388D01*
X-4722825Y6902907D01*
X-4758080Y6891223D01*
X-4814112Y6891223D01*
X-4848301Y6900976D01*
X-4866538Y6910273D01*
X-4884470Y6921804D01*
X-4889296Y6928662D01*
X-4903724Y6939889D01*
X-4903724Y6944207D01*
X-4910734Y6951319D01*
X-4916373Y6966203D01*
X-4913833Y6972096D01*
X-4890668Y6989216D01*
X-4878273Y6986473D01*
X-4872990Y6969506D01*
X-4853686Y6947153D01*
X-4829251Y6933895D01*
X-4799838Y6927697D01*
X-4772406Y6927545D01*
X-4744059Y6934809D01*
X-4727956Y6944715D01*
X-4712411Y6958126D01*
X-4698898Y6983120D01*
X-4692548Y7017105D01*
X-4692548Y7026198D01*
X-4698288Y7069277D01*
X-4713528Y7097064D01*
X-4728311Y7110120D01*
X-4745939Y7117638D01*
X-4766818Y7125208D01*
X-4817821Y7123430D01*
X-4841595Y7114692D01*
X-4858816Y7100925D01*
X-4873142Y7081621D01*
X-4879340Y7064806D01*
X-4887976Y7063384D01*
X-4918811Y7084568D01*
X-5020513Y7084568D01*
X-4997754Y7074458D01*
X-4967935Y7047382D01*
X-4967884Y7039813D01*
X-4957318Y7024522D01*
X-4952339Y6986168D01*
X-4959858Y6948271D01*
X-4967986Y6934453D01*
X-4979974Y6918756D01*
X-4987188Y6912660D01*
X-5012893Y6898233D01*
X-5033314Y6890664D01*
X-5093766Y6890766D01*
X-5100574Y6895795D01*
X-5124754Y6907174D01*
X-5147513Y6923938D01*
X-5147411Y6933184D01*
X-5126786Y6948373D01*
X-5119319Y6945833D01*
X-5119319Y6941566D01*
X-5094376Y6925716D01*
X-5066538Y6920585D01*
X-5031740Y6924954D01*
X-5006390Y6939330D01*
X-5006187Y6944563D01*
X-4996281Y6962698D01*
X-4996129Y6979412D01*
X-5005527Y6982002D01*
X-5147259Y6981190D01*
X-5155234Y6987082D01*
X-5203373Y6987082D01*
X-5202885Y6899148D01*
X-5206441Y6894118D01*
X-5230317Y6891731D01*
X-5245963Y6895693D01*
X-5249672Y6900976D01*
X-5250942Y7035292D01*
X-5345770Y7035292D01*
X-5347309Y7032650D01*
X-5348782Y6901586D01*
X-5357926Y6893509D01*
X-5372049Y6893052D01*
X-5392623Y6893915D01*
X-5393944Y6895084D01*
X-5394401Y7044944D01*
X-5456902Y7044944D01*
X-5459272Y6926376D01*
X-5470601Y6910527D01*
X-5494274Y6890105D01*
X-5546547Y6890461D01*
X-5578602Y6909511D01*
X-5609322Y6909511D01*
X-5609386Y6901789D01*
X-5616397Y6892340D01*
X-5646216Y6892950D01*
X-5653024Y6901180D01*
X-5653024Y7013854D01*
X-5660796Y7030212D01*
X-5727792Y7030212D01*
X-5726938Y7011670D01*
X-5739688Y7008825D01*
X-5762142Y7012686D01*
X-5771083Y7028484D01*
X-5796917Y7028484D01*
X-5790946Y7010349D01*
X-5788660Y6972858D01*
X-5799531Y6944563D01*
X-5808268Y6928662D01*
X-5824118Y6911746D01*
X-5843778Y6899960D01*
X-5869889Y6890867D01*
X-5921705Y6890867D01*
X-5941618Y6900316D01*
X-5945632Y6900316D01*
X-5968644Y6915048D01*
X-5991707Y6946798D01*
X-5991961Y6958126D01*
X-5999276Y6969506D01*
X-5999480Y7008469D01*
X-6580530Y7008418D01*
X-6603390Y6989927D01*
X-6644843Y6952792D01*
X-6670497Y6926580D01*
X-6691122Y6905955D01*
X-6712813Y6882485D01*
X-6712813Y6878320D01*
X-6723125Y6870090D01*
X-6723125Y6866280D01*
X-6732066Y6857644D01*
X-6744106Y6842455D01*
X-6752607Y6830822D01*
X-6295339Y6830822D01*
X-6285636Y6834225D01*
X-6254394Y6834530D01*
X-6250940Y6831482D01*
X-6250940Y6800088D01*
X-5475173Y6800088D01*
X-5474716Y6830669D01*
X-5464403Y6834225D01*
X-5433212Y6834530D01*
X-5429808Y6831482D01*
X-5429808Y6798716D01*
X-5437886Y6795973D01*
X-5462828Y6795973D01*
X-5475173Y6800088D01*
X-6250940Y6800088D01*
X-6250940Y6576822D01*
X-6207302Y6576822D01*
X-6207302Y6594348D01*
X-6202070Y6603136D01*
X-6189980Y6603136D01*
X-6183020Y6610553D01*
X-6182309Y6692747D01*
X-6174536Y6725818D01*
X-6161481Y6743242D01*
X-6138926Y6759549D01*
X-6103416Y6764121D01*
X-6085433Y6763613D01*
X-6057900Y6760108D01*
X-6031534Y6747509D01*
X-6004610Y6729628D01*
X-6004610Y6719773D01*
X-6026912Y6700418D01*
X-6055563Y6725107D01*
X-6088430Y6730187D01*
X-6103416Y6730187D01*
X-6120942Y6725716D01*
X-6135420Y6713474D01*
X-6138621Y6698386D01*
X-6130239Y6687058D01*
X-6120384Y6687058D01*
X-6117437Y6682841D01*
X-6098286Y6677558D01*
X-6077712Y6669278D01*
X-6032957Y6650786D01*
X-6027674Y6650786D01*
X-6027674Y6646672D01*
X-6010503Y6628485D01*
X-6003848Y6607352D01*
X-6012281Y6591655D01*
X-6012281Y6585153D01*
X-6022506Y6576822D01*
X-5961024Y6576822D01*
X-5960922Y6722211D01*
X-5948883Y6745173D01*
X-5927648Y6760006D01*
X-5895543Y6764121D01*
X-5882690Y6763766D01*
X-5861761Y6758533D01*
X-5835700Y6738112D01*
X-5833922Y6729018D01*
X-5845200Y6727596D01*
X-5858510Y6735318D01*
X-5891733Y6732981D01*
X-5908880Y6721398D01*
X-5822746Y6721398D01*
X-5817565Y6726936D01*
X-5816041Y6758533D01*
X-5777280Y6759854D01*
X-5773674Y6756653D01*
X-5773674Y6695033D01*
X-5723636Y6695033D01*
X-5711139Y6719976D01*
X-5696204Y6737045D01*
X-5665419Y6757974D01*
X-5644083Y6762496D01*
X-5608116Y6763054D01*
X-5582462Y6760311D01*
X-5578738Y6758533D01*
X-5474665Y6758533D01*
X-5429808Y6759854D01*
X-5429692Y6712610D01*
X-5383834Y6712610D01*
X-5374132Y6722211D01*
X-5357926Y6743446D01*
X-5328208Y6759397D01*
X-5295087Y6764172D01*
X-5269433Y6763918D01*
X-5241137Y6757212D01*
X-5223205Y6746443D01*
X-5193741Y6721195D01*
X-5193741Y6711848D01*
X-5183886Y6694830D01*
X-5180482Y6658711D01*
X-5185664Y6633768D01*
X-5194554Y6611061D01*
X-5211267Y6594449D01*
X-5219192Y6583730D01*
X-5229857Y6579057D01*
X-5152644Y6579057D01*
X-5152644Y6597700D01*
X-5146497Y6603136D01*
X-5135473Y6603136D01*
X-5126634Y6611823D01*
X-5125161Y6708597D01*
X-5115407Y6732981D01*
X-5095240Y6750862D01*
X-5074056Y6761886D01*
X-5023053Y6764121D01*
X-4995976Y6757466D01*
X-4979416Y6750050D01*
X-4954574Y6733590D01*
X-4947767Y6722059D01*
X-4969306Y6700164D01*
X-4999990Y6723329D01*
X-5036616Y6733031D01*
X-5064099Y6727190D01*
X-5081066Y6712203D01*
X-5079492Y6690868D01*
X-5043627Y6677914D01*
X-5028184Y6671360D01*
X-5012791Y6668160D01*
X-4992268Y6658508D01*
X-4976876Y6649669D01*
X-4958283Y6633768D01*
X-4949494Y6609943D01*
X-4958283Y6586118D01*
X-4969102Y6575856D01*
X-4900726Y6575856D01*
X-4899710Y6830720D01*
X-4889652Y6834225D01*
X-4861458Y6834428D01*
X-4855006Y6830872D01*
X-4853686Y6642912D01*
X-4844999Y6641439D01*
X-4836871Y6654190D01*
X-4826863Y6667804D01*
X-4818329Y6681419D01*
X-4800904Y6701790D01*
X-4763973Y6749440D01*
X-4732528Y6788150D01*
X-4723942Y6801612D01*
X-4695494Y6834530D01*
X-4660595Y6834530D01*
X-4654651Y6828180D01*
X-4656124Y6575755D01*
X-4663795Y6571183D01*
X-4693716Y6572808D01*
X-4698542Y6579311D01*
X-4697882Y6756247D01*
X-4701540Y6764172D01*
X-4704842Y6764070D01*
X-4748479Y6705498D01*
X-4785817Y6658711D01*
X-4793538Y6649618D01*
X-4843830Y6586118D01*
X-4859680Y6571386D01*
X-4891278Y6571386D01*
X-4900726Y6575856D01*
X-4969102Y6575856D01*
X-4970932Y6574129D01*
X-4999177Y6564579D01*
X-5016601Y6564579D01*
X-5048758Y6577990D01*
X-5065115Y6593382D01*
X-5068519Y6605422D01*
X-5061966Y6605422D01*
X-5053838Y6598970D01*
X-5025136Y6594348D01*
X-4999990Y6600037D01*
X-4993640Y6611061D01*
X-4996738Y6626961D01*
X-5014518Y6643471D01*
X-5033975Y6646214D01*
X-5040376Y6653022D01*
X-5046218Y6653022D01*
X-5070297Y6664401D01*
X-5077460Y6664401D01*
X-5086604Y6655409D01*
X-5083098Y6636003D01*
X-5080203Y6614566D01*
X-5088534Y6599021D01*
X-5088534Y6583019D01*
X-5105196Y6572503D01*
X-5145836Y6570878D01*
X-5152644Y6579057D01*
X-5229857Y6579057D01*
X-5246319Y6571792D01*
X-5284368Y6563766D01*
X-5316270Y6568592D01*
X-5348986Y6580987D01*
X-5373725Y6604253D01*
X-5383530Y6621018D01*
X-5380228Y6628638D01*
X-5347919Y6641998D01*
X-5336997Y6621576D01*
X-5311038Y6598615D01*
X-5268010Y6598615D01*
X-5247436Y6610654D01*
X-5230926Y6631482D01*
X-5230926Y6699656D01*
X-5249926Y6725005D01*
X-5279999Y6732422D01*
X-5297627Y6732422D01*
X-5317236Y6727596D01*
X-5336946Y6711899D01*
X-5347716Y6691579D01*
X-5360974Y6691579D01*
X-5373979Y6700672D01*
X-5380482Y6700672D01*
X-5383834Y6712610D01*
X-5429692Y6712610D01*
X-5429961Y6574942D01*
X-5436209Y6571183D01*
X-5470601Y6572656D01*
X-5472938Y6574790D01*
X-5474665Y6758533D01*
X-5578738Y6758533D01*
X-5555437Y6747408D01*
X-5529884Y6720636D01*
X-5529884Y6713524D01*
X-5522417Y6706209D01*
X-5513882Y6668922D01*
X-5521960Y6626555D01*
X-5535726Y6602018D01*
X-5565140Y6576923D01*
X-5593283Y6569100D01*
X-5635498Y6563817D01*
X-5649976Y6571386D01*
X-5655970Y6571386D01*
X-5683250Y6582409D01*
X-5709970Y6609283D01*
X-5722874Y6636003D01*
X-5723636Y6695033D01*
X-5773674Y6695033D01*
X-5773674Y6578498D01*
X-5781751Y6571386D01*
X-5811113Y6571386D01*
X-5817311Y6576822D01*
X-5817311Y6704075D01*
X-5822746Y6721398D01*
X-5908880Y6721398D01*
X-5909106Y6721246D01*
X-5917387Y6699859D01*
X-5917387Y6574129D01*
X-5925515Y6571386D01*
X-5954826Y6571386D01*
X-5961024Y6576822D01*
X-6022506Y6576822D01*
X-6026353Y6573672D01*
X-6058712Y6564122D01*
X-6094018Y6571792D01*
X-6113780Y6584594D01*
X-6125514Y6603136D01*
X-6117031Y6606082D01*
X-6113576Y6601155D01*
X-6099251Y6596329D01*
X-6063437Y6596329D01*
X-6050788Y6607454D01*
X-6050788Y6625183D01*
X-6060592Y6636003D01*
X-6077712Y6643573D01*
X-6106922Y6655308D01*
X-6110020Y6655308D01*
X-6124803Y6664959D01*
X-6137706Y6662115D01*
X-6139281Y6647383D01*
X-6135674Y6620154D01*
X-6138722Y6597446D01*
X-6145479Y6585661D01*
X-6163868Y6571386D01*
X-6201156Y6571386D01*
X-6207302Y6576822D01*
X-6250940Y6576822D01*
X-6250940Y6574129D01*
X-6259068Y6571386D01*
X-6285636Y6571691D01*
X-6294526Y6574840D01*
X-6295339Y6830822D01*
X-6752607Y6830822D01*
X-6765493Y6812991D01*
X-6780580Y6795312D01*
X-6788505Y6782358D01*
X-6819087Y6735825D01*
X-6846570Y6685940D01*
X-6851294Y6679133D01*
X-6862064Y6658711D01*
X-6880098Y6617868D01*
X-6884771Y6613550D01*
X-6884771Y6606540D01*
X-6892848Y6592925D01*
X-6907784Y6552082D01*
X-6913270Y6538468D01*
X-6926471Y6501688D01*
X-5275935Y6501688D01*
X-5267299Y6510121D01*
X-5238343Y6510121D01*
X-5232196Y6504685D01*
X-5232196Y6503924D01*
X-4842205Y6503924D01*
X-4836414Y6510121D01*
X-4806543Y6510121D01*
X-4798517Y6503009D01*
X-4798517Y6405778D01*
X-4783226Y6405778D01*
X-4776114Y6420510D01*
X-4760976Y6433058D01*
X-4731969Y6442049D01*
X-4717389Y6442049D01*
X-4682998Y6431788D01*
X-4662728Y6414465D01*
X-4649876Y6395008D01*
X-4638852Y6359550D01*
X-4638548Y6316167D01*
X-4647133Y6301638D01*
X-4647133Y6293561D01*
X-4661103Y6269177D01*
X-4683201Y6252006D01*
X-4700574Y6244691D01*
X-4731207Y6241846D01*
X-4757064Y6247333D01*
X-4766462Y6256578D01*
X-4777384Y6260287D01*
X-4780940Y6272733D01*
X-4790744Y6283807D01*
X-4787442Y6288481D01*
X-4780686Y6280200D01*
X-4761280Y6273596D01*
X-4736185Y6271463D01*
X-4709972Y6282029D01*
X-4699457Y6291224D01*
X-4686909Y6309360D01*
X-4686909Y6368338D01*
X-4696206Y6389674D01*
X-4714443Y6403797D01*
X-4727956Y6408572D01*
X-4754880Y6410452D01*
X-4788560Y6398564D01*
X-4795672Y6401003D01*
X-4797755Y6395567D01*
X-4792268Y6387795D01*
X-4798517Y6367170D01*
X-4798314Y6313881D01*
X-4793792Y6293510D01*
X-4798517Y6289192D01*
X-4798517Y6249416D01*
X-4807508Y6245504D01*
X-4840884Y6248095D01*
X-4842205Y6503924D01*
X-5232196Y6503924D01*
X-5232196Y6340703D01*
X-5091074Y6340703D01*
X-5090972Y6366103D01*
X-5084521Y6393281D01*
X-5063032Y6418935D01*
X-5038496Y6433616D01*
X-4999990Y6441998D01*
X-4979416Y6441795D01*
X-4953762Y6434836D01*
X-4943551Y6430518D01*
X-4927650Y6422796D01*
X-4906314Y6402374D01*
X-4903165Y6393281D01*
X-4892954Y6373215D01*
X-4890211Y6329273D01*
X-4896764Y6298031D01*
X-4909921Y6277610D01*
X-4932172Y6258306D01*
X-4957673Y6246876D01*
X-4999990Y6241846D01*
X-5040172Y6247282D01*
X-5066792Y6262319D01*
X-5083759Y6276340D01*
X-5080152Y6286703D01*
X-5062067Y6302298D01*
X-5051298Y6291021D01*
X-5033314Y6279743D01*
X-5020056Y6274663D01*
X-4987188Y6271717D01*
X-4958689Y6282182D01*
X-4944821Y6291884D01*
X-4944821Y6296304D01*
X-4934153Y6308242D01*
X-4933238Y6328410D01*
X-4939080Y6333591D01*
X-5081574Y6333083D01*
X-5091074Y6340703D01*
X-5232196Y6340703D01*
X-5232196Y6249517D01*
X-5238546Y6246063D01*
X-5268925Y6246774D01*
X-5274564Y6251752D01*
X-5275935Y6501688D01*
X-6926471Y6501688D01*
X-6933895Y6481775D01*
X-6940296Y6454546D01*
X-6945782Y6445453D01*
X-6949592Y6416395D01*
X-6956044Y6402374D01*
X-6959853Y6372961D01*
X-6966407Y6356604D01*
X-6969607Y6320688D01*
X-6976872Y6298031D01*
X-6979019Y6277102D01*
X-5724906Y6277102D01*
X-5724906Y6314389D01*
X-5709869Y6331102D01*
X-5691886Y6341922D01*
X-5667197Y6351727D01*
X-5641543Y6355537D01*
X-5615838Y6363055D01*
X-5596585Y6370167D01*
X-5590641Y6376466D01*
X-5590997Y6397345D01*
X-5604459Y6409182D01*
X-5653532Y6408521D01*
X-5681827Y6391249D01*
X-5687618Y6383070D01*
X-5700522Y6383274D01*
X-5715000Y6400088D01*
X-5711952Y6413703D01*
X-5707380Y6415074D01*
X-5678119Y6433261D01*
X-5633770Y6441897D01*
X-5618429Y6441897D01*
X-5597906Y6435344D01*
X-5583885Y6435293D01*
X-5575503Y6423914D01*
X-5564073Y6423914D01*
X-5549849Y6399022D01*
X-5550001Y6369456D01*
X-5560923Y6353810D01*
X-5585053Y6338671D01*
X-5613298Y6328968D01*
X-5636412Y6326174D01*
X-5679236Y6314236D01*
X-5687060Y6299657D01*
X-5683605Y6283299D01*
X-5664708Y6271920D01*
X-5633262Y6271920D01*
X-5599988Y6282588D01*
X-5581396Y6293764D01*
X-5570524Y6305956D01*
X-5563616Y6305956D01*
X-5545277Y6287008D01*
X-5545429Y6282131D01*
X-5564479Y6263640D01*
X-5576988Y6257594D01*
X-5525211Y6257594D01*
X-5520740Y6277559D01*
X-5505500Y6281521D01*
X-5497830Y6284925D01*
X-5496814Y6384239D01*
X-5484876Y6409182D01*
X-5475478Y6422796D01*
X-5456732Y6433616D01*
X-5418277Y6441998D01*
X-5402834Y6441744D01*
X-5379770Y6435344D01*
X-5369509Y6435191D01*
X-5356656Y6428638D01*
X-5344109Y6423710D01*
X-5317185Y6403340D01*
X-5327091Y6388455D01*
X-5339537Y6378143D01*
X-5349443Y6382867D01*
X-5366461Y6396888D01*
X-5393080Y6408064D01*
X-5419750Y6408064D01*
X-5438698Y6401003D01*
X-5449925Y6391656D01*
X-5453380Y6373876D01*
X-5445353Y6363055D01*
X-5428640Y6359804D01*
X-5418277Y6353962D01*
X-5399227Y6350863D01*
X-5393232Y6344513D01*
X-5387390Y6344513D01*
X-5369509Y6336080D01*
X-5356656Y6332575D01*
X-5331510Y6314084D01*
X-5322112Y6295745D01*
X-5322011Y6276543D01*
X-5330190Y6258560D01*
X-5347055Y6247130D01*
X-5380634Y6242405D01*
X-5407964Y6247485D01*
X-5436209Y6267856D01*
X-5440019Y6276898D01*
X-5437174Y6281013D01*
X-5430570Y6281013D01*
X-5420868Y6271514D01*
X-5376011Y6273088D01*
X-5364327Y6283401D01*
X-5364327Y6302756D01*
X-5382310Y6317183D01*
X-5393588Y6317284D01*
X-5396687Y6321806D01*
X-5434228Y6337706D01*
X-5446776Y6337706D01*
X-5456428Y6331508D01*
X-5455005Y6305296D01*
X-5450484Y6294628D01*
X-5454502Y6285534D01*
X-5442661Y6285534D01*
X-5442661Y6283299D01*
X-5445201Y6283299D01*
X-5445201Y6285534D01*
X-5454502Y6285534D01*
X-5455005Y6284417D01*
X-5461050Y6257036D01*
X-5480862Y6246977D01*
X-5519724Y6246977D01*
X-5525211Y6257594D01*
X-5576988Y6257594D01*
X-5597906Y6247485D01*
X-5631688Y6242456D01*
X-5653735Y6242456D01*
X-5687669Y6247942D01*
X-5707735Y6257950D01*
X-5724906Y6277102D01*
X-6979019Y6277102D01*
X-6982459Y6243574D01*
X-6987133Y6214110D01*
X-6990130Y6123330D01*
X-6995718Y6056630D01*
X-6990896Y5968492D01*
X-5712561Y5968492D01*
X-5709920Y5980430D01*
X-5701131Y6002070D01*
X-5680202Y6016752D01*
X-5662066Y6022746D01*
X-5644083Y6026404D01*
X-5626100Y6033312D01*
X-5600446Y6036614D01*
X-5582462Y6044590D01*
X-5574131Y6053023D01*
X-5570829Y6069330D01*
X-5581243Y6081064D01*
X-5609742Y6086297D01*
X-5646470Y6080455D01*
X-5679643Y6055614D01*
X-5699252Y6075172D01*
X-5699252Y6081776D01*
X-5670804Y6106363D01*
X-5664504Y6106363D01*
X-5646623Y6114796D01*
X-5600446Y6117183D01*
X-5587593Y6115151D01*
X-5564479Y6107734D01*
X-5542838Y6092291D01*
X-5530342Y6068923D01*
X-5533948Y6043930D01*
X-5547106Y6025794D01*
X-5561939Y6019190D01*
X-5569661Y6013653D01*
X-5577390Y6011773D01*
X-5496509Y6011773D01*
X-5496509Y6049264D01*
X-5489498Y6062116D01*
X-5477560Y6084773D01*
X-5456732Y6102045D01*
X-5425948Y6115100D01*
X-5387441Y6117336D01*
X-5361787Y6113729D01*
X-5341213Y6103213D01*
X-5322011Y6088176D01*
X-5316931Y6088176D01*
X-5316931Y6081979D01*
X-5306822Y6070650D01*
X-5293309Y6034887D01*
X-5296052Y5985764D01*
X-5304028Y5974943D01*
X-5304028Y5969558D01*
X-5321960Y5945733D01*
X-5324760Y5943650D01*
X-5281930Y5943650D01*
X-5273243Y5957011D01*
X-5273141Y5964580D01*
X-5268671Y5970879D01*
X-5245811Y5954369D01*
X-5223205Y5954420D01*
X-5210352Y5960110D01*
X-5201412Y5975908D01*
X-5201412Y6076289D01*
X-5209336Y6082131D01*
X-5269179Y6083808D01*
X-5271312Y6085687D01*
X-5271973Y6110478D01*
X-5268315Y6113729D01*
X-5207812Y6115964D01*
X-5201412Y6120485D01*
X-5201412Y6149086D01*
X-5198313Y6156248D01*
X-5192471Y6156198D01*
X-5181600Y6150559D01*
X-5161026Y6140551D01*
X-5157825Y6130137D01*
X-5157774Y6120079D01*
X-5146243Y6113373D01*
X-5130292Y6113830D01*
X-5124450Y6110630D01*
X-5124450Y6084265D01*
X-5155031Y6081166D01*
X-5158079Y6076797D01*
X-5157998Y6059271D01*
X-5106466Y6059271D01*
X-5106466Y6088380D01*
X-5096408Y6105855D01*
X-5069535Y6117691D01*
X-5053838Y6117234D01*
X-5037582Y6113780D01*
X-5009134Y6092342D01*
X-5006035Y6083706D01*
X-5009134Y6079286D01*
X-5023053Y6084519D01*
X-5031181Y6090462D01*
X-5047284Y6090462D01*
X-5065826Y6076035D01*
X-5064726Y6067399D01*
X-5001717Y6067399D01*
X-4999786Y6075730D01*
X-4995976Y6067145D01*
X-4998720Y6064758D01*
X-5001717Y6067399D01*
X-5064726Y6067399D01*
X-5063083Y6055309D01*
X-5061892Y6049314D01*
X-4993589Y6049314D01*
X-4993589Y6064605D01*
X-4988356Y6069177D01*
X-4987696Y6107480D01*
X-4979924Y6115405D01*
X-4956048Y6115405D01*
X-4946091Y6108954D01*
X-4944693Y5938469D01*
X-4911699Y5938469D01*
X-4903724Y5948578D01*
X-4903724Y5955487D01*
X-4895748Y5969000D01*
X-4872939Y6021374D01*
X-4872939Y6025286D01*
X-4863287Y6043930D01*
X-4852974Y6066637D01*
X-4821631Y6137300D01*
X-4821631Y6143802D01*
X-4809540Y6164173D01*
X-4806289Y6175552D01*
X-4794707Y6187998D01*
X-4779264Y6189573D01*
X-4748682Y6187744D01*
X-4742434Y6183172D01*
X-4738827Y6168745D01*
X-4729226Y6152896D01*
X-4729073Y6146038D01*
X-4721555Y6137249D01*
X-4721555Y6130645D01*
X-4711903Y6112002D01*
X-4701438Y6087059D01*
X-4697882Y6075730D01*
X-4691430Y6068923D01*
X-4688382Y6054547D01*
X-4675378Y6030620D01*
X-4675378Y6023254D01*
X-4667808Y6014466D01*
X-4667605Y6008370D01*
X-4650536Y5973622D01*
X-4639005Y5947714D01*
X-4631893Y5923889D01*
X-4638192Y5920486D01*
X-4666335Y5922010D01*
X-4674158Y5924956D01*
X-4688179Y5952083D01*
X-4688179Y5956655D01*
X-4698441Y5973572D01*
X-4698441Y5981598D01*
X-4708702Y5990640D01*
X-4828997Y5990640D01*
X-4841849Y5986322D01*
X-4847793Y5966815D01*
X-4851755Y5962294D01*
X-4864760Y5928868D01*
X-4873142Y5921451D01*
X-4910124Y5921451D01*
X-4911699Y5938469D01*
X-4944693Y5938469D01*
X-4944618Y5929579D01*
X-4955032Y5920333D01*
X-4980635Y5920333D01*
X-4988458Y5930849D01*
X-4988052Y6040221D01*
X-4993589Y6049314D01*
X-5061892Y6049314D01*
X-5059781Y6038900D01*
X-5083098Y6036614D01*
X-5096256Y6038799D01*
X-5106466Y6059271D01*
X-5157998Y6059271D01*
X-5157571Y5967323D01*
X-5166309Y5944158D01*
X-5178806Y5929528D01*
X-5206796Y5917438D01*
X-5246319Y5919927D01*
X-5269433Y5930087D01*
X-5281930Y5943650D01*
X-5324760Y5943650D01*
X-5338267Y5933643D01*
X-5369509Y5920130D01*
X-5415686Y5917590D01*
X-5436209Y5922264D01*
X-5458307Y5929477D01*
X-5474512Y5939586D01*
X-5483860Y5948680D01*
X-5488990Y5959652D01*
X-5472430Y5974791D01*
X-5461558Y5974791D01*
X-5443931Y5958484D01*
X-5431078Y5952693D01*
X-5381548Y5950458D01*
X-5366969Y5956046D01*
X-5342890Y5974892D01*
X-5337860Y5989523D01*
X-5334660Y6006541D01*
X-5348071Y6011113D01*
X-5438749Y6009182D01*
X-5496509Y6011773D01*
X-5577390Y6011773D01*
X-5610758Y6003696D01*
X-5634888Y5999530D01*
X-5662422Y5988761D01*
X-5671007Y5977178D01*
X-5671007Y5969812D01*
X-5662066Y5956046D01*
X-5639816Y5947562D01*
X-5625134Y5947562D01*
X-5591149Y5954522D01*
X-5564479Y5970778D01*
X-5552744Y5981598D01*
X-5545175Y5981598D01*
X-5530037Y5966815D01*
X-5529884Y5956960D01*
X-5544007Y5941872D01*
X-5547664Y5940399D01*
X-5564581Y5930290D01*
X-5608116Y5918047D01*
X-5644083Y5918149D01*
X-5662066Y5922314D01*
X-5679998Y5928258D01*
X-5701538Y5943600D01*
X-5704890Y5957773D01*
X-5712561Y5968492D01*
X-6990896Y5968492D01*
X-6987286Y5901029D01*
X-6979920Y5848858D01*
X-6978479Y5833364D01*
X-5347665Y5833364D01*
X-5347665Y5860846D01*
X-5339588Y5863640D01*
X-5310174Y5863640D01*
X-5304028Y5858154D01*
X-5304028Y5830519D01*
X-5310174Y5825032D01*
X-5339181Y5825032D01*
X-5347665Y5833364D01*
X-6978479Y5833364D01*
X-6976973Y5817108D01*
X-6966712Y5760415D01*
X-6961073Y5739993D01*
X-6954469Y5705957D01*
X-6946442Y5678728D01*
X-6946392Y5666435D01*
X-6939076Y5651500D01*
X-6930796Y5622036D01*
X-6925963Y5606999D01*
X-5594045Y5606999D01*
X-5594045Y5623153D01*
X-5583732Y5632246D01*
X-5574131Y5632246D01*
X-5568543Y5638190D01*
X-5567934Y5730900D01*
X-5558129Y5759551D01*
X-5540248Y5778906D01*
X-5513222Y5790946D01*
X-5477256Y5792927D01*
X-5445506Y5789472D01*
X-5432552Y5781954D01*
X-5425948Y5781852D01*
X-5404358Y5768949D01*
X-5391302Y5755233D01*
X-5391302Y5749544D01*
X-5411520Y5727039D01*
X-5427014Y5742635D01*
X-5447487Y5755182D01*
X-5488940Y5759602D01*
X-5515000Y5751931D01*
X-5522163Y5736742D01*
X-5522163Y5720486D01*
X-5505500Y5713628D01*
X-5492699Y5707176D01*
X-5481777Y5707075D01*
X-5475325Y5700268D01*
X-5466892Y5700268D01*
X-5449062Y5691886D01*
X-5435092Y5688888D01*
X-5412384Y5675325D01*
X-5396890Y5659729D01*
X-5393232Y5629503D01*
X-5398922Y5612739D01*
X-5407735Y5606999D01*
X-5347665Y5606999D01*
X-5347665Y5786323D01*
X-5337759Y5790996D01*
X-5333542Y5790184D01*
X-5308041Y5788456D01*
X-5304180Y5783072D01*
X-5304031Y5609742D01*
X-5245049Y5609742D01*
X-5245049Y5858916D01*
X-5235143Y5863640D01*
X-5210352Y5863488D01*
X-5201412Y5858865D01*
X-5201412Y5703671D01*
X-5152694Y5703671D01*
X-5147564Y5739282D01*
X-5134152Y5761024D01*
X-5112918Y5779262D01*
X-5081676Y5790793D01*
X-5043627Y5793028D01*
X-5020513Y5789168D01*
X-4994859Y5779109D01*
X-4969764Y5754420D01*
X-4956911Y5737707D01*
X-4953809Y5714949D01*
X-4911648Y5714949D01*
X-4908397Y5751322D01*
X-4900676Y5787644D01*
X-4893513Y5797651D01*
X-4893513Y5803747D01*
X-4876952Y5823610D01*
X-4855667Y5840933D01*
X-4836922Y5852210D01*
X-4822901Y5855157D01*
X-4817364Y5858967D01*
X-4781854Y5863539D01*
X-4660950Y5863640D01*
X-4654804Y5858154D01*
X-4654804Y5608269D01*
X-4662779Y5598210D01*
X-4758740Y5598210D01*
X-4817160Y5603036D01*
X-4835652Y5611825D01*
X-4841240Y5611825D01*
X-4867859Y5629351D01*
X-4879898Y5640171D01*
X-4900930Y5674715D01*
X-4904435Y5699150D01*
X-4911648Y5714949D01*
X-4953809Y5714949D01*
X-4953508Y5712764D01*
X-4948428Y5704789D01*
X-4952085Y5670448D01*
X-4962652Y5640171D01*
X-4988966Y5612942D01*
X-5000498Y5608421D01*
X-5008067Y5602833D01*
X-5040833Y5595416D01*
X-5077358Y5594959D01*
X-5107736Y5603697D01*
X-5134660Y5619089D01*
X-5145328Y5632297D01*
X-5129123Y5650382D01*
X-5119065Y5650382D01*
X-5106924Y5638800D01*
X-5079492Y5626557D01*
X-5033314Y5627065D01*
X-5009997Y5638901D01*
X-4999228Y5651855D01*
X-4991608Y5678170D01*
X-5000244Y5685790D01*
X-5144973Y5685129D01*
X-5149443Y5690057D01*
X-5152694Y5703671D01*
X-5201412Y5703671D01*
X-5201412Y5603646D01*
X-5207558Y5598210D01*
X-5239054Y5598210D01*
X-5245049Y5609742D01*
X-5304031Y5609742D01*
X-5304028Y5603290D01*
X-5310428Y5598972D01*
X-5342331Y5598109D01*
X-5347665Y5606999D01*
X-5407735Y5606999D01*
X-5413146Y5603443D01*
X-5429554Y5595924D01*
X-5462524Y5595924D01*
X-5484317Y5602732D01*
X-5506466Y5622036D01*
X-5509920Y5634482D01*
X-5502300Y5634482D01*
X-5496153Y5627979D01*
X-5469890Y5623001D01*
X-5443016Y5627928D01*
X-5438190Y5633364D01*
X-5435041Y5651754D01*
X-5443169Y5662015D01*
X-5454192Y5666282D01*
X-5479846Y5679846D01*
X-5487517Y5682437D01*
X-5509514Y5691225D01*
X-5524449Y5691225D01*
X-5526938Y5687720D01*
X-5522976Y5649264D01*
X-5528208Y5640171D01*
X-5529122Y5616498D01*
X-5537555Y5605170D01*
X-5564174Y5598210D01*
X-5588711Y5598210D01*
X-5594045Y5606999D01*
X-6925963Y5606999D01*
X-6923531Y5599328D01*
X-6915353Y5576671D01*
X-6910019Y5563057D01*
X-6905193Y5545734D01*
X-6898131Y5535828D01*
X-6894575Y5519928D01*
X-6874509Y5480862D01*
X-6874509Y5477154D01*
X-6853377Y5436006D01*
X-6822135Y5379313D01*
X-6799783Y5344109D01*
X-6794957Y5344109D01*
X-6794957Y5335574D01*
X-6773672Y5306720D01*
X-6762496Y5290820D01*
X-6751918Y5276596D01*
X-5968695Y5276596D01*
X-5968695Y5307279D01*
X-5948832Y5310073D01*
X-5942990Y5316321D01*
X-5941568Y5420156D01*
X-5926328Y5446725D01*
X-5907786Y5459730D01*
X-5884214Y5468670D01*
X-5841695Y5471007D01*
X-5810300Y5460949D01*
X-5803138Y5455869D01*
X-5791301Y5452618D01*
X-5768543Y5432501D01*
X-5768543Y5421731D01*
X-5786678Y5407660D01*
X-5793232Y5407660D01*
X-5803849Y5420360D01*
X-5834684Y5434888D01*
X-5865012Y5437682D01*
X-5887821Y5427573D01*
X-5899200Y5415584D01*
X-5899404Y5396230D01*
X-5885281Y5391353D01*
X-5864758Y5383377D01*
X-5841695Y5373979D01*
X-5828842Y5370880D01*
X-5790285Y5352491D01*
X-5776214Y5343296D01*
X-5776214Y5336082D01*
X-5768086Y5325770D01*
X-5767832Y5306720D01*
X-5773666Y5296611D01*
X-5745784Y5296611D01*
X-5742482Y5309870D01*
X-5731967Y5321757D01*
X-5717997Y5309920D01*
X-5699506Y5307279D01*
X-5675884Y5310428D01*
X-5670753Y5322417D01*
X-5668213Y5424678D01*
X-5675020Y5436006D01*
X-5733694Y5438292D01*
X-5736742Y5449620D01*
X-5734507Y5460187D01*
X-5722010Y5464352D01*
X-5679694Y5464352D01*
X-5669788Y5470753D01*
X-5667908Y5507482D01*
X-5656884Y5507024D01*
X-5632602Y5494985D01*
X-5622239Y5487111D01*
X-5622239Y5466486D01*
X-5613857Y5463641D01*
X-5592775Y5463235D01*
X-5592775Y5438292D01*
X-5620664Y5436006D01*
X-5624880Y5422392D01*
X-5624271Y5318048D01*
X-5632856Y5295087D01*
X-5653176Y5276494D01*
X-5655082Y5276088D01*
X-5573522Y5276088D01*
X-5573522Y5305399D01*
X-5563565Y5310124D01*
X-5553252Y5310124D01*
X-5549188Y5315762D01*
X-5548223Y5421223D01*
X-5537555Y5433212D01*
X-5537555Y5439816D01*
X-5513781Y5460288D01*
X-5484926Y5468416D01*
X-5461863Y5470296D01*
X-5451602Y5468874D01*
X-5424119Y5463946D01*
X-5400040Y5454091D01*
X-5375859Y5436565D01*
X-5372862Y5426049D01*
X-5389626Y5407660D01*
X-5397144Y5407660D01*
X-5414162Y5423611D01*
X-5448249Y5437124D01*
X-5464810Y5437124D01*
X-5490413Y5430418D01*
X-5501894Y5419598D01*
X-5500370Y5393080D01*
X-5484926Y5390286D01*
X-5449893Y5375554D01*
X-5342940Y5375554D01*
X-5334812Y5403494D01*
X-5334812Y5411114D01*
X-5324602Y5428081D01*
X-5324602Y5432907D01*
X-5310428Y5449468D01*
X-5295087Y5462066D01*
X-5282234Y5464657D01*
X-5265420Y5471160D01*
X-5251450Y5470550D01*
X-5238597Y5468620D01*
X-5215534Y5461304D01*
X-5205272Y5452160D01*
X-5193741Y5438546D01*
X-5193741Y5428081D01*
X-5197703Y5428081D01*
X-5205780Y5436412D01*
X-5247690Y5439257D01*
X-5259120Y5435396D01*
X-5278649Y5420156D01*
X-5181600Y5420156D01*
X-5177536Y5464352D01*
X-5143703Y5463844D01*
X-5135067Y5461812D01*
X-5132324Y5449620D01*
X-5132919Y5292801D01*
X-5096560Y5292801D01*
X-5093512Y5307330D01*
X-5070652Y5310378D01*
X-5067046Y5315559D01*
X-5065217Y5418785D01*
X-5052314Y5443778D01*
X-5028996Y5461914D01*
X-5002530Y5468620D01*
X-4971745Y5470956D01*
X-4948682Y5464556D01*
X-4935778Y5462270D01*
X-4894783Y5438292D01*
X-4890160Y5426303D01*
X-4907584Y5407710D01*
X-4910378Y5407660D01*
X-4940909Y5427268D01*
X-4974844Y5438038D01*
X-5004816Y5432094D01*
X-5019243Y5419344D01*
X-5019243Y5410809D01*
X-5024577Y5406085D01*
X-5015331Y5391912D01*
X-4999990Y5389016D01*
X-4992268Y5383530D01*
X-4953762Y5370677D01*
X-4932934Y5362295D01*
X-4927650Y5362295D01*
X-4896866Y5335727D01*
X-4893513Y5320893D01*
X-4893513Y5298338D01*
X-4901641Y5286298D01*
X-4912444Y5278932D01*
X-4870958Y5278932D01*
X-4868672Y5303469D01*
X-4863846Y5307736D01*
X-4696256Y5308244D01*
X-4687265Y5314035D01*
X-4698949Y5327142D01*
X-4723892Y5350865D01*
X-4729581Y5360365D01*
X-4738217Y5368645D01*
X-4751070Y5385155D01*
X-4779467Y5415737D01*
X-4794504Y5433720D01*
X-4810048Y5450433D01*
X-4838446Y5483656D01*
X-4860442Y5511393D01*
X-4858816Y5538114D01*
X-4650638Y5539536D01*
X-4643932Y5532374D01*
X-4646422Y5509463D01*
X-4652518Y5504078D01*
X-4763922Y5504078D01*
X-4798314Y5508091D01*
X-4804410Y5496255D01*
X-4780330Y5472328D01*
X-4740757Y5428234D01*
X-4726279Y5411063D01*
X-4711192Y5395163D01*
X-4656632Y5332425D01*
X-4634280Y5302961D01*
X-4634280Y5278628D01*
X-4639462Y5275834D01*
X-4865116Y5275732D01*
X-4870958Y5278932D01*
X-4912444Y5278932D01*
X-4919522Y5274106D01*
X-4946700Y5271109D01*
X-4980178Y5275681D01*
X-5003088Y5295341D01*
X-5008930Y5305298D01*
X-5008930Y5307838D01*
X-5001056Y5307838D01*
X-4989728Y5301538D01*
X-4960112Y5298440D01*
X-4943348Y5303316D01*
X-4934508Y5316474D01*
X-4934508Y5329580D01*
X-4954016Y5346395D01*
X-4957927Y5346395D01*
X-5007660Y5366410D01*
X-5024170Y5369407D01*
X-5027625Y5357317D01*
X-5024475Y5330901D01*
X-5027726Y5293106D01*
X-5047030Y5275884D01*
X-5094935Y5277205D01*
X-5096560Y5292801D01*
X-5132919Y5292801D01*
X-5133136Y5223814D01*
X-5124196Y5215991D01*
X-5092395Y5215991D01*
X-5092395Y5177586D01*
X-5104028Y5175148D01*
X-5134711Y5176672D01*
X-5137454Y5188762D01*
X-5141264Y5200091D01*
X-5175707Y5198465D01*
X-5178094Y5204612D01*
X-5181244Y5318048D01*
X-5181041Y5404256D01*
X-5181600Y5420156D01*
X-5278649Y5420156D01*
X-5282895Y5416854D01*
X-5292039Y5395163D01*
X-5294122Y5350764D01*
X-5285435Y5327497D01*
X-5265521Y5308447D01*
X-5242052Y5300522D01*
X-5211622Y5302453D01*
X-5196484Y5312359D01*
X-5193741Y5312359D01*
X-5193741Y5302707D01*
X-5203748Y5288280D01*
X-5228793Y5274005D01*
X-5248910Y5271160D01*
X-5284978Y5275580D01*
X-5307888Y5289397D01*
X-5322011Y5305348D01*
X-5322011Y5309514D01*
X-5332171Y5320842D01*
X-5342940Y5375554D01*
X-5449893Y5375554D01*
X-5445302Y5373624D01*
X-5439714Y5373624D01*
X-5410606Y5361533D01*
X-5397703Y5352846D01*
X-5379262Y5337810D01*
X-5372862Y5311038D01*
X-5378907Y5291277D01*
X-5398719Y5274411D01*
X-5434634Y5271312D01*
X-5454192Y5274360D01*
X-5472125Y5283657D01*
X-5485892Y5295646D01*
X-5489397Y5307838D01*
X-5480253Y5307838D01*
X-5471668Y5300980D01*
X-5432704Y5299913D01*
X-5417007Y5313222D01*
X-5417007Y5332780D01*
X-5438241Y5346395D01*
X-5444490Y5346395D01*
X-5457139Y5355183D01*
X-5472125Y5358333D01*
X-5480659Y5364937D01*
X-5505348Y5365699D01*
X-5509260Y5342991D01*
X-5501640Y5325922D01*
X-5501640Y5317693D01*
X-5512104Y5288280D01*
X-5533694Y5273598D01*
X-5544007Y5276037D01*
X-5655082Y5276088D01*
X-5679440Y5270906D01*
X-5717743Y5273802D01*
X-5742736Y5288127D01*
X-5745784Y5296611D01*
X-5773666Y5296611D01*
X-5779617Y5286298D01*
X-5792927Y5276291D01*
X-5819190Y5270957D01*
X-5852972Y5274157D01*
X-5871870Y5287416D01*
X-5875782Y5287416D01*
X-5881370Y5299913D01*
X-5887669Y5307634D01*
X-5883706Y5311089D01*
X-5862218Y5301437D01*
X-5830214Y5298846D01*
X-5812129Y5312867D01*
X-5812129Y5332171D01*
X-5836107Y5348681D01*
X-5841695Y5348630D01*
X-5880150Y5364988D01*
X-5894679Y5371388D01*
X-5899099Y5369001D01*
X-5902452Y5349341D01*
X-5897676Y5321554D01*
X-5902909Y5296204D01*
X-5922314Y5276697D01*
X-5959043Y5274360D01*
X-5968695Y5276596D01*
X-6751918Y5276596D01*
X-6749034Y5272684D01*
X-6728358Y5247741D01*
X-6709105Y5222798D01*
X-6691934Y5202377D01*
X-6685534Y5197805D01*
X-6639153Y5150205D01*
X-6563207Y5084419D01*
X-6552184Y5075326D01*
X-6510731Y5045811D01*
X-6486855Y5029962D01*
X-6457492Y5009184D01*
X-6436106Y4998212D01*
X-6406184Y4980482D01*
X-6385310Y4968697D01*
X-6038799Y4968697D01*
X-6037580Y4980025D01*
X-6035294Y4982006D01*
X-6013704Y4984597D01*
X-6009995Y5002733D01*
X-6009741Y5094579D01*
X-5991809Y5125720D01*
X-5972556Y5137505D01*
X-5951982Y5143855D01*
X-5918657Y5146040D01*
X-5900674Y5144312D01*
X-5872480Y5134406D01*
X-5853480Y5124196D01*
X-5833160Y5104892D01*
X-5842812Y5093462D01*
X-5852414Y5082743D01*
X-5862320Y5085537D01*
X-5881573Y5102047D01*
X-5900674Y5111242D01*
X-5946190Y5110683D01*
X-5956350Y5104688D01*
X-5971235Y5079847D01*
X-5952896Y5066233D01*
X-5913475Y5053431D01*
X-5890361Y5043982D01*
X-5875020Y5037277D01*
X-5850534Y5023713D01*
X-5837224Y5003749D01*
X-5839256Y4972151D01*
X-5843089Y4968697D01*
X-5794197Y4968697D01*
X-5794197Y5207711D01*
X-5780633Y5217109D01*
X-5750356Y5217109D01*
X-5747969Y5211419D01*
X-5749261Y4955844D01*
X-5690209Y4955844D01*
X-5690209Y5207863D01*
X-5681167Y5215940D01*
X-5653989Y5215991D01*
X-5645658Y5214569D01*
X-5644083Y5204612D01*
X-5645701Y5042814D01*
X-5597906Y5042814D01*
X-5597093Y5065318D01*
X-5588254Y5097983D01*
X-5572201Y5117592D01*
X-5561939Y5128564D01*
X-5526938Y5144516D01*
X-5469585Y5144008D01*
X-5443565Y5134305D01*
X-5378399Y5134305D01*
X-5375706Y5141874D01*
X-5355945Y5144820D01*
X-5337251Y5141722D01*
X-5327142Y5124246D01*
X-5327142Y5113731D01*
X-5317286Y5096611D01*
X-5313730Y5077612D01*
X-5308092Y5068519D01*
X-5298846Y5039004D01*
X-5288432Y5007254D01*
X-5283708Y4984953D01*
X-5278831Y4980686D01*
X-5273395Y4983632D01*
X-5262981Y5004460D01*
X-5262981Y5012588D01*
X-5244642Y5059426D01*
X-5238343Y5086756D01*
X-5234228Y5092700D01*
X-5227421Y5116169D01*
X-5218125Y5139639D01*
X-5214620Y5142687D01*
X-5175554Y5144363D01*
X-5170170Y5133848D01*
X-5170402Y5133390D01*
X-5137251Y5133390D01*
X-5124500Y5144617D01*
X-5093004Y5143550D01*
X-5090972Y5138826D01*
X-5092355Y4955844D01*
X-5033314Y4955844D01*
X-5033314Y5207558D01*
X-5023561Y5217109D01*
X-4991303Y5217109D01*
X-4988509Y5213146D01*
X-4988367Y5092344D01*
X-4942890Y5092344D01*
X-4935016Y5111597D01*
X-4931968Y5130393D01*
X-4920284Y5152745D01*
X-4903927Y5175250D01*
X-4870094Y5201158D01*
X-4831435Y5217363D01*
X-4771593Y5219192D01*
X-4745939Y5214823D01*
X-4707737Y5197805D01*
X-4680000Y5175453D01*
X-4659934Y5148732D01*
X-4656582Y5136591D01*
X-4650232Y5127498D01*
X-4644186Y5089398D01*
X-4647742Y5050383D01*
X-4655108Y5032248D01*
X-4660239Y5017312D01*
X-4676140Y4995926D01*
X-4697222Y4977790D01*
X-4716983Y4964684D01*
X-4758740Y4948580D01*
X-4825492Y4948936D01*
X-4845812Y4958486D01*
X-4857242Y4958486D01*
X-4860493Y4963109D01*
X-4880508Y4972151D01*
X-4898491Y4986121D01*
X-4921707Y5015433D01*
X-4921707Y5018684D01*
X-4932121Y5035854D01*
X-4939741Y5073040D01*
X-4942890Y5092344D01*
X-4988367Y5092344D01*
X-4988204Y4953863D01*
X-4991303Y4949444D01*
X-5023358Y4949444D01*
X-5033314Y4955844D01*
X-5092355Y4955844D01*
X-5092395Y4950561D01*
X-5115306Y4949139D01*
X-5131968Y4951882D01*
X-5137200Y4968697D01*
X-5137251Y5133390D01*
X-5170402Y5133390D01*
X-5180330Y5113883D01*
X-5183784Y5099608D01*
X-5193741Y5082286D01*
X-5193741Y5074462D01*
X-5198313Y5071922D01*
X-5204510Y5048097D01*
X-5211013Y5038953D01*
X-5214366Y5025339D01*
X-5234736Y4980381D01*
X-5234736Y4967833D01*
X-5240020Y4964938D01*
X-5246573Y4950917D01*
X-5301386Y4949901D01*
X-5314340Y4969510D01*
X-5314340Y4977892D01*
X-5321249Y4986832D01*
X-5326684Y5005019D01*
X-5340451Y5036769D01*
X-5346801Y5054904D01*
X-5355386Y5071770D01*
X-5355386Y5075326D01*
X-5371134Y5111597D01*
X-5378399Y5134305D01*
X-5443565Y5134305D01*
X-5441797Y5133644D01*
X-5411978Y5109464D01*
X-5406390Y5095748D01*
X-5397042Y5079847D01*
X-5393385Y5046929D01*
X-5399481Y5007254D01*
X-5410200Y4986832D01*
X-5443931Y4958486D01*
X-5449112Y4958486D01*
X-5469585Y4948529D01*
X-5533694Y4948275D01*
X-5546547Y4955743D01*
X-5559348Y4959096D01*
X-5577840Y4973269D01*
X-5588863Y4981143D01*
X-5588863Y4988153D01*
X-5567527Y5006136D01*
X-5565698Y5006136D01*
X-5539740Y4983480D01*
X-5531002Y4983480D01*
X-5500370Y4976368D01*
X-5464403Y4984292D01*
X-5446217Y4999380D01*
X-5437124Y5021630D01*
X-5438749Y5036769D01*
X-5593588Y5039004D01*
X-5597906Y5042814D01*
X-5645701Y5042814D01*
X-5646623Y4950561D01*
X-5679998Y4949240D01*
X-5690209Y4955844D01*
X-5749261Y4955844D01*
X-5749290Y4950561D01*
X-5772302Y4949139D01*
X-5788863Y4951882D01*
X-5794197Y4968697D01*
X-5843089Y4968697D01*
X-5861862Y4951730D01*
X-5879693Y4946548D01*
X-5916980Y4949037D01*
X-5945428Y4967630D01*
X-5951118Y4976977D01*
X-5948324Y4983480D01*
X-5941771Y4983429D01*
X-5927039Y4976672D01*
X-5892139Y4976672D01*
X-5878880Y4990592D01*
X-5878880Y5004155D01*
X-5891834Y5019243D01*
X-5960770Y5045252D01*
X-5968898Y5042509D01*
X-5966155Y4991608D01*
X-5971082Y4977790D01*
X-5973622Y4966309D01*
X-5996228Y4952238D01*
X-6029655Y4949190D01*
X-6037986Y4956556D01*
X-6038799Y4968697D01*
X-6385310Y4968697D01*
X-6365189Y4957572D01*
X-6329222Y4940655D01*
X-6298438Y4927244D01*
X-6231686Y4899710D01*
X-6185560Y4883861D01*
X-6170117Y4880660D01*
X-6152286Y4872278D01*
X-6140450Y4872278D01*
X-6129070Y4865928D01*
X-6105956Y4862677D01*
X-6095847Y4856429D01*
X-6084163Y4856429D01*
X-6054648Y4847691D01*
X-6032042Y4844542D01*
X-6016193Y4838750D01*
X-5982919Y4835448D01*
X-5964682Y4829759D01*
X-5926328Y4826558D01*
X-5901944Y4820361D01*
X-5857036Y4817414D01*
X-5839104Y4813249D01*
X-5749290Y4808829D01*
X-5647740Y4806696D01*
X-5643321Y4804257D01*
X-4507738Y4804206D01*
X-4495749Y4811166D01*
X-4495749Y7295794D01*
G37*
G36*
X-5051145Y7059066D02*
G01*
X-5061559Y7059015D01*
X-5089347Y7052513D01*
X-5108854Y7035698D01*
X-5117642Y7010857D01*
X-5108905Y7005218D01*
X-5002530Y7005878D01*
X-4996129Y7009434D01*
X-4996129Y7022287D01*
X-5012791Y7044334D01*
X-5040833Y7059066D01*
G37*
G36*
X-5882690Y7055866D02*
G01*
X-5903264Y7054342D01*
X-5925058Y7052005D01*
X-5941263Y7039965D01*
X-5951474Y7019442D01*
X-5953963Y6977532D01*
X-5947867Y6949998D01*
X-5938012Y6935470D01*
X-5919012Y6924141D01*
X-5876086Y6922516D01*
X-5861558Y6927850D01*
X-5846368Y6942277D01*
X-5837428Y6962698D01*
X-5834634Y7008063D01*
X-5845352Y7035292D01*
X-5868720Y7054240D01*
G37*
G36*
X-5624982Y6734708D02*
G01*
X-5653938Y6725716D01*
X-5666384Y6715404D01*
X-5671769Y6706565D01*
X-5681268Y6672884D01*
X-5681268Y6657644D01*
X-5676188Y6638290D01*
X-5673598Y6626199D01*
X-5656884Y6606946D01*
X-5638190Y6598361D01*
X-5602427Y6598259D01*
X-5574233Y6614210D01*
X-5560669Y6646519D01*
X-5560669Y6683349D01*
X-5571236Y6710883D01*
X-5583478Y6723329D01*
X-5610758Y6734352D01*
G37*
G36*
X-4994859Y6409690D02*
G01*
X-5017312Y6408064D01*
X-5035245Y6398260D01*
X-5050028Y6377686D01*
X-5050028Y6360972D01*
X-5043373Y6356096D01*
X-4942128Y6355384D01*
X-4934508Y6360972D01*
X-4934508Y6376162D01*
X-4945837Y6395567D01*
X-4949748Y6397040D01*
X-4967732Y6407810D01*
G37*
G36*
X-4773422Y6147308D02*
G01*
X-4780584Y6142075D01*
X-4780788Y6132423D01*
X-4788662Y6114288D01*
X-4795723Y6091580D01*
X-4807966Y6062116D01*
X-4822190Y6031077D01*
X-4817313Y6026759D01*
X-4734864Y6024270D01*
X-4723638Y6029604D01*
X-4727041Y6046216D01*
X-4736338Y6064351D01*
X-4746904Y6089345D01*
X-4752492Y6108395D01*
X-4757318Y6111087D01*
X-4760772Y6133998D01*
G37*
G36*
X-5401868Y6088176D02*
G01*
X-5428488Y6080556D01*
X-5442762Y6071362D01*
X-5455005Y6052007D01*
X-5458256Y6039002D01*
X-5449570Y6032601D01*
X-5344261Y6033770D01*
X-5337048Y6039104D01*
X-5340400Y6055156D01*
X-5348274Y6068923D01*
X-5363972Y6080252D01*
X-5389981Y6087770D01*
G37*
G36*
X-4712563Y5829096D02*
G01*
X-4792116Y5827623D01*
X-4818227Y5819190D01*
X-4839157Y5804560D01*
X-4851857Y5785358D01*
X-4861458Y5755843D01*
X-4861052Y5701436D01*
X-4849825Y5671921D01*
X-4830622Y5649518D01*
X-4799838Y5635650D01*
X-4704537Y5634177D01*
X-4698390Y5640679D01*
X-4699762Y5825998D01*
G37*
G36*
X-5068214Y5763818D02*
G01*
X-5089144Y5754370D01*
X-5108244Y5737606D01*
X-5111953Y5715863D01*
X-5105857Y5709361D01*
X-4998618Y5709361D01*
X-4993589Y5721045D01*
X-4996942Y5732932D01*
X-5012791Y5752998D01*
X-5038496Y5763412D01*
G37*
G36*
X-4809591Y5183073D02*
G01*
X-4838293Y5175300D01*
X-4864912Y5158181D01*
X-4877612Y5143398D01*
X-4885131Y5125212D01*
X-4893513Y5099862D01*
X-4893462Y5063998D01*
X-4885740Y5050993D01*
X-4885740Y5040020D01*
X-4873244Y5018125D01*
X-4860036Y5004257D01*
X-4837684Y4992674D01*
X-4815179Y4986070D01*
X-4786528Y4983022D01*
X-4740757Y4993182D01*
X-4733086Y4998720D01*
X-4712563Y5016550D01*
X-4696663Y5043576D01*
X-4690160Y5087213D01*
X-4695901Y5110683D01*
X-4695901Y5122113D01*
X-4709617Y5147919D01*
X-4739386Y5173776D01*
X-4758740Y5176875D01*
X-4771593Y5182870D01*
G37*
G36*
X-5472125Y5113121D02*
G01*
X-5526278Y5111597D01*
X-5547360Y5096814D01*
X-5555538Y5075631D01*
X-5555538Y5065826D01*
X-5544007Y5061356D01*
X-5446471Y5062169D01*
X-5437479Y5065623D01*
X-5437479Y5077104D01*
X-5449062Y5097526D01*
G37*
D10*
X-6752412Y2449499D02*
G01*
X-6752412Y2249500D01*
M02*
