G04 Layer: TopLayer*
G04 EasyEDA v6.5.54, 2026-02-11 06:23:56*
G04 3bbecb6fe9b747f29c0abc7b8abece35,92e600de7ff74937a4e092c024f19ce6,10*
G04 Gerber Generator version 0.2*
G04 Scale: 100 percent, Rotated: No, Reflected: No *
G04 Dimensions in millimeters *
G04 leading zeros omitted , absolute positions ,4 integer and 5 decimal *
%FSLAX45Y45*%
%MOMM*%

%ADD10C,0.2032*%
%ADD11C,0.6000*%
%ADD12C,0.8000*%
%ADD13C,0.7000*%
%ADD14C,2.0000*%
%ADD15C,0.0170*%
%ADD16O,2.799994X1.999996*%
%ADD17C,1.9304*%
%ADD18C,2.9997*%
%ADD19C,2.1844*%
%ADD20O,1.27X2.54*%
%ADD21O,1.28999X2.54*%
%ADD22C,1.8000*%
%ADD23O,2.999994X1.299997*%
%ADD24O,1.399997X2.999994*%
%ADD25O,1.299997X2.999994*%
%ADD26C,1.5240*%
%ADD27C,1.4000*%
%ADD28C,1.6000*%
%ADD29C,1.5000*%
%ADD30C,1.0000*%
%ADD31C,1.5000*%
%ADD32C,1.3000*%
%ADD33C,0.6200*%

%LPD*%
D10*
X-8572756Y-825423D02*
G01*
X-8590790Y-807389D01*
X-8618222Y-798245D01*
X-8654544Y-798245D01*
X-8681722Y-807389D01*
X-8700010Y-825423D01*
X-8700010Y-843711D01*
X-8690866Y-861745D01*
X-8681722Y-870889D01*
X-8663688Y-880033D01*
X-8609078Y-898067D01*
X-8590790Y-907211D01*
X-8581900Y-916355D01*
X-8572756Y-934643D01*
X-8572756Y-961821D01*
X-8590790Y-980109D01*
X-8618222Y-988999D01*
X-8654544Y-988999D01*
X-8681722Y-980109D01*
X-8700010Y-961821D01*
X-8512812Y-798245D02*
G01*
X-8512812Y-934643D01*
X-8503668Y-961821D01*
X-8485380Y-980109D01*
X-8458202Y-988999D01*
X-8439914Y-988999D01*
X-8412736Y-980109D01*
X-8394448Y-961821D01*
X-8385558Y-934643D01*
X-8385558Y-798245D01*
X-8325360Y-798245D02*
G01*
X-8325360Y-988999D01*
X-8325360Y-798245D02*
G01*
X-8243572Y-798245D01*
X-8216394Y-807389D01*
X-8207250Y-816279D01*
X-8198106Y-834567D01*
X-8198106Y-861745D01*
X-8207250Y-880033D01*
X-8216394Y-889177D01*
X-8243572Y-898067D01*
X-8325360Y-898067D01*
D11*
X-5816602Y3073400D02*
G01*
X-5673394Y3073400D01*
X-5599988Y2999994D01*
X-5599988Y1799996D01*
X-6299989Y2699994D02*
G01*
X-5899988Y2699994D01*
D12*
X-1700024Y8799906D02*
G01*
X-1700024Y5347538D01*
X-1663702Y5347538D01*
X-1663702Y4610176D01*
X-1651002Y4610176D01*
D13*
X-8051802Y5613476D02*
G01*
X-8100062Y5613476D01*
X-8100062Y2799918D01*
X-8199884Y2700096D01*
X-8199884Y2600020D01*
D12*
X-8826502Y63576D02*
G01*
X-8826502Y8470976D01*
X-8801102Y8445576D01*
X-3081555Y1442212D02*
G01*
X-3081555Y2243353D01*
X-3086102Y2247900D01*
X-6199888Y7300036D02*
G01*
X-6197602Y6667576D01*
D13*
X126997Y1003376D02*
G01*
X126997Y2908376D01*
X457197Y3238576D01*
X457197Y8199958D01*
X-99999Y8199983D01*
X-399999Y8199983D01*
D12*
X-299976Y1199972D02*
G01*
X-100078Y1199972D01*
X-100078Y3097352D01*
X-215902Y3213176D01*
X-215902Y7480376D01*
D13*
X-6099987Y2099995D02*
G01*
X-6106490Y1623387D01*
X-6096002Y1612900D01*
X-6515102Y1651076D02*
G01*
X-6499986Y1999995D01*
D12*
X-6299987Y3399993D02*
G01*
X-6177838Y3297984D01*
X-6299987Y3699992D02*
G01*
X-6172202Y3818686D01*
X-2700027Y899998D02*
G01*
X-2599951Y899998D01*
X-2599951Y2498417D01*
X-3499995Y3398461D01*
X-3499995Y3499993D01*
D13*
X-7886702Y5372176D02*
G01*
X-7886702Y2895676D01*
X-7500114Y2895676D01*
X-7500114Y2298776D01*
X-7150102Y2298776D01*
X-7150102Y2159076D01*
D12*
X-6680202Y6438976D02*
G01*
X-6680202Y5067376D01*
X-6616702Y5067376D01*
X-3111500Y3784597D02*
G01*
X-3111500Y4688479D01*
X-2399990Y5399984D01*
X-2399990Y6899986D01*
X-2399997Y6899986D01*
D13*
X-1651000Y4610097D02*
G01*
X-1625602Y4584700D01*
X-1625602Y3581400D01*
D12*
X-1854200Y3505197D02*
G01*
X-1854200Y2921002D01*
X-1854202Y2921000D01*
X-4599990Y2299995D02*
G01*
X-4584700Y-25397D01*
X-4584702Y-25397D01*
X-7302502Y2616276D02*
G01*
X-7302502Y7700086D01*
X-7299985Y7699984D01*
X-4533900Y3873497D02*
G01*
X-4533900Y8216897D01*
X-4533902Y8216900D01*
X-4356100Y444497D02*
G01*
X-4356100Y88902D01*
X-4368802Y76200D01*
X-4000502Y4114800D02*
G01*
X-4000502Y6349994D01*
X-3975100Y6375397D01*
X2108200Y5600697D02*
G01*
X2108200Y7632702D01*
X2120897Y7645400D01*
X1435097Y7073900D02*
G01*
X1435097Y4381497D01*
X1422400Y4381497D01*
D13*
X2044700Y38097D02*
G01*
X2044700Y-1015997D01*
X2031997Y-1028700D01*
D12*
X-2387600Y4343397D02*
G01*
X-2387600Y723900D01*
X-2374902Y723900D01*
X-5829302Y4114800D02*
G01*
X-5829302Y6896097D01*
X-5842005Y6896097D01*
X-5003802Y8877300D02*
G01*
X-5003800Y8877297D01*
X-5003800Y7099297D01*
X-4279902Y2870200D02*
G01*
X-4279902Y6667497D01*
X-4292600Y6667497D01*
X-1638300Y2578097D02*
G01*
X-1663702Y2578097D01*
X-1663702Y3314700D01*
X-2971802Y3111500D02*
G01*
X-2971802Y3581400D01*
X-2628900Y3924302D01*
X-2628900Y4063997D01*
X-3276600Y4864097D02*
G01*
X-2599997Y5540700D01*
X-2599997Y6099987D01*
X-8600696Y8218596D02*
G01*
X-8623302Y8218596D01*
X-8623302Y6705600D01*
X2108200Y2920997D02*
G01*
X2108200Y5600700D01*
X2108197Y5600700D01*
X-6908802Y-139700D02*
G01*
X-6908802Y1537540D01*
X-6895851Y1537540D01*
X-6895851Y2146297D01*
X-6883405Y2146297D01*
D13*
X-7150105Y482597D02*
G01*
X-7150105Y2158997D01*
X-7150102Y2159000D01*
D12*
X1905000Y8928097D02*
G01*
X1905000Y4140202D01*
X1892297Y4127500D01*
X-4787900Y3124197D02*
G01*
X-4787900Y8267697D01*
X-4787900Y8445497D01*
X-4787902Y8445500D01*
X-5016500Y2590797D02*
G01*
X-5016500Y6616697D01*
X-5611116Y7211316D01*
X-5611116Y8088858D01*
X-5599991Y8099983D01*
X-7696202Y3073400D02*
G01*
X-7696202Y7442197D01*
X-7505705Y7442197D01*
X1701800Y8724897D02*
G01*
X1676397Y8724897D01*
X1676397Y3238500D01*
X-939802Y6184900D02*
G01*
X-939802Y5562600D01*
X-939800Y5562597D01*
X1066800Y546100D02*
G01*
X1066800Y292100D01*
X2095497Y1066800D02*
G01*
X2095497Y2908294D01*
X2108200Y2920997D01*
X1600197Y-570661D02*
G01*
X1600197Y665048D01*
X2008883Y1067384D01*
X2095497Y1066876D01*
D13*
X-1143002Y5029276D02*
G01*
X-1143002Y2679776D01*
D12*
X-1155702Y2679776D02*
G01*
X-1155702Y2108276D01*
X-609602Y1562176D01*
X1168397Y2908300D02*
G01*
X1168400Y2908302D01*
X1168400Y8140697D01*
X-6306568Y2349576D02*
G01*
X-6306568Y1406474D01*
X-6199888Y1300048D01*
D13*
X-3352802Y5194300D02*
G01*
X-3352802Y5880100D01*
X-3505200Y6032497D01*
X-7810505Y-1003221D02*
G01*
X-7810505Y190578D01*
X-8216905Y596978D01*
X-8216905Y1168478D01*
X-7874005Y1511378D01*
X-7699987Y1685396D01*
X-7699987Y2299995D01*
D12*
X-6032505Y5092697D02*
G01*
X-6032505Y8432797D01*
X-6032502Y8432800D01*
D13*
X-6311905Y-330202D02*
G01*
X-6311905Y588083D01*
X-6299989Y599998D01*
D12*
X673100Y-609602D02*
G01*
X673100Y-292102D01*
X673100Y1346200D01*
X673097Y1346200D01*
D13*
X-1371602Y4940376D02*
G01*
X-1371602Y2006676D01*
X-1346202Y1981276D01*
D12*
X368300Y469897D02*
G01*
X368300Y2540002D01*
X507997Y2679700D01*
D11*
X-5699991Y799998D02*
G01*
X-5699991Y499998D01*
D12*
X-1943100Y76197D02*
G01*
X-1943100Y511121D01*
X-1943100Y956896D01*
X-1934669Y1442212D01*
D11*
X-3700020Y-1099997D02*
G01*
X-3700020Y-99999D01*
X-3100072Y499948D01*
X-3100072Y1207592D01*
X-3334768Y1442288D01*
X-8999984Y-1199997D02*
G01*
X-8999984Y3999994D01*
X-8999981Y3999994D01*
X-4099991Y1057859D02*
G01*
X-4099991Y-699998D01*
D13*
X-2199995Y1449997D02*
G01*
X-2199995Y9149976D01*
X-2199995Y9399981D01*
D12*
X-889002Y2235276D02*
G01*
X-889002Y3429076D01*
X-876302Y3441776D01*
X-876302Y5080076D01*
X-1485902Y5689676D01*
X-1485902Y8899982D01*
X-1100076Y8899982D01*
X-1100076Y9400108D01*
X-6299987Y2699994D02*
G01*
X-6306568Y2939110D01*
X-6172202Y3073476D01*
X-6172202Y4140276D01*
X-6515102Y4140276D01*
X-6616702Y4241876D01*
X-6616702Y5067376D01*
D11*
X-5700016Y799922D02*
G01*
X-5700016Y1199972D01*
X-5899914Y1400124D01*
X-5899914Y1700098D01*
X-5999990Y1799920D01*
X-5999990Y1899996D01*
X-5899914Y2000072D01*
X-5899988Y2699994D01*
D12*
X1828800Y-800102D02*
G01*
X1828800Y558797D01*
X1828797Y558800D01*
X-8496305Y1282697D02*
G01*
X-8496305Y-495297D01*
X-8483602Y-508000D01*
D11*
X-9199984Y-699998D02*
G01*
X-9199984Y3699992D01*
X-9199981Y3799992D01*
D12*
X-8496305Y1282778D02*
G01*
X-8496305Y2536517D01*
X-8623302Y2663515D01*
X-8623302Y6705600D01*
D14*
G01*
X-6509463Y3818686D03*
G01*
X-5809515Y3818686D03*
G01*
X-6509463Y3318713D03*
G01*
X-5809515Y3318713D03*
G01*
X-3418867Y4353991D03*
G01*
X-3418867Y4053992D03*
G01*
X-3418867Y3753993D03*
G01*
X-1968883Y3801338D03*
G01*
X-1968883Y4301337D03*
D16*
G01*
X-2668882Y4601337D03*
G01*
X-2668882Y3501339D03*
D17*
G01*
X1066797Y-215900D03*
G01*
X1066797Y38100D03*
G01*
X1066797Y292100D03*
G01*
X1066797Y546100D03*
G01*
X1066797Y800100D03*
D18*
G01*
X-1130302Y-228600D03*
G01*
X-1130302Y774700D03*
D14*
G01*
X1447797Y2921000D03*
D19*
G01*
X-292102Y2595702D03*
G01*
X-292102Y2245690D03*
D14*
G01*
X1447797Y1905000D03*
G01*
X1447797Y2159000D03*
G01*
X1447797Y2413000D03*
G01*
X1447797Y2667000D03*
G01*
X-3334717Y-838200D03*
G01*
X-1934669Y-838200D03*
G01*
X-3334717Y1442212D03*
G01*
X-1934669Y1442212D03*
G01*
X-3081555Y1442212D03*
G01*
X-2188669Y1442212D03*
G01*
X-2189761Y-839063D03*
G01*
X-3080844Y-838352D03*
D20*
G01*
X-6508193Y2349500D03*
G01*
X-6706491Y2349500D03*
G01*
X-6106492Y2349500D03*
D21*
G01*
X-6306492Y2349500D03*
D14*
G01*
X-7099302Y5067300D03*
G01*
X-7099302Y4813300D03*
G01*
X-7099302Y4559300D03*
G01*
X-7099302Y4305300D03*
G01*
X-7099302Y4051300D03*
G01*
X-7099302Y3797300D03*
G01*
X-7099302Y3543300D03*
G01*
X-7099302Y3289300D03*
G01*
X-6858002Y5067300D03*
G01*
X-6858002Y4813300D03*
G01*
X-6858002Y4559300D03*
G01*
X-6858002Y4305300D03*
G01*
X-6858002Y4051300D03*
G01*
X-6858002Y3797300D03*
G01*
X-6858002Y3543300D03*
G01*
X-6858002Y3289300D03*
G01*
X-671934Y4136212D03*
G01*
X-671934Y3886225D03*
G01*
X-671934Y3636213D03*
G01*
X778050Y3636213D03*
G01*
X778050Y4136212D03*
D16*
G01*
X78051Y4436211D03*
G01*
X78051Y3336213D03*
D14*
G01*
X-674194Y8149386D03*
G01*
X-674194Y7899400D03*
G01*
X-674194Y7649387D03*
G01*
X775789Y7649387D03*
G01*
X775789Y8149386D03*
D16*
G01*
X75791Y8449386D03*
G01*
X75791Y7349388D03*
D14*
G01*
X-661494Y6079312D03*
G01*
X-661494Y5829325D03*
G01*
X-661494Y5579313D03*
G01*
X788489Y5579313D03*
G01*
X788489Y6079312D03*
D16*
G01*
X88491Y6379311D03*
G01*
X88491Y5279313D03*
D22*
G01*
X-3760904Y802817D03*
G01*
X-3760904Y1057859D03*
G01*
X-3760904Y1312900D03*
G01*
X-3760904Y5138699D03*
G01*
X-3760904Y2588158D03*
G01*
X-3760904Y3608374D03*
G01*
X-3760904Y4118482D03*
G01*
X-3760904Y2333117D03*
G01*
X-3760904Y4373524D03*
G01*
X-3760904Y3863441D03*
G01*
X-3760904Y3353333D03*
G01*
X-3760904Y5393740D03*
G01*
X-3760904Y4883632D03*
G01*
X-3760904Y2843225D03*
G01*
X-3760904Y1823008D03*
G01*
X-3760904Y1567967D03*
G01*
X-3760904Y2078075D03*
G01*
X-3760904Y5648807D03*
G01*
X-3760904Y3098266D03*
G01*
X-3760904Y4628591D03*
D14*
G01*
X-5306900Y4628591D03*
G01*
X-5306900Y3098266D03*
G01*
X-5306900Y5648807D03*
G01*
X-5306900Y2078075D03*
G01*
X-5306900Y1567967D03*
G01*
X-5306900Y1823008D03*
G01*
X-5306900Y2843225D03*
G01*
X-5306900Y4883632D03*
G01*
X-5306900Y5393740D03*
G01*
X-5306900Y3353333D03*
G01*
X-5306900Y3863441D03*
G01*
X-5306900Y4373524D03*
G01*
X-5306900Y2333117D03*
G01*
X-5306900Y4118482D03*
G01*
X-5306900Y3608374D03*
G01*
X-5306900Y2588158D03*
G01*
X-5306900Y5138699D03*
G01*
X-5306900Y1312900D03*
G01*
X-5306900Y1057859D03*
G01*
X-5306900Y802817D03*
D23*
G01*
X-8228713Y1711680D03*
D24*
G01*
X-7518707Y1761693D03*
D23*
G01*
X-7958711Y2431694D03*
G01*
X-7858711Y2691688D03*
D25*
G01*
X-8648702Y2171700D03*
D23*
G01*
X-8229272Y75488D03*
D24*
G01*
X-7530772Y126288D03*
D23*
G01*
X-7959270Y795502D03*
G01*
X-7859270Y1055496D03*
D25*
G01*
X-8649261Y535508D03*
D26*
G01*
X2108197Y5600700D03*
G01*
X2120897Y7645400D03*
G01*
X-3352802Y5194300D03*
G01*
X-8051802Y5613400D03*
G01*
X-3505202Y6032500D03*
G01*
X-7150102Y482600D03*
G01*
X-7886702Y5372100D03*
G01*
X-7150102Y2159000D03*
D27*
G01*
X-8999984Y3999992D03*
G01*
X-9199984Y3799992D03*
G01*
X-889002Y2235200D03*
G01*
X-1299999Y9399981D03*
D26*
G01*
X-8826502Y63500D03*
D28*
G01*
X673097Y1346200D03*
G01*
X673097Y-609600D03*
G01*
X2108197Y2921000D03*
G01*
X-609602Y1562100D03*
G01*
X-5842002Y6896100D03*
D14*
G01*
X-5016502Y2590800D03*
D27*
G01*
X-1100000Y9399981D03*
G01*
X-2199998Y9399981D03*
D29*
G01*
X-7699987Y2299995D03*
G01*
X-8199884Y2600020D03*
G01*
X-3499995Y3499993D03*
G01*
X-6299989Y3699992D03*
G01*
X-6299989Y3399993D03*
G01*
X-6499989Y1999995D03*
G01*
X-6299989Y2699994D03*
G01*
X-6099990Y2099995D03*
G01*
X-400001Y8199983D03*
G01*
X-6199990Y7299985D03*
G01*
X-6499735Y8377986D03*
G01*
X-6499735Y8123986D03*
G01*
X-6499735Y7869986D03*
G01*
X-6499989Y7599984D03*
G01*
X-6499735Y7361986D03*
G01*
X-6499735Y7108062D03*
G01*
X-6499735Y6853986D03*
G01*
X-6499735Y6600062D03*
D14*
G01*
X-4299993Y1299997D03*
D30*
G01*
X-5599991Y1799996D03*
D27*
G01*
X-8599985Y3799992D03*
D28*
G01*
X-4356102Y444500D03*
G01*
X-4368802Y76200D03*
G01*
X-8496302Y1282700D03*
G01*
X-8623302Y6705600D03*
G01*
X-1943102Y76200D03*
G01*
X-8600696Y8218601D03*
G01*
X2044697Y38100D03*
D27*
G01*
X-8483602Y-508000D03*
G01*
X1828797Y-800100D03*
G01*
X1828797Y558800D03*
G01*
X368297Y469900D03*
D28*
G01*
X507997Y2679700D03*
D27*
G01*
X-1371602Y4940300D03*
G01*
X-1346202Y1981200D03*
G01*
X-1143002Y5029200D03*
G01*
X-2374902Y723900D03*
G01*
X-2699997Y899998D03*
G01*
X-2971802Y3111500D03*
G01*
X-2628902Y4064000D03*
G01*
X126997Y1003300D03*
G01*
X-300001Y1199997D03*
G01*
X-215902Y7480300D03*
G01*
X-1638302Y2578100D03*
G01*
X-1663702Y3314700D03*
G01*
X1168397Y8140700D03*
G01*
X-4000502Y4114800D03*
G01*
X-3975102Y6375400D03*
G01*
X-3276602Y4864100D03*
G01*
X-2599997Y6099987D03*
G01*
X-939802Y6184900D03*
G01*
X-939802Y5562600D03*
G01*
X-4279902Y2870200D03*
G01*
X-4292602Y6667500D03*
G01*
X-5829302Y4114800D03*
G01*
X-4356102Y8013700D03*
G01*
X1435097Y7073900D03*
G01*
X1422397Y4381500D03*
G01*
X-4533902Y3873500D03*
G01*
X-4533902Y8216900D03*
G01*
X1701797Y8724900D03*
G01*
X1676397Y3238500D03*
G01*
X-4787902Y3124200D03*
G01*
X-4787902Y8445500D03*
G01*
X1904997Y8928100D03*
G01*
X1892297Y4127500D03*
G01*
X-5699991Y499998D03*
G01*
X-6616702Y5067300D03*
G01*
X-6680202Y6438900D03*
G01*
X-5016502Y2590800D03*
G01*
X-5599991Y8099983D03*
G01*
X-4599993Y2299995D03*
G01*
X-4584702Y-38100D03*
G01*
X-6908802Y-139700D03*
D31*
G01*
X-6883402Y2146300D03*
D27*
G01*
X-7302502Y2616200D03*
G01*
X-7696202Y3073400D03*
G01*
X-3111502Y3784600D03*
G01*
X-2399997Y6899986D03*
G01*
X-6197602Y6667500D03*
G01*
X-1699999Y8799982D03*
G01*
X-1625602Y3581400D03*
G01*
X-1854202Y3505200D03*
G01*
X-1854202Y2921000D03*
G01*
X-5816602Y3073400D03*
G01*
X-6032502Y5092700D03*
G01*
X-6515102Y1651000D03*
G01*
X-6096002Y1612900D03*
D28*
G01*
X-6311902Y-330200D03*
D27*
G01*
X-6299989Y599998D03*
G01*
X-2387602Y4343400D03*
G01*
X2031997Y-1028700D03*
G01*
X-7810502Y-1003300D03*
G01*
X1168397Y2908300D03*
D28*
G01*
X1600197Y-571500D03*
D27*
G01*
X-3086102Y2247900D03*
G01*
X2095497Y1066800D03*
G01*
X-5003802Y7099300D03*
G01*
X-5003802Y8877300D03*
G01*
X-6032502Y8432800D03*
D28*
G01*
X-8801102Y8445500D03*
D27*
G01*
X2108197Y3619500D03*
D32*
G01*
X-7299987Y7699984D03*
G01*
X-7505702Y7442200D03*
G01*
X-1371602Y4940376D03*
G01*
X-1143002Y5029276D03*
D27*
G01*
X-8199884Y2600020D03*
D31*
G01*
X-6199888Y1300048D03*
D27*
G01*
X-5699991Y799998D03*
D33*
G01*
X-3700020Y-1099997D03*
G01*
X-8999984Y-1099997D03*
G01*
X-4099994Y1057859D03*
G01*
X-4099994Y-699998D03*
G01*
X-9199984Y-699998D03*
D27*
G01*
X-9199984Y-699998D03*
G01*
X-8999984Y-1199997D03*
G01*
X-3700020Y-1099997D03*
M02*
