G04 Layer: TopSilkscreenLayer*
G04 EasyEDA v6.5.54, 2026-02-11 06:23:56*
G04 3bbecb6fe9b747f29c0abc7b8abece35,92e600de7ff74937a4e092c024f19ce6,10*
G04 Gerber Generator version 0.2*
G04 Scale: 100 percent, Rotated: No, Reflected: No *
G04 Dimensions in millimeters *
G04 leading zeros omitted , absolute positions ,4 integer and 5 decimal *
%FSLAX45Y45*%
%MOMM*%

%ADD10C,0.2032*%
%ADD11C,0.1524*%
%ADD12C,0.1219*%
%ADD13C,0.1905*%
%ADD14C,0.8000*%
%ADD15C,0.0139*%
%ADD16C,0.2540*%
%ADD17C,0.1270*%
%ADD18C,0.3048*%
%ADD19C,0.2000*%

%LPD*%
G36*
X-8490204Y9291472D02*
G01*
X-8495842Y9285274D01*
X-8499449Y9277502D01*
X-8499500Y8774430D01*
X-8497874Y8771382D01*
X-8490813Y8766962D01*
X-8263737Y8766962D01*
X-8237169Y8769959D01*
X-8229549Y8770010D01*
X-8216646Y8775344D01*
X-8208416Y8778290D01*
X-8185048Y8782812D01*
X-8177936Y8785910D01*
X-8172196Y8790482D01*
X-8164118Y8794038D01*
X-8157464Y8795816D01*
X-8151368Y8798915D01*
X-8143748Y8805926D01*
X-8129320Y8813241D01*
X-8117789Y8824010D01*
X-8111642Y8828074D01*
X-8105444Y8836406D01*
X-8099755Y8840571D01*
X-8095437Y8844432D01*
X-8092287Y8850426D01*
X-8083550Y8859520D01*
X-8078978Y8868613D01*
X-8075218Y8876944D01*
X-8068106Y8883751D01*
X-8065871Y8887917D01*
X-8062061Y8901125D01*
X-8058607Y8908694D01*
X-8054644Y8914434D01*
X-8051546Y8922664D01*
X-8048396Y8938920D01*
X-8043875Y8958072D01*
X-8040217Y8966352D01*
X-8037830Y8975394D01*
X-8037830Y8989517D01*
X-8035594Y9003131D01*
X-8035594Y9050020D01*
X-8037931Y9076436D01*
X-8040065Y9091574D01*
X-8046974Y9111996D01*
X-8052104Y9138412D01*
X-8055203Y9147149D01*
X-8059166Y9151874D01*
X-8061959Y9157309D01*
X-8065414Y9167926D01*
X-8068919Y9174937D01*
X-8075117Y9182049D01*
X-8077911Y9187535D01*
X-8079841Y9193631D01*
X-8089188Y9202674D01*
X-8094675Y9211005D01*
X-8113522Y9229902D01*
X-8123529Y9239046D01*
X-8132368Y9243771D01*
X-8140547Y9252051D01*
X-8152130Y9256979D01*
X-8166557Y9266580D01*
X-8189315Y9273489D01*
X-8199932Y9279178D01*
X-8209838Y9282277D01*
X-8213598Y9283192D01*
X-8250834Y9286951D01*
X-8265261Y9289288D01*
X-8274812Y9291472D01*
G37*
G36*
X-7494422Y9291472D02*
G01*
X-7581138Y9291370D01*
X-7594701Y9286900D01*
X-7596682Y9285274D01*
X-7600543Y9277197D01*
X-7600492Y8774125D01*
X-7597851Y8771077D01*
X-7595311Y8769146D01*
X-7581900Y8766962D01*
X-7493762Y8766962D01*
X-7486751Y8771382D01*
X-7485125Y8774430D01*
X-7485125Y9277502D01*
X-7488783Y9285274D01*
G37*
G36*
X-7321296Y9291472D02*
G01*
X-7408062Y9291370D01*
X-7421625Y9286900D01*
X-7423556Y9285274D01*
X-7427417Y9277197D01*
X-7427417Y9204452D01*
X-7423556Y9196425D01*
X-7421625Y9194800D01*
X-7407554Y9190177D01*
X-7321296Y9190177D01*
X-7315657Y9196425D01*
X-7311999Y9204198D01*
X-7311999Y9277502D01*
X-7315657Y9285274D01*
G37*
G36*
X-7845399Y9156801D02*
G01*
X-7874253Y9154160D01*
X-7885785Y9150959D01*
X-7904429Y9141815D01*
X-7915148Y9138666D01*
X-7919008Y9136227D01*
X-7926070Y9129826D01*
X-7941665Y9122054D01*
X-7950809Y9112300D01*
X-7959293Y9107170D01*
X-7964982Y9097416D01*
X-7973872Y9088272D01*
X-7981543Y9073438D01*
X-7988604Y9066631D01*
X-7990992Y9062161D01*
X-7995208Y9045143D01*
X-7999831Y9037167D01*
X-8003590Y9029598D01*
X-8006029Y9020505D01*
X-8007218Y9003944D01*
X-7903514Y9003944D01*
X-7901279Y9010243D01*
X-7893710Y9024315D01*
X-7890611Y9034475D01*
X-7888071Y9039402D01*
X-7875879Y9052712D01*
X-7864805Y9057944D01*
X-7859826Y9062212D01*
X-7855000Y9065514D01*
X-7843113Y9068511D01*
X-7798308Y9068003D01*
X-7787436Y9064193D01*
X-7775346Y9055709D01*
X-7767929Y9052560D01*
X-7764373Y9049258D01*
X-7759242Y9038691D01*
X-7751165Y9028023D01*
X-7747965Y9018270D01*
X-7746136Y9003639D01*
X-7748930Y8999931D01*
X-7753858Y8996730D01*
X-7885023Y8996730D01*
X-7898536Y8999067D01*
X-7903514Y9003944D01*
X-8007218Y9003944D01*
X-8007502Y9000134D01*
X-8008975Y8991041D01*
X-8008975Y8930436D01*
X-8005978Y8900820D01*
X-8003590Y8889034D01*
X-7993176Y8867089D01*
X-7990636Y8858097D01*
X-7987690Y8852306D01*
X-7982407Y8846464D01*
X-7974025Y8828989D01*
X-7966862Y8823655D01*
X-7959953Y8814206D01*
X-7951673Y8807958D01*
X-7944764Y8799068D01*
X-7932115Y8792667D01*
X-7926324Y8787434D01*
X-7920532Y8783624D01*
X-7903870Y8777478D01*
X-7894472Y8771382D01*
X-7886446Y8768384D01*
X-7866634Y8765590D01*
X-7854238Y8764574D01*
X-7841589Y8759901D01*
X-7803642Y8759291D01*
X-7784642Y8761069D01*
X-7773263Y8763812D01*
X-7739075Y8768638D01*
X-7732268Y8771229D01*
X-7722870Y8777325D01*
X-7706664Y8783015D01*
X-7696555Y8792413D01*
X-7681061Y8800338D01*
X-7675930Y8807399D01*
X-7667904Y8814206D01*
X-7657084Y8826093D01*
X-7650632Y8830513D01*
X-7650632Y8846921D01*
X-7657846Y8852103D01*
X-7664653Y8860129D01*
X-7669123Y8864092D01*
X-7682128Y8877300D01*
X-7692745Y8887612D01*
X-7696758Y8892032D01*
X-7704785Y8898839D01*
X-7710017Y8906002D01*
X-7711846Y8906002D01*
X-7724648Y8897823D01*
X-7729575Y8893810D01*
X-7734401Y8884767D01*
X-7741818Y8878417D01*
X-7750505Y8869984D01*
X-7761224Y8865920D01*
X-7770977Y8859113D01*
X-7782356Y8855557D01*
X-7796682Y8853119D01*
X-7827314Y8853119D01*
X-7840827Y8855456D01*
X-7849920Y8859875D01*
X-7868412Y8871102D01*
X-7887411Y8890000D01*
X-7892288Y8899601D01*
X-7895844Y8910066D01*
X-7900365Y8917990D01*
X-7895488Y8922867D01*
X-7887157Y8926830D01*
X-7652461Y8927541D01*
X-7648397Y8930233D01*
X-7646162Y8933637D01*
X-7642961Y8950248D01*
X-7640066Y8963101D01*
X-7638288Y8980474D01*
X-7638999Y8990279D01*
X-7642352Y9000896D01*
X-7643774Y9018270D01*
X-7646162Y9033357D01*
X-7648498Y9044736D01*
X-7650683Y9049918D01*
X-7656728Y9057741D01*
X-7659674Y9066631D01*
X-7662925Y9077858D01*
X-7671663Y9087053D01*
X-7676743Y9096603D01*
X-7704480Y9124238D01*
X-7715503Y9130030D01*
X-7722362Y9136329D01*
X-7726019Y9138208D01*
X-7741920Y9143390D01*
X-7748930Y9147200D01*
X-7755026Y9150858D01*
X-7765643Y9153296D01*
X-7791450Y9156446D01*
G37*
G36*
X-7124090Y9156801D02*
G01*
X-7154164Y9154058D01*
X-7165848Y9151721D01*
X-7179513Y9144863D01*
X-7185609Y9142780D01*
X-7202068Y9138716D01*
X-7209129Y9135668D01*
X-7216698Y9129877D01*
X-7225030Y9126575D01*
X-7235698Y9121343D01*
X-7243267Y9114028D01*
X-7252766Y9109354D01*
X-7257694Y9103817D01*
X-7261555Y9099905D01*
X-7268718Y9095028D01*
X-7272883Y9088678D01*
X-7282180Y9078722D01*
X-7283754Y9075724D01*
X-7281418Y9071152D01*
X-7274915Y9064193D01*
X-7270343Y9055150D01*
X-7264704Y9047734D01*
X-7259116Y9041638D01*
X-7253427Y9029598D01*
X-7245350Y9021267D01*
X-7239914Y9010700D01*
X-7235698Y9005773D01*
X-7222286Y9001252D01*
X-7219442Y9001252D01*
X-7214920Y9007805D01*
X-7206335Y9015628D01*
X-7205116Y9015628D01*
X-7198918Y9023654D01*
X-7191654Y9028734D01*
X-7181596Y9038082D01*
X-7174179Y9040774D01*
X-7166356Y9044178D01*
X-7158228Y9050223D01*
X-7152182Y9052763D01*
X-7119518Y9059519D01*
X-7105853Y9061094D01*
X-7083856Y9055760D01*
X-7076236Y9054744D01*
X-7068261Y9051036D01*
X-7059015Y9040164D01*
X-7055916Y9034170D01*
X-7053884Y9020505D01*
X-7053834Y9016949D01*
X-7060387Y9010446D01*
X-7064857Y9009430D01*
X-7075017Y9006382D01*
X-7082739Y9000591D01*
X-7090664Y8997696D01*
X-7105853Y8995003D01*
X-7114235Y8990634D01*
X-7120280Y8986113D01*
X-7144461Y8980119D01*
X-7160869Y8971838D01*
X-7186320Y8964269D01*
X-7193788Y8959291D01*
X-7199274Y8955938D01*
X-7209129Y8952687D01*
X-7214616Y8949944D01*
X-7222744Y8943035D01*
X-7237577Y8935415D01*
X-7243775Y8927287D01*
X-7250988Y8922664D01*
X-7254138Y8919260D01*
X-7259015Y8908948D01*
X-7264958Y8902090D01*
X-7267803Y8896553D01*
X-7270191Y8888272D01*
X-7272072Y8874963D01*
X-7165695Y8874963D01*
X-7159447Y8883040D01*
X-7156348Y8890050D01*
X-7149592Y8895943D01*
X-7143089Y8897874D01*
X-7137044Y8900922D01*
X-7129424Y8906611D01*
X-7123734Y8908948D01*
X-7109358Y8912758D01*
X-7092848Y8921851D01*
X-7074357Y8927134D01*
X-7067905Y8930436D01*
X-7062622Y8934754D01*
X-7060895Y8934754D01*
X-7056831Y8930995D01*
X-7053834Y8923985D01*
X-7052259Y8917736D01*
X-7055205Y8888171D01*
X-7059015Y8880703D01*
X-7063130Y8876944D01*
X-7069124Y8868206D01*
X-7078421Y8858300D01*
X-7085685Y8854643D01*
X-7102703Y8850020D01*
X-7104125Y8849156D01*
X-7118756Y8846312D01*
X-7134199Y8846312D01*
X-7149134Y8850274D01*
X-7153706Y8852611D01*
X-7162393Y8859215D01*
X-7163866Y8864854D01*
X-7165695Y8874963D01*
X-7272072Y8874963D01*
X-7272883Y8869375D01*
X-7272883Y8836863D01*
X-7270191Y8817965D01*
X-7267803Y8809685D01*
X-7264908Y8804046D01*
X-7256373Y8794546D01*
X-7251141Y8786723D01*
X-7243267Y8781491D01*
X-7232650Y8772093D01*
X-7226858Y8769146D01*
X-7206843Y8764066D01*
X-7192416Y8759850D01*
X-7149388Y8759342D01*
X-7139686Y8763203D01*
X-7117486Y8768537D01*
X-7113473Y8771026D01*
X-7106615Y8777224D01*
X-7095236Y8783472D01*
X-7089597Y8787739D01*
X-7077760Y8802928D01*
X-7071918Y8808923D01*
X-7069124Y8814409D01*
X-7066076Y8822334D01*
X-7062063Y8828125D01*
X-7053427Y8823807D01*
X-7047382Y8817203D01*
X-7044131Y8811920D01*
X-7040829Y8802116D01*
X-7037679Y8797036D01*
X-7029703Y8791956D01*
X-7023862Y8784539D01*
X-7019290Y8781542D01*
X-7013244Y8779611D01*
X-7006132Y8776055D01*
X-7005116Y8774379D01*
X-6998360Y8771534D01*
X-6988911Y8769096D01*
X-6971487Y8767013D01*
X-6917232Y8766962D01*
X-6909968Y8769350D01*
X-6902754Y8773922D01*
X-6902754Y8845600D01*
X-6905345Y8849715D01*
X-6909612Y8855252D01*
X-6917690Y8860586D01*
X-6932015Y8863279D01*
X-6937502Y8867597D01*
X-6942074Y8873896D01*
X-6946036Y8888780D01*
X-6946036Y9030817D01*
X-6950557Y9053017D01*
X-6954977Y9077299D01*
X-6958228Y9083700D01*
X-6963308Y9089288D01*
X-6966508Y9095587D01*
X-6970369Y9105798D01*
X-6972249Y9108033D01*
X-6980174Y9113875D01*
X-6986422Y9122308D01*
X-6992569Y9126321D01*
X-7004253Y9137345D01*
X-7022846Y9143492D01*
X-7033717Y9150858D01*
X-7044385Y9153296D01*
X-7070191Y9156446D01*
G37*
G36*
X-7321499Y9152432D02*
G01*
X-7409586Y9152280D01*
X-7422388Y9149384D01*
X-7424369Y9147454D01*
X-7427366Y9133890D01*
X-7427366Y8774125D01*
X-7424775Y8771077D01*
X-7422184Y8769146D01*
X-7408824Y8766962D01*
X-7320635Y8766962D01*
X-7313625Y8771382D01*
X-7311999Y8774430D01*
X-7311999Y9134348D01*
X-7314387Y9145981D01*
X-7316622Y9149486D01*
G37*
G36*
X-7379309Y8731554D02*
G01*
X-7385050Y8725204D01*
X-7388656Y8717432D01*
X-7388656Y8687917D01*
X-7338517Y8687917D01*
X-7335977Y8690711D01*
X-7334046Y8688120D01*
X-7335672Y8686139D01*
X-7338517Y8687917D01*
X-7388656Y8687917D01*
X-7388707Y8644737D01*
X-7385761Y8641029D01*
X-7378953Y8637422D01*
X-7371588Y8641943D01*
X-7369048Y8647176D01*
X-7366558Y8658860D01*
X-7370419Y8668410D01*
X-7371384Y8674557D01*
X-7367270Y8683752D01*
X-7364679Y8686088D01*
X-7357922Y8681720D01*
X-7350506Y8674100D01*
X-7362828Y8659622D01*
X-7340346Y8659622D01*
X-7336790Y8663432D01*
X-7335824Y8663432D01*
X-7331811Y8659215D01*
X-7335774Y8652611D01*
X-7338517Y8656218D01*
X-7340346Y8659622D01*
X-7362828Y8659622D01*
X-7363002Y8659418D01*
X-7362037Y8656218D01*
X-7359599Y8644890D01*
X-7356449Y8641384D01*
X-7351318Y8638235D01*
X-7324953Y8640978D01*
X-7306360Y8640064D01*
X-7292136Y8643112D01*
X-7288682Y8640826D01*
X-7279081Y8637727D01*
X-7263485Y8637727D01*
X-7256170Y8640114D01*
X-7249210Y8644534D01*
X-7245350Y8651697D01*
X-7243013Y8659520D01*
X-7246061Y8665311D01*
X-7254290Y8673033D01*
X-7253325Y8678164D01*
X-7250430Y8683447D01*
X-7247483Y8688120D01*
X-7255662Y8695639D01*
X-7257491Y8702344D01*
X-7259980Y8705138D01*
X-7264095Y8707272D01*
X-7278471Y8707272D01*
X-7285024Y8704427D01*
X-7290612Y8700058D01*
X-7295032Y8697671D01*
X-7301230Y8688374D01*
X-7299096Y8679230D01*
X-7296810Y8674862D01*
X-7295337Y8673947D01*
X-7300823Y8666835D01*
X-7304483Y8659114D01*
X-7281621Y8659114D01*
X-7279131Y8661908D01*
X-7277100Y8661908D01*
X-7270699Y8659368D01*
X-7276693Y8656726D01*
X-7278878Y8656624D01*
X-7281621Y8659114D01*
X-7304483Y8659114D01*
X-7305243Y8657488D01*
X-7307325Y8655761D01*
X-7309510Y8660028D01*
X-7311999Y8672118D01*
X-7313218Y8690254D01*
X-7318095Y8700058D01*
X-7321499Y8704224D01*
X-7335621Y8707272D01*
X-7350353Y8706307D01*
X-7355382Y8703106D01*
X-7358989Y8696096D01*
X-7364526Y8690254D01*
X-7366812Y8693251D01*
X-7369860Y8700058D01*
X-7372705Y8720124D01*
X-7376515Y8728049D01*
G37*
G36*
X-7840980Y8731504D02*
G01*
X-7844180Y8722766D01*
X-7845755Y8716721D01*
X-7845755Y8701481D01*
X-7852359Y8687968D01*
X-7850428Y8683447D01*
X-7847888Y8672880D01*
X-7851902Y8660028D01*
X-7851952Y8658504D01*
X-7848295Y8644128D01*
X-7841996Y8637727D01*
X-7839862Y8637727D01*
X-7832496Y8642654D01*
X-7830718Y8648700D01*
X-7828178Y8674354D01*
X-7831328Y8691778D01*
X-7834375Y8702751D01*
X-7834375Y8717026D01*
X-7837931Y8726525D01*
G37*
G36*
X-7509205Y8731504D02*
G01*
X-7513828Y8724239D01*
X-7517130Y8714028D01*
X-7521956Y8706866D01*
X-7539380Y8706866D01*
X-7543698Y8704986D01*
X-7553604Y8697925D01*
X-7557871Y8692083D01*
X-7559497Y8684514D01*
X-7559497Y8673439D01*
X-7542733Y8673439D01*
X-7539736Y8679281D01*
X-7529525Y8686698D01*
X-7523530Y8693912D01*
X-7518603Y8683650D01*
X-7516063Y8672880D01*
X-7519263Y8659672D01*
X-7523276Y8653627D01*
X-7528001Y8656929D01*
X-7539736Y8667445D01*
X-7542733Y8673439D01*
X-7559497Y8673439D01*
X-7559497Y8658402D01*
X-7555738Y8650833D01*
X-7544003Y8640521D01*
X-7538618Y8638286D01*
X-7522565Y8639302D01*
X-7508748Y8637524D01*
X-7501788Y8641588D01*
X-7499248Y8645448D01*
X-7499451Y8717381D01*
X-7504023Y8726525D01*
G37*
G36*
X-8461603Y8731199D02*
G01*
X-8462365Y8729929D01*
X-8467953Y8727084D01*
X-8476030Y8725408D01*
X-8480856Y8722918D01*
X-8494217Y8709558D01*
X-8497062Y8703106D01*
X-8498890Y8687155D01*
X-8497062Y8668308D01*
X-8495080Y8657844D01*
X-8489797Y8653221D01*
X-8482736Y8649106D01*
X-8478621Y8642146D01*
X-8475573Y8638438D01*
X-8461552Y8636406D01*
X-8441385Y8639810D01*
X-8432292Y8643010D01*
X-8427008Y8649411D01*
X-8417661Y8659114D01*
X-8412937Y8655761D01*
X-8400034Y8649766D01*
X-8397341Y8645906D01*
X-8392972Y8640673D01*
X-8389010Y8638641D01*
X-8373770Y8637574D01*
X-8360156Y8640775D01*
X-8355990Y8644788D01*
X-8355990Y8658301D01*
X-8350453Y8672880D01*
X-8351418Y8688374D01*
X-8354669Y8694775D01*
X-8359190Y8700363D01*
X-8372094Y8706866D01*
X-8388451Y8707374D01*
X-8393074Y8704986D01*
X-8398865Y8697925D01*
X-8406536Y8694572D01*
X-8408466Y8692286D01*
X-8409616Y8688070D01*
X-8380425Y8688070D01*
X-8374735Y8693048D01*
X-8371941Y8689492D01*
X-8371941Y8687816D01*
X-8374837Y8685225D01*
X-8380425Y8688070D01*
X-8409616Y8688070D01*
X-8416696Y8661857D01*
X-8418017Y8659520D01*
X-8420100Y8664549D01*
X-8425332Y8670340D01*
X-8432393Y8673896D01*
X-8446871Y8659418D01*
X-8386368Y8659418D01*
X-8377631Y8663228D01*
X-8375345Y8664041D01*
X-8372297Y8663279D01*
X-8366455Y8659520D01*
X-8369858Y8655913D01*
X-8374786Y8654288D01*
X-8383219Y8657234D01*
X-8386368Y8659418D01*
X-8446871Y8659418D01*
X-8447328Y8658961D01*
X-8461095Y8655913D01*
X-8479485Y8672931D01*
X-8480450Y8688476D01*
X-8476589Y8700566D01*
X-8471408Y8706256D01*
X-8461451Y8711133D01*
X-8446312Y8710066D01*
X-8439861Y8705799D01*
X-8434628Y8698077D01*
X-8431834Y8696604D01*
X-8417915Y8700566D01*
X-8415121Y8702090D01*
X-8421928Y8709355D01*
X-8423605Y8715959D01*
X-8425688Y8719718D01*
X-8431834Y8724493D01*
X-8438337Y8725560D01*
X-8445957Y8728608D01*
G37*
G36*
X-7177531Y8731097D02*
G01*
X-7182764Y8724239D01*
X-7185863Y8718956D01*
X-7189114Y8710269D01*
X-7192619Y8706104D01*
X-7196632Y8698179D01*
X-7199301Y8688222D01*
X-7180173Y8688222D01*
X-7177531Y8692184D01*
X-7173112Y8689035D01*
X-7172350Y8687866D01*
X-7177328Y8683040D01*
X-7180173Y8688222D01*
X-7199301Y8688222D01*
X-7201865Y8678519D01*
X-7204303Y8673896D01*
X-7209383Y8667242D01*
X-7212330Y8659266D01*
X-7214971Y8644432D01*
X-7211415Y8640673D01*
X-7206335Y8637524D01*
X-7202881Y8639098D01*
X-7197598Y8643721D01*
X-7195058Y8650274D01*
X-7177379Y8666530D01*
X-7162444Y8664803D01*
X-7158126Y8660384D01*
X-7150862Y8643670D01*
X-7147509Y8641486D01*
X-7133945Y8638641D01*
X-7119162Y8637574D01*
X-7112406Y8641537D01*
X-7110018Y8644839D01*
X-7110018Y8673541D01*
X-7106920Y8679942D01*
X-7104481Y8681923D01*
X-7075271Y8682431D01*
X-7069734Y8677554D01*
X-7067956Y8674354D01*
X-7067718Y8672017D01*
X-7047026Y8672017D01*
X-7047026Y8675471D01*
X-7043064Y8687206D01*
X-7039813Y8690864D01*
X-7032955Y8695232D01*
X-7026909Y8694775D01*
X-7026428Y8687917D01*
X-6994601Y8687917D01*
X-6989724Y8692946D01*
X-6987082Y8689492D01*
X-6987031Y8687816D01*
X-6989978Y8685174D01*
X-6994601Y8687917D01*
X-7026428Y8687917D01*
X-7025690Y8677402D01*
X-7026503Y8668562D01*
X-7029348Y8662263D01*
X-7032548Y8659469D01*
X-7000036Y8659469D01*
X-6994906Y8662619D01*
X-6989825Y8664752D01*
X-6985762Y8663330D01*
X-6980580Y8659063D01*
X-6983425Y8655913D01*
X-6989876Y8653475D01*
X-6997547Y8656777D01*
X-7000036Y8659469D01*
X-7032548Y8659469D01*
X-7036104Y8660333D01*
X-7042556Y8665006D01*
X-7047026Y8672017D01*
X-7067718Y8672017D01*
X-7066229Y8657386D01*
X-7061809Y8651189D01*
X-7056374Y8642654D01*
X-7048144Y8637625D01*
X-7032955Y8638641D01*
X-7026757Y8642146D01*
X-7024776Y8644534D01*
X-7022338Y8649411D01*
X-7018324Y8651595D01*
X-7014362Y8649004D01*
X-7010603Y8643112D01*
X-7004100Y8639352D01*
X-6988911Y8637574D01*
X-6975348Y8640775D01*
X-6970572Y8644432D01*
X-6968744Y8653627D01*
X-6963257Y8663787D01*
X-6960616Y8670544D01*
X-6957079Y8659520D01*
X-6937756Y8659520D01*
X-6932117Y8663330D01*
X-6927697Y8660790D01*
X-6926325Y8659114D01*
X-6931863Y8655151D01*
X-6936282Y8657742D01*
X-6937756Y8659520D01*
X-6957079Y8659520D01*
X-6951929Y8644890D01*
X-6948678Y8641384D01*
X-6945884Y8639860D01*
X-6932777Y8637727D01*
X-6920585Y8637778D01*
X-6914642Y8639149D01*
X-6908444Y8643467D01*
X-6904481Y8651748D01*
X-6900468Y8657590D01*
X-6900468Y8660333D01*
X-6908901Y8668918D01*
X-6911136Y8673185D01*
X-6908647Y8688070D01*
X-6914286Y8702344D01*
X-6917131Y8705240D01*
X-6931253Y8707221D01*
X-6945680Y8705545D01*
X-6948068Y8704326D01*
X-6957974Y8688476D01*
X-6958128Y8687663D01*
X-6934911Y8687663D01*
X-6932218Y8693251D01*
X-6927596Y8688070D01*
X-6930999Y8685326D01*
X-6932930Y8685326D01*
X-6934911Y8687663D01*
X-6958128Y8687663D01*
X-6959803Y8678824D01*
X-6960920Y8676995D01*
X-6963613Y8688374D01*
X-6970268Y8697061D01*
X-6975297Y8702751D01*
X-6986676Y8706866D01*
X-7004100Y8706510D01*
X-7008672Y8703208D01*
X-7014311Y8696858D01*
X-7018680Y8695080D01*
X-7026148Y8695537D01*
X-7026605Y8702548D01*
X-7030059Y8705748D01*
X-7042607Y8710980D01*
X-7047534Y8714689D01*
X-7062063Y8713470D01*
X-7070953Y8707526D01*
X-7076389Y8704224D01*
X-7090613Y8707323D01*
X-7105142Y8704224D01*
X-7119213Y8707272D01*
X-7122312Y8705138D01*
X-7124496Y8702040D01*
X-7126020Y8694013D01*
X-7128205Y8670594D01*
X-7132015Y8659418D01*
X-7133742Y8657386D01*
X-7135266Y8658301D01*
X-7138009Y8664549D01*
X-7142835Y8684158D01*
X-7147102Y8693607D01*
X-7151065Y8698738D01*
X-7154875Y8709914D01*
X-7157212Y8718753D01*
X-7160717Y8724290D01*
X-7163206Y8726322D01*
G37*
G36*
X-8058708Y8729167D02*
G01*
X-8064042Y8726017D01*
X-8068411Y8722004D01*
X-8072018Y8716365D01*
X-8072018Y8687917D01*
X-7958836Y8687917D01*
X-7956296Y8690711D01*
X-7954365Y8688120D01*
X-7955991Y8686139D01*
X-7958836Y8687917D01*
X-8072018Y8687917D01*
X-8072018Y8644686D01*
X-8063280Y8641588D01*
X-8057337Y8640013D01*
X-8054949Y8641791D01*
X-8052308Y8644890D01*
X-8052206Y8664549D01*
X-8051038Y8674760D01*
X-8047939Y8678926D01*
X-8042960Y8682278D01*
X-8038846Y8679383D01*
X-8032750Y8666835D01*
X-8025790Y8660130D01*
X-8017459Y8644128D01*
X-8013953Y8640927D01*
X-7999831Y8640013D01*
X-7994091Y8642908D01*
X-7992414Y8644890D01*
X-7989874Y8654745D01*
X-7987842Y8659622D01*
X-7989265Y8660485D01*
X-7992109Y8666073D01*
X-7994446Y8673846D01*
X-7990230Y8682685D01*
X-7985404Y8686190D01*
X-7979003Y8682431D01*
X-7970824Y8674100D01*
X-7983146Y8659622D01*
X-7960664Y8659622D01*
X-7957108Y8663432D01*
X-7956143Y8663432D01*
X-7952130Y8659215D01*
X-7956042Y8652611D01*
X-7958836Y8656218D01*
X-7960664Y8659622D01*
X-7983146Y8659622D01*
X-7983321Y8659418D01*
X-7982356Y8656218D01*
X-7979867Y8644890D01*
X-7976768Y8641384D01*
X-7971586Y8638235D01*
X-7945272Y8640978D01*
X-7927086Y8640064D01*
X-7922209Y8643366D01*
X-7920939Y8645652D01*
X-7918754Y8651240D01*
X-7912709Y8653018D01*
X-7909153Y8650579D01*
X-7903819Y8642705D01*
X-7898942Y8639403D01*
X-7883652Y8637524D01*
X-7869529Y8640775D01*
X-7864957Y8645652D01*
X-7858404Y8659672D01*
X-7862062Y8663635D01*
X-7869428Y8669477D01*
X-7874050Y8666175D01*
X-7878775Y8659266D01*
X-7883652Y8654288D01*
X-7889392Y8656675D01*
X-7892694Y8659774D01*
X-7898384Y8673287D01*
X-7896809Y8676640D01*
X-7885277Y8692032D01*
X-7883702Y8692997D01*
X-7881061Y8688171D01*
X-7877352Y8683599D01*
X-7869936Y8677808D01*
X-7867192Y8679281D01*
X-7858658Y8687003D01*
X-7858658Y8688476D01*
X-7866989Y8699296D01*
X-7870037Y8702852D01*
X-7881061Y8706866D01*
X-7898536Y8706510D01*
X-7903819Y8700363D01*
X-7910830Y8693251D01*
X-7918246Y8688730D01*
X-7921650Y8676843D01*
X-7923275Y8663787D01*
X-7924749Y8658301D01*
X-7927187Y8656320D01*
X-7929016Y8658809D01*
X-7932318Y8672220D01*
X-7933537Y8690254D01*
X-7938414Y8700058D01*
X-7941818Y8704224D01*
X-7955889Y8707272D01*
X-7970672Y8706307D01*
X-7975701Y8703106D01*
X-7978851Y8697061D01*
X-7982661Y8692083D01*
X-7985607Y8690508D01*
X-7989316Y8693962D01*
X-7993024Y8701582D01*
X-7994700Y8716721D01*
X-7996936Y8722766D01*
X-7999628Y8726322D01*
X-8006334Y8722969D01*
X-8014309Y8716873D01*
X-8014309Y8696096D01*
X-8016697Y8695182D01*
X-8028533Y8695182D01*
X-8032191Y8698026D01*
X-8038541Y8710676D01*
X-8056219Y8729167D01*
G37*
G36*
X-7610246Y8726170D02*
G01*
X-7613192Y8721242D01*
X-7614818Y8716721D01*
X-7615631Y8693251D01*
X-7617866Y8669832D01*
X-7620965Y8659926D01*
X-7624673Y8656472D01*
X-7626146Y8659266D01*
X-7629347Y8672118D01*
X-7630617Y8690254D01*
X-7635443Y8700058D01*
X-7638846Y8704224D01*
X-7652969Y8707272D01*
X-7667701Y8706307D01*
X-7672730Y8703106D01*
X-7676388Y8696096D01*
X-7681722Y8690457D01*
X-7685938Y8693708D01*
X-7694269Y8699449D01*
X-7705699Y8705596D01*
X-7711186Y8707323D01*
X-7725359Y8704224D01*
X-7739532Y8707272D01*
X-7743647Y8705138D01*
X-7746492Y8701989D01*
X-7749336Y8691829D01*
X-7752537Y8673693D01*
X-7750149Y8659266D01*
X-7749235Y8644128D01*
X-7743799Y8638590D01*
X-7739481Y8636762D01*
X-7735671Y8639251D01*
X-7733030Y8643315D01*
X-7732064Y8675116D01*
X-7728712Y8683548D01*
X-7725206Y8687968D01*
X-7655864Y8687917D01*
X-7653324Y8690711D01*
X-7651394Y8688120D01*
X-7653020Y8686139D01*
X-7655864Y8687917D01*
X-7725048Y8687917D01*
X-7711897Y8683650D01*
X-7708442Y8679942D01*
X-7706055Y8672982D01*
X-7706055Y8644737D01*
X-7703108Y8641029D01*
X-7696301Y8637422D01*
X-7688986Y8641943D01*
X-7686446Y8647176D01*
X-7683906Y8658860D01*
X-7687767Y8668410D01*
X-7688783Y8674709D01*
X-7686192Y8681161D01*
X-7682433Y8686139D01*
X-7676591Y8682837D01*
X-7667853Y8674100D01*
X-7680177Y8659622D01*
X-7657744Y8659622D01*
X-7654137Y8663432D01*
X-7653172Y8663432D01*
X-7649159Y8659215D01*
X-7653121Y8652611D01*
X-7655864Y8656218D01*
X-7657744Y8659622D01*
X-7680177Y8659622D01*
X-7680350Y8659418D01*
X-7679385Y8656218D01*
X-7676845Y8644128D01*
X-7668310Y8635542D01*
X-7654798Y8639302D01*
X-7638846Y8638946D01*
X-7609992Y8640114D01*
X-7603947Y8641588D01*
X-7595209Y8644686D01*
X-7595209Y8716873D01*
X-7603185Y8722969D01*
X-7609586Y8726170D01*
G37*
G36*
X-8259419Y8720836D02*
G01*
X-8263737Y8715705D01*
X-8269782Y8707069D01*
X-8274354Y8703716D01*
X-8287867Y8700617D01*
X-8297164Y8705596D01*
X-8302548Y8707272D01*
X-8316874Y8705342D01*
X-8330539Y8707221D01*
X-8333994Y8705443D01*
X-8336788Y8700820D01*
X-8340242Y8687968D01*
X-8340293Y8669832D01*
X-8339124Y8644890D01*
X-8335619Y8638844D01*
X-8331809Y8635288D01*
X-8328964Y8636203D01*
X-8322208Y8643061D01*
X-8321446Y8675878D01*
X-8317026Y8685326D01*
X-8302294Y8685326D01*
X-8297875Y8675878D01*
X-8297164Y8643061D01*
X-8293353Y8639302D01*
X-8287613Y8636914D01*
X-8280958Y8643569D01*
X-8280146Y8681923D01*
X-8278622Y8697772D01*
X-8275878Y8699754D01*
X-8272881Y8699296D01*
X-8268512Y8690508D01*
X-8266430Y8675878D01*
X-8266379Y8657742D01*
X-8263280Y8644940D01*
X-8259318Y8640775D01*
X-8245094Y8637524D01*
X-8237931Y8639454D01*
X-8230260Y8643112D01*
X-8222742Y8639454D01*
X-8215579Y8637524D01*
X-8208772Y8641537D01*
X-8206384Y8644839D01*
X-8206384Y8673541D01*
X-8203285Y8679942D01*
X-8201101Y8681720D01*
X-8182406Y8680246D01*
X-8175396Y8677148D01*
X-8172551Y8672880D01*
X-8151164Y8672880D01*
X-8149234Y8680399D01*
X-8144103Y8690610D01*
X-8143595Y8690610D01*
X-8129117Y8683040D01*
X-8126577Y8679180D01*
X-8124444Y8673185D01*
X-8128304Y8661044D01*
X-8131149Y8658199D01*
X-8139226Y8655812D01*
X-8144713Y8654948D01*
X-8147913Y8659469D01*
X-8151164Y8672880D01*
X-8172551Y8672880D01*
X-8171535Y8671356D01*
X-8167014Y8657488D01*
X-8163102Y8649766D01*
X-8157768Y8641486D01*
X-8152130Y8637778D01*
X-8143748Y8635695D01*
X-8129473Y8637066D01*
X-8124037Y8639860D01*
X-8111490Y8650833D01*
X-8107324Y8659266D01*
X-8107425Y8686444D01*
X-8110575Y8692489D01*
X-8114893Y8696452D01*
X-8119821Y8698331D01*
X-8125307Y8704986D01*
X-8129625Y8707272D01*
X-8143951Y8707272D01*
X-8149844Y8704834D01*
X-8156651Y8699906D01*
X-8165033Y8697976D01*
X-8172856Y8694572D01*
X-8176514Y8698585D01*
X-8180527Y8704072D01*
X-8187232Y8707323D01*
X-8201406Y8704224D01*
X-8215985Y8707323D01*
X-8222742Y8704376D01*
X-8225332Y8702344D01*
X-8222996Y8674354D01*
X-8224824Y8666835D01*
X-8228990Y8658504D01*
X-8230057Y8652306D01*
X-8234934Y8657234D01*
X-8240928Y8658860D01*
X-8244331Y8658860D01*
X-8246465Y8663025D01*
X-8249666Y8673388D01*
X-8246465Y8688374D01*
X-8242808Y8691778D01*
X-8234273Y8702040D01*
X-8237931Y8705850D01*
X-8248548Y8712809D01*
X-8254847Y8718448D01*
G37*
G36*
X-7783474Y8707272D02*
G01*
X-7797546Y8707170D01*
X-7802321Y8705138D01*
X-7808163Y8699906D01*
X-7815783Y8696604D01*
X-7820101Y8692489D01*
X-7822031Y8688730D01*
X-7824669Y8673693D01*
X-7804861Y8673693D01*
X-7801762Y8682482D01*
X-7797850Y8687612D01*
X-7782814Y8687612D01*
X-7778902Y8682482D01*
X-7775803Y8673795D01*
X-7778496Y8665413D01*
X-7783169Y8659266D01*
X-7796784Y8657437D01*
X-7798612Y8658047D01*
X-7802981Y8666835D01*
X-7804861Y8673693D01*
X-7824669Y8673693D01*
X-7822844Y8658504D01*
X-7820507Y8653983D01*
X-7817307Y8650427D01*
X-7811211Y8647379D01*
X-7803946Y8640673D01*
X-7798714Y8638489D01*
X-7783118Y8638489D01*
X-7775295Y8642096D01*
X-7769453Y8647277D01*
X-7762392Y8651290D01*
X-7759141Y8656523D01*
X-7755991Y8672880D01*
X-7758633Y8688730D01*
X-7760563Y8692489D01*
X-7764881Y8696604D01*
X-7772501Y8699906D01*
X-7778343Y8705138D01*
G37*
G36*
X-7458456Y8707272D02*
G01*
X-7465771Y8707221D01*
X-7470343Y8704427D01*
X-7474966Y8698738D01*
X-7486243Y8693251D01*
X-7489444Y8688476D01*
X-7489484Y8687866D01*
X-7456271Y8687866D01*
X-7452106Y8690610D01*
X-7450988Y8690610D01*
X-7449515Y8687816D01*
X-7451090Y8686292D01*
X-7456271Y8687866D01*
X-7489484Y8687866D01*
X-7490510Y8673185D01*
X-7489545Y8660028D01*
X-7489256Y8659063D01*
X-7465618Y8659063D01*
X-7462723Y8660688D01*
X-7452106Y8664092D01*
X-7449058Y8663228D01*
X-7441895Y8659622D01*
X-7442708Y8657437D01*
X-7449159Y8654338D01*
X-7452969Y8654338D01*
X-7461199Y8656777D01*
X-7465618Y8659063D01*
X-7489256Y8659063D01*
X-7487970Y8654948D01*
X-7483449Y8649817D01*
X-7477861Y8646718D01*
X-7474864Y8642197D01*
X-7469936Y8639149D01*
X-7450937Y8635695D01*
X-7437120Y8641384D01*
X-7433462Y8644788D01*
X-7433462Y8659672D01*
X-7429144Y8668308D01*
X-7427315Y8673998D01*
X-7428788Y8688933D01*
X-7431278Y8693759D01*
X-7436713Y8699703D01*
X-7438237Y8699703D01*
X-7445248Y8704834D01*
X-7451140Y8707272D01*
G37*
G36*
X-8490000Y8625789D02*
G01*
X-8493404Y8623300D01*
X-8497214Y8616797D01*
X-8497214Y8558682D01*
X-8480501Y8558682D01*
X-8480501Y8601913D01*
X-8475573Y8606637D01*
X-8466429Y8608060D01*
X-8459165Y8608263D01*
X-8451037Y8604402D01*
X-8441994Y8594801D01*
X-8439505Y8587587D01*
X-8439505Y8572347D01*
X-8441639Y8565388D01*
X-8445601Y8557615D01*
X-8454288Y8553297D01*
X-8461248Y8551418D01*
X-8475573Y8553907D01*
X-8480501Y8558682D01*
X-8497214Y8558682D01*
X-8497214Y8543544D01*
X-8492744Y8536533D01*
X-8489289Y8534704D01*
X-8458860Y8535619D01*
X-8444331Y8537752D01*
X-8439099Y8540445D01*
X-8425332Y8554212D01*
X-8422944Y8561019D01*
X-8419896Y8573871D01*
X-8420608Y8585962D01*
X-8423706Y8602573D01*
X-8427262Y8608771D01*
X-8440521Y8620506D01*
X-8445804Y8622690D01*
X-8459622Y8624925D01*
G37*
G36*
X-8331352Y8625636D02*
G01*
X-8334705Y8623300D01*
X-8338362Y8616950D01*
X-8339175Y8583676D01*
X-8340953Y8573262D01*
X-8339277Y8562086D01*
X-8339277Y8543950D01*
X-8337143Y8539835D01*
X-8331860Y8534755D01*
X-8328812Y8535720D01*
X-8321802Y8543188D01*
X-8321802Y8617559D01*
X-8329930Y8625636D01*
G37*
G36*
X-8303818Y8625636D02*
G01*
X-8311946Y8617559D01*
X-8311896Y8613140D01*
X-8309864Y8601811D01*
X-8311896Y8590483D01*
X-8311946Y8543188D01*
X-8304936Y8535720D01*
X-8302040Y8534806D01*
X-8295436Y8538667D01*
X-8290661Y8544052D01*
X-8290712Y8549690D01*
X-8292846Y8573516D01*
X-8290102Y8581390D01*
X-8288121Y8585606D01*
X-8282736Y8580374D01*
X-8266023Y8572906D01*
X-8276539Y8568639D01*
X-8281670Y8564168D01*
X-8284413Y8558733D01*
X-8285429Y8544204D01*
X-8281720Y8539784D01*
X-8273745Y8535466D01*
X-8250072Y8538006D01*
X-8243214Y8538159D01*
X-8230565Y8534857D01*
X-8226958Y8537194D01*
X-8222945Y8544052D01*
X-8225536Y8551926D01*
X-8229955Y8558885D01*
X-8229955Y8571941D01*
X-8233613Y8582914D01*
X-8235238Y8589162D01*
X-8243976Y8598458D01*
X-8256371Y8600541D01*
X-8258911Y8601964D01*
X-8264601Y8599170D01*
X-8275523Y8597087D01*
X-8283752Y8592921D01*
X-8287918Y8588603D01*
X-8292287Y8595004D01*
X-8295894Y8601964D01*
X-8293862Y8609736D01*
X-8292795Y8617407D01*
X-8301075Y8625636D01*
G37*
G36*
X-8142579Y8625636D02*
G01*
X-8174888Y8625484D01*
X-8185505Y8623249D01*
X-8189010Y8621014D01*
X-8191855Y8616340D01*
X-8189620Y8612886D01*
X-8184743Y8610650D01*
X-8159648Y8607501D01*
X-8157870Y8607501D01*
X-8152485Y8602116D01*
X-8154822Y8597696D01*
X-8158937Y8595512D01*
X-8163712Y8590889D01*
X-8168284Y8581288D01*
X-8176006Y8575751D01*
X-8180781Y8566353D01*
X-8189010Y8558377D01*
X-8192516Y8551164D01*
X-8194446Y8544052D01*
X-8190433Y8537244D01*
X-8187080Y8534958D01*
X-8128558Y8534958D01*
X-8114893Y8538464D01*
X-8100466Y8535670D01*
X-8089087Y8537956D01*
X-8085328Y8538159D01*
X-8070697Y8535466D01*
X-8062468Y8539226D01*
X-8056981Y8544052D01*
X-8053933Y8539073D01*
X-8050834Y8529269D01*
X-8049869Y8514588D01*
X-8043722Y8508492D01*
X-8041944Y8508492D01*
X-8034934Y8512911D01*
X-8033156Y8516162D01*
X-8032292Y8530336D01*
X-8028228Y8534196D01*
X-8015478Y8535111D01*
X-7999171Y8537905D01*
X-7994954Y8540089D01*
X-7990992Y8544356D01*
X-7987741Y8557564D01*
X-7987690Y8576868D01*
X-7986217Y8587333D01*
X-7989620Y8591092D01*
X-7998409Y8596782D01*
X-8004809Y8597747D01*
X-8011922Y8600033D01*
X-8013649Y8602065D01*
X-8019084Y8598916D01*
X-8028279Y8596376D01*
X-8043113Y8602014D01*
X-8047583Y8595004D01*
X-8050022Y8587790D01*
X-8050022Y8573312D01*
X-8033258Y8573312D01*
X-8028838Y8579408D01*
X-8013953Y8582304D01*
X-8009839Y8578545D01*
X-8007502Y8573617D01*
X-8007502Y8558326D01*
X-8013344Y8552078D01*
X-8027517Y8554110D01*
X-8032394Y8558733D01*
X-8033258Y8573312D01*
X-8050022Y8573312D01*
X-8050022Y8558326D01*
X-8052968Y8549894D01*
X-8056981Y8544661D01*
X-8059877Y8547252D01*
X-8063941Y8555736D01*
X-8065058Y8579154D01*
X-8066684Y8587130D01*
X-8068106Y8589721D01*
X-8071662Y8593074D01*
X-8082889Y8597696D01*
X-8085023Y8599474D01*
X-8100568Y8601862D01*
X-8103514Y8599017D01*
X-8108848Y8596325D01*
X-8115655Y8594344D01*
X-8118957Y8592312D01*
X-8121243Y8587536D01*
X-8119211Y8583676D01*
X-8114893Y8579713D01*
X-8100618Y8577376D01*
X-8096250Y8573008D01*
X-8100263Y8568994D01*
X-8115401Y8564067D01*
X-8120430Y8556498D01*
X-8123326Y8553907D01*
X-8128914Y8551570D01*
X-8145170Y8551570D01*
X-8158784Y8553297D01*
X-8163864Y8557768D01*
X-8163864Y8560511D01*
X-8158886Y8565540D01*
X-8154060Y8569807D01*
X-8149081Y8579154D01*
X-8140700Y8587435D01*
X-8128558Y8607501D01*
X-8124240Y8615781D01*
X-8127085Y8620556D01*
X-8130844Y8623300D01*
G37*
G36*
X-7725409Y8625636D02*
G01*
X-7729981Y8625433D01*
X-7741513Y8624214D01*
X-7754264Y8620963D01*
X-7757668Y8618829D01*
X-7763103Y8610142D01*
X-7771942Y8601811D01*
X-7774787Y8589721D01*
X-7774787Y8572449D01*
X-7753908Y8572449D01*
X-7753908Y8588095D01*
X-7750962Y8591245D01*
X-7743596Y8603945D01*
X-7739837Y8606688D01*
X-7726172Y8608009D01*
X-7723124Y8607298D01*
X-7717383Y8604402D01*
X-7708188Y8595258D01*
X-7704531Y8587435D01*
X-7704531Y8572957D01*
X-7709103Y8563914D01*
X-7719415Y8553958D01*
X-7725867Y8552078D01*
X-7739837Y8553856D01*
X-7743596Y8556599D01*
X-7750962Y8569299D01*
X-7753908Y8572449D01*
X-7774787Y8572449D01*
X-7774787Y8570823D01*
X-7771942Y8558733D01*
X-7763967Y8551113D01*
X-7759090Y8542528D01*
X-7754772Y8538921D01*
X-7740599Y8535720D01*
X-7726172Y8534755D01*
X-7709814Y8537956D01*
X-7704378Y8540191D01*
X-7692999Y8551164D01*
X-7689545Y8557971D01*
X-7687056Y8572550D01*
X-7687056Y8587892D01*
X-7689646Y8603183D01*
X-7694371Y8609380D01*
X-7699603Y8612835D01*
X-7703464Y8618423D01*
X-7709458Y8622588D01*
G37*
G36*
X-7667752Y8625636D02*
G01*
X-7671104Y8623300D01*
X-7674762Y8616950D01*
X-7675676Y8598052D01*
X-7677200Y8588959D01*
X-7677200Y8571585D01*
X-7675676Y8562543D01*
X-7674762Y8543645D01*
X-7671053Y8537194D01*
X-7667447Y8534806D01*
X-7664602Y8536330D01*
X-7658201Y8543239D01*
X-7658201Y8617559D01*
X-7666329Y8625636D01*
G37*
G36*
X-7640218Y8625636D02*
G01*
X-7648346Y8617559D01*
X-7648295Y8613140D01*
X-7646263Y8601811D01*
X-7648295Y8590483D01*
X-7648346Y8543036D01*
X-7640218Y8534958D01*
X-7637627Y8534958D01*
X-7629753Y8542375D01*
X-7628940Y8576106D01*
X-7624775Y8587994D01*
X-7628686Y8602573D01*
X-7629601Y8617712D01*
X-7637475Y8625636D01*
G37*
G36*
X-7480198Y8625636D02*
G01*
X-7483551Y8623300D01*
X-7487412Y8616797D01*
X-7487412Y8599576D01*
X-7488936Y8583676D01*
X-7491628Y8573211D01*
X-7488174Y8561222D01*
X-7488174Y8543950D01*
X-7485989Y8539835D01*
X-7480706Y8534755D01*
X-7477658Y8535720D01*
X-7470698Y8543188D01*
X-7470698Y8617559D01*
X-7478826Y8625636D01*
G37*
G36*
X-7452715Y8625636D02*
G01*
X-7460792Y8617559D01*
X-7460792Y8543188D01*
X-7453833Y8535720D01*
X-7450937Y8534806D01*
X-7445756Y8538006D01*
X-7440320Y8544001D01*
X-7441793Y8573058D01*
X-7439507Y8587536D01*
X-7441844Y8601811D01*
X-7441844Y8617559D01*
X-7449972Y8625636D01*
G37*
G36*
X-7898638Y8616645D02*
G01*
X-7900822Y8614054D01*
X-7915605Y8602878D01*
X-7915656Y8601811D01*
X-7917789Y8591753D01*
X-7920278Y8586927D01*
X-7917688Y8584133D01*
X-7912557Y8582406D01*
X-7908442Y8574633D01*
X-7908396Y8573109D01*
X-7891475Y8573109D01*
X-7888325Y8581948D01*
X-7884414Y8587079D01*
X-7870139Y8587079D01*
X-7858861Y8579002D01*
X-7849920Y8575446D01*
X-7846466Y8573262D01*
X-7849057Y8570417D01*
X-7857083Y8568080D01*
X-7864500Y8561425D01*
X-7869377Y8551316D01*
X-7884769Y8552332D01*
X-7888274Y8554618D01*
X-7890814Y8558479D01*
X-7891475Y8573109D01*
X-7908396Y8573109D01*
X-7907477Y8544052D01*
X-7903464Y8538819D01*
X-7898790Y8535517D01*
X-7881823Y8535314D01*
X-7869834Y8540953D01*
X-7856016Y8535466D01*
X-7842351Y8537600D01*
X-7825638Y8537092D01*
X-7812176Y8534857D01*
X-7808620Y8537194D01*
X-7804607Y8544052D01*
X-7807147Y8551926D01*
X-7811617Y8558885D01*
X-7811617Y8572652D01*
X-7814513Y8577630D01*
X-7818526Y8590127D01*
X-7825638Y8597747D01*
X-7835493Y8599220D01*
X-7841081Y8601964D01*
X-7843621Y8600541D01*
X-7855915Y8598408D01*
X-7862214Y8594750D01*
X-7869885Y8587841D01*
X-7880807Y8587841D01*
X-7883702Y8589416D01*
X-7883702Y8601862D01*
G37*
G36*
X-7408265Y8602167D02*
G01*
X-7410043Y8600033D01*
X-7417155Y8597747D01*
X-7424013Y8596731D01*
X-7431227Y8592870D01*
X-7434325Y8587841D01*
X-7433360Y8584793D01*
X-7429500Y8580221D01*
X-7424013Y8577478D01*
X-7416393Y8575649D01*
X-7411313Y8573008D01*
X-7415275Y8570417D01*
X-7424775Y8568029D01*
X-7429703Y8564321D01*
X-7432497Y8558733D01*
X-7433513Y8544356D01*
X-7431024Y8540800D01*
X-7424064Y8536432D01*
X-7407300Y8536584D01*
X-7393635Y8537651D01*
X-7379208Y8534958D01*
X-7376718Y8535720D01*
X-7369708Y8543188D01*
X-7369708Y8544560D01*
X-7374229Y8558733D01*
X-7374280Y8573363D01*
X-7377226Y8579916D01*
X-7386116Y8592616D01*
X-7392924Y8598408D01*
X-7405217Y8600541D01*
G37*
G36*
X-7566964Y8602065D02*
G01*
X-7582001Y8586724D01*
X-7595463Y8570417D01*
X-7598257Y8574633D01*
X-7601254Y8584234D01*
X-7601305Y8586724D01*
X-7605014Y8594648D01*
X-7609230Y8599932D01*
X-7613040Y8599881D01*
X-7619238Y8597087D01*
X-7622489Y8592972D01*
X-7623962Y8587740D01*
X-7616393Y8562949D01*
X-7606639Y8552383D01*
X-7604150Y8543645D01*
X-7600492Y8538210D01*
X-7595920Y8534857D01*
X-7584186Y8536533D01*
X-7579258Y8538057D01*
X-7575296Y8543239D01*
X-7571130Y8564016D01*
X-7568742Y8568690D01*
X-7566507Y8570518D01*
X-7563205Y8565235D01*
X-7560572Y8558530D01*
X-7535214Y8558530D01*
X-7531811Y8561171D01*
X-7524292Y8565946D01*
X-7523225Y8565946D01*
X-7515402Y8558936D01*
X-7518603Y8555532D01*
X-7523632Y8552840D01*
X-7535214Y8558530D01*
X-7560572Y8558530D01*
X-7559548Y8555939D01*
X-7555433Y8550402D01*
X-7543952Y8538972D01*
X-7538720Y8536279D01*
X-7521194Y8536076D01*
X-7509764Y8537397D01*
X-7503566Y8540902D01*
X-7501128Y8544610D01*
X-7504582Y8558936D01*
X-7497521Y8572906D01*
X-7501940Y8589518D01*
X-7508849Y8596884D01*
X-7514336Y8596934D01*
X-7520228Y8598560D01*
X-7523632Y8601913D01*
X-7526883Y8600744D01*
X-7537145Y8599830D01*
X-7551928Y8592820D01*
X-7559903Y8596731D01*
G37*
G36*
X-7956245Y8601964D02*
G01*
X-7960766Y8599271D01*
X-7971434Y8597595D01*
X-7979054Y8592413D01*
X-7984083Y8587232D01*
X-7981086Y8580526D01*
X-7976514Y8577275D01*
X-7967522Y8575192D01*
X-7963153Y8572906D01*
X-7967624Y8570671D01*
X-7975193Y8568842D01*
X-7980019Y8565184D01*
X-7982407Y8558733D01*
X-7979613Y8542985D01*
X-7971688Y8535466D01*
X-7941818Y8538413D01*
X-7927086Y8534755D01*
X-7922818Y8538057D01*
X-7918653Y8543493D01*
X-7918653Y8546236D01*
X-7921752Y8554516D01*
X-7926628Y8558580D01*
X-7927492Y8573871D01*
X-7930743Y8588146D01*
X-7941157Y8598509D01*
X-7952028Y8599881D01*
G37*
G36*
X-8374684Y8601811D02*
G01*
X-8388248Y8599779D01*
X-8396579Y8595563D01*
X-8406790Y8592413D01*
X-8411006Y8590280D01*
X-8413851Y8587181D01*
X-8415832Y8573871D01*
X-8412156Y8558987D01*
X-8388959Y8558987D01*
X-8383016Y8562543D01*
X-8375345Y8565845D01*
X-8374380Y8565946D01*
X-8364981Y8559038D01*
X-8366607Y8557107D01*
X-8374329Y8552891D01*
X-8385200Y8556904D01*
X-8388959Y8558987D01*
X-8412156Y8558987D01*
X-8409686Y8551164D01*
X-8405317Y8542528D01*
X-8398103Y8538921D01*
X-8389975Y8536279D01*
X-8372297Y8536076D01*
X-8360918Y8537397D01*
X-8354669Y8540902D01*
X-8352231Y8544610D01*
X-8354568Y8552688D01*
X-8356853Y8558936D01*
X-8352790Y8566962D01*
X-8350605Y8573058D01*
X-8353196Y8588857D01*
X-8359495Y8595410D01*
X-8362543Y8595410D01*
X-8370265Y8597696D01*
G37*
G36*
X-7198614Y-775004D02*
G01*
X-7210653Y-776071D01*
X-7221931Y-777341D01*
X-7232396Y-779221D01*
X-7241286Y-781202D01*
X-7248499Y-783285D01*
X-7250023Y-784453D01*
X-7252309Y-784453D01*
X-7264603Y-790346D01*
X-7272934Y-795934D01*
X-7280402Y-803808D01*
X-7286650Y-814069D01*
X-7291781Y-826719D01*
X-7294727Y-842771D01*
X-7294727Y-875893D01*
X-7291628Y-887984D01*
X-7289190Y-894384D01*
X-7287818Y-896924D01*
X-7282484Y-905560D01*
X-7277506Y-911098D01*
X-7271562Y-916228D01*
X-7259777Y-923239D01*
X-7247585Y-927709D01*
X-7233208Y-931519D01*
X-7214717Y-934872D01*
X-7195362Y-936701D01*
X-7150049Y-940003D01*
X-7149084Y-942797D01*
X-7149084Y-957630D01*
X-7151116Y-958900D01*
X-7159955Y-959662D01*
X-7204709Y-961186D01*
X-7234021Y-959713D01*
X-7251750Y-957884D01*
X-7261402Y-956462D01*
X-7282434Y-952652D01*
X-7285990Y-952652D01*
X-7287564Y-955954D01*
X-7287564Y-959358D01*
X-7289850Y-967638D01*
X-7295997Y-996950D01*
X-7299959Y-1014628D01*
X-7297267Y-1016203D01*
X-7276693Y-1019505D01*
X-7261402Y-1021486D01*
X-7222744Y-1024991D01*
X-7140651Y-1024991D01*
X-7126935Y-1023315D01*
X-7115657Y-1021384D01*
X-7097979Y-1017524D01*
X-7085888Y-1013612D01*
X-7083450Y-1012190D01*
X-7078725Y-1010361D01*
X-7066381Y-1000760D01*
X-7060234Y-993140D01*
X-7053275Y-982065D01*
X-7053275Y-980744D01*
X-7051040Y-976579D01*
X-7049008Y-971448D01*
X-7046874Y-963168D01*
X-7044486Y-945997D01*
X-7044436Y-934516D01*
X-7046772Y-919886D01*
X-7051852Y-906881D01*
X-7057948Y-897331D01*
X-7065162Y-889914D01*
X-7074662Y-882751D01*
X-7085888Y-877062D01*
X-7098995Y-872388D01*
X-7100722Y-872388D01*
X-7106005Y-870610D01*
X-7123531Y-866648D01*
X-7128052Y-866648D01*
X-7132472Y-865327D01*
X-7145477Y-864057D01*
X-7161580Y-862837D01*
X-7172807Y-861568D01*
X-7190181Y-860704D01*
X-7190994Y-858062D01*
X-7190536Y-842111D01*
X-7168794Y-840486D01*
X-7122922Y-841044D01*
X-7103618Y-842416D01*
X-7075119Y-845769D01*
X-7072579Y-845007D01*
X-7072579Y-840841D01*
X-7071055Y-836371D01*
X-7069378Y-825550D01*
X-7067854Y-819810D01*
X-7065264Y-805180D01*
X-7063587Y-797509D01*
X-7061200Y-784656D01*
X-7065772Y-783234D01*
X-7085075Y-780592D01*
X-7093153Y-779272D01*
X-7105192Y-778103D01*
X-7122922Y-776782D01*
X-7134199Y-775411D01*
G37*
G36*
X-6380632Y-780592D02*
G01*
X-6504482Y-780948D01*
X-6517182Y-822350D01*
X-6518706Y-826262D01*
X-6527749Y-856132D01*
X-6541871Y-901344D01*
X-6543294Y-901700D01*
X-6545122Y-900734D01*
X-6560667Y-850392D01*
X-6567830Y-828649D01*
X-6567830Y-826312D01*
X-6572758Y-811530D01*
X-6581749Y-782878D01*
X-6583172Y-780643D01*
X-6707530Y-780643D01*
X-6709409Y-781608D01*
X-6713524Y-838911D01*
X-6714439Y-846582D01*
X-6720027Y-927506D01*
X-6721652Y-937717D01*
X-6723227Y-964437D01*
X-6727342Y-1017778D01*
X-6726478Y-1019606D01*
X-6626199Y-1019251D01*
X-6625234Y-1007160D01*
X-6620967Y-926236D01*
X-6620103Y-905256D01*
X-6619290Y-904646D01*
X-6616953Y-906526D01*
X-6595059Y-974648D01*
X-6592925Y-981811D01*
X-6590131Y-989939D01*
X-6588912Y-994410D01*
X-6583070Y-1012240D01*
X-6581343Y-1018641D01*
X-6579514Y-1019556D01*
X-6506972Y-1019556D01*
X-6505041Y-1018032D01*
X-6505041Y-1015542D01*
X-6469583Y-904951D01*
X-6467856Y-904087D01*
X-6466484Y-905205D01*
X-6460744Y-1019556D01*
X-6360210Y-1019556D01*
X-6359398Y-1018489D01*
X-6361684Y-985164D01*
X-6367424Y-914755D01*
X-6367373Y-907745D01*
X-6369761Y-881634D01*
X-6373876Y-828751D01*
X-6375400Y-805180D01*
X-6376974Y-791768D01*
X-6377025Y-781304D01*
G37*
G36*
X-6323126Y-780592D02*
G01*
X-6323888Y-782218D01*
X-6323687Y-899464D01*
X-6227267Y-899464D01*
X-6227267Y-842670D01*
X-6226200Y-841806D01*
X-6207556Y-841908D01*
X-6189065Y-843026D01*
X-6181801Y-844194D01*
X-6177737Y-845921D01*
X-6174536Y-848512D01*
X-6171742Y-854862D01*
X-6171742Y-887933D01*
X-6174435Y-893724D01*
X-6177737Y-896670D01*
X-6184442Y-899007D01*
X-6200292Y-900633D01*
X-6225895Y-901141D01*
X-6227267Y-899464D01*
X-6323687Y-899464D01*
X-6323482Y-1019251D01*
X-6227673Y-1019251D01*
X-6226860Y-962558D01*
X-6150406Y-961796D01*
X-6136690Y-959764D01*
X-6130290Y-958342D01*
X-6123025Y-956259D01*
X-6119876Y-954582D01*
X-6117844Y-954582D01*
X-6104077Y-948131D01*
X-6093663Y-940409D01*
X-6085027Y-931316D01*
X-6078474Y-921156D01*
X-6075832Y-915416D01*
X-6073394Y-909015D01*
X-6071108Y-901395D01*
X-6069482Y-892454D01*
X-6067856Y-885545D01*
X-6067856Y-853744D01*
X-6070396Y-841502D01*
X-6073546Y-831291D01*
X-6078372Y-820623D01*
X-6085027Y-810920D01*
X-6091834Y-803910D01*
X-6102908Y-795477D01*
X-6111748Y-791006D01*
X-6123838Y-786536D01*
X-6131102Y-784606D01*
X-6149594Y-781050D01*
G37*
G36*
X-5562346Y-780592D02*
G01*
X-5563108Y-782218D01*
X-5563003Y-843381D01*
X-5466537Y-843381D01*
X-5465724Y-841806D01*
X-5446776Y-841908D01*
X-5428284Y-843026D01*
X-5421020Y-844194D01*
X-5416956Y-845921D01*
X-5413756Y-848512D01*
X-5410962Y-854862D01*
X-5410962Y-876553D01*
X-5413857Y-883107D01*
X-5416042Y-885240D01*
X-5420918Y-887221D01*
X-5435498Y-889609D01*
X-5466080Y-889253D01*
X-5466537Y-843381D01*
X-5563003Y-843381D01*
X-5562701Y-1019251D01*
X-5466892Y-1019251D01*
X-5466080Y-949147D01*
X-5448401Y-948791D01*
X-5444744Y-949502D01*
X-5444744Y-951534D01*
X-5442559Y-954887D01*
X-5434126Y-970178D01*
X-5432704Y-971397D01*
X-5432704Y-972972D01*
X-5423001Y-989685D01*
X-5423001Y-990244D01*
X-5408472Y-1016101D01*
X-5406440Y-1019251D01*
X-5301132Y-1019606D01*
X-5299964Y-1018641D01*
X-5348376Y-944727D01*
X-5350560Y-942187D01*
X-5350560Y-940104D01*
X-5340045Y-934719D01*
X-5330545Y-927760D01*
X-5322570Y-919226D01*
X-5316880Y-910285D01*
X-5314594Y-905865D01*
X-5312613Y-901395D01*
X-5310225Y-893724D01*
X-5307126Y-879703D01*
X-5307126Y-849782D01*
X-5310327Y-835761D01*
X-5312511Y-828751D01*
X-5316982Y-819810D01*
X-5321909Y-812190D01*
X-5330291Y-803249D01*
X-5338876Y-796798D01*
X-5349341Y-791057D01*
X-5360263Y-786993D01*
X-5367782Y-784961D01*
X-5376722Y-783132D01*
X-5389626Y-780999D01*
G37*
G36*
X-6960311Y-780643D02*
G01*
X-6962038Y-781608D01*
X-6963206Y-784148D01*
X-6964527Y-789228D01*
X-6971944Y-811530D01*
X-6974230Y-819403D01*
X-6975195Y-820674D01*
X-6976668Y-826211D01*
X-6980174Y-836371D01*
X-6981444Y-840841D01*
X-6988809Y-863142D01*
X-6991096Y-871016D01*
X-6992112Y-872286D01*
X-6993585Y-877824D01*
X-6997090Y-887984D01*
X-6998360Y-892454D01*
X-7006937Y-918819D01*
X-6908596Y-918819D01*
X-6906056Y-911555D01*
X-6889750Y-856132D01*
X-6887972Y-854506D01*
X-6884670Y-854862D01*
X-6882587Y-860602D01*
X-6874002Y-891184D01*
X-6872224Y-896264D01*
X-6869582Y-906475D01*
X-6867448Y-912825D01*
X-6865772Y-919226D01*
X-6868414Y-920800D01*
X-6907631Y-920800D01*
X-6908596Y-918819D01*
X-7006937Y-918819D01*
X-7008012Y-922629D01*
X-7009028Y-923899D01*
X-7010501Y-929436D01*
X-7014006Y-939596D01*
X-7015276Y-944067D01*
X-7022642Y-966368D01*
X-7024928Y-974242D01*
X-7025944Y-975512D01*
X-7027418Y-981049D01*
X-7030923Y-991209D01*
X-7032193Y-995680D01*
X-7038187Y-1013510D01*
X-7039457Y-1018641D01*
X-7038289Y-1019606D01*
X-6937756Y-1019251D01*
X-6935165Y-1012240D01*
X-6929932Y-993749D01*
X-6927697Y-987806D01*
X-6927697Y-984808D01*
X-6925208Y-981964D01*
X-6847890Y-981964D01*
X-6845553Y-986383D01*
X-6845553Y-988872D01*
X-6843318Y-995070D01*
X-6840575Y-1005230D01*
X-6838492Y-1011631D01*
X-6837425Y-1016711D01*
X-6835089Y-1019556D01*
X-6734556Y-1019556D01*
X-6733844Y-1018641D01*
X-6748373Y-974648D01*
X-6749592Y-970178D01*
X-6753199Y-960018D01*
X-6754418Y-955548D01*
X-6765239Y-923036D01*
X-6766458Y-918565D01*
X-6770116Y-908405D01*
X-6771335Y-903935D01*
X-6782155Y-871423D01*
X-6783374Y-866952D01*
X-6787032Y-856792D01*
X-6788251Y-852322D01*
X-6799072Y-819810D01*
X-6800291Y-815340D01*
X-6803898Y-805180D01*
X-6805168Y-800709D01*
X-6810959Y-783082D01*
X-6812635Y-780643D01*
G37*
G36*
X-6038138Y-780643D02*
G01*
X-6038900Y-782218D01*
X-6038494Y-1019251D01*
X-5846064Y-1019251D01*
X-5846064Y-958748D01*
X-5941872Y-958087D01*
X-5942685Y-780948D01*
G37*
G36*
X-5818378Y-780643D02*
G01*
X-5819140Y-782218D01*
X-5818733Y-1019251D01*
X-5604560Y-1019251D01*
X-5604560Y-958748D01*
X-5722112Y-958087D01*
X-5722112Y-930046D01*
X-5626303Y-929436D01*
X-5626303Y-874623D01*
X-5721654Y-874268D01*
X-5722569Y-871423D01*
X-5722112Y-842111D01*
X-5618276Y-841502D01*
X-5617006Y-836371D01*
X-5615482Y-827024D01*
X-5614670Y-824941D01*
X-5613044Y-814069D01*
X-5611469Y-808329D01*
X-5608878Y-794359D01*
X-5606440Y-783844D01*
X-5606999Y-780948D01*
G37*
G36*
X-6624370Y-474980D02*
G01*
X-6624726Y-475945D01*
X-6634429Y-476808D01*
X-6645148Y-479551D01*
X-6649720Y-481076D01*
X-6658914Y-485241D01*
X-6668211Y-490728D01*
X-6676745Y-497585D01*
X-6679895Y-500684D01*
X-6686092Y-508101D01*
X-6690359Y-514502D01*
X-6692188Y-517804D01*
X-6694931Y-523798D01*
X-6696811Y-528929D01*
X-6698386Y-534466D01*
X-6699961Y-543306D01*
X-6700012Y-554837D01*
X-6698386Y-564540D01*
X-6695846Y-572668D01*
X-6693509Y-578713D01*
X-6692341Y-579780D01*
X-6692341Y-580948D01*
X-6690156Y-584708D01*
X-6689242Y-585216D01*
X-6689242Y-586486D01*
X-6685330Y-591870D01*
X-6679082Y-599186D01*
X-6681165Y-601776D01*
X-6682130Y-602335D01*
X-6688683Y-611327D01*
X-6694017Y-621030D01*
X-6698081Y-632053D01*
X-6698894Y-637235D01*
X-6699961Y-641400D01*
X-6700012Y-655269D01*
X-6698386Y-663600D01*
X-6696862Y-669137D01*
X-6695795Y-671931D01*
X-6694982Y-675081D01*
X-6693865Y-676046D01*
X-6693865Y-677214D01*
X-6690258Y-683971D01*
X-6683756Y-693216D01*
X-6680352Y-696874D01*
X-6672681Y-704189D01*
X-6662826Y-711047D01*
X-6662115Y-711047D01*
X-6657594Y-713841D01*
X-6656222Y-713841D01*
X-6654952Y-715213D01*
X-6653174Y-715213D01*
X-6651904Y-716584D01*
X-6650837Y-716584D01*
X-6643116Y-719277D01*
X-6637477Y-720699D01*
X-6629806Y-722172D01*
X-6383426Y-721918D01*
X-6376771Y-720699D01*
X-6370624Y-719277D01*
X-6363512Y-717194D01*
X-6352794Y-712927D01*
X-6348730Y-710793D01*
X-6339535Y-705307D01*
X-6329832Y-697687D01*
X-6322161Y-689508D01*
X-6317488Y-683971D01*
X-6316827Y-682599D01*
X-6314643Y-679348D01*
X-6310274Y-671474D01*
X-6306616Y-663346D01*
X-6306616Y-661771D01*
X-6305194Y-658063D01*
X-6303873Y-652932D01*
X-6302095Y-638606D01*
X-6302044Y-583539D01*
X-6300419Y-576580D01*
X-6298844Y-571500D01*
X-6296050Y-565048D01*
X-6290767Y-555802D01*
X-6284976Y-548843D01*
X-6280353Y-543864D01*
X-6272682Y-537870D01*
X-6265570Y-533552D01*
X-6254343Y-528472D01*
X-6250482Y-527202D01*
X-6245148Y-525780D01*
X-6234430Y-523595D01*
X-6217564Y-523595D01*
X-6211671Y-524967D01*
X-6208674Y-524967D01*
X-6198717Y-527913D01*
X-6189014Y-532130D01*
X-6181852Y-536244D01*
X-6176111Y-540258D01*
X-6168542Y-546963D01*
X-6164427Y-552043D01*
X-6162751Y-553313D01*
X-6162751Y-554126D01*
X-6160109Y-557631D01*
X-6156807Y-563422D01*
X-6153861Y-569671D01*
X-6150914Y-579374D01*
X-6149340Y-590499D01*
X-6148730Y-704799D01*
X-6147003Y-708507D01*
X-6145276Y-711606D01*
X-6139027Y-717600D01*
X-6136995Y-718464D01*
X-6133592Y-720293D01*
X-6127851Y-722172D01*
X-6118047Y-722172D01*
X-6113018Y-720699D01*
X-6106515Y-717753D01*
X-6100419Y-711860D01*
X-6097371Y-706323D01*
X-6095390Y-697128D01*
X-6095492Y-591870D01*
X-6097371Y-573176D01*
X-6098438Y-571347D01*
X-6098438Y-568350D01*
X-6101638Y-558088D01*
X-6103061Y-555040D01*
X-6103061Y-553720D01*
X-6108141Y-542594D01*
X-6114034Y-532688D01*
X-6118352Y-526796D01*
X-6118352Y-526338D01*
X-6126175Y-516991D01*
X-6136995Y-506780D01*
X-6147308Y-498856D01*
X-6155791Y-493268D01*
X-6168339Y-487019D01*
X-6176213Y-483666D01*
X-6178804Y-482955D01*
X-6184442Y-480923D01*
X-6194602Y-478231D01*
X-6199733Y-477367D01*
X-6203289Y-476402D01*
X-6208064Y-476402D01*
X-6209588Y-474980D01*
X-6241846Y-474980D01*
X-6241846Y-475843D01*
X-6247688Y-476402D01*
X-6255359Y-477824D01*
X-6266586Y-480669D01*
X-6274003Y-483311D01*
X-6274968Y-483311D01*
X-6281877Y-486206D01*
X-6293612Y-491896D01*
X-6303822Y-498144D01*
X-6310934Y-503326D01*
X-6321907Y-512927D01*
X-6329984Y-521665D01*
X-6335979Y-529844D01*
X-6341059Y-537718D01*
X-6346393Y-547674D01*
X-6346393Y-548894D01*
X-6347510Y-549859D01*
X-6348374Y-553008D01*
X-6350863Y-559460D01*
X-6353708Y-569214D01*
X-6354521Y-574751D01*
X-6355537Y-578916D01*
X-6355588Y-636879D01*
X-6357620Y-647496D01*
X-6360363Y-653897D01*
X-6365036Y-660349D01*
X-6370116Y-665022D01*
X-6374231Y-667918D01*
X-6379819Y-670661D01*
X-6389674Y-673658D01*
X-6624218Y-673811D01*
X-6629806Y-671931D01*
X-6635648Y-668883D01*
X-6641541Y-662990D01*
X-6644487Y-658063D01*
X-6646367Y-651560D01*
X-6646418Y-645769D01*
X-6644386Y-639114D01*
X-6643370Y-638200D01*
X-6643370Y-636930D01*
X-6638340Y-630885D01*
X-6632397Y-626821D01*
X-6628282Y-625094D01*
X-6623202Y-623570D01*
X-6437985Y-623570D01*
X-6430873Y-621842D01*
X-6425133Y-619150D01*
X-6421678Y-616356D01*
X-6418275Y-612495D01*
X-6415684Y-608076D01*
X-6413804Y-601573D01*
X-6413754Y-596950D01*
X-6415684Y-589991D01*
X-6418478Y-585165D01*
X-6424320Y-579678D01*
X-6430365Y-576580D01*
X-6435953Y-575005D01*
X-6620662Y-574954D01*
X-6628282Y-573227D01*
X-6631381Y-571957D01*
X-6636969Y-568604D01*
X-6640169Y-565505D01*
X-6643065Y-561340D01*
X-6644436Y-558546D01*
X-6646418Y-553008D01*
X-6646418Y-546557D01*
X-6644792Y-540969D01*
X-6641693Y-535330D01*
X-6636969Y-530707D01*
X-6630873Y-526846D01*
X-6625742Y-524764D01*
X-6438493Y-524205D01*
X-6432905Y-523240D01*
X-6428536Y-521766D01*
X-6422440Y-517956D01*
X-6418427Y-513689D01*
X-6415786Y-508812D01*
X-6413754Y-503021D01*
X-6413754Y-497078D01*
X-6415379Y-491896D01*
X-6416802Y-489254D01*
X-6416802Y-488492D01*
X-6419900Y-484327D01*
X-6425895Y-479399D01*
X-6433058Y-476402D01*
X-6436156Y-476402D01*
X-6437680Y-474980D01*
G37*
G36*
X-6018377Y-474980D02*
G01*
X-6018377Y-475894D01*
X-6022187Y-476504D01*
X-6028842Y-479501D01*
X-6034024Y-484022D01*
X-6036970Y-488188D01*
X-6038342Y-491439D01*
X-6040272Y-499770D01*
X-6040272Y-575767D01*
X-5986729Y-575767D01*
X-5986729Y-526135D01*
X-5986119Y-524103D01*
X-5984443Y-523697D01*
X-5852210Y-523595D01*
X-5844641Y-525373D01*
X-5838393Y-528269D01*
X-5833618Y-532028D01*
X-5829300Y-537260D01*
X-5825794Y-544474D01*
X-5825896Y-556209D01*
X-5827674Y-560374D01*
X-5830925Y-566166D01*
X-5836970Y-571804D01*
X-5839002Y-572668D01*
X-5842457Y-574548D01*
X-5847689Y-576580D01*
X-5985306Y-576834D01*
X-5986729Y-575767D01*
X-6040272Y-575767D01*
X-6040272Y-698398D01*
X-6038443Y-706628D01*
X-6035548Y-712114D01*
X-6028283Y-718769D01*
X-6021171Y-721868D01*
X-6014008Y-722630D01*
X-6005322Y-721766D01*
X-6001766Y-720547D01*
X-5996127Y-717600D01*
X-5990539Y-712114D01*
X-5986729Y-704545D01*
X-5986729Y-626922D01*
X-5985306Y-625856D01*
X-5890564Y-626719D01*
X-5884926Y-627837D01*
X-5875223Y-630580D01*
X-5866536Y-634339D01*
X-5860440Y-637590D01*
X-5854344Y-641756D01*
X-5845810Y-649274D01*
X-5839968Y-656183D01*
X-5836920Y-660349D01*
X-5832246Y-669137D01*
X-5829046Y-677468D01*
X-5829046Y-679094D01*
X-5827522Y-683158D01*
X-5826556Y-702005D01*
X-5825693Y-706170D01*
X-5822289Y-712673D01*
X-5814974Y-719226D01*
X-5808929Y-721868D01*
X-5804814Y-722680D01*
X-5797804Y-723188D01*
X-5792063Y-722020D01*
X-5786678Y-720090D01*
X-5780887Y-715873D01*
X-5776112Y-710488D01*
X-5774436Y-706170D01*
X-5772861Y-699262D01*
X-5773470Y-687679D01*
X-5774334Y-677976D01*
X-5775553Y-671931D01*
X-5777890Y-663397D01*
X-5780532Y-655726D01*
X-5782716Y-650646D01*
X-5783529Y-648258D01*
X-5789930Y-636778D01*
X-5792063Y-633984D01*
X-5793994Y-630732D01*
X-5798464Y-625398D01*
X-5798464Y-624738D01*
X-5807202Y-615492D01*
X-5809183Y-613003D01*
X-5805170Y-610819D01*
X-5800242Y-607161D01*
X-5792063Y-599744D01*
X-5788202Y-595426D01*
X-5783630Y-589280D01*
X-5780176Y-583539D01*
X-5777230Y-577545D01*
X-5773978Y-568452D01*
X-5773978Y-566115D01*
X-5772861Y-564235D01*
X-5771845Y-551129D01*
X-5772759Y-537718D01*
X-5775604Y-527558D01*
X-5778398Y-521055D01*
X-5783376Y-511809D01*
X-5786424Y-507644D01*
X-5790996Y-502056D01*
X-5795162Y-498043D01*
X-5800242Y-493572D01*
X-5808929Y-487629D01*
X-5813450Y-485089D01*
X-5822188Y-481076D01*
X-5832906Y-477875D01*
X-5838494Y-476453D01*
X-5844641Y-475894D01*
X-5844946Y-474980D01*
G37*
G36*
X-5569813Y-474980D02*
G01*
X-5692089Y-475030D01*
X-5693410Y-476402D01*
X-5695391Y-476402D01*
X-5701538Y-479348D01*
X-5707430Y-484530D01*
X-5710377Y-489051D01*
X-5712764Y-495554D01*
X-5712764Y-503072D01*
X-5711139Y-508101D01*
X-5709412Y-511352D01*
X-5705043Y-516635D01*
X-5699201Y-520598D01*
X-5696813Y-521817D01*
X-5692089Y-523341D01*
X-5602782Y-523849D01*
X-5602274Y-702462D01*
X-5600598Y-706780D01*
X-5597804Y-711911D01*
X-5591251Y-717854D01*
X-5584952Y-720648D01*
X-5577789Y-722274D01*
X-5570118Y-721715D01*
X-5566562Y-720648D01*
X-5559958Y-717753D01*
X-5554218Y-712673D01*
X-5550763Y-707085D01*
X-5548985Y-702005D01*
X-5548985Y-495147D01*
X-5550763Y-490067D01*
X-5554218Y-484479D01*
X-5559958Y-479399D01*
X-5566206Y-476402D01*
X-5568289Y-476402D01*
G37*
G36*
X-4701946Y-474980D02*
G01*
X-4702302Y-475996D01*
X-4710938Y-476402D01*
X-4726279Y-479298D01*
X-4737506Y-482498D01*
X-4747209Y-485952D01*
X-4757369Y-490423D01*
X-4761788Y-493064D01*
X-4762246Y-493064D01*
X-4767580Y-496011D01*
X-4777790Y-502920D01*
X-4784902Y-508558D01*
X-4791557Y-514705D01*
X-4796180Y-519277D01*
X-4801260Y-525170D01*
X-4808220Y-534416D01*
X-4813757Y-543255D01*
X-4818989Y-554380D01*
X-4821631Y-561340D01*
X-4824628Y-570585D01*
X-4826457Y-579831D01*
X-4828184Y-590042D01*
X-4827676Y-611784D01*
X-4825695Y-622198D01*
X-4823002Y-632612D01*
X-4820259Y-640486D01*
X-4817211Y-647395D01*
X-4810658Y-659434D01*
X-4808321Y-663244D01*
X-4803343Y-670102D01*
X-4797552Y-677011D01*
X-4794605Y-679805D01*
X-4788611Y-686054D01*
X-4777282Y-695248D01*
X-4770678Y-699770D01*
X-4761890Y-705002D01*
X-4759452Y-705967D01*
X-4754321Y-708761D01*
X-4745126Y-712571D01*
X-4736236Y-715670D01*
X-4731359Y-716940D01*
X-4729124Y-718007D01*
X-4726940Y-718007D01*
X-4722164Y-719328D01*
X-4714900Y-720750D01*
X-4712004Y-720750D01*
X-4703978Y-722172D01*
X-4574235Y-722172D01*
X-4569104Y-720394D01*
X-4566564Y-719124D01*
X-4562754Y-716483D01*
X-4558944Y-711758D01*
X-4557572Y-708507D01*
X-4556556Y-702970D01*
X-4556506Y-701548D01*
X-4557268Y-696010D01*
X-4560265Y-690422D01*
X-4564024Y-686917D01*
X-4568748Y-683768D01*
X-4575251Y-681888D01*
X-4698695Y-681888D01*
X-4709414Y-680415D01*
X-4715560Y-679043D01*
X-4729632Y-674624D01*
X-4730800Y-673557D01*
X-4732528Y-673557D01*
X-4733798Y-672185D01*
X-4735626Y-672185D01*
X-4736338Y-671169D01*
X-4738522Y-670306D01*
X-4742332Y-668172D01*
X-4750765Y-662533D01*
X-4759452Y-654812D01*
X-4763566Y-650646D01*
X-4768138Y-645109D01*
X-4768900Y-643686D01*
X-4770882Y-640943D01*
X-4771847Y-638911D01*
X-4772964Y-638302D01*
X-4772964Y-636625D01*
X-4774488Y-635508D01*
X-4774488Y-633882D01*
X-4775911Y-632815D01*
X-4776419Y-630732D01*
X-4778603Y-625652D01*
X-4780076Y-621487D01*
X-4781753Y-615492D01*
X-4783277Y-606653D01*
X-4783429Y-591870D01*
X-4782058Y-583539D01*
X-4779111Y-573328D01*
X-4777638Y-569569D01*
X-4773930Y-562000D01*
X-4770831Y-556666D01*
X-4766564Y-550824D01*
X-4759960Y-543255D01*
X-4752035Y-536143D01*
X-4744110Y-530707D01*
X-4737506Y-526897D01*
X-4727295Y-522325D01*
X-4721453Y-520395D01*
X-4713020Y-518109D01*
X-4705858Y-516432D01*
X-4575759Y-515874D01*
X-4571695Y-514959D01*
X-4565700Y-512368D01*
X-4560316Y-507492D01*
X-4557115Y-501396D01*
X-4557115Y-498093D01*
X-4556099Y-496316D01*
X-4557471Y-489102D01*
X-4560163Y-484022D01*
X-4565345Y-479298D01*
X-4571288Y-476402D01*
X-4573371Y-476402D01*
X-4574895Y-474980D01*
G37*
G36*
X-4478578Y-474980D02*
G01*
X-4478578Y-475894D01*
X-4482388Y-476554D01*
X-4488383Y-479399D01*
X-4493107Y-484327D01*
X-4495393Y-487984D01*
X-4496663Y-491896D01*
X-4496968Y-702970D01*
X-4495749Y-709422D01*
X-4492752Y-714654D01*
X-4487468Y-719226D01*
X-4480458Y-722223D01*
X-4467606Y-721868D01*
X-4461002Y-718769D01*
X-4456176Y-714298D01*
X-4453178Y-708507D01*
X-4451959Y-701090D01*
X-4452366Y-493268D01*
X-4453382Y-488645D01*
X-4456277Y-483819D01*
X-4461205Y-479298D01*
X-4467250Y-476402D01*
X-4469333Y-476402D01*
X-4470857Y-474980D01*
G37*
G36*
X-4325518Y-474980D02*
G01*
X-4325518Y-475843D01*
X-4329836Y-476504D01*
X-4332935Y-478028D01*
X-4338269Y-481584D01*
X-4341926Y-486562D01*
X-4344365Y-492709D01*
X-4344365Y-704342D01*
X-4342739Y-710539D01*
X-4341317Y-711606D01*
X-4341317Y-713181D01*
X-4334814Y-719226D01*
X-4327956Y-722223D01*
X-4315053Y-721868D01*
X-4311243Y-720496D01*
X-4305300Y-716280D01*
X-4301744Y-711250D01*
X-4300270Y-708050D01*
X-4300016Y-490626D01*
X-4301591Y-487273D01*
X-4302556Y-485901D01*
X-4303522Y-483819D01*
X-4308906Y-478840D01*
X-4314240Y-476453D01*
X-4318863Y-475843D01*
X-4318863Y-474980D01*
G37*
G36*
X-7085431Y-476402D02*
G01*
X-7173722Y-476504D01*
X-7190790Y-479094D01*
X-7196988Y-480466D01*
X-7208926Y-483819D01*
X-7217308Y-486918D01*
X-7225233Y-490321D01*
X-7238492Y-497382D01*
X-7248702Y-504342D01*
X-7258913Y-512368D01*
X-7268768Y-522427D01*
X-7272172Y-526288D01*
X-7278319Y-533958D01*
X-7281824Y-539496D01*
X-7283145Y-541223D01*
X-7283145Y-542544D01*
X-7284110Y-543052D01*
X-7287869Y-550214D01*
X-7288784Y-551586D01*
X-7293711Y-563626D01*
X-7296861Y-573836D01*
X-7298080Y-578916D01*
X-7298893Y-584454D01*
X-7299959Y-588619D01*
X-7299959Y-614984D01*
X-7296861Y-630275D01*
X-7291882Y-645109D01*
X-7288174Y-652932D01*
X-7284821Y-659028D01*
X-7281468Y-664514D01*
X-7280097Y-665988D01*
X-7280097Y-666699D01*
X-7276998Y-670204D01*
X-7276998Y-670814D01*
X-7269175Y-680262D01*
X-7253782Y-694182D01*
X-7241438Y-702614D01*
X-7236459Y-705307D01*
X-7234936Y-706323D01*
X-7224725Y-711149D01*
X-7218324Y-713841D01*
X-7217054Y-713841D01*
X-7215073Y-715213D01*
X-7213346Y-715213D01*
X-7210450Y-716534D01*
X-7199731Y-719277D01*
X-7186472Y-721766D01*
X-7171131Y-722782D01*
X-7055358Y-722680D01*
X-7043115Y-721817D01*
X-7036460Y-720699D01*
X-7030313Y-719277D01*
X-7020153Y-716432D01*
X-7006336Y-710539D01*
X-7002272Y-708456D01*
X-6993991Y-703427D01*
X-6986473Y-697941D01*
X-6975754Y-688136D01*
X-6968032Y-678891D01*
X-6967270Y-677468D01*
X-6963918Y-672846D01*
X-6960260Y-666394D01*
X-6956958Y-659384D01*
X-6954215Y-652018D01*
X-6952589Y-646938D01*
X-6951014Y-640791D01*
X-6950964Y-637235D01*
X-6949795Y-633526D01*
X-6949236Y-526135D01*
X-6834936Y-526135D01*
X-6829298Y-527964D01*
X-6827723Y-529132D01*
X-6826453Y-529132D01*
X-6820814Y-533044D01*
X-6816394Y-538226D01*
X-6813296Y-543712D01*
X-6811721Y-549808D01*
X-6811721Y-555701D01*
X-6813346Y-560882D01*
X-6814769Y-563473D01*
X-6814769Y-564286D01*
X-6818782Y-569671D01*
X-6823202Y-573481D01*
X-6827774Y-576122D01*
X-6836460Y-578866D01*
X-6895642Y-579424D01*
X-6904329Y-582980D01*
X-6911086Y-588924D01*
X-6913829Y-593699D01*
X-6915759Y-599287D01*
X-6915759Y-607618D01*
X-6913829Y-613156D01*
X-6911035Y-618083D01*
X-6902958Y-624941D01*
X-6901129Y-624941D01*
X-6899859Y-626364D01*
X-6898081Y-626364D01*
X-6894423Y-627735D01*
X-6884416Y-627735D01*
X-6874205Y-629208D01*
X-6862470Y-632307D01*
X-6852259Y-636574D01*
X-6849211Y-638352D01*
X-6847687Y-639013D01*
X-6840016Y-644296D01*
X-6831685Y-651814D01*
X-6825640Y-658977D01*
X-6821474Y-665480D01*
X-6818426Y-671525D01*
X-6816445Y-677011D01*
X-6814870Y-682142D01*
X-6813245Y-690524D01*
X-6813245Y-704342D01*
X-6811264Y-709879D01*
X-6808368Y-715111D01*
X-6804812Y-718667D01*
X-6800240Y-721918D01*
X-6797954Y-723087D01*
X-6791807Y-725017D01*
X-6778802Y-724662D01*
X-6772198Y-721715D01*
X-6768084Y-719124D01*
X-6763207Y-713587D01*
X-6761327Y-709879D01*
X-6759651Y-705256D01*
X-6759651Y-686155D01*
X-6760768Y-681177D01*
X-6761683Y-674725D01*
X-6764324Y-664972D01*
X-6765391Y-662228D01*
X-6766356Y-658520D01*
X-6767322Y-657656D01*
X-6767322Y-655675D01*
X-6768846Y-653897D01*
X-6768846Y-652729D01*
X-6773976Y-642772D01*
X-6776821Y-638149D01*
X-6779564Y-634238D01*
X-6779564Y-633730D01*
X-6783831Y-628599D01*
X-6786473Y-625043D01*
X-6792214Y-618693D01*
X-6794855Y-616102D01*
X-6794855Y-614883D01*
X-6786981Y-609498D01*
X-6778244Y-601573D01*
X-6772046Y-594156D01*
X-6767575Y-587248D01*
X-6763258Y-578459D01*
X-6759752Y-567334D01*
X-6758127Y-557631D01*
X-6758127Y-546049D01*
X-6759752Y-537718D01*
X-6761276Y-532180D01*
X-6762800Y-527558D01*
X-6764375Y-523849D01*
X-6767575Y-517448D01*
X-6771944Y-510540D01*
X-6777939Y-503478D01*
X-6784441Y-497433D01*
X-6791045Y-492302D01*
X-6801256Y-486308D01*
X-6811111Y-481939D01*
X-6812991Y-481939D01*
X-6814972Y-480568D01*
X-6816953Y-480568D01*
X-6826758Y-478078D01*
X-6836460Y-477215D01*
X-6976414Y-476859D01*
X-6984441Y-478180D01*
X-6988251Y-479450D01*
X-6989470Y-480568D01*
X-6990334Y-480568D01*
X-6995820Y-484327D01*
X-6998258Y-487273D01*
X-7001002Y-491693D01*
X-7003034Y-496976D01*
X-7003034Y-627989D01*
X-7004558Y-633323D01*
X-7004558Y-635457D01*
X-7007606Y-643026D01*
X-7011162Y-649579D01*
X-7013752Y-652678D01*
X-7013752Y-653288D01*
X-7016546Y-656132D01*
X-7024116Y-662990D01*
X-7032396Y-667867D01*
X-7039000Y-670712D01*
X-7050227Y-673811D01*
X-7177786Y-673811D01*
X-7186472Y-672084D01*
X-7192060Y-670661D01*
X-7195413Y-669391D01*
X-7196429Y-669391D01*
X-7206843Y-664667D01*
X-7214514Y-660247D01*
X-7221626Y-654913D01*
X-7226757Y-650138D01*
X-7231888Y-644245D01*
X-7235494Y-639521D01*
X-7241794Y-627888D01*
X-7241794Y-626821D01*
X-7243267Y-623824D01*
X-7244791Y-618236D01*
X-7246416Y-611022D01*
X-7246366Y-592785D01*
X-7245350Y-589076D01*
X-7244384Y-583996D01*
X-7242911Y-579374D01*
X-7238542Y-569214D01*
X-7235545Y-564083D01*
X-7230922Y-557631D01*
X-7226300Y-552043D01*
X-7217054Y-543712D01*
X-7212482Y-540359D01*
X-7204100Y-535279D01*
X-7195616Y-531520D01*
X-7190536Y-529539D01*
X-7179157Y-526389D01*
X-7176058Y-526389D01*
X-7170166Y-524967D01*
X-7087057Y-524967D01*
X-7080351Y-523493D01*
X-7074255Y-520598D01*
X-7068007Y-515061D01*
X-7064654Y-509016D01*
X-7062673Y-501142D01*
X-7063333Y-496976D01*
X-7064705Y-492353D01*
X-7066381Y-488645D01*
X-7070547Y-483616D01*
X-7074052Y-480771D01*
X-7079234Y-478180D01*
G37*
G36*
X-5456783Y-476402D02*
G01*
X-5465572Y-476453D01*
X-5472226Y-478485D01*
X-5476798Y-480669D01*
X-5480862Y-483514D01*
X-5483860Y-486359D01*
X-5487212Y-491134D01*
X-5488838Y-495147D01*
X-5490311Y-501599D01*
X-5490311Y-505307D01*
X-5488736Y-512064D01*
X-5485993Y-517347D01*
X-5481726Y-522478D01*
X-5476240Y-526237D01*
X-5473700Y-527507D01*
X-5470144Y-528726D01*
X-5464606Y-530098D01*
X-5458917Y-530606D01*
X-5450738Y-528726D01*
X-5446877Y-527456D01*
X-5445709Y-526389D01*
X-5444794Y-526389D01*
X-5440578Y-523392D01*
X-5436057Y-518972D01*
X-5434736Y-516890D01*
X-5433060Y-513638D01*
X-5431129Y-508609D01*
X-5431129Y-498398D01*
X-5433060Y-492810D01*
X-5435955Y-487730D01*
X-5443626Y-480771D01*
X-5449722Y-478078D01*
G37*
G36*
X-5115560Y-476504D02*
G01*
X-5119116Y-477367D01*
X-5123230Y-478078D01*
X-5135473Y-482396D01*
X-5140045Y-484885D01*
X-5148122Y-490474D01*
X-5153863Y-495655D01*
X-5159959Y-503021D01*
X-5164632Y-511352D01*
X-5167426Y-518261D01*
X-5168290Y-522579D01*
X-5169357Y-526135D01*
X-5169357Y-541731D01*
X-5167731Y-547878D01*
X-5166258Y-552551D01*
X-5164683Y-556209D01*
X-5161026Y-563168D01*
X-5155895Y-570128D01*
X-5145582Y-579475D01*
X-5136997Y-584504D01*
X-5130342Y-587400D01*
X-5126278Y-588772D01*
X-5116068Y-591362D01*
X-4936998Y-591870D01*
X-4934407Y-593140D01*
X-4932527Y-594664D01*
X-4931511Y-596950D01*
X-4930698Y-599440D01*
X-4932984Y-603961D01*
X-4935982Y-605739D01*
X-5110937Y-606348D01*
X-5119116Y-607263D01*
X-5129072Y-610158D01*
X-5138013Y-614070D01*
X-5145633Y-618693D01*
X-5154371Y-626567D01*
X-5158333Y-631037D01*
X-5163058Y-638403D01*
X-5165496Y-643686D01*
X-5167020Y-647852D01*
X-5169357Y-656793D01*
X-5169408Y-671931D01*
X-5167731Y-678434D01*
X-5165852Y-683971D01*
X-5164328Y-687730D01*
X-5160314Y-694588D01*
X-5156098Y-700379D01*
X-5145379Y-710082D01*
X-5137810Y-714502D01*
X-5130342Y-717905D01*
X-5126278Y-719277D01*
X-5120640Y-720699D01*
X-5114544Y-721918D01*
X-4905349Y-721918D01*
X-4898288Y-718820D01*
X-4892954Y-713943D01*
X-4889550Y-707593D01*
X-4889550Y-696468D01*
X-4892751Y-690422D01*
X-4898694Y-685139D01*
X-4902809Y-683361D01*
X-4907178Y-681888D01*
X-5108448Y-681888D01*
X-5114036Y-680110D01*
X-5116779Y-678789D01*
X-5121757Y-674268D01*
X-5124704Y-668680D01*
X-5125110Y-661517D01*
X-5123230Y-656640D01*
X-5120335Y-652729D01*
X-5115458Y-648919D01*
X-5111445Y-647446D01*
X-4935474Y-646887D01*
X-4928311Y-645718D01*
X-4922164Y-644347D01*
X-4915712Y-641604D01*
X-4914849Y-641604D01*
X-4905603Y-636016D01*
X-4898593Y-629818D01*
X-4895545Y-626110D01*
X-4892903Y-621944D01*
X-4889449Y-615492D01*
X-4886452Y-604367D01*
X-4886502Y-593242D01*
X-4888230Y-585876D01*
X-4890973Y-578916D01*
X-4893868Y-574497D01*
X-4893868Y-573989D01*
X-4899964Y-566724D01*
X-4908245Y-559917D01*
X-4913020Y-557428D01*
X-4920132Y-554329D01*
X-4925771Y-552805D01*
X-4932121Y-551383D01*
X-5108498Y-551383D01*
X-5114137Y-549605D01*
X-5116576Y-548386D01*
X-5121503Y-544220D01*
X-5124704Y-538175D01*
X-5125110Y-531063D01*
X-5123281Y-526592D01*
X-5119827Y-521766D01*
X-5115052Y-518617D01*
X-5110073Y-516635D01*
X-4907381Y-516635D01*
X-4902301Y-515162D01*
X-4898034Y-513384D01*
X-4892751Y-509117D01*
X-4891836Y-507187D01*
X-4889652Y-503935D01*
X-4887671Y-497027D01*
X-4888331Y-492810D01*
X-4889347Y-489559D01*
X-4892446Y-483768D01*
X-4898186Y-479145D01*
X-4903825Y-476605D01*
G37*
G36*
X-5300624Y-477774D02*
G01*
X-5355844Y-477824D01*
X-5358384Y-479145D01*
X-5359654Y-479145D01*
X-5364022Y-481888D01*
X-5367629Y-485444D01*
X-5369864Y-488391D01*
X-5369864Y-489254D01*
X-5371388Y-491896D01*
X-5371439Y-707339D01*
X-5368391Y-713130D01*
X-5365038Y-716381D01*
X-5360974Y-719175D01*
X-5357368Y-720699D01*
X-5351068Y-722274D01*
X-5345836Y-721715D01*
X-5342077Y-720648D01*
X-5338521Y-719175D01*
X-5333695Y-715975D01*
X-5330342Y-711758D01*
X-5328970Y-709422D01*
X-5327040Y-702970D01*
X-5327040Y-518058D01*
X-5248706Y-518058D01*
X-5242204Y-516178D01*
X-5237124Y-513689D01*
X-5232146Y-508609D01*
X-5232146Y-507593D01*
X-5230977Y-506526D01*
X-5229047Y-501650D01*
X-5229047Y-493268D01*
X-5231180Y-488188D01*
X-5233822Y-484936D01*
X-5237988Y-480923D01*
X-5245455Y-477774D01*
G37*
G36*
X-4580331Y-541629D02*
G01*
X-4691075Y-541782D01*
X-4704334Y-543458D01*
X-4709414Y-544830D01*
X-4714036Y-546354D01*
X-4723231Y-550519D01*
X-4730851Y-555701D01*
X-4737658Y-561898D01*
X-4743246Y-569214D01*
X-4746447Y-574598D01*
X-4749850Y-583539D01*
X-4751527Y-590143D01*
X-4751476Y-606196D01*
X-4750409Y-609904D01*
X-4749647Y-613613D01*
X-4748479Y-615645D01*
X-4748479Y-617220D01*
X-4742891Y-627481D01*
X-4737252Y-634390D01*
X-4733798Y-637692D01*
X-4729327Y-641400D01*
X-4725263Y-644245D01*
X-4720640Y-646684D01*
X-4713528Y-649833D01*
X-4709414Y-651205D01*
X-4703826Y-652678D01*
X-4695139Y-654100D01*
X-4576775Y-654100D01*
X-4569866Y-652424D01*
X-4568647Y-651357D01*
X-4566920Y-651357D01*
X-4560316Y-645414D01*
X-4557471Y-639978D01*
X-4556099Y-632764D01*
X-4557115Y-631037D01*
X-4557115Y-628091D01*
X-4560620Y-621487D01*
X-4565548Y-617270D01*
X-4568596Y-615492D01*
X-4572203Y-614121D01*
X-4692599Y-613562D01*
X-4697171Y-612190D01*
X-4701946Y-609447D01*
X-4705400Y-605282D01*
X-4707128Y-601065D01*
X-4707128Y-594512D01*
X-4705350Y-590956D01*
X-4702098Y-586689D01*
X-4695647Y-583082D01*
X-4575759Y-582523D01*
X-4571695Y-581609D01*
X-4565700Y-579018D01*
X-4560316Y-574141D01*
X-4557471Y-568706D01*
X-4556201Y-562559D01*
X-4557471Y-555752D01*
X-4560366Y-550418D01*
X-4566107Y-545439D01*
X-4571187Y-543153D01*
G37*
G36*
X-4397451Y-580542D02*
G01*
X-4401769Y-580593D01*
X-4406900Y-581964D01*
X-4410456Y-583539D01*
X-4416196Y-587451D01*
X-4419346Y-591058D01*
X-4422140Y-596036D01*
X-4423003Y-600202D01*
X-4423562Y-604266D01*
X-4422292Y-611327D01*
X-4418838Y-617677D01*
X-4412488Y-623316D01*
X-4405833Y-626313D01*
X-4398518Y-627888D01*
X-4392066Y-626872D01*
X-4388510Y-626008D01*
X-4382922Y-623570D01*
X-4377994Y-619709D01*
X-4373880Y-613613D01*
X-4371949Y-608533D01*
X-4371949Y-599186D01*
X-4373880Y-594207D01*
X-4375251Y-591820D01*
X-4379061Y-587146D01*
X-4384446Y-583539D01*
X-4388002Y-582015D01*
X-4393133Y-580542D01*
G37*
G36*
X-6226251Y-596341D02*
G01*
X-6232398Y-597255D01*
X-6237478Y-598728D01*
X-6243116Y-601472D01*
X-6244844Y-603148D01*
X-6246723Y-604367D01*
X-6251244Y-609904D01*
X-6252514Y-611987D01*
X-6254496Y-617321D01*
X-6255054Y-623824D01*
X-6254191Y-631342D01*
X-6249924Y-639318D01*
X-6243523Y-645312D01*
X-6241034Y-646277D01*
X-6237681Y-648106D01*
X-6231890Y-649935D01*
X-6219088Y-649935D01*
X-6213297Y-648106D01*
X-6207556Y-645312D01*
X-6201511Y-639826D01*
X-6200495Y-637692D01*
X-6198463Y-634644D01*
X-6196431Y-629412D01*
X-6196431Y-617270D01*
X-6198362Y-612241D01*
X-6199886Y-609650D01*
X-6204458Y-604266D01*
X-6210452Y-600202D01*
X-6212738Y-599033D01*
X-6218072Y-597255D01*
G37*
G36*
X-544576Y2511806D02*
G01*
X-544576Y2505964D01*
X-533654Y2503424D01*
X-533654Y2487676D01*
X-536905Y2491841D01*
X-540461Y2495702D01*
X-544322Y2499207D01*
X-548538Y2502255D01*
X-553059Y2504744D01*
X-557834Y2506624D01*
X-562914Y2507843D01*
X-568198Y2508250D01*
X-575919Y2507538D01*
X-582676Y2505557D01*
X-588467Y2502458D01*
X-593293Y2498394D01*
X-597052Y2493518D01*
X-599795Y2487980D01*
X-601421Y2482037D01*
X-601980Y2475738D01*
X-601421Y2469286D01*
X-599795Y2463241D01*
X-597052Y2457653D01*
X-593293Y2452776D01*
X-588467Y2448712D01*
X-582676Y2445613D01*
X-575919Y2443683D01*
X-568198Y2442972D01*
X-562914Y2443378D01*
X-557834Y2444597D01*
X-553059Y2446477D01*
X-548538Y2449017D01*
X-544322Y2452065D01*
X-540461Y2455621D01*
X-536905Y2459532D01*
X-533654Y2463800D01*
X-533654Y2447798D01*
X-544576Y2445258D01*
X-544576Y2439416D01*
X-525780Y2440432D01*
X-525780Y2470404D01*
X-532638Y2470404D01*
X-535990Y2466695D01*
X-539750Y2463342D01*
X-543915Y2460447D01*
X-548335Y2458008D01*
X-553008Y2456027D01*
X-557936Y2454554D01*
X-563016Y2453690D01*
X-568198Y2453386D01*
X-574192Y2453792D01*
X-579678Y2454910D01*
X-584606Y2456789D01*
X-588873Y2459329D01*
X-592328Y2462530D01*
X-594969Y2466340D01*
X-596595Y2470759D01*
X-597154Y2475738D01*
X-596595Y2480716D01*
X-594969Y2485085D01*
X-592328Y2488844D01*
X-588873Y2492044D01*
X-584606Y2494534D01*
X-579678Y2496362D01*
X-574192Y2497480D01*
X-568198Y2497836D01*
X-563016Y2497531D01*
X-557936Y2496616D01*
X-553008Y2495194D01*
X-548335Y2493213D01*
X-543915Y2490774D01*
X-539750Y2487879D01*
X-535990Y2484526D01*
X-532638Y2480818D01*
X-525780Y2480818D01*
X-525780Y2510790D01*
G37*
G36*
X-544068Y2429764D02*
G01*
X-550824Y2428748D01*
X-556463Y2425649D01*
X-561340Y2420416D01*
X-565658Y2413000D01*
X-570230Y2419502D01*
X-575056Y2423617D01*
X-579882Y2425801D01*
X-584454Y2426462D01*
X-591312Y2425141D01*
X-596798Y2421331D01*
X-600405Y2415336D01*
X-601686Y2407158D01*
X-597408Y2407158D01*
X-596341Y2411933D01*
X-593547Y2415540D01*
X-589483Y2417775D01*
X-584708Y2418588D01*
X-579526Y2418080D01*
X-575106Y2416505D01*
X-571195Y2413660D01*
X-567436Y2409444D01*
X-570741Y2403856D01*
X-560578Y2403856D01*
X-556158Y2411984D01*
X-551840Y2417216D01*
X-547420Y2420010D01*
X-542544Y2420874D01*
X-536803Y2419908D01*
X-532434Y2417165D01*
X-529590Y2412949D01*
X-528574Y2407412D01*
X-529691Y2401519D01*
X-532739Y2396947D01*
X-537464Y2394000D01*
X-543560Y2392934D01*
X-548894Y2393594D01*
X-553313Y2395626D01*
X-557123Y2399030D01*
X-560578Y2403856D01*
X-570741Y2403856D01*
X-571703Y2402230D01*
X-576122Y2397810D01*
X-580644Y2395575D01*
X-585216Y2394966D01*
X-590346Y2395931D01*
X-594156Y2398572D01*
X-596595Y2402484D01*
X-597408Y2407158D01*
X-601686Y2407158D01*
X-600456Y2399233D01*
X-596747Y2392629D01*
X-590905Y2388209D01*
X-583184Y2386584D01*
X-577037Y2387346D01*
X-571550Y2389835D01*
X-566674Y2394102D01*
X-562356Y2400300D01*
X-558342Y2393238D01*
X-553770Y2388158D01*
X-548589Y2385060D01*
X-542544Y2384044D01*
X-534771Y2385720D01*
X-529031Y2390444D01*
X-525475Y2397658D01*
X-524256Y2406904D01*
X-525729Y2416048D01*
X-529793Y2423261D01*
X-536041Y2428036D01*
G37*
G36*
X-557022Y2374646D02*
G01*
X-557022Y2348738D01*
X-550418Y2348738D01*
X-550418Y2374646D01*
G37*
G36*
X-555498Y2342388D02*
G01*
X-555498Y2330704D01*
X-601472Y2330704D01*
X-601472Y2324608D01*
X-597474Y2321814D01*
X-555498Y2321814D01*
X-555498Y2297176D01*
X-590804Y2321814D01*
X-597474Y2321814D01*
X-554228Y2291588D01*
X-548894Y2291588D01*
X-548894Y2321814D01*
X-525780Y2321814D01*
X-525780Y2330704D01*
X-548894Y2330704D01*
X-548894Y2342388D01*
G37*
D10*
X-6720253Y3157453D02*
G01*
X-6720253Y2963651D01*
X-6720253Y3157453D02*
G01*
X-6637195Y3157453D01*
X-6609509Y3148309D01*
X-6600111Y3139165D01*
X-6590967Y3120623D01*
X-6590967Y3102081D01*
X-6600111Y3083539D01*
X-6609509Y3074395D01*
X-6637195Y3065251D01*
X-6720253Y3065251D01*
X-6655483Y3065251D02*
G01*
X-6590967Y2963651D01*
X-6530007Y3157453D02*
G01*
X-6530007Y2963651D01*
X-6530007Y3157453D02*
G01*
X-6409865Y3157453D01*
X-6530007Y3065251D02*
G01*
X-6456093Y3065251D01*
X-6530007Y2963651D02*
G01*
X-6409865Y2963651D01*
X-6219619Y3129767D02*
G01*
X-6238161Y3148309D01*
X-6265847Y3157453D01*
X-6302677Y3157453D01*
X-6330363Y3148309D01*
X-6348905Y3129767D01*
X-6348905Y3111225D01*
X-6339761Y3092937D01*
X-6330363Y3083539D01*
X-6312075Y3074395D01*
X-6256703Y3055853D01*
X-6238161Y3046709D01*
X-6228763Y3037565D01*
X-6219619Y3019023D01*
X-6219619Y2991337D01*
X-6238161Y2972795D01*
X-6265847Y2963651D01*
X-6302677Y2963651D01*
X-6330363Y2972795D01*
X-6348905Y2991337D01*
X-6158659Y3157453D02*
G01*
X-6158659Y2963651D01*
X-6158659Y3157453D02*
G01*
X-6038517Y3157453D01*
X-6158659Y3065251D02*
G01*
X-6084745Y3065251D01*
X-6158659Y2963651D02*
G01*
X-6038517Y2963651D01*
X-5913041Y3157453D02*
G01*
X-5913041Y2963651D01*
X-5977557Y3157453D02*
G01*
X-5848271Y3157453D01*
X-99999Y4700828D02*
G01*
X-99999Y4605324D01*
X-70027Y4700828D02*
G01*
X-70027Y4605324D01*
X-70027Y4700828D02*
G01*
X-6273Y4605324D01*
X-6273Y4700828D02*
G01*
X-6273Y4605324D01*
X23698Y4700828D02*
G01*
X23698Y4605324D01*
X121742Y4678222D02*
G01*
X117170Y4687366D01*
X108280Y4696256D01*
X99136Y4700828D01*
X80848Y4700828D01*
X71704Y4696256D01*
X62814Y4687366D01*
X58242Y4678222D01*
X53670Y4664506D01*
X53670Y4641900D01*
X58242Y4628184D01*
X62814Y4619040D01*
X71704Y4609896D01*
X80848Y4605324D01*
X99136Y4605324D01*
X108280Y4609896D01*
X117170Y4619040D01*
X121742Y4628184D01*
X151714Y4700828D02*
G01*
X151714Y4605324D01*
X209118Y4700828D02*
G01*
X199974Y4696256D01*
X190830Y4687366D01*
X186258Y4678222D01*
X181940Y4664506D01*
X181940Y4641900D01*
X186258Y4628184D01*
X190830Y4619040D01*
X199974Y4609896D01*
X209118Y4605324D01*
X227152Y4605324D01*
X236296Y4609896D01*
X245440Y4619040D01*
X250012Y4628184D01*
X254584Y4641900D01*
X254584Y4664506D01*
X250012Y4678222D01*
X245440Y4687366D01*
X236296Y4696256D01*
X227152Y4700828D01*
X209118Y4700828D01*
X366344Y4719116D02*
G01*
X284556Y4573574D01*
X466420Y4700828D02*
G01*
X466420Y4605324D01*
X466420Y4700828D02*
G01*
X525348Y4700828D01*
X466420Y4655362D02*
G01*
X502742Y4655362D01*
X555574Y4700828D02*
G01*
X555574Y4605324D01*
X585546Y4700828D02*
G01*
X585546Y4605324D01*
X585546Y4700828D02*
G01*
X649046Y4605324D01*
X649046Y4700828D02*
G01*
X649046Y4605324D01*
X192758Y8800337D02*
G01*
X192758Y8704834D01*
X192758Y8800337D02*
G01*
X233652Y8800337D01*
X247368Y8795765D01*
X251940Y8791194D01*
X256512Y8782304D01*
X256512Y8773160D01*
X251940Y8764015D01*
X247368Y8759444D01*
X233652Y8754871D01*
X192758Y8754871D01*
X224508Y8754871D02*
G01*
X256512Y8704834D01*
X286484Y8800337D02*
G01*
X286484Y8704834D01*
X286484Y8800337D02*
G01*
X345412Y8800337D01*
X286484Y8754871D02*
G01*
X322806Y8754871D01*
X286484Y8704834D02*
G01*
X345412Y8704834D01*
X375384Y8800337D02*
G01*
X411960Y8704834D01*
X448282Y8800337D02*
G01*
X411960Y8704834D01*
X478254Y8800337D02*
G01*
X478254Y8704834D01*
X478254Y8800337D02*
G01*
X537182Y8800337D01*
X478254Y8754871D02*
G01*
X514576Y8754871D01*
X478254Y8704834D02*
G01*
X537182Y8704834D01*
X567408Y8800337D02*
G01*
X567408Y8704834D01*
X567408Y8800337D02*
G01*
X608302Y8800337D01*
X621764Y8795765D01*
X626336Y8791194D01*
X630908Y8782304D01*
X630908Y8773160D01*
X626336Y8764015D01*
X621764Y8759444D01*
X608302Y8754871D01*
X567408Y8754871D01*
X599158Y8754871D02*
G01*
X630908Y8704834D01*
X660880Y8800337D02*
G01*
X660880Y8704834D01*
X660880Y8800337D02*
G01*
X701774Y8800337D01*
X715490Y8795765D01*
X720062Y8791194D01*
X724634Y8782304D01*
X724634Y8773160D01*
X720062Y8764015D01*
X715490Y8759444D01*
X701774Y8754871D01*
X660880Y8754871D02*
G01*
X701774Y8754871D01*
X715490Y8750300D01*
X720062Y8745981D01*
X724634Y8736837D01*
X724634Y8723121D01*
X720062Y8713978D01*
X715490Y8709405D01*
X701774Y8704834D01*
X660880Y8704834D01*
X-82016Y6781723D02*
G01*
X-82016Y6686219D01*
X-82016Y6781723D02*
G01*
X-50266Y6781723D01*
X-36550Y6777151D01*
X-27406Y6768261D01*
X-22834Y6759117D01*
X-18262Y6745401D01*
X-18262Y6722795D01*
X-22834Y6709079D01*
X-27406Y6699935D01*
X-36550Y6690791D01*
X-50266Y6686219D01*
X-82016Y6686219D01*
X11709Y6781723D02*
G01*
X11709Y6686219D01*
X11709Y6781723D02*
G01*
X70637Y6781723D01*
X11709Y6736257D02*
G01*
X48031Y6736257D01*
X11709Y6686219D02*
G01*
X70637Y6686219D01*
X100609Y6781723D02*
G01*
X100609Y6686219D01*
X100609Y6686219D02*
G01*
X155219Y6686219D01*
X221513Y6781723D02*
G01*
X185191Y6686219D01*
X221513Y6781723D02*
G01*
X258089Y6686219D01*
X198907Y6718223D02*
G01*
X244373Y6718223D01*
X288061Y6781723D02*
G01*
X324383Y6736257D01*
X324383Y6686219D01*
X360705Y6781723D02*
G01*
X324383Y6736257D01*
X1003780Y5396737D02*
G01*
X967458Y5301234D01*
X1003780Y5396737D02*
G01*
X1040102Y5301234D01*
X981174Y5333237D02*
G01*
X1026640Y5333237D01*
X1005558Y4837937D02*
G01*
X1005558Y4742434D01*
X1005558Y4837937D02*
G01*
X1046452Y4837937D01*
X1060168Y4833365D01*
X1064740Y4828794D01*
X1069312Y4819904D01*
X1069312Y4810760D01*
X1064740Y4801615D01*
X1060168Y4797044D01*
X1046452Y4792471D01*
X1005558Y4792471D02*
G01*
X1046452Y4792471D01*
X1060168Y4787900D01*
X1064740Y4783581D01*
X1069312Y4774437D01*
X1069312Y4760721D01*
X1064740Y4751578D01*
X1060168Y4747005D01*
X1046452Y4742434D01*
X1005558Y4742434D01*
X-7460510Y4300021D02*
G01*
X-7403360Y4300021D01*
X-7460510Y4300021D02*
G01*
X-7460510Y4335327D01*
X-7433332Y4300021D02*
G01*
X-7433332Y4321865D01*
X-7460510Y4353361D02*
G01*
X-7403360Y4367077D01*
X-7460510Y4380793D02*
G01*
X-7403360Y4367077D01*
X-7460510Y4380793D02*
G01*
X-7403360Y4394255D01*
X-7460510Y4407971D02*
G01*
X-7403360Y4394255D01*
X-7460510Y4426005D02*
G01*
X-7403360Y4426005D01*
X-7460510Y4426005D02*
G01*
X-7460510Y4445055D01*
X-7457716Y4453183D01*
X-7452382Y4458771D01*
X-7446794Y4461565D01*
X-7438666Y4464105D01*
X-7424950Y4464105D01*
X-7416822Y4461565D01*
X-7411488Y4458771D01*
X-7405900Y4453183D01*
X-7403360Y4445055D01*
X-7403360Y4426005D01*
X-7460510Y4524303D02*
G01*
X-7403360Y4524303D01*
X-7460510Y4524303D02*
G01*
X-7460510Y4548687D01*
X-7457716Y4556815D01*
X-7455176Y4559609D01*
X-7449588Y4562403D01*
X-7441460Y4562403D01*
X-7435872Y4559609D01*
X-7433332Y4556815D01*
X-7430538Y4548687D01*
X-7430538Y4524303D01*
X-7460510Y4580437D02*
G01*
X-7403360Y4580437D01*
X-7403360Y4580437D02*
G01*
X-7403360Y4613203D01*
X-7460510Y4652827D02*
G01*
X-7403360Y4630983D01*
X-7460510Y4652827D02*
G01*
X-7403360Y4674671D01*
X-7422410Y4639365D02*
G01*
X-7422410Y4666543D01*
X-7460510Y4692705D02*
G01*
X-7433332Y4714549D01*
X-7403360Y4714549D01*
X-7460510Y4736393D02*
G01*
X-7433332Y4714549D01*
X-7460510Y4796337D02*
G01*
X-7403360Y4796337D01*
X-7460510Y4796337D02*
G01*
X-7460510Y4820975D01*
X-7457716Y4829103D01*
X-7455176Y4831897D01*
X-7449588Y4834437D01*
X-7444254Y4834437D01*
X-7438666Y4831897D01*
X-7435872Y4829103D01*
X-7433332Y4820975D01*
X-7433332Y4796337D01*
X-7433332Y4815387D02*
G01*
X-7403360Y4834437D01*
X-7460510Y4852471D02*
G01*
X-7403360Y4852471D01*
X-7460510Y4852471D02*
G01*
X-7460510Y4888031D01*
X-7433332Y4852471D02*
G01*
X-7433332Y4874315D01*
X-7403360Y4852471D02*
G01*
X-7403360Y4888031D01*
X-7446794Y4946959D02*
G01*
X-7452382Y4944165D01*
X-7457716Y4938831D01*
X-7460510Y4933243D01*
X-7460510Y4922321D01*
X-7457716Y4916987D01*
X-7452382Y4911399D01*
X-7446794Y4908605D01*
X-7438666Y4906065D01*
X-7424950Y4906065D01*
X-7416822Y4908605D01*
X-7411488Y4911399D01*
X-7405900Y4916987D01*
X-7403360Y4922321D01*
X-7403360Y4933243D01*
X-7405900Y4938831D01*
X-7411488Y4944165D01*
X-7416822Y4946959D01*
X-7446794Y5047797D02*
G01*
X-7452382Y5045003D01*
X-7457716Y5039669D01*
X-7460510Y5034081D01*
X-7460510Y5023159D01*
X-7457716Y5017825D01*
X-7452382Y5012237D01*
X-7446794Y5009697D01*
X-7438666Y5006903D01*
X-7424950Y5006903D01*
X-7416822Y5009697D01*
X-7411488Y5012237D01*
X-7405900Y5017825D01*
X-7403360Y5023159D01*
X-7403360Y5034081D01*
X-7405900Y5039669D01*
X-7411488Y5045003D01*
X-7416822Y5047797D01*
X-7424950Y5047797D01*
X-7424950Y5034081D02*
G01*
X-7424950Y5047797D01*
X-7460510Y5065831D02*
G01*
X-7403360Y5065831D01*
X-7460510Y5065831D02*
G01*
X-7403360Y5103931D01*
X-7460510Y5103931D02*
G01*
X-7403360Y5103931D01*
X-7460510Y5121965D02*
G01*
X-7403360Y5121965D01*
X-7460510Y5121965D02*
G01*
X-7460510Y5141015D01*
X-7457716Y5149143D01*
X-7452382Y5154731D01*
X-7446794Y5157525D01*
X-7438666Y5160065D01*
X-7424950Y5160065D01*
X-7416822Y5157525D01*
X-7411488Y5154731D01*
X-7405900Y5149143D01*
X-7403360Y5141015D01*
X-7403360Y5121965D01*
X-2425014Y838225D02*
G01*
X-2329510Y838225D01*
X-2425014Y838225D02*
G01*
X-2425014Y897407D01*
X-2379548Y838225D02*
G01*
X-2379548Y874547D01*
X-2329510Y838225D02*
G01*
X-2329510Y897407D01*
X-2425014Y927379D02*
G01*
X-2329510Y927379D01*
X-2425014Y927379D02*
G01*
X-2329510Y990879D01*
X-2425014Y990879D02*
G01*
X-2329510Y990879D01*
X-2425014Y1020851D02*
G01*
X-2329510Y1020851D01*
X-2425014Y1020851D02*
G01*
X-2425014Y1080033D01*
X-2379548Y1020851D02*
G01*
X-2379548Y1057173D01*
X-2329510Y1020851D02*
G01*
X-2329510Y1080033D01*
X-2425014Y1110005D02*
G01*
X-2329510Y1110005D01*
X-2425014Y1110005D02*
G01*
X-2425014Y1150899D01*
X-2420442Y1164615D01*
X-2415870Y1169187D01*
X-2406726Y1173759D01*
X-2397836Y1173759D01*
X-2388692Y1169187D01*
X-2384120Y1164615D01*
X-2379548Y1150899D01*
X-2379548Y1110005D01*
X-2379548Y1141755D02*
G01*
X-2329510Y1173759D01*
X-2402408Y1271803D02*
G01*
X-2411298Y1267231D01*
X-2420442Y1258087D01*
X-2425014Y1249197D01*
X-2425014Y1230909D01*
X-2420442Y1221765D01*
X-2411298Y1212621D01*
X-2402408Y1208303D01*
X-2388692Y1203731D01*
X-2365832Y1203731D01*
X-2352370Y1208303D01*
X-2343226Y1212621D01*
X-2334082Y1221765D01*
X-2329510Y1230909D01*
X-2329510Y1249197D01*
X-2334082Y1258087D01*
X-2343226Y1267231D01*
X-2352370Y1271803D01*
X-2365832Y1271803D01*
X-2365832Y1249197D02*
G01*
X-2365832Y1271803D01*
X-2425014Y1301775D02*
G01*
X-2329510Y1301775D01*
X-2425014Y1368323D02*
G01*
X-2329510Y1331747D01*
X-2425014Y1368323D02*
G01*
X-2329510Y1404645D01*
X-2361260Y1345463D02*
G01*
X-2361260Y1390929D01*
X-2411298Y1498117D02*
G01*
X-2420442Y1489227D01*
X-2425014Y1475511D01*
X-2425014Y1457223D01*
X-2420442Y1443761D01*
X-2411298Y1434617D01*
X-2402408Y1434617D01*
X-2393264Y1439189D01*
X-2388692Y1443761D01*
X-2384120Y1452651D01*
X-2374976Y1480083D01*
X-2370404Y1489227D01*
X-2365832Y1493545D01*
X-2356942Y1498117D01*
X-2343226Y1498117D01*
X-2334082Y1489227D01*
X-2329510Y1475511D01*
X-2329510Y1457223D01*
X-2334082Y1443761D01*
X-2343226Y1434617D01*
X-5904745Y1723567D02*
G01*
X-5904745Y1819071D01*
X-5904745Y1723567D02*
G01*
X-5963927Y1723567D01*
X-5904745Y1769033D02*
G01*
X-5941067Y1769033D01*
X-5904745Y1819071D02*
G01*
X-5963927Y1819071D01*
X-5993899Y1723567D02*
G01*
X-5993899Y1819071D01*
X-5993899Y1723567D02*
G01*
X-6057399Y1819071D01*
X-6057399Y1723567D02*
G01*
X-6057399Y1819071D01*
X-6119375Y1723567D02*
G01*
X-6119375Y1819071D01*
X-6087371Y1723567D02*
G01*
X-6151125Y1723567D01*
X-6181097Y1723567D02*
G01*
X-6181097Y1819071D01*
X-6181097Y1723567D02*
G01*
X-6221991Y1723567D01*
X-6235707Y1728139D01*
X-6240279Y1732711D01*
X-6244851Y1741601D01*
X-6244851Y1750745D01*
X-6240279Y1759889D01*
X-6235707Y1764461D01*
X-6221991Y1769033D01*
X-6181097Y1769033D01*
X-6212847Y1769033D02*
G01*
X-6244851Y1819071D01*
X-6311145Y1723567D02*
G01*
X-6274823Y1819071D01*
X-6311145Y1723567D02*
G01*
X-6347467Y1819071D01*
X-6288285Y1787067D02*
G01*
X-6333751Y1787067D01*
X-6377439Y1723567D02*
G01*
X-6377439Y1819071D01*
X-6377439Y1723567D02*
G01*
X-6409189Y1723567D01*
X-6422905Y1728139D01*
X-6432049Y1737029D01*
X-6436621Y1746173D01*
X-6441193Y1759889D01*
X-6441193Y1782495D01*
X-6436621Y1796211D01*
X-6432049Y1805355D01*
X-6422905Y1814499D01*
X-6409189Y1819071D01*
X-6377439Y1819071D01*
X-6507487Y1723567D02*
G01*
X-6471165Y1819071D01*
X-6507487Y1723567D02*
G01*
X-6543809Y1819071D01*
X-6484627Y1787067D02*
G01*
X-6530093Y1787067D01*
X-2499969Y9580753D02*
G01*
X-2499969Y9504299D01*
X-2499969Y9580753D02*
G01*
X-2467203Y9580753D01*
X-2456281Y9577196D01*
X-2452725Y9573387D01*
X-2449169Y9566275D01*
X-2449169Y9558909D01*
X-2452725Y9551543D01*
X-2456281Y9547987D01*
X-2467203Y9544430D01*
X-2499969Y9544430D02*
G01*
X-2467203Y9544430D01*
X-2456281Y9540620D01*
X-2452725Y9537064D01*
X-2449169Y9529699D01*
X-2449169Y9518777D01*
X-2452725Y9511664D01*
X-2456281Y9507854D01*
X-2467203Y9504299D01*
X-2499969Y9504299D01*
X-2425039Y9537064D02*
G01*
X-2359507Y9537064D01*
X-1203218Y6916369D02*
G01*
X-1212362Y6911797D01*
X-1221506Y6902907D01*
X-1226078Y6893763D01*
X-1230650Y6880047D01*
X-1230650Y6857441D01*
X-1226078Y6843725D01*
X-1221506Y6834581D01*
X-1212362Y6825437D01*
X-1203218Y6821119D01*
X-1185184Y6821119D01*
X-1176040Y6825437D01*
X-1166896Y6834581D01*
X-1162324Y6843725D01*
X-1157752Y6857441D01*
X-1157752Y6880047D01*
X-1162324Y6893763D01*
X-1166896Y6902907D01*
X-1176040Y6911797D01*
X-1185184Y6916369D01*
X-1203218Y6916369D01*
X-1127780Y6916369D02*
G01*
X-1127780Y6848297D01*
X-1123208Y6834581D01*
X-1114064Y6825437D01*
X-1100602Y6821119D01*
X-1091458Y6821119D01*
X-1077742Y6825437D01*
X-1068852Y6834581D01*
X-1064280Y6848297D01*
X-1064280Y6916369D01*
X-1002304Y6916369D02*
G01*
X-1002304Y6821119D01*
X-1034308Y6916369D02*
G01*
X-970554Y6916369D01*
X-1100076Y9570542D02*
G01*
X-1100076Y9503740D01*
X-1100076Y9570542D02*
G01*
X-1071374Y9570542D01*
X-1061722Y9567494D01*
X-1058674Y9564192D01*
X-1055372Y9557842D01*
X-1055372Y9551492D01*
X-1058674Y9545142D01*
X-1061722Y9542094D01*
X-1071374Y9538792D01*
X-1100076Y9538792D02*
G01*
X-1071374Y9538792D01*
X-1061722Y9535744D01*
X-1058674Y9532442D01*
X-1055372Y9526092D01*
X-1055372Y9516440D01*
X-1058674Y9510090D01*
X-1061722Y9507042D01*
X-1071374Y9503740D01*
X-1100076Y9503740D01*
X-1005842Y9561144D02*
G01*
X-1005842Y9503740D01*
X-1034544Y9532442D02*
G01*
X-977140Y9532442D01*
X-6340269Y4165602D02*
G01*
X-6397419Y4165602D01*
X-6340269Y4147568D02*
G01*
X-6397419Y4147568D01*
X-6340269Y4147568D02*
G01*
X-6397419Y4109468D01*
X-6340269Y4109468D02*
G01*
X-6397419Y4109468D01*
X-6340269Y4033014D02*
G01*
X-6343063Y4038602D01*
X-6348397Y4043936D01*
X-6353985Y4046730D01*
X-6362113Y4049524D01*
X-6375829Y4049524D01*
X-6383957Y4046730D01*
X-6389291Y4043936D01*
X-6394879Y4038602D01*
X-6397419Y4033014D01*
X-6397419Y4022092D01*
X-6394879Y4016758D01*
X-6389291Y4011170D01*
X-6383957Y4008630D01*
X-6375829Y4005836D01*
X-6362113Y4005836D01*
X-6353985Y4008630D01*
X-6348397Y4011170D01*
X-6343063Y4016758D01*
X-6340269Y4022092D01*
X-6340269Y4033014D01*
X-6340269Y3987802D02*
G01*
X-6381163Y3987802D01*
X-6389291Y3985008D01*
X-6394879Y3979674D01*
X-6397419Y3971292D01*
X-6397419Y3965958D01*
X-6394879Y3957830D01*
X-6389291Y3952242D01*
X-6381163Y3949702D01*
X-6340269Y3949702D01*
X-6340269Y3912618D02*
G01*
X-6397419Y3912618D01*
X-6340269Y3931668D02*
G01*
X-6340269Y3893314D01*
X-4975755Y9329623D02*
G01*
X-4975755Y9135567D01*
X-4975755Y9329623D02*
G01*
X-4892697Y9329623D01*
X-4865011Y9320479D01*
X-4855613Y9311081D01*
X-4846469Y9292793D01*
X-4846469Y9264853D01*
X-4855613Y9246565D01*
X-4865011Y9237167D01*
X-4892697Y9228023D01*
X-4975755Y9228023D01*
X-4711595Y9329623D02*
G01*
X-4785509Y9135567D01*
X-4711595Y9329623D02*
G01*
X-4637681Y9135567D01*
X-4757823Y9200337D02*
G01*
X-4665367Y9200337D01*
X-4576721Y9329623D02*
G01*
X-4576721Y9135567D01*
X-4576721Y9329623D02*
G01*
X-4447435Y9135567D01*
X-4447435Y9329623D02*
G01*
X-4447435Y9135567D01*
X-4321705Y9329623D02*
G01*
X-4321705Y9135567D01*
X-4386475Y9329623D02*
G01*
X-4257189Y9329623D01*
X-4122315Y9329623D02*
G01*
X-4196229Y9135567D01*
X-4122315Y9329623D02*
G01*
X-4048401Y9135567D01*
X-4168543Y9200337D02*
G01*
X-4076087Y9200337D01*
X-3987441Y9329623D02*
G01*
X-3987441Y9135567D01*
X-3987441Y9135567D02*
G01*
X-3876697Y9135567D01*
X-3815737Y9329623D02*
G01*
X-3815737Y9135567D01*
X-3815737Y9135567D02*
G01*
X-3704739Y9135567D01*
X-3569865Y9329623D02*
G01*
X-3643779Y9135567D01*
X-3569865Y9329623D02*
G01*
X-3496205Y9135567D01*
X-3616093Y9200337D02*
G01*
X-3523891Y9200337D01*
X-8254469Y-98983D02*
G01*
X-8254469Y-171881D01*
X-8259041Y-185343D01*
X-8263613Y-189915D01*
X-8272757Y-194487D01*
X-8281901Y-194487D01*
X-8290791Y-189915D01*
X-8295363Y-185343D01*
X-8299935Y-171881D01*
X-8299935Y-162737D01*
X-8188175Y-98983D02*
G01*
X-8224497Y-194487D01*
X-8188175Y-98983D02*
G01*
X-8151853Y-194487D01*
X-8210781Y-162737D02*
G01*
X-8165315Y-162737D01*
X-8053555Y-121843D02*
G01*
X-8058127Y-112699D01*
X-8067271Y-103555D01*
X-8076415Y-98983D01*
X-8094449Y-98983D01*
X-8103593Y-103555D01*
X-8112737Y-112699D01*
X-8117309Y-121843D01*
X-8121881Y-135559D01*
X-8121881Y-158165D01*
X-8117309Y-171881D01*
X-8112737Y-181025D01*
X-8103593Y-189915D01*
X-8094449Y-194487D01*
X-8076415Y-194487D01*
X-8067271Y-189915D01*
X-8058127Y-181025D01*
X-8053555Y-171881D01*
X-8023583Y-98983D02*
G01*
X-8023583Y-194487D01*
X-7960083Y-98983D02*
G01*
X-8023583Y-162737D01*
X-8000977Y-139877D02*
G01*
X-7960083Y-194487D01*
X-4470318Y3757701D02*
G01*
X-4276262Y3757701D01*
X-4470318Y3757701D02*
G01*
X-4470318Y3822471D01*
X-4461174Y3850157D01*
X-4442632Y3868699D01*
X-4424090Y3877843D01*
X-4396404Y3886987D01*
X-4350176Y3886987D01*
X-4322490Y3877843D01*
X-4303948Y3868699D01*
X-4285660Y3850157D01*
X-4276262Y3822471D01*
X-4276262Y3757701D01*
X-4470318Y4021861D02*
G01*
X-4276262Y3947947D01*
X-4470318Y4021861D02*
G01*
X-4276262Y4095775D01*
X-4341032Y3975633D02*
G01*
X-4341032Y4068089D01*
X-4470318Y4156735D02*
G01*
X-4276262Y4156735D01*
X-4442632Y4346981D02*
G01*
X-4461174Y4328693D01*
X-4470318Y4300753D01*
X-4470318Y4263923D01*
X-4461174Y4236237D01*
X-4442632Y4217695D01*
X-4424090Y4217695D01*
X-4405548Y4227093D01*
X-4396404Y4236237D01*
X-4387260Y4254779D01*
X-4368718Y4310151D01*
X-4359574Y4328693D01*
X-4350176Y4337837D01*
X-4331888Y4346981D01*
X-4303948Y4346981D01*
X-4285660Y4328693D01*
X-4276262Y4300753D01*
X-4276262Y4263923D01*
X-4285660Y4236237D01*
X-4303948Y4217695D01*
X-4470318Y4407941D02*
G01*
X-4377862Y4481855D01*
X-4276262Y4481855D01*
X-4470318Y4555769D02*
G01*
X-4377862Y4481855D01*
X-4442632Y4888255D02*
G01*
X-4461174Y4869713D01*
X-4470318Y4842027D01*
X-4470318Y4805197D01*
X-4461174Y4777511D01*
X-4442632Y4758969D01*
X-4424090Y4758969D01*
X-4405548Y4768113D01*
X-4396404Y4777511D01*
X-4387260Y4796053D01*
X-4368718Y4851425D01*
X-4359574Y4869713D01*
X-4350176Y4879111D01*
X-4331888Y4888255D01*
X-4303948Y4888255D01*
X-4285660Y4869713D01*
X-4276262Y4842027D01*
X-4276262Y4805197D01*
X-4285660Y4777511D01*
X-4303948Y4758969D01*
X-4470318Y4949215D02*
G01*
X-4276262Y4949215D01*
X-4470318Y4949215D02*
G01*
X-4470318Y5069357D01*
X-4377862Y4949215D02*
G01*
X-4377862Y5023129D01*
X-4276262Y4949215D02*
G01*
X-4276262Y5069357D01*
X-4470318Y5130317D02*
G01*
X-4276262Y5130317D01*
X-4470318Y5130317D02*
G01*
X-4470318Y5250459D01*
X-4377862Y5130317D02*
G01*
X-4377862Y5204231D01*
X-4276262Y5130317D02*
G01*
X-4276262Y5250459D01*
X-4470318Y5311419D02*
G01*
X-4276262Y5311419D01*
X-4470318Y5311419D02*
G01*
X-4470318Y5375935D01*
X-4461174Y5403621D01*
X-4442632Y5422163D01*
X-4424090Y5431307D01*
X-4396404Y5440705D01*
X-4350176Y5440705D01*
X-4322490Y5431307D01*
X-4303948Y5422163D01*
X-4285660Y5403621D01*
X-4276262Y5375935D01*
X-4276262Y5311419D01*
X-8336460Y-212725D02*
G01*
X-8345350Y-203580D01*
X-8359066Y-199009D01*
X-8377354Y-199009D01*
X-8390816Y-203580D01*
X-8399960Y-212725D01*
X-8399960Y-221869D01*
X-8395388Y-231012D01*
X-8390816Y-235330D01*
X-8381926Y-239903D01*
X-8354494Y-249046D01*
X-8345350Y-253619D01*
X-8340778Y-258190D01*
X-8336460Y-267335D01*
X-8336460Y-280796D01*
X-8345350Y-289940D01*
X-8359066Y-294512D01*
X-8377354Y-294512D01*
X-8390816Y-289940D01*
X-8399960Y-280796D01*
X-8269912Y-199009D02*
G01*
X-8306234Y-294512D01*
X-8269912Y-199009D02*
G01*
X-8233590Y-294512D01*
X-8292772Y-262762D02*
G01*
X-8247306Y-262762D01*
X-8203618Y-199009D02*
G01*
X-8203618Y-294512D01*
X-8203618Y-294512D02*
G01*
X-8149008Y-294512D01*
X-8119036Y-199009D02*
G01*
X-8119036Y-294512D01*
X-8089064Y-199009D02*
G01*
X-8089064Y-294512D01*
X-8089064Y-199009D02*
G01*
X-8057314Y-199009D01*
X-8043598Y-203580D01*
X-8034454Y-212725D01*
X-8029882Y-221869D01*
X-8025564Y-235330D01*
X-8025564Y-258190D01*
X-8029882Y-271906D01*
X-8034454Y-280796D01*
X-8043598Y-289940D01*
X-8057314Y-294512D01*
X-8089064Y-294512D01*
X-7959016Y-199009D02*
G01*
X-7995338Y-294512D01*
X-7959016Y-199009D02*
G01*
X-7922694Y-294512D01*
X-7981876Y-262762D02*
G01*
X-7936410Y-262762D01*
X-3361387Y-41020D02*
G01*
X-3370785Y-22732D01*
X-3389073Y-4190D01*
X-3407615Y4953D01*
X-3444699Y4953D01*
X-3462987Y-4190D01*
X-3481529Y-22732D01*
X-3490673Y-41020D01*
X-3500071Y-68961D01*
X-3500071Y-114935D01*
X-3490673Y-142620D01*
X-3481529Y-161162D01*
X-3462987Y-179704D01*
X-3444699Y-188848D01*
X-3407615Y-188848D01*
X-3389073Y-179704D01*
X-3370785Y-161162D01*
X-3361387Y-142620D01*
X-3226513Y4953D02*
G01*
X-3300427Y-188848D01*
X-3226513Y4953D02*
G01*
X-3152599Y-188848D01*
X-3272741Y-124332D02*
G01*
X-3180539Y-124332D01*
X-3091639Y4953D02*
G01*
X-3091639Y-188848D01*
X-3091639Y4953D02*
G01*
X-3008581Y4953D01*
X-2980895Y-4190D01*
X-2971751Y-13335D01*
X-2962353Y-31877D01*
X-2962353Y-50419D01*
X-2971751Y-68961D01*
X-2980895Y-78104D01*
X-3008581Y-87248D01*
X-3091639Y-87248D01*
X-3027123Y-87248D02*
G01*
X-2962353Y-188848D01*
X-2762963Y-41020D02*
G01*
X-2772107Y-22732D01*
X-2790649Y-4190D01*
X-2809191Y4953D01*
X-2846021Y4953D01*
X-2864563Y-4190D01*
X-2883105Y-22732D01*
X-2892249Y-41020D01*
X-2901393Y-68961D01*
X-2901393Y-114935D01*
X-2892249Y-142620D01*
X-2883105Y-161162D01*
X-2864563Y-179704D01*
X-2846021Y-188848D01*
X-2809191Y-188848D01*
X-2790649Y-179704D01*
X-2772107Y-161162D01*
X-2762963Y-142620D01*
X-2762963Y-114935D01*
X-2809191Y-114935D02*
G01*
X-2762963Y-114935D01*
X-2628089Y4953D02*
G01*
X-2702003Y-188848D01*
X-2628089Y4953D02*
G01*
X-2554175Y-188848D01*
X-2674317Y-124332D02*
G01*
X-2581861Y-124332D01*
X-2493215Y4953D02*
G01*
X-2493215Y-188848D01*
X-2493215Y4953D02*
G01*
X-2428699Y4953D01*
X-2400759Y-4190D01*
X-2382471Y-22732D01*
X-2373073Y-41020D01*
X-2363929Y-68961D01*
X-2363929Y-114935D01*
X-2373073Y-142620D01*
X-2382471Y-161162D01*
X-2400759Y-179704D01*
X-2428699Y-188848D01*
X-2493215Y-188848D01*
X-2247597Y4953D02*
G01*
X-2266139Y-4190D01*
X-2284427Y-22732D01*
X-2293825Y-41020D01*
X-2302969Y-68961D01*
X-2302969Y-114935D01*
X-2293825Y-142620D01*
X-2284427Y-161162D01*
X-2266139Y-179704D01*
X-2247597Y-188848D01*
X-2210513Y-188848D01*
X-2192225Y-179704D01*
X-2173683Y-161162D01*
X-2164539Y-142620D01*
X-2155141Y-114935D01*
X-2155141Y-68961D01*
X-2164539Y-41020D01*
X-2173683Y-22732D01*
X-2192225Y-4190D01*
X-2210513Y4953D01*
X-2247597Y4953D01*
X-2094181Y4953D02*
G01*
X-2094181Y-188848D01*
X-2094181Y4953D02*
G01*
X-2011123Y4953D01*
X-1983437Y-4190D01*
X-1974039Y-13335D01*
X-1964895Y-31877D01*
X-1964895Y-50419D01*
X-1974039Y-68961D01*
X-1983437Y-78104D01*
X-2011123Y-87248D01*
X-2094181Y-87248D01*
X-2029665Y-87248D02*
G01*
X-1964895Y-188848D01*
X-8254469Y2101011D02*
G01*
X-8254469Y2028113D01*
X-8259041Y2014651D01*
X-8263613Y2010079D01*
X-8272757Y2005507D01*
X-8281901Y2005507D01*
X-8290791Y2010079D01*
X-8295363Y2014651D01*
X-8299935Y2028113D01*
X-8299935Y2037257D01*
X-8188175Y2101011D02*
G01*
X-8224497Y2005507D01*
X-8188175Y2101011D02*
G01*
X-8151853Y2005507D01*
X-8210781Y2037257D02*
G01*
X-8165315Y2037257D01*
X-8053555Y2078151D02*
G01*
X-8058127Y2087295D01*
X-8067271Y2096439D01*
X-8076415Y2101011D01*
X-8094449Y2101011D01*
X-8103593Y2096439D01*
X-8112737Y2087295D01*
X-8117309Y2078151D01*
X-8121881Y2064435D01*
X-8121881Y2041829D01*
X-8117309Y2028113D01*
X-8112737Y2018969D01*
X-8103593Y2010079D01*
X-8094449Y2005507D01*
X-8076415Y2005507D01*
X-8067271Y2010079D01*
X-8058127Y2018969D01*
X-8053555Y2028113D01*
X-8023583Y2101011D02*
G01*
X-8023583Y2005507D01*
X-7960083Y2101011D02*
G01*
X-8023583Y2037257D01*
X-8000977Y2060117D02*
G01*
X-7960083Y2005507D01*
X-8400036Y2000834D02*
G01*
X-8400036Y1905330D01*
X-8400036Y2000834D02*
G01*
X-8340854Y2000834D01*
X-8400036Y1955368D02*
G01*
X-8363714Y1955368D01*
X-8400036Y1905330D02*
G01*
X-8340854Y1905330D01*
X-8310882Y2000834D02*
G01*
X-8310882Y1905330D01*
X-8310882Y2000834D02*
G01*
X-8247382Y1905330D01*
X-8247382Y2000834D02*
G01*
X-8247382Y1905330D01*
X-8185406Y2000834D02*
G01*
X-8185406Y1905330D01*
X-8217156Y2000834D02*
G01*
X-8153656Y2000834D01*
X-8123684Y2000834D02*
G01*
X-8123684Y1905330D01*
X-8123684Y2000834D02*
G01*
X-8082790Y2000834D01*
X-8069074Y1996262D01*
X-8064502Y1991690D01*
X-8059930Y1982800D01*
X-8059930Y1973656D01*
X-8064502Y1964512D01*
X-8069074Y1959940D01*
X-8082790Y1955368D01*
X-8123684Y1955368D01*
X-8091680Y1955368D02*
G01*
X-8059930Y1905330D01*
X-7993636Y2000834D02*
G01*
X-8029958Y1905330D01*
X-7993636Y2000834D02*
G01*
X-7957314Y1905330D01*
X-8016242Y1937334D02*
G01*
X-7970776Y1937334D01*
X-7927342Y2000834D02*
G01*
X-7927342Y1905330D01*
X-7927342Y2000834D02*
G01*
X-7895338Y2000834D01*
X-7881876Y1996262D01*
X-7872732Y1987372D01*
X-7868160Y1978228D01*
X-7863588Y1964512D01*
X-7863588Y1941906D01*
X-7868160Y1928190D01*
X-7872732Y1919046D01*
X-7881876Y1909902D01*
X-7895338Y1905330D01*
X-7927342Y1905330D01*
X-7797294Y2000834D02*
G01*
X-7833616Y1905330D01*
X-7797294Y2000834D02*
G01*
X-7760972Y1905330D01*
X-7819900Y1937334D02*
G01*
X-7774434Y1937334D01*
X1100096Y8400872D02*
G01*
X1100096Y8305368D01*
X1100096Y8400872D02*
G01*
X1131846Y8400872D01*
X1145562Y8396300D01*
X1154452Y8387156D01*
X1159024Y8378266D01*
X1163596Y8364550D01*
X1163596Y8341690D01*
X1159024Y8328228D01*
X1154452Y8319084D01*
X1145562Y8309940D01*
X1131846Y8305368D01*
X1100096Y8305368D01*
X1248178Y8400872D02*
G01*
X1202712Y8400872D01*
X1198140Y8359978D01*
X1202712Y8364550D01*
X1216428Y8369122D01*
X1229890Y8369122D01*
X1243606Y8364550D01*
X1252750Y8355406D01*
X1257322Y8341690D01*
X1257322Y8332800D01*
X1252750Y8319084D01*
X1243606Y8309940D01*
X1229890Y8305368D01*
X1216428Y8305368D01*
X1202712Y8309940D01*
X1198140Y8314512D01*
X1193568Y8323656D01*
X-6862521Y6354493D02*
G01*
X-6869887Y6350937D01*
X-6876999Y6343571D01*
X-6880809Y6336459D01*
X-6880809Y6321727D01*
X-6876999Y6314615D01*
X-6869887Y6307249D01*
X-6862521Y6303693D01*
X-6851599Y6299883D01*
X-6833565Y6299883D01*
X-6822643Y6303693D01*
X-6815277Y6307249D01*
X-6807911Y6314615D01*
X-6804355Y6321727D01*
X-6804355Y6336459D01*
X-6807911Y6343571D01*
X-6815277Y6350937D01*
X-6822643Y6354493D01*
X-6833565Y6354493D01*
X-6833565Y6336459D02*
G01*
X-6833565Y6354493D01*
X-6880809Y6378623D02*
G01*
X-6804355Y6378623D01*
X-6880809Y6378623D02*
G01*
X-6804355Y6429423D01*
X-6880809Y6429423D02*
G01*
X-6804355Y6429423D01*
X-6880809Y6453553D02*
G01*
X-6804355Y6453553D01*
X-6880809Y6453553D02*
G01*
X-6880809Y6478953D01*
X-6876999Y6489875D01*
X-6869887Y6496987D01*
X-6862521Y6500797D01*
X-6851599Y6504353D01*
X-6833565Y6504353D01*
X-6822643Y6500797D01*
X-6815277Y6496987D01*
X-6807911Y6489875D01*
X-6804355Y6478953D01*
X-6804355Y6453553D01*
X-6780781Y6699958D02*
G01*
X-6704327Y6729168D01*
X-6780781Y6758124D02*
G01*
X-6704327Y6729168D01*
X-6762493Y6836610D02*
G01*
X-6769859Y6833054D01*
X-6776971Y6825688D01*
X-6780781Y6818576D01*
X-6780781Y6804098D01*
X-6776971Y6796732D01*
X-6769859Y6789366D01*
X-6762493Y6785810D01*
X-6751571Y6782254D01*
X-6733537Y6782254D01*
X-6722615Y6785810D01*
X-6715249Y6789366D01*
X-6707883Y6796732D01*
X-6704327Y6804098D01*
X-6704327Y6818576D01*
X-6707883Y6825688D01*
X-6715249Y6833054D01*
X-6722615Y6836610D01*
X-6762493Y6915350D02*
G01*
X-6769859Y6911540D01*
X-6776971Y6904428D01*
X-6780781Y6897062D01*
X-6780781Y6882584D01*
X-6776971Y6875218D01*
X-6769859Y6868106D01*
X-6762493Y6864296D01*
X-6751571Y6860740D01*
X-6733537Y6860740D01*
X-6722615Y6864296D01*
X-6715249Y6868106D01*
X-6707883Y6875218D01*
X-6704327Y6882584D01*
X-6704327Y6897062D01*
X-6707883Y6904428D01*
X-6715249Y6911540D01*
X-6722615Y6915350D01*
X-6669834Y7051012D02*
G01*
X-6677200Y7043646D01*
X-6680756Y7032724D01*
X-6680756Y7018246D01*
X-6677200Y7007324D01*
X-6669834Y6999958D01*
X-6662468Y6999958D01*
X-6655356Y7003514D01*
X-6651546Y7007324D01*
X-6647990Y7014436D01*
X-6640624Y7036280D01*
X-6637068Y7043646D01*
X-6633512Y7047202D01*
X-6626146Y7051012D01*
X-6615224Y7051012D01*
X-6607858Y7043646D01*
X-6604302Y7032724D01*
X-6604302Y7018246D01*
X-6607858Y7007324D01*
X-6615224Y6999958D01*
X-6662468Y7129498D02*
G01*
X-6669834Y7125688D01*
X-6677200Y7118576D01*
X-6680756Y7111210D01*
X-6680756Y7096732D01*
X-6677200Y7089366D01*
X-6669834Y7082254D01*
X-6662468Y7078444D01*
X-6651546Y7074888D01*
X-6633512Y7074888D01*
X-6622590Y7078444D01*
X-6615224Y7082254D01*
X-6607858Y7089366D01*
X-6604302Y7096732D01*
X-6604302Y7111210D01*
X-6607858Y7118576D01*
X-6615224Y7125688D01*
X-6622590Y7129498D01*
X-6680756Y7153374D02*
G01*
X-6604302Y7153374D01*
X-6604302Y7153374D02*
G01*
X-6604302Y7197062D01*
X-6869732Y7250935D02*
G01*
X-6877098Y7243569D01*
X-6880654Y7232647D01*
X-6880654Y7218169D01*
X-6877098Y7207247D01*
X-6869732Y7199881D01*
X-6862620Y7199881D01*
X-6855254Y7203691D01*
X-6851698Y7207247D01*
X-6847888Y7214613D01*
X-6840776Y7236457D01*
X-6836966Y7243569D01*
X-6833410Y7247379D01*
X-6826044Y7250935D01*
X-6815376Y7250935D01*
X-6808010Y7243569D01*
X-6804454Y7232647D01*
X-6804454Y7218169D01*
X-6808010Y7207247D01*
X-6815376Y7199881D01*
X-6880654Y7274811D02*
G01*
X-6804454Y7274811D01*
X-6880654Y7274811D02*
G01*
X-6880654Y7300465D01*
X-6877098Y7311133D01*
X-6869732Y7318499D01*
X-6862620Y7322055D01*
X-6851698Y7325865D01*
X-6833410Y7325865D01*
X-6822488Y7322055D01*
X-6815376Y7318499D01*
X-6808010Y7311133D01*
X-6804454Y7300465D01*
X-6804454Y7274811D01*
X-6880654Y7378951D02*
G01*
X-6804454Y7349741D01*
X-6880654Y7378951D02*
G01*
X-6804454Y7407907D01*
X-6829854Y7360663D02*
G01*
X-6829854Y7396985D01*
X-6680629Y7499957D02*
G01*
X-6604429Y7499957D01*
X-6680629Y7499957D02*
G01*
X-6680629Y7532723D01*
X-6677073Y7543645D01*
X-6673517Y7547201D01*
X-6666151Y7551011D01*
X-6658785Y7551011D01*
X-6651673Y7547201D01*
X-6647863Y7543645D01*
X-6644307Y7532723D01*
X-6644307Y7499957D01*
X-6644307Y7525357D02*
G01*
X-6604429Y7551011D01*
X-6680629Y7574887D02*
G01*
X-6604429Y7574887D01*
X-6680629Y7574887D02*
G01*
X-6680629Y7622131D01*
X-6644307Y7574887D02*
G01*
X-6644307Y7604097D01*
X-6604429Y7574887D02*
G01*
X-6604429Y7622131D01*
X-6669707Y7697061D02*
G01*
X-6677073Y7689695D01*
X-6680629Y7678773D01*
X-6680629Y7664295D01*
X-6677073Y7653373D01*
X-6669707Y7646261D01*
X-6662595Y7646261D01*
X-6655229Y7649817D01*
X-6651673Y7653373D01*
X-6647863Y7660739D01*
X-6640751Y7682583D01*
X-6637195Y7689695D01*
X-6633385Y7693505D01*
X-6626273Y7697061D01*
X-6615351Y7697061D01*
X-6607985Y7689695D01*
X-6604429Y7678773D01*
X-6604429Y7664295D01*
X-6607985Y7653373D01*
X-6615351Y7646261D01*
X-6780603Y7799880D02*
G01*
X-6704403Y7799880D01*
X-6780603Y7799880D02*
G01*
X-6780603Y7825534D01*
X-6777047Y7836456D01*
X-6769681Y7843568D01*
X-6762569Y7847378D01*
X-6751647Y7850934D01*
X-6733359Y7850934D01*
X-6722437Y7847378D01*
X-6715325Y7843568D01*
X-6707959Y7836456D01*
X-6704403Y7825534D01*
X-6704403Y7799880D01*
X-6762569Y7929420D02*
G01*
X-6769681Y7925864D01*
X-6777047Y7918498D01*
X-6780603Y7911132D01*
X-6780603Y7896654D01*
X-6777047Y7889542D01*
X-6769681Y7882176D01*
X-6762569Y7878620D01*
X-6751647Y7874810D01*
X-6733359Y7874810D01*
X-6722437Y7878620D01*
X-6715325Y7882176D01*
X-6707959Y7889542D01*
X-6704403Y7896654D01*
X-6704403Y7911132D01*
X-6707959Y7918498D01*
X-6715325Y7925864D01*
X-6722437Y7929420D01*
X-6762468Y8054566D02*
G01*
X-6769834Y8051010D01*
X-6777200Y8043644D01*
X-6780756Y8036278D01*
X-6780756Y8021800D01*
X-6777200Y8014434D01*
X-6769834Y8007322D01*
X-6762468Y8003512D01*
X-6751546Y7999956D01*
X-6733512Y7999956D01*
X-6722590Y8003512D01*
X-6715224Y8007322D01*
X-6707858Y8014434D01*
X-6704302Y8021800D01*
X-6704302Y8036278D01*
X-6707858Y8043644D01*
X-6715224Y8051010D01*
X-6722590Y8054566D01*
X-6769834Y8129496D02*
G01*
X-6777200Y8122130D01*
X-6780756Y8111208D01*
X-6780756Y8096730D01*
X-6777200Y8085808D01*
X-6769834Y8078442D01*
X-6762468Y8078442D01*
X-6755356Y8082252D01*
X-6751546Y8085808D01*
X-6747990Y8093174D01*
X-6740624Y8115018D01*
X-6737068Y8122130D01*
X-6733512Y8125686D01*
X-6726146Y8129496D01*
X-6715224Y8129496D01*
X-6707858Y8122130D01*
X-6704302Y8111208D01*
X-6704302Y8096730D01*
X-6707858Y8085808D01*
X-6715224Y8078442D01*
X-6780654Y8399879D02*
G01*
X-6704454Y8399879D01*
X-6780654Y8399879D02*
G01*
X-6780654Y8432645D01*
X-6777098Y8443567D01*
X-6773542Y8447377D01*
X-6766176Y8450933D01*
X-6758810Y8450933D01*
X-6751698Y8447377D01*
X-6747888Y8443567D01*
X-6744332Y8432645D01*
X-6744332Y8399879D02*
G01*
X-6744332Y8432645D01*
X-6740776Y8443567D01*
X-6736966Y8447377D01*
X-6729854Y8450933D01*
X-6718932Y8450933D01*
X-6711566Y8447377D01*
X-6708010Y8443567D01*
X-6704454Y8432645D01*
X-6704454Y8399879D01*
X-6780654Y8474809D02*
G01*
X-6704454Y8474809D01*
X-6704454Y8474809D02*
G01*
X-6704454Y8518497D01*
X-7460437Y4100116D02*
G01*
X-7403287Y4100116D01*
X-7460437Y4117896D02*
G01*
X-7403287Y4117896D01*
X-7460437Y4117896D02*
G01*
X-7403287Y4156250D01*
X-7460437Y4156250D02*
G01*
X-7403287Y4156250D01*
X-1948967Y8769832D02*
G01*
X-1956333Y8777198D01*
X-1967255Y8780754D01*
X-1981733Y8780754D01*
X-1992655Y8777198D01*
X-2000021Y8769832D01*
X-2000021Y8762466D01*
X-1996465Y8755354D01*
X-1992655Y8751544D01*
X-1985543Y8747988D01*
X-1963699Y8740622D01*
X-1956333Y8737066D01*
X-1952777Y8733510D01*
X-1948967Y8726144D01*
X-1948967Y8715222D01*
X-1956333Y8707856D01*
X-1967255Y8704300D01*
X-1981733Y8704300D01*
X-1992655Y8707856D01*
X-2000021Y8715222D01*
X-1870481Y8762466D02*
G01*
X-1874291Y8769832D01*
X-1881403Y8777198D01*
X-1888769Y8780754D01*
X-1903247Y8780754D01*
X-1910613Y8777198D01*
X-1917725Y8769832D01*
X-1921535Y8762466D01*
X-1925091Y8751544D01*
X-1925091Y8733510D01*
X-1921535Y8722588D01*
X-1917725Y8715222D01*
X-1910613Y8707856D01*
X-1903247Y8704300D01*
X-1888769Y8704300D01*
X-1881403Y8707856D01*
X-1874291Y8715222D01*
X-1870481Y8722588D01*
X-1846605Y8780754D02*
G01*
X-1846605Y8704300D01*
X-1846605Y8704300D02*
G01*
X-1802917Y8704300D01*
X-999909Y9180807D02*
G01*
X-999909Y9104353D01*
X-976033Y9180807D02*
G01*
X-976033Y9104353D01*
X-976033Y9180807D02*
G01*
X-924979Y9104353D01*
X-924979Y9180807D02*
G01*
X-924979Y9104353D01*
X-831852Y9478263D02*
G01*
X-836424Y9487154D01*
X-845568Y9496297D01*
X-854458Y9500870D01*
X-872746Y9500870D01*
X-881890Y9496297D01*
X-890780Y9487154D01*
X-895352Y9478263D01*
X-899924Y9464547D01*
X-899924Y9441687D01*
X-895352Y9428226D01*
X-890780Y9419081D01*
X-881890Y9409937D01*
X-872746Y9405365D01*
X-854458Y9405365D01*
X-845568Y9409937D01*
X-836424Y9419081D01*
X-831852Y9428226D01*
X-774448Y9500870D02*
G01*
X-783592Y9496297D01*
X-792736Y9487154D01*
X-797308Y9478263D01*
X-801880Y9464547D01*
X-801880Y9441687D01*
X-797308Y9428226D01*
X-792736Y9419081D01*
X-783592Y9409937D01*
X-774448Y9405365D01*
X-756414Y9405365D01*
X-747270Y9409937D01*
X-738126Y9419081D01*
X-733554Y9428226D01*
X-728982Y9441687D01*
X-728982Y9464547D01*
X-733554Y9478263D01*
X-738126Y9487154D01*
X-747270Y9496297D01*
X-756414Y9500870D01*
X-774448Y9500870D01*
X-699010Y9500870D02*
G01*
X-699010Y9405365D01*
X-699010Y9500870D02*
G01*
X-635510Y9405365D01*
X-635510Y9500870D02*
G01*
X-635510Y9405365D01*
X-605538Y9500870D02*
G01*
X-605538Y9405365D01*
X-605538Y9500870D02*
G01*
X-546356Y9500870D01*
X-605538Y9455404D02*
G01*
X-569216Y9455404D01*
X-605538Y9405365D02*
G01*
X-546356Y9405365D01*
X-516384Y9500870D02*
G01*
X-452630Y9405365D01*
X-452630Y9500870D02*
G01*
X-516384Y9405365D01*
X-422658Y9500870D02*
G01*
X-422658Y9405365D01*
X-365508Y9500870D02*
G01*
X-374652Y9496297D01*
X-383542Y9487154D01*
X-388114Y9478263D01*
X-392686Y9464547D01*
X-392686Y9441687D01*
X-388114Y9428226D01*
X-383542Y9419081D01*
X-374652Y9409937D01*
X-365508Y9405365D01*
X-347220Y9405365D01*
X-338076Y9409937D01*
X-329186Y9419081D01*
X-324614Y9428226D01*
X-320042Y9441687D01*
X-320042Y9464547D01*
X-324614Y9478263D01*
X-329186Y9487154D01*
X-338076Y9496297D01*
X-347220Y9500870D01*
X-365508Y9500870D01*
X-290070Y9500870D02*
G01*
X-290070Y9405365D01*
X-290070Y9500870D02*
G01*
X-226316Y9405365D01*
X-226316Y9500870D02*
G01*
X-226316Y9405365D01*
X-126240Y9500870D02*
G01*
X-126240Y9405365D01*
X-126240Y9500870D02*
G01*
X-85346Y9500870D01*
X-71884Y9496297D01*
X-67312Y9491726D01*
X-62740Y9482581D01*
X-62740Y9473692D01*
X-67312Y9464547D01*
X-71884Y9459976D01*
X-85346Y9455404D01*
X-126240Y9455404D02*
G01*
X-85346Y9455404D01*
X-71884Y9450831D01*
X-67312Y9446260D01*
X-62740Y9437370D01*
X-62740Y9423654D01*
X-67312Y9414510D01*
X-71884Y9409937D01*
X-85346Y9405365D01*
X-126240Y9405365D01*
X3553Y9500870D02*
G01*
X-32768Y9405365D01*
X3553Y9500870D02*
G01*
X39875Y9405365D01*
X-19052Y9437370D02*
G01*
X26413Y9437370D01*
X101851Y9500870D02*
G01*
X101851Y9405365D01*
X70101Y9500870D02*
G01*
X133601Y9500870D01*
X163573Y9500870D02*
G01*
X163573Y9405365D01*
X163573Y9500870D02*
G01*
X222755Y9500870D01*
X163573Y9455404D02*
G01*
X199895Y9455404D01*
X163573Y9405365D02*
G01*
X222755Y9405365D01*
X252727Y9500870D02*
G01*
X252727Y9405365D01*
X252727Y9500870D02*
G01*
X293621Y9500870D01*
X307337Y9496297D01*
X311909Y9491726D01*
X316481Y9482581D01*
X316481Y9473692D01*
X311909Y9464547D01*
X307337Y9459976D01*
X293621Y9455404D01*
X252727Y9455404D01*
X284477Y9455404D02*
G01*
X316481Y9405365D01*
X346453Y9500870D02*
G01*
X346453Y9405365D01*
X412747Y9500870D02*
G01*
X376425Y9405365D01*
X412747Y9500870D02*
G01*
X449069Y9405365D01*
X389887Y9437370D02*
G01*
X435353Y9437370D01*
X-7460640Y3816372D02*
G01*
X-7457846Y3810784D01*
X-7452258Y3805450D01*
X-7446924Y3802656D01*
X-7438796Y3800116D01*
X-7425080Y3800116D01*
X-7416952Y3802656D01*
X-7411364Y3805450D01*
X-7406030Y3810784D01*
X-7403236Y3816372D01*
X-7403236Y3827294D01*
X-7406030Y3832628D01*
X-7411364Y3838216D01*
X-7416952Y3841010D01*
X-7425080Y3843550D01*
X-7438796Y3843550D01*
X-7446924Y3841010D01*
X-7452258Y3838216D01*
X-7457846Y3832628D01*
X-7460640Y3827294D01*
X-7460640Y3816372D01*
X-7460640Y3861584D02*
G01*
X-7419746Y3861584D01*
X-7411364Y3864378D01*
X-7406030Y3869712D01*
X-7403236Y3878094D01*
X-7403236Y3883428D01*
X-7406030Y3891556D01*
X-7411364Y3897144D01*
X-7419746Y3899684D01*
X-7460640Y3899684D01*
X-7460640Y3937022D02*
G01*
X-7403236Y3937022D01*
X-7460640Y3917718D02*
G01*
X-7460640Y3956072D01*
D11*
X-6086855Y4100321D02*
G01*
X-6097269Y4110736D01*
X-6112763Y4115815D01*
X-6133591Y4115815D01*
X-6149085Y4110736D01*
X-6159499Y4100321D01*
X-6159499Y4089907D01*
X-6154419Y4079494D01*
X-6149085Y4074160D01*
X-6138671Y4069079D01*
X-6107429Y4058665D01*
X-6097269Y4053586D01*
X-6091935Y4048252D01*
X-6086855Y4037837D01*
X-6086855Y4022344D01*
X-6097269Y4011929D01*
X-6112763Y4006850D01*
X-6133591Y4006850D01*
X-6149085Y4011929D01*
X-6159499Y4022344D01*
X-6052565Y4115815D02*
G01*
X-6026403Y4006850D01*
X-6000495Y4115815D02*
G01*
X-6026403Y4006850D01*
X-6000495Y4115815D02*
G01*
X-5974587Y4006850D01*
X-5948679Y4115815D02*
G01*
X-5974587Y4006850D01*
X-5909055Y4089907D02*
G01*
X-5909055Y4094987D01*
X-5903975Y4105402D01*
X-5898641Y4110736D01*
X-5888227Y4115815D01*
X-5867399Y4115815D01*
X-5857239Y4110736D01*
X-5851905Y4105402D01*
X-5846825Y4094987D01*
X-5846825Y4084573D01*
X-5851905Y4074160D01*
X-5862319Y4058665D01*
X-5914389Y4006850D01*
X-5841491Y4006850D01*
X-1703308Y4051259D02*
G01*
X-1781286Y4051259D01*
X-1796780Y4046179D01*
X-1807194Y4035765D01*
X-1812528Y4020271D01*
X-1812528Y4009857D01*
X-1807194Y3994109D01*
X-1796780Y3983695D01*
X-1781286Y3978615D01*
X-1703308Y3978615D01*
X-1703308Y3882095D02*
G01*
X-1703308Y3933911D01*
X-1750044Y3939245D01*
X-1744964Y3933911D01*
X-1739630Y3918417D01*
X-1739630Y3902669D01*
X-1744964Y3887175D01*
X-1755378Y3876761D01*
X-1770872Y3871681D01*
X-1781286Y3871681D01*
X-1796780Y3876761D01*
X-1807194Y3887175D01*
X-1812528Y3902669D01*
X-1812528Y3918417D01*
X-1807194Y3933911D01*
X-1802114Y3939245D01*
X-1791700Y3944325D01*
X-1703308Y3806149D02*
G01*
X-1708642Y3821643D01*
X-1724136Y3832057D01*
X-1750044Y3837391D01*
X-1765792Y3837391D01*
X-1791700Y3832057D01*
X-1807194Y3821643D01*
X-1812528Y3806149D01*
X-1812528Y3795735D01*
X-1807194Y3780241D01*
X-1791700Y3769827D01*
X-1765792Y3764493D01*
X-1750044Y3764493D01*
X-1724136Y3769827D01*
X-1708642Y3780241D01*
X-1703308Y3795735D01*
X-1703308Y3806149D01*
X-76225Y-394792D02*
G01*
X-76225Y-316814D01*
X-81305Y-301320D01*
X-91719Y-290906D01*
X-107467Y-285572D01*
X-117881Y-285572D01*
X-133375Y-290906D01*
X-143789Y-301320D01*
X-148869Y-316814D01*
X-148869Y-394792D01*
X-235229Y-394792D02*
G01*
X-183159Y-321894D01*
X-261137Y-321894D01*
X-235229Y-394792D02*
G01*
X-235229Y-285572D01*
X-362991Y-358470D02*
G01*
X-357911Y-342722D01*
X-347497Y-332308D01*
X-331749Y-327228D01*
X-326669Y-327228D01*
X-310921Y-332308D01*
X-300761Y-342722D01*
X-295427Y-358470D01*
X-295427Y-363550D01*
X-300761Y-379044D01*
X-310921Y-389458D01*
X-326669Y-394792D01*
X-331749Y-394792D01*
X-347497Y-389458D01*
X-357911Y-379044D01*
X-362991Y-358470D01*
X-362991Y-332308D01*
X-357911Y-306400D01*
X-347497Y-290906D01*
X-331749Y-285572D01*
X-321335Y-285572D01*
X-305841Y-290906D01*
X-300761Y-301320D01*
X875030Y849629D02*
G01*
X882142Y853186D01*
X889000Y860044D01*
X892556Y867155D01*
X892556Y880871D01*
X889000Y887729D01*
X882142Y894842D01*
X875030Y898144D01*
X864870Y901700D01*
X847344Y901700D01*
X836930Y898144D01*
X830072Y894842D01*
X823214Y887729D01*
X819658Y880871D01*
X819658Y867155D01*
X823214Y860044D01*
X830072Y853186D01*
X836930Y849629D01*
X847344Y849629D01*
X847344Y867155D02*
G01*
X847344Y849629D01*
X892556Y826770D02*
G01*
X819658Y826770D01*
X892556Y826770D02*
G01*
X819658Y778510D01*
X892556Y778510D02*
G01*
X819658Y778510D01*
X892556Y755650D02*
G01*
X819658Y755650D01*
X892556Y755650D02*
G01*
X892556Y731265D01*
X889000Y720852D01*
X882142Y713994D01*
X875030Y710437D01*
X864870Y707136D01*
X847344Y707136D01*
X836930Y710437D01*
X830072Y713994D01*
X823214Y720852D01*
X819658Y731265D01*
X819658Y755650D01*
X862327Y223443D02*
G01*
X865883Y216331D01*
X872741Y209473D01*
X879853Y206171D01*
X893569Y206171D01*
X900427Y209473D01*
X907539Y216331D01*
X910841Y223443D01*
X914397Y233857D01*
X914397Y251129D01*
X910841Y261543D01*
X907539Y268401D01*
X900427Y275259D01*
X893569Y278815D01*
X879853Y278815D01*
X872741Y275259D01*
X865883Y268401D01*
X862327Y261543D01*
X862327Y251129D01*
X879853Y251129D02*
G01*
X862327Y251129D01*
X811781Y206171D02*
G01*
X839467Y278815D01*
X811781Y206171D02*
G01*
X784095Y278815D01*
X829307Y254431D02*
G01*
X794509Y254431D01*
X761235Y206171D02*
G01*
X761235Y278815D01*
X738375Y206171D02*
G01*
X738375Y278815D01*
X738375Y206171D02*
G01*
X689861Y278815D01*
X689861Y206171D02*
G01*
X689861Y278815D01*
X927074Y497001D02*
G01*
X906246Y545515D01*
X885418Y497001D02*
G01*
X906246Y545515D01*
X821156Y472871D02*
G01*
X821156Y545515D01*
X821156Y507415D02*
G01*
X828014Y500557D01*
X834872Y497001D01*
X845286Y497001D01*
X852398Y500557D01*
X859256Y507415D01*
X862558Y517829D01*
X862558Y524687D01*
X859256Y535101D01*
X852398Y541959D01*
X845286Y545515D01*
X834872Y545515D01*
X828014Y541959D01*
X821156Y535101D01*
X756640Y472871D02*
G01*
X756640Y545515D01*
X756640Y507415D02*
G01*
X763498Y500557D01*
X770610Y497001D01*
X781024Y497001D01*
X787882Y500557D01*
X794740Y507415D01*
X798296Y517829D01*
X798296Y524687D01*
X794740Y535101D01*
X787882Y541959D01*
X781024Y545515D01*
X770610Y545515D01*
X763498Y541959D01*
X756640Y535101D01*
X851484Y33375D02*
G01*
X858342Y26517D01*
X868756Y23215D01*
X882726Y23215D01*
X893140Y26517D01*
X899998Y33375D01*
X899998Y40487D01*
X896442Y47345D01*
X893140Y50901D01*
X886028Y54203D01*
X865454Y61315D01*
X858342Y64617D01*
X855040Y68173D01*
X851484Y75031D01*
X851484Y85445D01*
X858342Y92303D01*
X868756Y95859D01*
X882726Y95859D01*
X893140Y92303D01*
X899998Y85445D01*
X800938Y23215D02*
G01*
X828624Y95859D01*
X800938Y23215D02*
G01*
X773252Y95859D01*
X818210Y71475D02*
G01*
X783666Y71475D01*
X750392Y23215D02*
G01*
X750392Y95859D01*
X750392Y95859D02*
G01*
X708736Y95859D01*
X685876Y23215D02*
G01*
X685876Y95859D01*
X663016Y23215D02*
G01*
X663016Y95859D01*
X663016Y23215D02*
G01*
X638886Y23215D01*
X628472Y26517D01*
X621614Y33375D01*
X618058Y40487D01*
X614502Y50901D01*
X614502Y68173D01*
X618058Y78587D01*
X621614Y85445D01*
X628472Y92303D01*
X638886Y95859D01*
X663016Y95859D01*
X563956Y23215D02*
G01*
X591642Y95859D01*
X563956Y23215D02*
G01*
X536270Y95859D01*
X581228Y71475D02*
G01*
X546684Y71475D01*
X874014Y-266700D02*
G01*
X901700Y-193802D01*
X874014Y-266700D02*
G01*
X846328Y-193802D01*
X891286Y-218186D02*
G01*
X856742Y-218186D01*
X823468Y-266700D02*
G01*
X823468Y-193802D01*
X823468Y-266700D02*
G01*
X792226Y-266700D01*
X781812Y-263144D01*
X778510Y-259587D01*
X774954Y-252729D01*
X774954Y-245871D01*
X778510Y-239013D01*
X781812Y-235457D01*
X792226Y-231902D01*
X823468Y-231902D01*
X799084Y-231902D02*
G01*
X774954Y-193802D01*
X152400Y850900D02*
G01*
X152400Y923797D01*
X152400Y850900D02*
G01*
X124714Y923797D01*
X97028Y850900D02*
G01*
X124714Y923797D01*
X97028Y850900D02*
G01*
X97028Y923797D01*
X46481Y850900D02*
G01*
X74168Y923797D01*
X46481Y850900D02*
G01*
X18796Y923797D01*
X63754Y899413D02*
G01*
X29210Y899413D01*
X-4063Y850900D02*
G01*
X-52577Y923797D01*
X-52577Y850900D02*
G01*
X-4063Y923797D01*
X-120650Y875284D02*
G01*
X-117093Y885697D01*
X-110235Y892555D01*
X-99821Y896112D01*
X-96265Y896112D01*
X-85851Y892555D01*
X-78993Y885697D01*
X-75437Y875284D01*
X-75437Y871728D01*
X-78993Y861313D01*
X-85851Y854455D01*
X-96265Y850900D01*
X-99821Y850900D01*
X-110235Y854455D01*
X-117093Y861313D01*
X-120650Y875284D01*
X-120650Y892555D01*
X-117093Y909828D01*
X-110235Y920242D01*
X-99821Y923797D01*
X-92709Y923797D01*
X-82550Y920242D01*
X-78993Y913384D01*
X-160781Y850900D02*
G01*
X-150368Y854455D01*
X-146811Y861313D01*
X-146811Y868426D01*
X-150368Y875284D01*
X-157225Y878586D01*
X-171195Y882142D01*
X-181609Y885697D01*
X-188468Y892555D01*
X-191769Y899413D01*
X-191769Y909828D01*
X-188468Y916686D01*
X-184911Y920242D01*
X-174497Y923797D01*
X-160781Y923797D01*
X-150368Y920242D01*
X-146811Y916686D01*
X-143509Y909828D01*
X-143509Y899413D01*
X-146811Y892555D01*
X-153669Y885697D01*
X-164084Y882142D01*
X-178053Y878586D01*
X-184911Y875284D01*
X-188468Y868426D01*
X-188468Y861313D01*
X-184911Y854455D01*
X-174497Y850900D01*
X-160781Y850900D01*
X-214629Y864870D02*
G01*
X-221741Y861313D01*
X-232155Y850900D01*
X-232155Y923797D01*
X-289559Y850900D02*
G01*
X-255015Y899413D01*
X-306831Y899413D01*
X-289559Y850900D02*
G01*
X-289559Y923797D01*
X558800Y1510284D02*
G01*
X558800Y1588262D01*
X553720Y1603755D01*
X543306Y1614170D01*
X527558Y1619250D01*
X517144Y1619250D01*
X501650Y1614170D01*
X491236Y1603755D01*
X486156Y1588262D01*
X486156Y1510284D01*
X451865Y1531112D02*
G01*
X441452Y1525778D01*
X425704Y1510284D01*
X425704Y1619250D01*
D12*
X1357246Y2662913D02*
G01*
X1361864Y2662913D01*
X1371102Y2658295D01*
X1375719Y2653675D01*
X1380337Y2644439D01*
X1380337Y2625966D01*
X1375719Y2616730D01*
X1371102Y2612113D01*
X1361864Y2607495D01*
X1352628Y2607495D01*
X1343393Y2612113D01*
X1329537Y2621348D01*
X1283355Y2667530D01*
X1283355Y2602875D01*
X1324919Y2572395D02*
G01*
X1324919Y2489268D01*
X1380337Y2403370D02*
G01*
X1380337Y2449553D01*
X1338775Y2454170D01*
X1343393Y2449553D01*
X1348011Y2435697D01*
X1348011Y2421844D01*
X1343393Y2407988D01*
X1334155Y2398753D01*
X1320302Y2394135D01*
X1311064Y2394135D01*
X1297211Y2398753D01*
X1287975Y2407988D01*
X1283355Y2421844D01*
X1283355Y2435697D01*
X1287975Y2449553D01*
X1292593Y2454170D01*
X1301828Y2458788D01*
X1380337Y2363655D02*
G01*
X1283355Y2326708D01*
X1380337Y2289764D02*
G01*
X1283355Y2326708D01*
X1380337Y2259284D02*
G01*
X1283355Y2259284D01*
X1380337Y2259284D02*
G01*
X1380337Y2226955D01*
X1375719Y2213102D01*
X1366484Y2203866D01*
X1357246Y2199246D01*
X1343393Y2194628D01*
X1320302Y2194628D01*
X1306446Y2199246D01*
X1297211Y2203866D01*
X1287975Y2213102D01*
X1283355Y2226955D01*
X1283355Y2259284D01*
X1357246Y2094875D02*
G01*
X1366484Y2099495D01*
X1375719Y2108730D01*
X1380337Y2117966D01*
X1380337Y2136439D01*
X1375719Y2145675D01*
X1366484Y2154913D01*
X1357246Y2159530D01*
X1343393Y2164148D01*
X1320302Y2164148D01*
X1306446Y2159530D01*
X1297211Y2154913D01*
X1287975Y2145675D01*
X1283355Y2136439D01*
X1283355Y2117966D01*
X1287975Y2108730D01*
X1297211Y2099495D01*
X1306446Y2094875D01*
D13*
X1179372Y2099538D02*
G01*
X1300784Y2053310D01*
X1179372Y2099538D02*
G01*
X1300784Y2145766D01*
X1260144Y2070582D02*
G01*
X1260144Y2128240D01*
X1248714Y2183866D02*
G01*
X1248714Y2287752D01*
X997458Y2923286D02*
G01*
X997458Y2917444D01*
X991870Y2906013D01*
X986028Y2900171D01*
X974344Y2894329D01*
X951230Y2894329D01*
X939800Y2900171D01*
X933958Y2906013D01*
X928370Y2917444D01*
X928370Y2929128D01*
X933958Y2940557D01*
X945642Y2957829D01*
X1003300Y3015742D01*
X922528Y3015742D01*
X878586Y2986786D02*
G01*
X884428Y2992628D01*
X878586Y2998470D01*
X872744Y2992628D01*
X878586Y2986786D01*
X765556Y2894329D02*
G01*
X823214Y2894329D01*
X829056Y2946400D01*
X823214Y2940557D01*
X805942Y2934970D01*
X788670Y2934970D01*
X771144Y2940557D01*
X759714Y2952242D01*
X753872Y2969513D01*
X753872Y2980944D01*
X759714Y2998470D01*
X771144Y3009900D01*
X788670Y3015742D01*
X805942Y3015742D01*
X823214Y3009900D01*
X829056Y3004057D01*
X834644Y2992628D01*
X715772Y2894329D02*
G01*
X687070Y3015742D01*
X658114Y2894329D02*
G01*
X687070Y3015742D01*
X658114Y2894329D02*
G01*
X629158Y3015742D01*
X600456Y2894329D02*
G01*
X629158Y3015742D01*
X427228Y2894329D02*
G01*
X473456Y3015742D01*
X427228Y2894329D02*
G01*
X381000Y3015742D01*
X455930Y2975355D02*
G01*
X398272Y2975355D01*
X342900Y2934970D02*
G01*
X342900Y3015742D01*
X342900Y2957829D02*
G01*
X325628Y2940557D01*
X313944Y2934970D01*
X296672Y2934970D01*
X285242Y2940557D01*
X279400Y2957829D01*
X279400Y3015742D01*
X279400Y2957829D02*
G01*
X262128Y2940557D01*
X250444Y2934970D01*
X233172Y2934970D01*
X221742Y2940557D01*
X215900Y2957829D01*
X215900Y3015742D01*
X177800Y2934970D02*
G01*
X177800Y3056128D01*
X177800Y2952242D02*
G01*
X166370Y2940557D01*
X154686Y2934970D01*
X137414Y2934970D01*
X125730Y2940557D01*
X114300Y2952242D01*
X108458Y2969513D01*
X108458Y2980944D01*
X114300Y2998470D01*
X125730Y3009900D01*
X137414Y3015742D01*
X154686Y3015742D01*
X166370Y3009900D01*
X177800Y2998470D01*
X1041400Y1772157D02*
G01*
X1041400Y1893570D01*
X1041400Y1772157D02*
G01*
X989330Y1772157D01*
X972058Y1778000D01*
X966470Y1783842D01*
X960628Y1795271D01*
X960628Y1812544D01*
X966470Y1824228D01*
X972058Y1830070D01*
X989330Y1835657D01*
X1041400Y1835657D01*
X876300Y1772157D02*
G01*
X922528Y1893570D01*
X876300Y1772157D02*
G01*
X830072Y1893570D01*
X905256Y1852929D02*
G01*
X847344Y1852929D01*
X791972Y1772157D02*
G01*
X791972Y1893570D01*
X791972Y1772157D02*
G01*
X745744Y1893570D01*
X699770Y1772157D02*
G01*
X745744Y1893570D01*
X699770Y1772157D02*
G01*
X699770Y1893570D01*
X632714Y1772157D02*
G01*
X649986Y1778000D01*
X655828Y1789429D01*
X655828Y1801113D01*
X649986Y1812544D01*
X638556Y1818386D01*
X615442Y1824228D01*
X598170Y1830070D01*
X586486Y1841500D01*
X580644Y1852929D01*
X580644Y1870455D01*
X586486Y1881886D01*
X592328Y1887728D01*
X609600Y1893570D01*
X632714Y1893570D01*
X649986Y1887728D01*
X655828Y1881886D01*
X661670Y1870455D01*
X661670Y1852929D01*
X655828Y1841500D01*
X644144Y1830070D01*
X626872Y1824228D01*
X603758Y1818386D01*
X592328Y1812544D01*
X586486Y1801113D01*
X586486Y1789429D01*
X592328Y1778000D01*
X609600Y1772157D01*
X632714Y1772157D01*
X531114Y1772157D02*
G01*
X467614Y1772157D01*
X502158Y1818386D01*
X484886Y1818386D01*
X473456Y1824228D01*
X467614Y1830070D01*
X461772Y1847342D01*
X461772Y1858771D01*
X467614Y1876044D01*
X479044Y1887728D01*
X496570Y1893570D01*
X513842Y1893570D01*
X531114Y1887728D01*
X536956Y1881886D01*
X542544Y1870455D01*
X389128Y1772157D02*
G01*
X406400Y1778000D01*
X417830Y1795271D01*
X423672Y1824228D01*
X423672Y1841500D01*
X417830Y1870455D01*
X406400Y1887728D01*
X389128Y1893570D01*
X377444Y1893570D01*
X360172Y1887728D01*
X348742Y1870455D01*
X342900Y1841500D01*
X342900Y1824228D01*
X348742Y1795271D01*
X360172Y1778000D01*
X377444Y1772157D01*
X389128Y1772157D01*
X298958Y1801113D02*
G01*
X298958Y1795271D01*
X293370Y1783842D01*
X287528Y1778000D01*
X275844Y1772157D01*
X252730Y1772157D01*
X241300Y1778000D01*
X235458Y1783842D01*
X229870Y1795271D01*
X229870Y1806955D01*
X235458Y1818386D01*
X247142Y1835657D01*
X304800Y1893570D01*
X224028Y1893570D01*
X139700Y1772157D02*
G01*
X185928Y1893570D01*
X139700Y1772157D02*
G01*
X93472Y1893570D01*
X168656Y1852929D02*
G01*
X110744Y1852929D01*
X1585214Y2836163D02*
G01*
X1573530Y2830321D01*
X1562100Y2818892D01*
X1556258Y2807207D01*
X1556258Y2784094D01*
X1562100Y2772663D01*
X1573530Y2760979D01*
X1585214Y2755392D01*
X1602486Y2749550D01*
X1631442Y2749550D01*
X1648714Y2755392D01*
X1660144Y2760979D01*
X1671828Y2772663D01*
X1677670Y2784094D01*
X1677670Y2807207D01*
X1671828Y2818892D01*
X1660144Y2830321D01*
X1648714Y2836163D01*
X1631442Y2836163D01*
X1631442Y2807207D02*
G01*
X1631442Y2836163D01*
X1596644Y2874263D02*
G01*
X1677670Y2874263D01*
X1619758Y2874263D02*
G01*
X1602486Y2891536D01*
X1596644Y2903220D01*
X1596644Y2920492D01*
X1602486Y2931921D01*
X1619758Y2937763D01*
X1677670Y2937763D01*
X1556258Y3045205D02*
G01*
X1677670Y3045205D01*
X1614170Y3045205D02*
G01*
X1602486Y3033521D01*
X1596644Y3022092D01*
X1596644Y3004820D01*
X1602486Y2993136D01*
X1614170Y2981705D01*
X1631442Y2975863D01*
X1642872Y2975863D01*
X1660144Y2981705D01*
X1671828Y2993136D01*
X1677670Y3004820D01*
X1677670Y3022092D01*
X1671828Y3033521D01*
X1660144Y3045205D01*
X1573530Y2366771D02*
G01*
X1562100Y2355342D01*
X1556258Y2338070D01*
X1556258Y2314955D01*
X1562100Y2297429D01*
X1573530Y2286000D01*
X1585214Y2286000D01*
X1596644Y2291842D01*
X1602486Y2297429D01*
X1608328Y2309113D01*
X1619758Y2343657D01*
X1625600Y2355342D01*
X1631442Y2360929D01*
X1642872Y2366771D01*
X1660144Y2366771D01*
X1671828Y2355342D01*
X1677670Y2338070D01*
X1677670Y2314955D01*
X1671828Y2297429D01*
X1660144Y2286000D01*
X1556258Y2404871D02*
G01*
X1677670Y2404871D01*
X1556258Y2404871D02*
G01*
X1556258Y2445257D01*
X1562100Y2462529D01*
X1573530Y2474213D01*
X1585214Y2480055D01*
X1602486Y2485644D01*
X1631442Y2485644D01*
X1648714Y2480055D01*
X1660144Y2474213D01*
X1671828Y2462529D01*
X1677670Y2445257D01*
X1677670Y2404871D01*
X1556258Y1836928D02*
G01*
X1677670Y1790700D01*
X1556258Y1836928D02*
G01*
X1677670Y1883155D01*
X1637030Y1807971D02*
G01*
X1637030Y1865629D01*
X1573530Y1973071D02*
G01*
X1677670Y1973071D01*
X1625600Y1921255D02*
G01*
X1625600Y2025142D01*
D11*
X-2654300Y1740915D02*
G01*
X-2654300Y1662937D01*
X-2649219Y1647444D01*
X-2638805Y1637029D01*
X-2623057Y1631950D01*
X-2612643Y1631950D01*
X-2597150Y1637029D01*
X-2586735Y1647444D01*
X-2581655Y1662937D01*
X-2581655Y1740915D01*
X-2547365Y1720087D02*
G01*
X-2536951Y1725421D01*
X-2521203Y1740915D01*
X-2521203Y1631950D01*
X-2424684Y1740915D02*
G01*
X-2476500Y1740915D01*
X-2481834Y1694179D01*
X-2476500Y1699260D01*
X-2461005Y1704594D01*
X-2445511Y1704594D01*
X-2429763Y1699260D01*
X-2419350Y1689100D01*
X-2414269Y1673352D01*
X-2414269Y1662937D01*
X-2419350Y1647444D01*
X-2429763Y1637029D01*
X-2445511Y1631950D01*
X-2461005Y1631950D01*
X-2476500Y1637029D01*
X-2481834Y1642110D01*
X-2486913Y1652523D01*
D10*
X-3354598Y927176D02*
G01*
X-3350026Y918032D01*
X-3340882Y908634D01*
X-3331738Y904062D01*
X-3318276Y899998D01*
X-3295416Y899998D01*
X-3281700Y904062D01*
X-3272810Y908634D01*
X-3263666Y918032D01*
X-3259094Y927176D01*
X-3259094Y944956D01*
X-3263666Y954100D01*
X-3272810Y963752D01*
X-3281700Y967562D01*
X-3295416Y972134D01*
X-3318276Y972134D01*
X-3331738Y967562D01*
X-3340882Y963752D01*
X-3350026Y954100D01*
X-3354598Y944956D01*
X-3354598Y927176D01*
X-3354598Y1002106D02*
G01*
X-3286272Y1002106D01*
X-3272810Y1006932D01*
X-3263666Y1016076D01*
X-3259094Y1029538D01*
X-3259094Y1038682D01*
X-3263666Y1052652D01*
X-3272810Y1061288D01*
X-3286272Y1065860D01*
X-3354598Y1065860D01*
X-3354598Y1127582D02*
G01*
X-3259094Y1127582D01*
X-3354598Y1095832D02*
G01*
X-3354598Y1159586D01*
X-3340882Y1230706D02*
G01*
X-3259094Y1230706D01*
X-3299988Y1189558D02*
G01*
X-3299988Y1271600D01*
X-3054601Y1099997D02*
G01*
X-2959097Y1099997D01*
X-3054601Y1099997D02*
G01*
X-3054601Y1140129D01*
X-3050029Y1154353D01*
X-3045457Y1158925D01*
X-3036313Y1163751D01*
X-3027169Y1163751D01*
X-3018279Y1158925D01*
X-3013707Y1154353D01*
X-3009135Y1140129D01*
X-3009135Y1099997D02*
G01*
X-3009135Y1140129D01*
X-3004563Y1154353D01*
X-2999991Y1158925D01*
X-2990847Y1163751D01*
X-2977385Y1163751D01*
X-2968241Y1158925D01*
X-2963669Y1154353D01*
X-2959097Y1140129D01*
X-2959097Y1099997D01*
X-3040885Y1233855D02*
G01*
X-2959097Y1233855D01*
X-2999991Y1193723D02*
G01*
X-2999991Y1275003D01*
X-2268727Y1122171D02*
G01*
X-2172969Y1122171D01*
X-2268727Y1122171D02*
G01*
X-2268727Y1162812D01*
X-2264155Y1176781D01*
X-2259329Y1181354D01*
X-2250185Y1185926D01*
X-2241295Y1185926D01*
X-2232405Y1181354D01*
X-2227579Y1176781D01*
X-2223007Y1162812D01*
X-2223007Y1122171D02*
G01*
X-2223007Y1162812D01*
X-2218435Y1176781D01*
X-2214118Y1181354D01*
X-2204719Y1185926D01*
X-2191257Y1185926D01*
X-2182368Y1181354D01*
X-2177795Y1176781D01*
X-2172969Y1162812D01*
X-2172969Y1122171D01*
X-2214118Y1215897D02*
G01*
X-2214118Y1297686D01*
X-1979168Y985520D02*
G01*
X-1974595Y977392D01*
X-1965451Y967994D01*
X-1956307Y963168D01*
X-1942845Y958595D01*
X-1919985Y958595D01*
X-1906269Y963168D01*
X-1897379Y967994D01*
X-1888235Y977392D01*
X-1883663Y985520D01*
X-1883663Y1004315D01*
X-1888235Y1012952D01*
X-1897379Y1022095D01*
X-1906269Y1026668D01*
X-1919985Y1031494D01*
X-1942845Y1031494D01*
X-1956307Y1026668D01*
X-1965451Y1022095D01*
X-1974595Y1012952D01*
X-1979168Y1004315D01*
X-1979168Y985520D01*
X-1979168Y1061465D02*
G01*
X-1910841Y1061465D01*
X-1897379Y1066292D01*
X-1888235Y1074673D01*
X-1883663Y1088644D01*
X-1883663Y1098042D01*
X-1888235Y1110995D01*
X-1897379Y1120394D01*
X-1910841Y1125220D01*
X-1979168Y1125220D01*
X-1979168Y1186942D02*
G01*
X-1883663Y1186942D01*
X-1979168Y1155192D02*
G01*
X-1979168Y1218945D01*
X-1924557Y1248918D02*
G01*
X-1924557Y1330197D01*
X-3371568Y-685800D02*
G01*
X-3276064Y-685800D01*
X-3371568Y-655828D02*
G01*
X-3276064Y-655828D01*
X-3371568Y-655828D02*
G01*
X-3276064Y-592073D01*
X-3371568Y-592073D02*
G01*
X-3276064Y-592073D01*
X-3357852Y-521207D02*
G01*
X-3276064Y-521207D01*
X-3316958Y-562102D02*
G01*
X-3316958Y-480313D01*
X-1977389Y-679450D02*
G01*
X-1881885Y-679450D01*
X-1977389Y-649478D02*
G01*
X-1881885Y-649478D01*
X-1977389Y-649478D02*
G01*
X-1881885Y-585723D01*
X-1977389Y-585723D02*
G01*
X-1881885Y-585723D01*
X-1922779Y-555752D02*
G01*
X-1922779Y-473963D01*
X-3680459Y-406400D02*
G01*
X-3684269Y-398271D01*
X-3696461Y-386079D01*
X-3611625Y-386079D01*
D11*
X-6489699Y1903984D02*
G01*
X-6489699Y2012950D01*
X-6489699Y1903984D02*
G01*
X-6526021Y1903984D01*
X-6541769Y1909063D01*
X-6551929Y1919478D01*
X-6557263Y1929892D01*
X-6562343Y1945639D01*
X-6562343Y1971547D01*
X-6557263Y1987042D01*
X-6551929Y1997455D01*
X-6541769Y2007870D01*
X-6526021Y2012950D01*
X-6489699Y2012950D01*
X-6601967Y1929892D02*
G01*
X-6601967Y1924812D01*
X-6607047Y1914397D01*
X-6612381Y1909063D01*
X-6622795Y1903984D01*
X-6643369Y1903984D01*
X-6653783Y1909063D01*
X-6659117Y1914397D01*
X-6664197Y1924812D01*
X-6664197Y1935226D01*
X-6659117Y1945639D01*
X-6648703Y1961134D01*
X-6596633Y2012950D01*
X-6669531Y2012950D01*
X-6844283Y4178300D02*
G01*
X-6922261Y4178300D01*
X-6937755Y4173220D01*
X-6948169Y4162805D01*
X-6953249Y4147057D01*
X-6953249Y4136644D01*
X-6948169Y4121150D01*
X-6937755Y4110736D01*
X-6922261Y4105655D01*
X-6844283Y4105655D01*
X-6844283Y4019295D02*
G01*
X-6916927Y4071365D01*
X-6916927Y3993387D01*
X-6844283Y4019295D02*
G01*
X-6953249Y4019295D01*
X-6870191Y3953763D02*
G01*
X-6865111Y3953763D01*
X-6854697Y3948684D01*
X-6849363Y3943350D01*
X-6844283Y3933189D01*
X-6844283Y3912362D01*
X-6849363Y3901947D01*
X-6854697Y3896613D01*
X-6865111Y3891534D01*
X-6875525Y3891534D01*
X-6885939Y3896613D01*
X-6901433Y3907028D01*
X-6953249Y3959097D01*
X-6953249Y3886200D01*
X-6361683Y4178300D02*
G01*
X-6439661Y4178300D01*
X-6455155Y4173220D01*
X-6465569Y4162805D01*
X-6470649Y4147057D01*
X-6470649Y4136644D01*
X-6465569Y4121150D01*
X-6455155Y4110736D01*
X-6439661Y4105655D01*
X-6361683Y4105655D01*
X-6361683Y4019295D02*
G01*
X-6434327Y4071365D01*
X-6434327Y3993387D01*
X-6361683Y4019295D02*
G01*
X-6470649Y4019295D01*
X-6361683Y3948684D02*
G01*
X-6361683Y3891534D01*
X-6403339Y3922776D01*
X-6403339Y3907028D01*
X-6408419Y3896613D01*
X-6413499Y3891534D01*
X-6429247Y3886200D01*
X-6439661Y3886200D01*
X-6455155Y3891534D01*
X-6465569Y3901947D01*
X-6470649Y3917442D01*
X-6470649Y3933189D01*
X-6465569Y3948684D01*
X-6460489Y3953763D01*
X-6450075Y3959097D01*
X1043658Y3886200D02*
G01*
X965680Y3886200D01*
X950186Y3881120D01*
X939772Y3870705D01*
X934438Y3854957D01*
X934438Y3844544D01*
X939772Y3829050D01*
X950186Y3818636D01*
X965680Y3813555D01*
X1043658Y3813555D01*
X1043658Y3716781D02*
G01*
X1043658Y3768852D01*
X996922Y3773931D01*
X1002002Y3768852D01*
X1007336Y3753104D01*
X1007336Y3737610D01*
X1002002Y3722115D01*
X991588Y3711702D01*
X976094Y3706368D01*
X965680Y3706368D01*
X950186Y3711702D01*
X939772Y3722115D01*
X934438Y3737610D01*
X934438Y3753104D01*
X939772Y3768852D01*
X944852Y3773931D01*
X955266Y3779265D01*
X1041336Y7899488D02*
G01*
X963358Y7899488D01*
X947864Y7894154D01*
X937450Y7883740D01*
X932116Y7868246D01*
X932116Y7857832D01*
X937450Y7842338D01*
X947864Y7831924D01*
X963358Y7826590D01*
X1041336Y7826590D01*
X1041336Y7719656D02*
G01*
X932116Y7771726D01*
X1041336Y7792300D02*
G01*
X1041336Y7719656D01*
X1054036Y5829388D02*
G01*
X976058Y5829388D01*
X960564Y5824054D01*
X950150Y5813640D01*
X944816Y5798146D01*
X944816Y5787732D01*
X950150Y5772238D01*
X960564Y5761824D01*
X976058Y5756490D01*
X1054036Y5756490D01*
X1054036Y5696292D02*
G01*
X1048956Y5711786D01*
X1038542Y5717120D01*
X1028128Y5717120D01*
X1017714Y5711786D01*
X1012380Y5701626D01*
X1007300Y5680798D01*
X1001966Y5665050D01*
X991806Y5654636D01*
X981392Y5649556D01*
X965644Y5649556D01*
X955230Y5654636D01*
X950150Y5659970D01*
X944816Y5675464D01*
X944816Y5696292D01*
X950150Y5711786D01*
X955230Y5717120D01*
X965644Y5722200D01*
X981392Y5722200D01*
X991806Y5717120D01*
X1001966Y5706706D01*
X1007300Y5691212D01*
X1012380Y5670384D01*
X1017714Y5659970D01*
X1028128Y5654636D01*
X1038542Y5654636D01*
X1048956Y5659970D01*
X1054036Y5675464D01*
X1054036Y5696292D01*
X-4635500Y367284D02*
G01*
X-4635500Y445262D01*
X-4640579Y460755D01*
X-4650993Y471170D01*
X-4666741Y476250D01*
X-4677155Y476250D01*
X-4692650Y471170D01*
X-4703063Y460755D01*
X-4708143Y445262D01*
X-4708143Y367284D01*
X-4742434Y388112D02*
G01*
X-4752847Y382778D01*
X-4768595Y367284D01*
X-4768595Y476250D01*
X-4833873Y367284D02*
G01*
X-4818379Y372363D01*
X-4807965Y388112D01*
X-4802885Y414020D01*
X-4802885Y429513D01*
X-4807965Y455676D01*
X-4818379Y471170D01*
X-4833873Y476250D01*
X-4844287Y476250D01*
X-4860035Y471170D01*
X-4870450Y455676D01*
X-4875529Y429513D01*
X-4875529Y414020D01*
X-4870450Y388112D01*
X-4860035Y372363D01*
X-4844287Y367284D01*
X-4833873Y367284D01*
D10*
X-3886197Y742436D02*
G01*
X-3886197Y856990D01*
X-3886197Y742436D02*
G01*
X-3924297Y742436D01*
X-3940807Y748024D01*
X-3951729Y758946D01*
X-3957063Y769868D01*
X-3962651Y786124D01*
X-3962651Y813302D01*
X-3957063Y829812D01*
X-3951729Y840734D01*
X-3940807Y851656D01*
X-3924297Y856990D01*
X-3886197Y856990D01*
X-4031231Y742436D02*
G01*
X-4014975Y748024D01*
X-4004053Y764280D01*
X-3998465Y791712D01*
X-3998465Y807968D01*
X-4004053Y835146D01*
X-4014975Y851656D01*
X-4031231Y856990D01*
X-4042153Y856990D01*
X-4058663Y851656D01*
X-4069585Y835146D01*
X-4074919Y807968D01*
X-4074919Y791712D01*
X-4069585Y764280D01*
X-4058663Y748024D01*
X-4042153Y742436D01*
X-4031231Y742436D01*
X-3898818Y1009119D02*
G01*
X-3898818Y1123673D01*
X-3898818Y1009119D02*
G01*
X-3937172Y1009119D01*
X-3953428Y1014707D01*
X-3964350Y1025629D01*
X-3969684Y1036551D01*
X-3975272Y1052807D01*
X-3975272Y1080239D01*
X-3969684Y1096495D01*
X-3964350Y1107417D01*
X-3953428Y1118339D01*
X-3937172Y1123673D01*
X-3898818Y1123673D01*
X-4011340Y1030963D02*
G01*
X-4022262Y1025629D01*
X-4038518Y1009119D01*
X-4038518Y1123673D01*
X-3886121Y1263129D02*
G01*
X-3886121Y1377683D01*
X-3886121Y1263129D02*
G01*
X-3924475Y1263129D01*
X-3940731Y1268717D01*
X-3951653Y1279639D01*
X-3956987Y1290561D01*
X-3962575Y1306817D01*
X-3962575Y1334249D01*
X-3956987Y1350505D01*
X-3951653Y1361427D01*
X-3940731Y1372349D01*
X-3924475Y1377683D01*
X-3886121Y1377683D01*
X-4003977Y1290561D02*
G01*
X-4003977Y1284973D01*
X-4009565Y1274051D01*
X-4014899Y1268717D01*
X-4025821Y1263129D01*
X-4047665Y1263129D01*
X-4058587Y1268717D01*
X-4063921Y1274051D01*
X-4069509Y1284973D01*
X-4069509Y1295895D01*
X-4063921Y1306817D01*
X-4052999Y1323327D01*
X-3998643Y1377683D01*
X-4074843Y1377683D01*
X-3886121Y1529814D02*
G01*
X-3886121Y1644368D01*
X-3886121Y1529814D02*
G01*
X-3924475Y1529814D01*
X-3940731Y1535402D01*
X-3951653Y1546324D01*
X-3956987Y1557246D01*
X-3962575Y1573502D01*
X-3962575Y1600934D01*
X-3956987Y1617190D01*
X-3951653Y1628112D01*
X-3940731Y1639034D01*
X-3924475Y1644368D01*
X-3886121Y1644368D01*
X-4009565Y1529814D02*
G01*
X-4069509Y1529814D01*
X-4036743Y1573502D01*
X-4052999Y1573502D01*
X-4063921Y1579090D01*
X-4069509Y1584424D01*
X-4074843Y1600934D01*
X-4074843Y1611602D01*
X-4069509Y1628112D01*
X-4058587Y1639034D01*
X-4042077Y1644368D01*
X-4025821Y1644368D01*
X-4009565Y1639034D01*
X-4003977Y1633446D01*
X-3998643Y1622524D01*
X-3898821Y1771124D02*
G01*
X-3898821Y1885678D01*
X-3898821Y1771124D02*
G01*
X-3937175Y1771124D01*
X-3953431Y1776712D01*
X-3964353Y1787634D01*
X-3969687Y1798556D01*
X-3975275Y1814812D01*
X-3975275Y1842244D01*
X-3969687Y1858500D01*
X-3964353Y1869422D01*
X-3953431Y1880344D01*
X-3937175Y1885678D01*
X-3898821Y1885678D01*
X-4065699Y1771124D02*
G01*
X-4011343Y1847578D01*
X-4093131Y1847578D01*
X-4065699Y1771124D02*
G01*
X-4065699Y1885678D01*
X-3924221Y2037808D02*
G01*
X-3924221Y2152362D01*
X-3924221Y2037808D02*
G01*
X-3962575Y2037808D01*
X-3978831Y2043396D01*
X-3989753Y2054318D01*
X-3995087Y2065240D01*
X-4000675Y2081496D01*
X-4000675Y2108928D01*
X-3995087Y2125184D01*
X-3989753Y2136106D01*
X-3978831Y2147028D01*
X-3962575Y2152362D01*
X-3924221Y2152362D01*
X-4102021Y2037808D02*
G01*
X-4047665Y2037808D01*
X-4042077Y2087084D01*
X-4047665Y2081496D01*
X-4063921Y2076162D01*
X-4080177Y2076162D01*
X-4096687Y2081496D01*
X-4107609Y2092418D01*
X-4112943Y2108928D01*
X-4112943Y2119596D01*
X-4107609Y2136106D01*
X-4096687Y2147028D01*
X-4080177Y2152362D01*
X-4063921Y2152362D01*
X-4047665Y2147028D01*
X-4042077Y2141440D01*
X-4036743Y2130518D01*
X-3898821Y2266419D02*
G01*
X-3898821Y2380973D01*
X-3898821Y2266419D02*
G01*
X-3937175Y2266419D01*
X-3953431Y2272007D01*
X-3964353Y2282929D01*
X-3969687Y2293851D01*
X-3975275Y2310107D01*
X-3975275Y2337539D01*
X-3969687Y2353795D01*
X-3964353Y2364717D01*
X-3953431Y2375639D01*
X-3937175Y2380973D01*
X-3898821Y2380973D01*
X-4076621Y2282929D02*
G01*
X-4071287Y2272007D01*
X-4054777Y2266419D01*
X-4044109Y2266419D01*
X-4027599Y2272007D01*
X-4016677Y2288263D01*
X-4011343Y2315695D01*
X-4011343Y2342873D01*
X-4016677Y2364717D01*
X-4027599Y2375639D01*
X-4044109Y2380973D01*
X-4049443Y2380973D01*
X-4065699Y2375639D01*
X-4076621Y2364717D01*
X-4082209Y2348207D01*
X-4082209Y2342873D01*
X-4076621Y2326617D01*
X-4065699Y2315695D01*
X-4049443Y2310107D01*
X-4044109Y2310107D01*
X-4027599Y2315695D01*
X-4016677Y2326617D01*
X-4011343Y2342873D01*
X-3899910Y2578823D02*
G01*
X-3899910Y2693377D01*
X-3899910Y2578823D02*
G01*
X-3938264Y2578823D01*
X-3954520Y2584411D01*
X-3965442Y2595333D01*
X-3970776Y2606255D01*
X-3976364Y2622511D01*
X-3976364Y2649943D01*
X-3970776Y2666199D01*
X-3965442Y2677121D01*
X-3954520Y2688043D01*
X-3938264Y2693377D01*
X-3899910Y2693377D01*
X-4088632Y2578823D02*
G01*
X-4034276Y2693377D01*
X-4012432Y2578823D02*
G01*
X-4088632Y2578823D01*
X-3899910Y2778808D02*
G01*
X-3899910Y2893362D01*
X-3899910Y2778808D02*
G01*
X-3938264Y2778808D01*
X-3954520Y2784396D01*
X-3965442Y2795318D01*
X-3970776Y2806240D01*
X-3976364Y2822496D01*
X-3976364Y2849928D01*
X-3970776Y2866184D01*
X-3965442Y2877106D01*
X-3954520Y2888028D01*
X-3938264Y2893362D01*
X-3899910Y2893362D01*
X-4039610Y2778808D02*
G01*
X-4023354Y2784396D01*
X-4017766Y2795318D01*
X-4017766Y2806240D01*
X-4023354Y2817162D01*
X-4034276Y2822496D01*
X-4055866Y2828084D01*
X-4072376Y2833418D01*
X-4083298Y2844340D01*
X-4088632Y2855262D01*
X-4088632Y2871518D01*
X-4083298Y2882440D01*
X-4077710Y2888028D01*
X-4061454Y2893362D01*
X-4039610Y2893362D01*
X-4023354Y2888028D01*
X-4017766Y2882440D01*
X-4012432Y2871518D01*
X-4012432Y2855262D01*
X-4017766Y2844340D01*
X-4028688Y2833418D01*
X-4045198Y2828084D01*
X-4066788Y2822496D01*
X-4077710Y2817162D01*
X-4083298Y2806240D01*
X-4083298Y2795318D01*
X-4077710Y2784396D01*
X-4061454Y2778808D01*
X-4039610Y2778808D01*
X-3873421Y3041124D02*
G01*
X-3873421Y3155678D01*
X-3873421Y3041124D02*
G01*
X-3911775Y3041124D01*
X-3928031Y3046712D01*
X-3938953Y3057634D01*
X-3944287Y3068556D01*
X-3949875Y3084812D01*
X-3949875Y3112244D01*
X-3944287Y3128500D01*
X-3938953Y3139422D01*
X-3928031Y3150344D01*
X-3911775Y3155678D01*
X-3873421Y3155678D01*
X-4056809Y3079478D02*
G01*
X-4051221Y3095734D01*
X-4040299Y3106656D01*
X-4024043Y3112244D01*
X-4018709Y3112244D01*
X-4002199Y3106656D01*
X-3991277Y3095734D01*
X-3985943Y3079478D01*
X-3985943Y3073890D01*
X-3991277Y3057634D01*
X-4002199Y3046712D01*
X-4018709Y3041124D01*
X-4024043Y3041124D01*
X-4040299Y3046712D01*
X-4051221Y3057634D01*
X-4056809Y3079478D01*
X-4056809Y3106656D01*
X-4051221Y3133834D01*
X-4040299Y3150344D01*
X-4024043Y3155678D01*
X-4013121Y3155678D01*
X-3996865Y3150344D01*
X-3991277Y3139422D01*
X-3263826Y3290435D02*
G01*
X-3263826Y3404989D01*
X-3263826Y3290435D02*
G01*
X-3302180Y3290435D01*
X-3318436Y3296023D01*
X-3329358Y3306945D01*
X-3334692Y3317867D01*
X-3340280Y3334123D01*
X-3340280Y3361555D01*
X-3334692Y3377811D01*
X-3329358Y3388733D01*
X-3318436Y3399655D01*
X-3302180Y3404989D01*
X-3263826Y3404989D01*
X-3376348Y3312279D02*
G01*
X-3387270Y3306945D01*
X-3403526Y3290435D01*
X-3403526Y3404989D01*
X-3472360Y3290435D02*
G01*
X-3455850Y3296023D01*
X-3444928Y3312279D01*
X-3439594Y3339711D01*
X-3439594Y3355967D01*
X-3444928Y3383145D01*
X-3455850Y3399655D01*
X-3472360Y3404989D01*
X-3483282Y3404989D01*
X-3499538Y3399655D01*
X-3510460Y3383145D01*
X-3515794Y3355967D01*
X-3515794Y3339711D01*
X-3510460Y3312279D01*
X-3499538Y3296023D01*
X-3483282Y3290435D01*
X-3472360Y3290435D01*
X-3911518Y3549119D02*
G01*
X-3911518Y3663673D01*
X-3911518Y3549119D02*
G01*
X-3949872Y3549119D01*
X-3966128Y3554707D01*
X-3977050Y3565629D01*
X-3982384Y3576551D01*
X-3987972Y3592807D01*
X-3987972Y3620239D01*
X-3982384Y3636495D01*
X-3977050Y3647417D01*
X-3966128Y3658339D01*
X-3949872Y3663673D01*
X-3911518Y3663673D01*
X-4024040Y3570963D02*
G01*
X-4034962Y3565629D01*
X-4051218Y3549119D01*
X-4051218Y3663673D01*
X-4087286Y3570963D02*
G01*
X-4098208Y3565629D01*
X-4114464Y3549119D01*
X-4114464Y3663673D01*
X-3898821Y3803129D02*
G01*
X-3898821Y3917683D01*
X-3898821Y3803129D02*
G01*
X-3937175Y3803129D01*
X-3953431Y3808717D01*
X-3964353Y3819639D01*
X-3969687Y3830561D01*
X-3975275Y3846817D01*
X-3975275Y3874249D01*
X-3969687Y3890505D01*
X-3964353Y3901427D01*
X-3953431Y3912349D01*
X-3937175Y3917683D01*
X-3898821Y3917683D01*
X-4011343Y3824973D02*
G01*
X-4022265Y3819639D01*
X-4038521Y3803129D01*
X-4038521Y3917683D01*
X-4079923Y3830561D02*
G01*
X-4079923Y3824973D01*
X-4085511Y3814051D01*
X-4090845Y3808717D01*
X-4101767Y3803129D01*
X-4123611Y3803129D01*
X-4134533Y3808717D01*
X-4139867Y3814051D01*
X-4145455Y3824973D01*
X-4145455Y3835895D01*
X-4139867Y3846817D01*
X-4129199Y3863327D01*
X-4074589Y3917683D01*
X-4150789Y3917683D01*
X-3898821Y4069814D02*
G01*
X-3898821Y4184368D01*
X-3898821Y4069814D02*
G01*
X-3937175Y4069814D01*
X-3953431Y4075402D01*
X-3964353Y4086324D01*
X-3969687Y4097246D01*
X-3975275Y4113502D01*
X-3975275Y4140934D01*
X-3969687Y4157190D01*
X-3964353Y4168112D01*
X-3953431Y4179034D01*
X-3937175Y4184368D01*
X-3898821Y4184368D01*
X-4011343Y4091658D02*
G01*
X-4022265Y4086324D01*
X-4038521Y4069814D01*
X-4038521Y4184368D01*
X-4085511Y4069814D02*
G01*
X-4145455Y4069814D01*
X-4112689Y4113502D01*
X-4129199Y4113502D01*
X-4139867Y4119090D01*
X-4145455Y4124424D01*
X-4150789Y4140934D01*
X-4150789Y4151602D01*
X-4145455Y4168112D01*
X-4134533Y4179034D01*
X-4118277Y4184368D01*
X-4101767Y4184368D01*
X-4085511Y4179034D01*
X-4079923Y4173446D01*
X-4074589Y4162524D01*
X-3898821Y4298424D02*
G01*
X-3898821Y4412978D01*
X-3898821Y4298424D02*
G01*
X-3937175Y4298424D01*
X-3953431Y4304012D01*
X-3964353Y4314934D01*
X-3969687Y4325856D01*
X-3975275Y4342112D01*
X-3975275Y4369544D01*
X-3969687Y4385800D01*
X-3964353Y4396722D01*
X-3953431Y4407644D01*
X-3937175Y4412978D01*
X-3898821Y4412978D01*
X-4011343Y4320268D02*
G01*
X-4022265Y4314934D01*
X-4038521Y4298424D01*
X-4038521Y4412978D01*
X-4129199Y4298424D02*
G01*
X-4074589Y4374878D01*
X-4156377Y4374878D01*
X-4129199Y4298424D02*
G01*
X-4129199Y4412978D01*
X-3911521Y4565108D02*
G01*
X-3917109Y4570696D01*
X-3922443Y4565108D01*
X-3917109Y4559774D01*
X-3911521Y4565108D01*
X-3917109Y4603462D02*
G01*
X-3917109Y4679662D01*
X-3958511Y4603462D02*
G01*
X-3958511Y4679662D01*
X-3958511Y4625306D02*
G01*
X-3974767Y4608796D01*
X-3985689Y4603462D01*
X-4002199Y4603462D01*
X-4013121Y4608796D01*
X-4018455Y4625306D01*
X-4018455Y4679662D01*
X-4054523Y4565108D02*
G01*
X-4054523Y4679662D01*
X-4054523Y4679662D02*
G01*
X-4120055Y4679662D01*
X-3296338Y4829581D02*
G01*
X-3301926Y4835169D01*
X-3307260Y4829581D01*
X-3301926Y4824247D01*
X-3296338Y4829581D01*
X-3301926Y4867935D02*
G01*
X-3301926Y4944135D01*
X-3343328Y4867935D02*
G01*
X-3343328Y4944135D01*
X-3343328Y4889779D02*
G01*
X-3359584Y4873269D01*
X-3370506Y4867935D01*
X-3387016Y4867935D01*
X-3397938Y4873269D01*
X-3403272Y4889779D01*
X-3403272Y4944135D01*
X-3439340Y4829581D02*
G01*
X-3439340Y4944135D01*
X-3439340Y4829581D02*
G01*
X-3488362Y4829581D01*
X-3504872Y4835169D01*
X-3510206Y4840503D01*
X-3515794Y4851425D01*
X-3515794Y4862347D01*
X-3510206Y4873269D01*
X-3504872Y4878857D01*
X-3488362Y4884191D01*
X-3439340Y4884191D01*
X-3477440Y4884191D02*
G01*
X-3515794Y4944135D01*
X-3195246Y5122682D02*
G01*
X-3184324Y5128016D01*
X-3173402Y5138938D01*
X-3167814Y5155448D01*
X-3167814Y5166116D01*
X-3173402Y5182626D01*
X-3184324Y5193548D01*
X-3195246Y5198882D01*
X-3211502Y5198882D01*
X-3222424Y5193548D01*
X-3233346Y5182626D01*
X-3238680Y5166116D01*
X-3238680Y5155448D01*
X-3233346Y5138938D01*
X-3222424Y5128016D01*
X-3211502Y5122682D01*
X-3195246Y5122682D01*
X-3274748Y5122682D02*
G01*
X-3274748Y5177038D01*
X-3280336Y5193548D01*
X-3291258Y5198882D01*
X-3307514Y5198882D01*
X-3318436Y5193548D01*
X-3334692Y5177038D01*
X-3334692Y5122682D02*
G01*
X-3334692Y5198882D01*
X-3387270Y5084328D02*
G01*
X-3387270Y5177038D01*
X-3392604Y5193548D01*
X-3403526Y5198882D01*
X-3414448Y5198882D01*
X-3370760Y5122682D02*
G01*
X-3408860Y5122682D01*
X-3450516Y5084328D02*
G01*
X-3450516Y5198882D01*
X-3450516Y5198882D02*
G01*
X-3515794Y5198882D01*
X-3184324Y5377428D02*
G01*
X-3173402Y5382762D01*
X-3162480Y5393684D01*
X-3156892Y5410194D01*
X-3156892Y5420862D01*
X-3162480Y5437372D01*
X-3173402Y5448294D01*
X-3184324Y5453628D01*
X-3200580Y5453628D01*
X-3211502Y5448294D01*
X-3222424Y5437372D01*
X-3227758Y5420862D01*
X-3227758Y5410194D01*
X-3222424Y5393684D01*
X-3211502Y5382762D01*
X-3200580Y5377428D01*
X-3184324Y5377428D01*
X-3263826Y5377428D02*
G01*
X-3263826Y5431784D01*
X-3269414Y5448294D01*
X-3280336Y5453628D01*
X-3296592Y5453628D01*
X-3307514Y5448294D01*
X-3323770Y5431784D01*
X-3323770Y5377428D02*
G01*
X-3323770Y5453628D01*
X-3376348Y5339074D02*
G01*
X-3376348Y5431784D01*
X-3381682Y5448294D01*
X-3392604Y5453628D01*
X-3403526Y5453628D01*
X-3359838Y5377428D02*
G01*
X-3397938Y5377428D01*
X-3439594Y5339074D02*
G01*
X-3439594Y5453628D01*
X-3439594Y5339074D02*
G01*
X-3488616Y5339074D01*
X-3504872Y5344662D01*
X-3510460Y5349996D01*
X-3515794Y5360918D01*
X-3515794Y5371840D01*
X-3510460Y5382762D01*
X-3504872Y5388350D01*
X-3488616Y5393684D01*
X-3439594Y5393684D01*
X-3477694Y5393684D02*
G01*
X-3515794Y5453628D01*
X-3205911Y5670021D02*
G01*
X-3162223Y5784575D01*
X-3205911Y5670021D02*
G01*
X-3249599Y5784575D01*
X-3178733Y5746475D02*
G01*
X-3233089Y5746475D01*
X-3367455Y5697453D02*
G01*
X-3361867Y5686531D01*
X-3350945Y5675609D01*
X-3340023Y5670021D01*
X-3318179Y5670021D01*
X-3307511Y5675609D01*
X-3296589Y5686531D01*
X-3291001Y5697453D01*
X-3285667Y5713709D01*
X-3285667Y5741141D01*
X-3291001Y5757397D01*
X-3296589Y5768319D01*
X-3307511Y5779241D01*
X-3318179Y5784575D01*
X-3340023Y5784575D01*
X-3350945Y5779241D01*
X-3361867Y5768319D01*
X-3367455Y5757397D01*
X-3367455Y5741141D01*
X-3340023Y5741141D02*
G01*
X-3367455Y5741141D01*
X-3403269Y5670021D02*
G01*
X-3403269Y5784575D01*
X-3403269Y5670021D02*
G01*
X-3479723Y5784575D01*
X-3479723Y5670021D02*
G01*
X-3479723Y5784575D01*
X-3515791Y5670021D02*
G01*
X-3515791Y5784575D01*
X-3515791Y5670021D02*
G01*
X-3553891Y5670021D01*
X-3570401Y5675609D01*
X-3581323Y5686531D01*
X-3586657Y5697453D01*
X-3591991Y5713709D01*
X-3591991Y5741141D01*
X-3586657Y5757397D01*
X-3581323Y5768319D01*
X-3570401Y5779241D01*
X-3553891Y5784575D01*
X-3515791Y5784575D01*
X-4773419Y5606547D02*
G01*
X-4833363Y5606547D01*
X-4800597Y5650235D01*
X-4817107Y5650235D01*
X-4828029Y5655823D01*
X-4833363Y5661157D01*
X-4838951Y5677413D01*
X-4838951Y5688335D01*
X-4833363Y5704845D01*
X-4822441Y5715767D01*
X-4806185Y5721101D01*
X-4789675Y5721101D01*
X-4773419Y5715767D01*
X-4767831Y5710179D01*
X-4762497Y5699257D01*
X-4874765Y5606547D02*
G01*
X-4918453Y5721101D01*
X-4962141Y5606547D02*
G01*
X-4918453Y5721101D01*
X-5009131Y5606547D02*
G01*
X-5069075Y5606547D01*
X-5036309Y5650235D01*
X-5052565Y5650235D01*
X-5063487Y5655823D01*
X-5069075Y5661157D01*
X-5074409Y5677413D01*
X-5074409Y5688335D01*
X-5069075Y5704845D01*
X-5058153Y5715767D01*
X-5041643Y5721101D01*
X-5025387Y5721101D01*
X-5009131Y5715767D01*
X-5003543Y5710179D01*
X-4998209Y5699257D01*
X-5154165Y5606547D02*
G01*
X-5110477Y5721101D01*
X-5154165Y5606547D02*
G01*
X-5197853Y5721101D01*
X-5126733Y5683001D02*
G01*
X-5181343Y5683001D01*
X-4983985Y5327121D02*
G01*
X-4940297Y5441675D01*
X-4983985Y5327121D02*
G01*
X-5027673Y5441675D01*
X-4956553Y5403575D02*
G01*
X-5011163Y5403575D01*
X-5096253Y5327121D02*
G01*
X-5079997Y5332709D01*
X-5069075Y5348965D01*
X-5063487Y5376397D01*
X-5063487Y5392653D01*
X-5069075Y5419831D01*
X-5079997Y5436341D01*
X-5096253Y5441675D01*
X-5107175Y5441675D01*
X-5123685Y5436341D01*
X-5134607Y5419831D01*
X-5139941Y5392653D01*
X-5139941Y5376397D01*
X-5134607Y5348965D01*
X-5123685Y5332709D01*
X-5107175Y5327121D01*
X-5096253Y5327121D01*
X-5034785Y5085821D02*
G01*
X-4991097Y5200375D01*
X-5034785Y5085821D02*
G01*
X-5078473Y5200375D01*
X-5007353Y5162275D02*
G01*
X-5061963Y5162275D01*
X-5114287Y5107665D02*
G01*
X-5125209Y5102331D01*
X-5141719Y5085821D01*
X-5141719Y5200375D01*
X-4996685Y4806396D02*
G01*
X-4952997Y4920950D01*
X-4996685Y4806396D02*
G01*
X-5040373Y4920950D01*
X-4969253Y4882850D02*
G01*
X-5023863Y4882850D01*
X-5081775Y4833828D02*
G01*
X-5081775Y4828240D01*
X-5087109Y4817318D01*
X-5092697Y4811984D01*
X-5103619Y4806396D01*
X-5125463Y4806396D01*
X-5136385Y4811984D01*
X-5141719Y4817318D01*
X-5147307Y4828240D01*
X-5147307Y4839162D01*
X-5141719Y4850084D01*
X-5130797Y4866594D01*
X-5076187Y4920950D01*
X-5152641Y4920950D01*
X-5580966Y4569185D02*
G01*
X-5537278Y4683485D01*
X-5580966Y4569185D02*
G01*
X-5624654Y4683485D01*
X-5553534Y4645385D02*
G01*
X-5608144Y4645385D01*
X-5671390Y4569185D02*
G01*
X-5731588Y4569185D01*
X-5698822Y4612619D01*
X-5715078Y4612619D01*
X-5726000Y4618207D01*
X-5731588Y4623541D01*
X-5736922Y4640051D01*
X-5736922Y4650973D01*
X-5731588Y4667229D01*
X-5720666Y4678151D01*
X-5704156Y4683485D01*
X-5687900Y4683485D01*
X-5671390Y4678151D01*
X-5666056Y4672817D01*
X-5660468Y4661895D01*
X-5580966Y4309089D02*
G01*
X-5537278Y4423643D01*
X-5580966Y4309089D02*
G01*
X-5624654Y4423643D01*
X-5553534Y4385289D02*
G01*
X-5608144Y4385289D01*
X-5715078Y4309089D02*
G01*
X-5660468Y4385289D01*
X-5742256Y4385289D01*
X-5715078Y4309089D02*
G01*
X-5715078Y4423643D01*
X-5580966Y4054327D02*
G01*
X-5537278Y4168881D01*
X-5580966Y4054327D02*
G01*
X-5624654Y4168881D01*
X-5553534Y4130527D02*
G01*
X-5608144Y4130527D01*
X-5726000Y4054327D02*
G01*
X-5671390Y4054327D01*
X-5666056Y4103349D01*
X-5671390Y4097761D01*
X-5687900Y4092427D01*
X-5704156Y4092427D01*
X-5720666Y4097761D01*
X-5731588Y4108683D01*
X-5736922Y4125193D01*
X-5736922Y4136115D01*
X-5731588Y4152371D01*
X-5720666Y4163293D01*
X-5704156Y4168881D01*
X-5687900Y4168881D01*
X-5671390Y4163293D01*
X-5666056Y4157959D01*
X-5660468Y4147037D01*
X-5580966Y3799565D02*
G01*
X-5537278Y3914119D01*
X-5580966Y3799565D02*
G01*
X-5624654Y3914119D01*
X-5553534Y3875765D02*
G01*
X-5608144Y3875765D01*
X-5726000Y3815821D02*
G01*
X-5720666Y3804899D01*
X-5704156Y3799565D01*
X-5693234Y3799565D01*
X-5676978Y3804899D01*
X-5666056Y3821409D01*
X-5660468Y3848587D01*
X-5660468Y3875765D01*
X-5666056Y3897609D01*
X-5676978Y3908531D01*
X-5693234Y3914119D01*
X-5698822Y3914119D01*
X-5715078Y3908531D01*
X-5726000Y3897609D01*
X-5731588Y3881353D01*
X-5731588Y3875765D01*
X-5726000Y3859509D01*
X-5715078Y3848587D01*
X-5698822Y3842999D01*
X-5693234Y3842999D01*
X-5676978Y3848587D01*
X-5666056Y3859509D01*
X-5660468Y3875765D01*
X-5047485Y3574674D02*
G01*
X-5003797Y3689228D01*
X-5047485Y3574674D02*
G01*
X-5091173Y3689228D01*
X-5020053Y3650874D02*
G01*
X-5074663Y3650874D01*
X-5203441Y3574674D02*
G01*
X-5148831Y3689228D01*
X-5126987Y3574674D02*
G01*
X-5203441Y3574674D01*
X-5022085Y3295248D02*
G01*
X-4978397Y3409802D01*
X-5022085Y3295248D02*
G01*
X-5065773Y3409802D01*
X-4994653Y3371448D02*
G01*
X-5049263Y3371448D01*
X-5129019Y3295248D02*
G01*
X-5112509Y3300582D01*
X-5107175Y3311504D01*
X-5107175Y3322426D01*
X-5112509Y3333348D01*
X-5123431Y3338936D01*
X-5145275Y3344270D01*
X-5161785Y3349858D01*
X-5172707Y3360780D01*
X-5178041Y3371448D01*
X-5178041Y3387958D01*
X-5172707Y3398880D01*
X-5167119Y3404214D01*
X-5150863Y3409802D01*
X-5129019Y3409802D01*
X-5112509Y3404214D01*
X-5107175Y3398880D01*
X-5101587Y3387958D01*
X-5101587Y3371448D01*
X-5107175Y3360780D01*
X-5118097Y3349858D01*
X-5134353Y3344270D01*
X-5156197Y3338936D01*
X-5167119Y3333348D01*
X-5172707Y3322426D01*
X-5172707Y3311504D01*
X-5167119Y3300582D01*
X-5150863Y3295248D01*
X-5129019Y3295248D01*
X-5034785Y3041248D02*
G01*
X-4991097Y3155802D01*
X-5034785Y3041248D02*
G01*
X-5078473Y3155802D01*
X-5007353Y3117702D02*
G01*
X-5061963Y3117702D01*
X-5185407Y3079348D02*
G01*
X-5179819Y3095858D01*
X-5168897Y3106780D01*
X-5152641Y3112114D01*
X-5147053Y3112114D01*
X-5130797Y3106780D01*
X-5119875Y3095858D01*
X-5114287Y3079348D01*
X-5114287Y3074014D01*
X-5119875Y3057504D01*
X-5130797Y3046582D01*
X-5147053Y3041248D01*
X-5152641Y3041248D01*
X-5168897Y3046582D01*
X-5179819Y3057504D01*
X-5185407Y3079348D01*
X-5185407Y3106780D01*
X-5179819Y3133958D01*
X-5168897Y3150214D01*
X-5152641Y3155802D01*
X-5141719Y3155802D01*
X-5125209Y3150214D01*
X-5119875Y3139292D01*
X-4971285Y2787223D02*
G01*
X-4927597Y2901777D01*
X-4971285Y2787223D02*
G01*
X-5014973Y2901777D01*
X-4943853Y2863677D02*
G01*
X-4998463Y2863677D01*
X-5050787Y2809067D02*
G01*
X-5061709Y2803479D01*
X-5078219Y2787223D01*
X-5078219Y2901777D01*
X-5146799Y2787223D02*
G01*
X-5130543Y2792557D01*
X-5119621Y2809067D01*
X-5114033Y2836245D01*
X-5114033Y2852755D01*
X-5119621Y2879933D01*
X-5130543Y2896189D01*
X-5146799Y2901777D01*
X-5157721Y2901777D01*
X-5174231Y2896189D01*
X-5185153Y2879933D01*
X-5190487Y2852755D01*
X-5190487Y2836245D01*
X-5185153Y2809067D01*
X-5174231Y2792557D01*
X-5157721Y2787223D01*
X-5146799Y2787223D01*
X-4902197Y2533197D02*
G01*
X-4902197Y2647751D01*
X-4902197Y2533197D02*
G01*
X-4940297Y2533197D01*
X-4956807Y2538531D01*
X-4967729Y2549453D01*
X-4973063Y2560375D01*
X-4978651Y2576885D01*
X-4978651Y2604063D01*
X-4973063Y2620573D01*
X-4967729Y2631495D01*
X-4956807Y2642163D01*
X-4940297Y2647751D01*
X-4902197Y2647751D01*
X-5020053Y2560375D02*
G01*
X-5020053Y2555041D01*
X-5025387Y2544119D01*
X-5030975Y2538531D01*
X-5041897Y2533197D01*
X-5063741Y2533197D01*
X-5074663Y2538531D01*
X-5079997Y2544119D01*
X-5085585Y2555041D01*
X-5085585Y2565963D01*
X-5079997Y2576885D01*
X-5069075Y2593141D01*
X-5014465Y2647751D01*
X-5090919Y2647751D01*
X-5192265Y2549453D02*
G01*
X-5186931Y2538531D01*
X-5170675Y2533197D01*
X-5159753Y2533197D01*
X-5143243Y2538531D01*
X-5132321Y2555041D01*
X-5126987Y2582219D01*
X-5126987Y2609651D01*
X-5132321Y2631495D01*
X-5143243Y2642163D01*
X-5159753Y2647751D01*
X-5165087Y2647751D01*
X-5181597Y2642163D01*
X-5192265Y2631495D01*
X-5197853Y2614985D01*
X-5197853Y2609651D01*
X-5192265Y2593141D01*
X-5181597Y2582219D01*
X-5165087Y2576885D01*
X-5159753Y2576885D01*
X-5143243Y2582219D01*
X-5132321Y2593141D01*
X-5126987Y2609651D01*
X-4876797Y2279197D02*
G01*
X-4876797Y2393751D01*
X-4876797Y2279197D02*
G01*
X-4914897Y2279197D01*
X-4931407Y2284785D01*
X-4942329Y2295453D01*
X-4947663Y2306375D01*
X-4953251Y2322885D01*
X-4953251Y2350063D01*
X-4947663Y2366573D01*
X-4942329Y2377495D01*
X-4931407Y2388417D01*
X-4914897Y2393751D01*
X-4876797Y2393751D01*
X-4994653Y2306375D02*
G01*
X-4994653Y2301041D01*
X-4999987Y2290119D01*
X-5005575Y2284785D01*
X-5016497Y2279197D01*
X-5038341Y2279197D01*
X-5049263Y2284785D01*
X-5054597Y2290119D01*
X-5060185Y2301041D01*
X-5060185Y2311963D01*
X-5054597Y2322885D01*
X-5043675Y2339141D01*
X-4989065Y2393751D01*
X-5065519Y2393751D01*
X-5177787Y2279197D02*
G01*
X-5123431Y2393751D01*
X-5101587Y2279197D02*
G01*
X-5177787Y2279197D01*
X-4552185Y2025172D02*
G01*
X-4508497Y2139726D01*
X-4552185Y2025172D02*
G01*
X-4595873Y2139726D01*
X-4524753Y2101626D02*
G01*
X-4579363Y2101626D01*
X-4631687Y2047016D02*
G01*
X-4642609Y2041682D01*
X-4659119Y2025172D01*
X-4659119Y2139726D01*
X-4694933Y2047016D02*
G01*
X-4705855Y2041682D01*
X-4722365Y2025172D01*
X-4722365Y2139726D01*
X-4856477Y2003328D02*
G01*
X-4758433Y2177826D01*
X-4892545Y2025172D02*
G01*
X-4892545Y2139726D01*
X-4892545Y2025172D02*
G01*
X-4930645Y2025172D01*
X-4947155Y2030760D01*
X-4958077Y2041682D01*
X-4963411Y2052350D01*
X-4968745Y2068860D01*
X-4968745Y2096038D01*
X-4963411Y2112548D01*
X-4958077Y2123470D01*
X-4947155Y2134392D01*
X-4930645Y2139726D01*
X-4892545Y2139726D01*
X-5010401Y2052350D02*
G01*
X-5010401Y2047016D01*
X-5015735Y2036094D01*
X-5021323Y2030760D01*
X-5032245Y2025172D01*
X-5053835Y2025172D01*
X-5064757Y2030760D01*
X-5070345Y2036094D01*
X-5075679Y2047016D01*
X-5075679Y2057938D01*
X-5070345Y2068860D01*
X-5059423Y2085116D01*
X-5004813Y2139726D01*
X-5081267Y2139726D01*
X-5144513Y2025172D02*
G01*
X-5128257Y2030760D01*
X-5122669Y2041682D01*
X-5122669Y2052350D01*
X-5128257Y2063272D01*
X-5138925Y2068860D01*
X-5160769Y2074194D01*
X-5177279Y2079782D01*
X-5188201Y2090704D01*
X-5193535Y2101626D01*
X-5193535Y2117882D01*
X-5188201Y2128804D01*
X-5182613Y2134392D01*
X-5166357Y2139726D01*
X-5144513Y2139726D01*
X-5128257Y2134392D01*
X-5122669Y2128804D01*
X-5117335Y2117882D01*
X-5117335Y2101626D01*
X-5122669Y2090704D01*
X-5133591Y2079782D01*
X-5149847Y2074194D01*
X-5171691Y2068860D01*
X-5182613Y2063272D01*
X-5188201Y2052350D01*
X-5188201Y2041682D01*
X-5182613Y2030760D01*
X-5166357Y2025172D01*
X-5144513Y2025172D01*
X-4889497Y1758472D02*
G01*
X-4889497Y1873026D01*
X-4889497Y1758472D02*
G01*
X-4927597Y1758472D01*
X-4944107Y1764060D01*
X-4955029Y1774982D01*
X-4960363Y1785904D01*
X-4965951Y1802160D01*
X-4965951Y1829338D01*
X-4960363Y1845848D01*
X-4955029Y1856770D01*
X-4944107Y1867692D01*
X-4927597Y1873026D01*
X-4889497Y1873026D01*
X-5007353Y1785904D02*
G01*
X-5007353Y1780316D01*
X-5012687Y1769394D01*
X-5018275Y1764060D01*
X-5029197Y1758472D01*
X-5051041Y1758472D01*
X-5061963Y1764060D01*
X-5067297Y1769394D01*
X-5072885Y1780316D01*
X-5072885Y1791238D01*
X-5067297Y1802160D01*
X-5056375Y1818416D01*
X-5001765Y1873026D01*
X-5078219Y1873026D01*
X-5185153Y1796572D02*
G01*
X-5179565Y1813082D01*
X-5168897Y1824004D01*
X-5152387Y1829338D01*
X-5147053Y1829338D01*
X-5130543Y1824004D01*
X-5119621Y1813082D01*
X-5114287Y1796572D01*
X-5114287Y1791238D01*
X-5119621Y1774982D01*
X-5130543Y1764060D01*
X-5147053Y1758472D01*
X-5152387Y1758472D01*
X-5168897Y1764060D01*
X-5179565Y1774982D01*
X-5185153Y1796572D01*
X-5185153Y1824004D01*
X-5179565Y1851182D01*
X-5168897Y1867692D01*
X-5152387Y1873026D01*
X-5141465Y1873026D01*
X-5125209Y1867692D01*
X-5119621Y1856770D01*
X-4889497Y1517147D02*
G01*
X-4889497Y1631701D01*
X-4889497Y1517147D02*
G01*
X-4927597Y1517147D01*
X-4944107Y1522735D01*
X-4955029Y1533657D01*
X-4960363Y1544579D01*
X-4965951Y1560835D01*
X-4965951Y1588013D01*
X-4960363Y1604523D01*
X-4955029Y1615445D01*
X-4944107Y1626367D01*
X-4927597Y1631701D01*
X-4889497Y1631701D01*
X-5012687Y1517147D02*
G01*
X-5072885Y1517147D01*
X-5040119Y1560835D01*
X-5056375Y1560835D01*
X-5067297Y1566423D01*
X-5072885Y1571757D01*
X-5078219Y1588013D01*
X-5078219Y1598935D01*
X-5072885Y1615445D01*
X-5061963Y1626367D01*
X-5045453Y1631701D01*
X-5029197Y1631701D01*
X-5012687Y1626367D01*
X-5007353Y1620779D01*
X-5001765Y1609857D01*
X-5147053Y1517147D02*
G01*
X-5130543Y1522735D01*
X-5119621Y1538991D01*
X-5114287Y1566423D01*
X-5114287Y1582679D01*
X-5119621Y1609857D01*
X-5130543Y1626367D01*
X-5147053Y1631701D01*
X-5157975Y1631701D01*
X-5174231Y1626367D01*
X-5185153Y1609857D01*
X-5190487Y1582679D01*
X-5190487Y1566423D01*
X-5185153Y1538991D01*
X-5174231Y1522735D01*
X-5157975Y1517147D01*
X-5147053Y1517147D01*
X-4773419Y1263121D02*
G01*
X-4833363Y1263121D01*
X-4800597Y1306809D01*
X-4817107Y1306809D01*
X-4828029Y1312397D01*
X-4833363Y1317731D01*
X-4838951Y1333987D01*
X-4838951Y1344909D01*
X-4833363Y1361419D01*
X-4822441Y1372341D01*
X-4806185Y1377675D01*
X-4789675Y1377675D01*
X-4773419Y1372341D01*
X-4767831Y1366753D01*
X-4762497Y1355831D01*
X-4874765Y1263121D02*
G01*
X-4918453Y1377675D01*
X-4962141Y1263121D02*
G01*
X-4918453Y1377675D01*
X-5009131Y1263121D02*
G01*
X-5069075Y1263121D01*
X-5036309Y1306809D01*
X-5052565Y1306809D01*
X-5063487Y1312397D01*
X-5069075Y1317731D01*
X-5074409Y1333987D01*
X-5074409Y1344909D01*
X-5069075Y1361419D01*
X-5058153Y1372341D01*
X-5041897Y1377675D01*
X-5025387Y1377675D01*
X-5009131Y1372341D01*
X-5003543Y1366753D01*
X-4998209Y1355831D01*
X-5110477Y1263121D02*
G01*
X-5110477Y1377675D01*
X-5110477Y1263121D02*
G01*
X-5148577Y1263121D01*
X-5165087Y1268709D01*
X-5176009Y1279631D01*
X-5181343Y1290553D01*
X-5186931Y1306809D01*
X-5186931Y1333987D01*
X-5181343Y1350497D01*
X-5176009Y1361419D01*
X-5165087Y1372341D01*
X-5148577Y1377675D01*
X-5110477Y1377675D01*
X-4914897Y1021821D02*
G01*
X-4958585Y1136375D01*
X-5002273Y1021821D02*
G01*
X-4958585Y1136375D01*
X-5038087Y1021821D02*
G01*
X-5038087Y1136375D01*
X-5074155Y1021821D02*
G01*
X-5074155Y1136375D01*
X-5074155Y1021821D02*
G01*
X-5150609Y1136375D01*
X-5150609Y1021821D02*
G01*
X-5150609Y1136375D01*
X-4762573Y755121D02*
G01*
X-4762573Y869675D01*
X-4762573Y755121D02*
G01*
X-4800673Y755121D01*
X-4816929Y760709D01*
X-4827851Y771631D01*
X-4833439Y782553D01*
X-4838773Y798809D01*
X-4838773Y826241D01*
X-4833439Y842497D01*
X-4827851Y853419D01*
X-4816929Y864341D01*
X-4800673Y869675D01*
X-4762573Y869675D01*
X-4956629Y782553D02*
G01*
X-4951295Y771631D01*
X-4940373Y760709D01*
X-4929451Y755121D01*
X-4907607Y755121D01*
X-4896685Y760709D01*
X-4885763Y771631D01*
X-4880429Y782553D01*
X-4874841Y798809D01*
X-4874841Y826241D01*
X-4880429Y842497D01*
X-4885763Y853419D01*
X-4896685Y864341D01*
X-4907607Y869675D01*
X-4929451Y869675D01*
X-4940373Y864341D01*
X-4951295Y853419D01*
X-4956629Y842497D01*
X-4956629Y826241D01*
X-4929451Y826241D02*
G01*
X-4956629Y826241D01*
X-4992697Y755121D02*
G01*
X-4992697Y869675D01*
X-4992697Y755121D02*
G01*
X-5069151Y869675D01*
X-5069151Y755121D02*
G01*
X-5069151Y869675D01*
X-5104965Y755121D02*
G01*
X-5104965Y869675D01*
X-5104965Y755121D02*
G01*
X-5143319Y755121D01*
X-5159575Y760709D01*
X-5170497Y771631D01*
X-5175831Y782553D01*
X-5181419Y798809D01*
X-5181419Y826241D01*
X-5175831Y842497D01*
X-5170497Y853419D01*
X-5159575Y864341D01*
X-5143319Y869675D01*
X-5104965Y869675D01*
D14*
X-6388099Y8928100D02*
G01*
X-1282700Y8928100D01*
X-1282700Y5930900D01*
X-6375399Y5930900D01*
X-6375399Y8928100D01*
D16*
X-8820449Y1128501D02*
G01*
X-7398049Y1128501D01*
X-7398049Y-14498D01*
X-8820449Y-14498D01*
X-8820449Y1128501D01*
X-8820449Y855451D02*
G01*
X-9176049Y855451D01*
X-9176049Y252201D01*
X-8820449Y252201D01*
X-8819903Y2764698D02*
G01*
X-7397503Y2764698D01*
X-7397503Y1621698D01*
X-8819903Y1621698D01*
X-8819903Y2764698D01*
X-8819903Y2491648D02*
G01*
X-9175503Y2491648D01*
X-9175503Y1888398D01*
X-8819903Y1888398D01*
D17*
X-6558889Y3969994D02*
G01*
X-5760110Y3969994D01*
X-5760110Y3167405D02*
G01*
X-6558889Y3167405D01*
X-6559499Y3968699D02*
G01*
X-6559499Y3918686D01*
X-6559499Y3718712D02*
G01*
X-6559499Y3418687D01*
X-6559499Y3218713D02*
G01*
X-6559499Y3168700D01*
X-5759500Y3168700D02*
G01*
X-5759500Y3218713D01*
X-5759500Y3418687D02*
G01*
X-5759500Y3718712D01*
X-5759500Y3968699D02*
G01*
X-5759500Y3918686D01*
D16*
X-2822681Y4648243D02*
G01*
X-3265373Y4648243D01*
X-2071971Y4351510D02*
G01*
X-2071971Y4648243D01*
X-2515062Y4648243D01*
X-2071971Y3843510D02*
G01*
X-2071971Y4259176D01*
X-2071971Y3602944D02*
G01*
X-2071971Y3751176D01*
X-2822681Y3454443D02*
G01*
X-3265373Y3454443D01*
X-3265373Y4648243D01*
X-2071971Y3514044D02*
G01*
X-2071971Y3454443D01*
X-2515062Y3454443D01*
X-3265771Y3602944D02*
G01*
X-3265771Y3514044D01*
X-2071971Y3602944D02*
G01*
X-2071971Y3514044D01*
D11*
X1206500Y-241300D02*
G01*
X1206500Y787400D01*
X1016000Y977900D02*
G01*
X-1143000Y977900D01*
X-1333500Y787400D02*
G01*
X-1333500Y-241300D01*
X-1143000Y-431800D02*
G01*
X1016000Y-431800D01*
D16*
X-660402Y1904997D02*
G01*
X-660402Y2920997D01*
D10*
X47802Y2765780D02*
G01*
X-651969Y2765780D01*
X-651969Y2065756D01*
X54914Y2065756D01*
X54914Y2765780D01*
X47802Y2765780D01*
D16*
X1498597Y1650997D02*
G01*
X-406402Y1650997D01*
X-406402Y3174997D02*
G01*
X1498597Y3174997D01*
X1752597Y2920997D02*
G01*
X1752597Y1904997D01*
D18*
X-153977Y2882897D02*
G01*
X-74602Y2882897D01*
X-127002Y1995472D02*
G01*
X-127002Y1916127D01*
X-87327Y1955797D02*
G01*
X-166677Y1955797D01*
D10*
X-469900Y2768600D02*
G01*
X-469900Y2068598D01*
D16*
X-1764106Y-978204D02*
G01*
X-1764106Y301802D01*
X-1764106Y1591792D01*
X-3494100Y1591792D01*
X-3498087Y-983437D01*
X-1764106Y-978204D01*
X-2978353Y-1045057D02*
G01*
X-2937687Y-1045057D01*
X-2338247Y-1045057D02*
G01*
X-2297607Y-1045057D01*
X-2978353Y-1045057D02*
G01*
X-2978353Y-973962D01*
X-2978353Y-973962D02*
G01*
X-2978353Y-544703D01*
X-2297607Y-544703D02*
G01*
X-2297607Y-973962D01*
X-2297607Y-973962D02*
G01*
X-2297607Y-1045057D01*
X-2978353Y-1045057D02*
G01*
X-3036747Y-1103503D01*
X-2297607Y-1045057D02*
G01*
X-2239187Y-1103503D01*
X-2937687Y-1045057D02*
G01*
X-2937687Y-1083157D01*
X-2917367Y-1108557D02*
G01*
X-2363647Y-1108557D01*
X-2338247Y-1088262D02*
G01*
X-2338247Y-1045057D01*
X-2978353Y-704722D02*
G01*
X-2978353Y-544703D01*
X-2978353Y-544703D02*
G01*
X-2858947Y-544703D01*
X-2297607Y-544703D02*
G01*
X-2416987Y-544703D01*
X-2297607Y-704722D02*
G01*
X-2297607Y-544703D01*
X-2978353Y-973962D02*
G01*
X-2297607Y-973962D01*
X-2858947Y-544703D02*
G01*
X-2858947Y-684403D01*
X-2858947Y-684403D02*
G01*
X-2416987Y-684403D01*
X-2416987Y-684403D02*
G01*
X-2416987Y-544703D01*
D17*
X-6752412Y2449499D02*
G01*
X-6752412Y2249500D01*
D16*
X-6984999Y5168900D02*
G01*
X-6984999Y3187700D01*
X-7213599Y3187700D01*
X-7213599Y5168900D01*
X-6984999Y5168900D01*
X-6743699Y5168900D02*
G01*
X-6743699Y3187700D01*
X-6972299Y3187700D01*
X-6972299Y5168900D01*
X-6743699Y5168900D01*
X-75745Y4483112D02*
G01*
X-518436Y4483112D01*
X674964Y4186379D02*
G01*
X674964Y4483112D01*
X231874Y4483112D01*
X674964Y3678379D02*
G01*
X674964Y4094045D01*
X674964Y3437813D02*
G01*
X674964Y3586045D01*
X-75745Y3289312D02*
G01*
X-518436Y3289312D01*
X-518436Y4483112D01*
X674964Y3348913D02*
G01*
X674964Y3289312D01*
X231874Y3289312D01*
X-518835Y3437813D02*
G01*
X-518835Y3348913D01*
X674964Y3437813D02*
G01*
X674964Y3348913D01*
X-78003Y8496312D02*
G01*
X-520694Y8496312D01*
X672706Y8199579D02*
G01*
X672706Y8496312D01*
X229615Y8496312D01*
X672706Y7691579D02*
G01*
X672706Y8107245D01*
X672706Y7451013D02*
G01*
X672706Y7599245D01*
X-78003Y7302512D02*
G01*
X-520694Y7302512D01*
X-520694Y8496312D01*
X672706Y7362113D02*
G01*
X672706Y7302512D01*
X229615Y7302512D01*
X-521093Y7451013D02*
G01*
X-521093Y7362113D01*
X672706Y7451013D02*
G01*
X672706Y7362113D01*
X-65303Y6426212D02*
G01*
X-507994Y6426212D01*
X685406Y6129479D02*
G01*
X685406Y6426212D01*
X242315Y6426212D01*
X685406Y5621479D02*
G01*
X685406Y6037145D01*
X685406Y5380913D02*
G01*
X685406Y5529145D01*
X-65303Y5232412D02*
G01*
X-507994Y5232412D01*
X-507994Y6426212D01*
X685406Y5292013D02*
G01*
X685406Y5232412D01*
X242315Y5232412D01*
X-508393Y5380913D02*
G01*
X-508393Y5292013D01*
X685406Y5380913D02*
G01*
X685406Y5292013D01*
X-3633901Y675817D02*
G01*
X-5433898Y675817D01*
X-5433898Y5775807D01*
X-3633901Y5775807D01*
X-3633901Y675817D01*
X-4178300Y525805D02*
G01*
X-4883911Y525805D01*
X-4883911Y673100D01*
X-4178300Y673100D01*
X-4178300Y525805D01*
D11*
G75*
G01*
X1206500Y787400D02*
G03*
X1016000Y977900I-190500J0D01*
G75*
G01*
X-1142995Y977900D02*
G03*
X-1333495Y787400I0J-190500D01*
G75*
G01*
X-1333495Y-241300D02*
G03*
X-1142995Y-431797I190500J2D01*
G75*
G01*
X1016000Y-431797D02*
G03*
X1206500Y-241300I0J190499D01*
D16*
G75*
G01*
X1498600Y3175000D02*
G02*
X1752600Y2921000I0J-254000D01*
G75*
G01*
X-660400Y2921000D02*
G02*
X-406400Y3175000I254000J0D01*
G75*
G01*
X-406400Y1651000D02*
G02*
X-660400Y1905000I0J254000D01*
G75*
G01*
X1752600Y1905000D02*
G02*
X1498600Y1651000I-254000J0D01*
D10*
G75*
G01*
X-573710Y2946184D02*
G03*
X-573710Y2946616I180010J216D01*
G75*
G01*
X-573710Y1879382D02*
G03*
X-573710Y1879813I180010J215D01*
G75*
G01*
X-192456Y2882900D02*
G03*
X-192456Y2883306I78181J203D01*
G75*
G01*
X-48819Y1955800D02*
G03*
X-48819Y1955394I-78181J-203D01*
D16*
G75*
G01*
X-2938272Y-1084580D02*
G03*
X-2918206Y-1109472I23840J-1316D01*
G75*
G01*
X-2363216Y-1109472D02*
G03*
X-2338324Y-1089660I1358J23837D01*
D17*
G75*
G01*
X-6752412Y2449500D02*
G02*
X-6752412Y2249500I250008J-100000D01*
D16*
G75*
G01
X-2384605Y4051351D02*
G03X-2384605Y4051351I-309270J0D01*
G75*
G01
X-955043Y-228600D02*
G03X-955043Y-228600I-175260J0D01*
G75*
G01
X-955043Y774700D02*
G03X-955043Y774700I-175260J0D01*
D19*
G75*
G01
X-149990Y273304D02*
G03X-149990Y273304I-499999J0D01*
D16*
G75*
G01
X362328Y3886225D02*
G03X362328Y3886225I-309270J0D01*
G75*
G01
X360068Y7899400D02*
G03X360068Y7899400I-309270J0D01*
G75*
G01
X372768Y5829325D02*
G03X372768Y5829325I-309270J0D01*
G36*
X-1399999Y9499980D02*
G01*
X-1000000Y9499980D01*
X-1000000Y9299981D01*
X-1399999Y9299981D01*
G37*
M02*
