M48
METRIC,LZ,000.000
;FILE_FORMAT=3:3
;TYPE=PLATED
;Layer: PTH_Through_Via
;EasyEDA v6.5.54, 2026-02-11 12:30:12
;eb789f6f9b4241e9a458f17a6f4b8d6f,92e600de7ff74937a4e092c024f19ce6,10
;Gerber Generator version 0.2
;Holesize 1 = 0.301 mm
T01C0.301
;Holesize 2 = 0.310 mm
T02C0.310
;Holesize 3 = 0.800 mm
T03C0.800
%
G05
G90
T01
X-038481Y011684
X-038481Y007366
X-031877Y007366
X-037846Y009144
X-037846Y010414
X-040767Y014351
X-040767Y069215
X-018796Y007874
X-040767Y084709
X-007112Y011684
X-039243Y006350
X-027305Y006096
X-008636Y004191
X-006477Y019431
X-014097Y052578
X-016637Y057658
X-013566Y025019
X-015875Y014351
X-032028Y046210
X-024511Y022098
X-025146Y022733
X-025146Y037592
X-029187Y032126
X-029187Y040640
X-014351Y023241
X-014986Y023749
X-009017Y079375
X-023876Y024511
X-009779Y085979
X-039497Y042545
X-039497Y062865
X-006604Y066675
X-038989Y044704
X-038989Y062357
X-015367Y062357
X-015367Y058674
X-040005Y029591
X-040132Y082169
X002794Y073279
X002794Y064135
X-041656Y042418
X-041656Y082423
X003937Y073914
X003937Y044704
X-042164Y039497
X-042418Y082423
X003302Y074295
X003960Y039370
X-043180Y032258
X-042926Y083947
X004572Y074930
X004572Y044323
X-004191Y004064
X005969Y038862
X-045974Y056388
X-045974Y066675
X-039497Y027178
X-039624Y040767
X-043688Y037846
X-043942Y082296
X-044577Y024511
X-044958Y077343
X-030734Y061722
X-045466Y068453
X-020955Y085598
X-020955Y046990
X-012931Y047117
X-013208Y036576
X-032108Y038989
X-032108Y029591
X-007493Y029591
X-007493Y018034
X-044196Y055245
X-044196Y043688
X-061849Y025273
X-045847Y021717
X-024511Y043434
X-057277Y059817
X-042672Y059817
X-045974Y038481
X-027051Y086487
X-027051Y084455
X-024892Y084455
X-042672Y047498
X-067564Y029464
X-066675Y024130
X005842Y079375
X005969Y058674
X005969Y053340
X-054610Y043815
X-055499Y046355
X-045593Y073660
X-015367Y033274
X-009525Y037465
X-016891Y030480
X-017653Y027051
X-024003Y031242
X-054483Y032258
X-054356Y026797
X-057277Y035179
X-043434Y071374
X-043434Y085598
X-058166Y008763
X-031877Y020828
X-044450Y078740
X-055499Y087503
X-054610Y088265
X-014605Y088393
X-065405Y009398
X-007112Y005461
X-066548Y006223
X-057912Y006858
X-059309Y008001
X-026670Y013462
X-026670Y005588
X-027305Y015621
X-016510Y003175
X-020320Y013844
X-020320Y007874
X-031115Y010414
X-031115Y014224
X-066040Y003429
X-065913Y034163
X-058039Y059055
X-066548Y034544
X-015240Y004319
X-032639Y020320
X-032512Y008001
X-033401Y020320
X-033147Y009144
X-033655Y011684
X-034163Y020320
X-034925Y016764
X-034925Y020320
X-057150Y033401
X-045974Y033401
T02
X-045085Y019304
X-045720Y030861
T03
X-030711Y034676
M30
