M48
METRIC,LZ,000.000
;FILE_FORMAT=3:3
;TYPE=PLATED
;Layer: PTH_Through
;EasyEDA v6.5.54, 2026-02-11 12:30:12
;eb789f6f9b4241e9a458f17a6f4b8d6f,92e600de7ff74937a4e092c024f19ce6,10
;Gerber Generator version 0.2
;Holesize 1 = 0.301 mm
T01C0.301
;Holesize 2 = 0.310 mm
T02C0.310
;Holesize 3 = 0.762 mm
T03C0.762
;Holesize 4 = 0.800 mm
T04C0.800
;Holesize 5 = 1.000 mm
T05C1.000
;Holesize 6 = 1.101 mm
T06C1.101
;Holesize 7 = 1.501 mm
T07C1.501
;Holesize 8 = 2.200 mm
T08C2.200
%
G05
G90
T01
X-038481Y011684
X-038481Y007366
X-031877Y007366
X-037846Y009144
X-037846Y010414
X-040767Y014351
X-040767Y069215
X-018796Y007874
X-040767Y084709
X-007112Y011684
X-039243Y006350
X-027305Y006096
X-008636Y004191
X-006477Y019431
X-014097Y052578
X-016637Y057658
X-013566Y025019
X-015875Y014351
X-032028Y046210
X-024511Y022098
X-025146Y022733
X-025146Y037592
X-029187Y032126
X-029187Y040640
X-014351Y023241
X-014986Y023749
X-009017Y079375
X-023876Y024511
X-009779Y085979
X-039497Y042545
X-039497Y062865
X-006604Y066675
X-038989Y044704
X-038989Y062357
X-015367Y062357
X-015367Y058674
X-040005Y029591
X-040132Y082169
X002794Y073279
X002794Y064135
X-041656Y042418
X-041656Y082423
X003937Y073914
X003937Y044704
X-042164Y039497
X-042418Y082423
X003302Y074295
X003960Y039370
X-043180Y032258
X-042926Y083947
X004572Y074930
X004572Y044323
X-004191Y004064
X005969Y038862
X-045974Y056388
X-045974Y066675
X-039497Y027178
X-039624Y040767
X-043688Y037846
X-043942Y082296
X-044577Y024511
X-044958Y077343
X-030734Y061722
X-045466Y068453
X-020955Y085598
X-020955Y046990
X-012931Y047117
X-013208Y036576
X-032108Y038989
X-032108Y029591
X-007493Y029591
X-007493Y018034
X-044196Y055245
X-044196Y043688
X-061849Y025273
X-045847Y021717
X-024511Y043434
X-057277Y059817
X-042672Y059817
X-045974Y038481
X-027051Y086487
X-027051Y084455
X-024892Y084455
X-042672Y047498
X-067564Y029464
X-066675Y024130
X005842Y079375
X005969Y058674
X005969Y053340
X-054610Y043815
X-055499Y046355
X-045593Y073660
X-015367Y033274
X-009525Y037465
X-016891Y030480
X-017653Y027051
X-024003Y031242
X-054483Y032258
X-054356Y026797
X-057277Y035179
X-043434Y071374
X-043434Y085598
X-058166Y008763
X-031877Y020828
X-044450Y078740
X-055499Y087503
X-054610Y088265
X-014605Y088393
X-065405Y009398
X-007112Y005461
X-066548Y006223
X-057912Y006858
X-059309Y008001
X-026670Y013462
X-026670Y005588
X-027305Y015621
X-016510Y003175
X-020320Y013844
X-020320Y007874
X-031115Y010414
X-031115Y014224
X-066040Y003429
X-065913Y034163
X-058039Y059055
X-066548Y034544
X-015240Y004319
X-032639Y020320
X-032512Y008001
X-033401Y020320
X-033147Y009144
X-033655Y011684
X-034163Y020320
X-034925Y016764
X-034925Y020320
X-057150Y033401
X-045974Y033401
T02
X-045085Y019304
X-045720Y030861
T03
X-061780Y029594G85X-061780Y029588
X-063763Y029594G85X-063763Y029588
X-057763Y029594G85X-057763Y029588
X-059763Y029594G85X-059763Y029588
T04
X-064344Y016997G85X-062644Y016997
X-056394Y016647G85X-056394Y018347
X-061644Y024197G85X-059944Y024197
X-060644Y026797G85X-058944Y026797
X-067694Y020747G85X-067694Y022447
X-064350Y003429G85X-062650Y003429
X-056515Y003087G85X-056515Y004787
X-061650Y010629G85X-059950Y010629
X-060650Y013229G85X-058950Y013229
X-067700Y007179G85X-067700Y008879
X-030711Y034676
T05
X-011938Y014478
X-011938Y011938
X-011938Y009398
X-011938Y006858
X-011938Y004318
X008151Y022684G85X008151Y022684
X008151Y026184G85X008151Y026184
X-033093Y004064
X-019093Y004064
X-033093Y026868
X-019093Y026868
X-030562Y026868
X-021633Y026868
X-021644Y004055
X-030554Y004062
X-062961Y040473G85X-062911Y040473
X-055961Y040473G85X-055911Y040473
X-062961Y035473G85X-062911Y035473
X-055961Y035473G85X-055911Y035473
X-036593Y009171
X-036593Y011722
X-036593Y014272
X-036593Y052530
X-036593Y027025
X-036593Y037227
X-036593Y042328
X-036593Y024474
X-036593Y044878
X-036593Y039777
X-036593Y034676
X-036593Y055080
X-036593Y049979
X-036593Y029575
X-036593Y019373
X-036593Y016823
X-036593Y021924
X-036593Y057631
X-036593Y032126
X-036593Y047429
X-052053Y047429
X-052053Y032126
X-052053Y057631
X-052053Y021924
X-052053Y016823
X-052053Y019373
X-052053Y029575
X-052053Y049979
X-052053Y055080
X-052053Y034676
X-052053Y039777
X-052053Y044878
X-052053Y024474
X-052053Y042328
X-052053Y037227
X-052053Y027025
X-052053Y052530
X-052053Y014272
X-052053Y011722
X-052053Y009171
T06
X-034189Y043540
X-034189Y040540
X-034189Y037540
X-019689Y038013
X-019689Y043013
X-064262Y066929
X-064262Y069469
X-064262Y072009
X-064262Y074549
X-064262Y077089
X-064262Y079629
X-064262Y082169
X-064262Y084709
X-009221Y019431G85X-009276Y019431
X-009221Y029591G85X-009276Y029591
X-009221Y027051G85X-009276Y027051
X-009221Y024511G85X-009276Y024511
X-009221Y021971G85X-009276Y021971
X-067310Y056769
X-067310Y054229
X-067310Y051689
X-067310Y049149
X-067310Y046609
X-067310Y044069
X-067310Y041529
X-067310Y038989
X-064897Y056769
X-064897Y054229
X-064897Y051689
X-064897Y049149
X-064897Y046609
X-064897Y044069
X-064897Y041529
X-064897Y038989
X-006719Y044283
X-006719Y041783
X-006719Y039283
X007781Y039283
X007781Y044283
X-006742Y084415
X-006742Y081915
X-006742Y079415
X007758Y079415
X007758Y084415
X-006615Y063714
X-006615Y061214
X-006615Y058714
X007885Y058714
X007885Y063714
T07
X-026989Y046013G85X-026389Y046013
X-026989Y035013G85X-026389Y035013
X000481Y047283G85X001081Y047283
X000481Y036283G85X001081Y036283
X000458Y087415G85X001058Y087415
X000458Y076415G85X001058Y076415
X000585Y066714G85X001185Y066714
X000585Y055714G85X001185Y055714
T08
X010033Y014605
X010033Y004572
M30
