G04 Layer: BottomSilkscreenLayer*
G04 EasyEDA v6.5.54, 2026-02-11 12:30:12*
G04 eb789f6f9b4241e9a458f17a6f4b8d6f,92e600de7ff74937a4e092c024f19ce6,10*
G04 Gerber Generator version 0.2*
G04 Scale: 100 percent, Rotated: No, Reflected: No *
G04 Dimensions in millimeters *
G04 leading zeros omitted , absolute positions ,4 integer and 5 decimal *
%FSLAX45Y45*%
%MOMM*%

%ADD10C,0.1270*%
%ADD11C,0.0150*%

%LPD*%
G36*
X-3487674Y8128253D02*
G01*
X-3500272Y8127339D01*
X-3507232Y8123783D01*
X-3512972Y8117027D01*
X-3512972Y8115757D01*
X-3515360Y8111490D01*
X-3515360Y7921853D01*
X-3511956Y7915402D01*
X-3506978Y7909864D01*
X-3502609Y7907375D01*
X-3494887Y7905546D01*
X-3489350Y7906308D01*
X-3483508Y7908290D01*
X-3478631Y7912303D01*
X-3476091Y7914944D01*
X-3472230Y7922920D01*
X-3471672Y8081873D01*
X-3470300Y8083296D01*
X-3401364Y8083803D01*
X-3394100Y8086852D01*
X-3387953Y8092592D01*
X-3384397Y8099806D01*
X-3384346Y8111490D01*
X-3387648Y8118449D01*
X-3392830Y8123529D01*
X-3398164Y8126577D01*
X-3406698Y8128152D01*
G37*
G36*
X-2934766Y8128152D02*
G01*
X-2946501Y8127187D01*
X-2956052Y8126120D01*
X-2972054Y8121243D01*
X-2976829Y8118703D01*
X-2978556Y8118703D01*
X-2981096Y8116722D01*
X-2993339Y8110016D01*
X-3002940Y8102193D01*
X-3009747Y8096046D01*
X-3020009Y8083803D01*
X-3022142Y8080654D01*
X-3027172Y8071561D01*
X-3028442Y8068868D01*
X-3029915Y8067141D01*
X-3032607Y8059826D01*
X-3033979Y8054441D01*
X-3035096Y8052308D01*
X-3037941Y8041182D01*
X-3039364Y8020405D01*
X-3039414Y7930235D01*
X-3038297Y7922006D01*
X-3035046Y7916265D01*
X-3030474Y7911541D01*
X-3023819Y7908188D01*
X-3016961Y7907121D01*
X-3010001Y7908340D01*
X-3004667Y7911033D01*
X-2999536Y7915859D01*
X-2995472Y7922920D01*
X-2994914Y8030565D01*
X-2992424Y8040116D01*
X-2989224Y8049463D01*
X-2987751Y8050631D01*
X-2987751Y8051901D01*
X-2982722Y8059267D01*
X-2977388Y8065668D01*
X-2972562Y8070088D01*
X-2967126Y8074456D01*
X-2957626Y8079333D01*
X-2946704Y8082432D01*
X-2934919Y8083753D01*
X-2923032Y8082483D01*
X-2912110Y8079282D01*
X-2902813Y8074406D01*
X-2895193Y8068614D01*
X-2890012Y8063484D01*
X-2884525Y8056625D01*
X-2879547Y8047075D01*
X-2876397Y8037779D01*
X-2874619Y8024164D01*
X-2874924Y7991449D01*
X-2873146Y7969300D01*
X-2870555Y7961630D01*
X-2870555Y7960207D01*
X-2868472Y7955991D01*
X-2868371Y7954365D01*
X-2864205Y7946898D01*
X-2862630Y7943443D01*
X-2853893Y7932521D01*
X-2849321Y7928102D01*
X-2841091Y7921853D01*
X-2829560Y7915249D01*
X-2826613Y7914538D01*
X-2825546Y7913725D01*
X-2818688Y7911947D01*
X-2816606Y7910830D01*
X-2806395Y7909255D01*
X-2772816Y7908493D01*
X-2596540Y7908645D01*
X-2585313Y7909814D01*
X-2582113Y7910525D01*
X-2572004Y7913776D01*
X-2563469Y7918246D01*
X-2558186Y7921853D01*
X-2548737Y7930388D01*
X-2542184Y7938617D01*
X-2536698Y7949590D01*
X-2533954Y7958124D01*
X-2532075Y7967167D01*
X-2532075Y7984185D01*
X-2535021Y7995005D01*
X-2537206Y8000187D01*
X-2540508Y8007096D01*
X-2546553Y8016138D01*
X-2547772Y8018475D01*
X-2543708Y8023606D01*
X-2539796Y8029600D01*
X-2539796Y8030565D01*
X-2538069Y8033715D01*
X-2534970Y8041182D01*
X-2532176Y8052358D01*
X-2531770Y8065719D01*
X-2533294Y8074761D01*
X-2534869Y8081162D01*
X-2537561Y8088579D01*
X-2543505Y8099247D01*
X-2550718Y8107832D01*
X-2558694Y8114741D01*
X-2563672Y8118144D01*
X-2566568Y8119262D01*
X-2569413Y8121294D01*
X-2583180Y8126018D01*
X-2592781Y8127492D01*
X-2758998Y8127492D01*
X-2765247Y8125104D01*
X-2770784Y8121294D01*
X-2774543Y8116316D01*
X-2776931Y8110981D01*
X-2777490Y8102447D01*
X-2774696Y8094573D01*
X-2770276Y8088833D01*
X-2768041Y8087664D01*
X-2765907Y8085836D01*
X-2760065Y8083296D01*
X-2592781Y8082737D01*
X-2586990Y8080298D01*
X-2582672Y8076895D01*
X-2580335Y8074304D01*
X-2577642Y8069325D01*
X-2575966Y8061452D01*
X-2577693Y8053984D01*
X-2579624Y8049717D01*
X-2584246Y8044840D01*
X-2590139Y8041640D01*
X-2592781Y8040674D01*
X-2758440Y8040116D01*
X-2765399Y8037779D01*
X-2771952Y8032902D01*
X-2775153Y8027873D01*
X-2777490Y8020964D01*
X-2776931Y8012430D01*
X-2774086Y8006029D01*
X-2770428Y8001609D01*
X-2765399Y7997952D01*
X-2757932Y7995361D01*
X-2591714Y7994853D01*
X-2585567Y7991805D01*
X-2579166Y7985912D01*
X-2577947Y7983677D01*
X-2576169Y7975650D01*
X-2576982Y7969300D01*
X-2578455Y7964982D01*
X-2581859Y7960055D01*
X-2586380Y7956346D01*
X-2589936Y7954568D01*
X-2597962Y7953044D01*
X-2752039Y7953146D01*
X-2805328Y7953908D01*
X-2810662Y7955838D01*
X-2816504Y7958632D01*
X-2824480Y7966709D01*
X-2826816Y7969910D01*
X-2827578Y7973009D01*
X-2829814Y7977276D01*
X-2830474Y8030565D01*
X-2832150Y8039049D01*
X-2832862Y8046516D01*
X-2834436Y8050784D01*
X-2839059Y8065160D01*
X-2846628Y8079333D01*
X-2849016Y8082737D01*
X-2858770Y8095030D01*
X-2864459Y8100364D01*
X-2875940Y8109813D01*
X-2890012Y8117789D01*
X-2896412Y8120735D01*
X-2911856Y8125561D01*
X-2917698Y8126628D01*
G37*
G36*
X-2309926Y8126120D02*
G01*
X-2429256Y8125866D01*
X-2439365Y8123529D01*
X-2447391Y8120786D01*
X-2458567Y8114842D01*
X-2465984Y8108848D01*
X-2470861Y8104073D01*
X-2476804Y8096605D01*
X-2481732Y8087868D01*
X-2484221Y8082178D01*
X-2485593Y8076336D01*
X-2487015Y8074202D01*
X-2488234Y8056981D01*
X-2487015Y8044535D01*
X-2486101Y8042757D01*
X-2484323Y8035848D01*
X-2482951Y8033715D01*
X-2481224Y8028584D01*
X-2473147Y8016392D01*
X-2465476Y8008620D01*
X-2460498Y8004657D01*
X-2460142Y8002320D01*
X-2461768Y7999628D01*
X-2465171Y7995869D01*
X-2469642Y7989519D01*
X-2472994Y7985252D01*
X-2478989Y7973009D01*
X-2484526Y7956499D01*
X-2487117Y7942630D01*
X-2487269Y7923479D01*
X-2483459Y7916011D01*
X-2479040Y7911033D01*
X-2473401Y7907883D01*
X-2466086Y7906003D01*
X-2458567Y7907324D01*
X-2452166Y7910271D01*
X-2447696Y7914640D01*
X-2444800Y7919212D01*
X-2443429Y7923784D01*
X-2441244Y7945831D01*
X-2439162Y7951165D01*
X-2437942Y7955991D01*
X-2436977Y7957108D01*
X-2432253Y7966709D01*
X-2427122Y7972958D01*
X-2424480Y7975803D01*
X-2417622Y7981442D01*
X-2408986Y7986420D01*
X-2403144Y7987842D01*
X-2397506Y7989773D01*
X-2380234Y7991957D01*
X-2374950Y7993125D01*
X-2369362Y7996224D01*
X-2364943Y8001253D01*
X-2361692Y8008162D01*
X-2361590Y8019897D01*
X-2364892Y8026806D01*
X-2369718Y8032140D01*
X-2376525Y8035493D01*
X-2378659Y8036306D01*
X-2426614Y8036966D01*
X-2432913Y8039506D01*
X-2440432Y8047075D01*
X-2444089Y8056321D01*
X-2443378Y8063890D01*
X-2440787Y8070189D01*
X-2437790Y8074202D01*
X-2434132Y8077403D01*
X-2430475Y8079943D01*
X-2424988Y8081416D01*
X-2337562Y8081416D01*
X-2335834Y8080095D01*
X-2335479Y7985252D01*
X-2331618Y7969808D01*
X-2329484Y7963966D01*
X-2327198Y7959140D01*
X-2326182Y7957566D01*
X-2324049Y7952790D01*
X-2315819Y7940548D01*
X-2305100Y7929880D01*
X-2294026Y7921701D01*
X-2281732Y7915402D01*
X-2267864Y7910880D01*
X-2255062Y7908645D01*
X-2141626Y7908188D01*
X-2116124Y7910931D01*
X-2098497Y7916418D01*
X-2083562Y7924088D01*
X-2079345Y7926527D01*
X-2063851Y7939582D01*
X-2053031Y7952333D01*
X-2047748Y7960207D01*
X-2039620Y7976209D01*
X-2039620Y7977428D01*
X-2034336Y7993278D01*
X-2033016Y8004454D01*
X-2032965Y8024672D01*
X-2034438Y8037423D01*
X-2039670Y8053425D01*
X-2042414Y8060385D01*
X-2043226Y8061452D01*
X-2047748Y8069935D01*
X-2049729Y8072475D01*
X-2049729Y8073745D01*
X-2063038Y8089798D01*
X-2072386Y8097621D01*
X-2078888Y8103616D01*
X-2096922Y8113268D01*
X-2113381Y8118602D01*
X-2121916Y8120227D01*
X-2140000Y8121954D01*
X-2205532Y8121650D01*
X-2213559Y8117789D01*
X-2220061Y8110829D01*
X-2222957Y8103412D01*
X-2222550Y8093913D01*
X-2219706Y8087766D01*
X-2213508Y8081264D01*
X-2207666Y8078622D01*
X-2204466Y8077504D01*
X-2132025Y8076742D01*
X-2124557Y8075625D01*
X-2114143Y8072272D01*
X-2106980Y8068513D01*
X-2100630Y8064195D01*
X-2093722Y8058353D01*
X-2086102Y8048650D01*
X-2080209Y8037474D01*
X-2079447Y8033715D01*
X-2077974Y8030870D01*
X-2076754Y8015071D01*
X-2077923Y7999577D01*
X-2079904Y7994853D01*
X-2080564Y7991551D01*
X-2083816Y7986318D01*
X-2086457Y7981543D01*
X-2091029Y7975549D01*
X-2096160Y7970062D01*
X-2102815Y7964424D01*
X-2112619Y7958886D01*
X-2126691Y7954213D01*
X-2143760Y7952943D01*
X-2254554Y7953349D01*
X-2264816Y7956702D01*
X-2270506Y7959598D01*
X-2273554Y7961833D01*
X-2281580Y7969300D01*
X-2286203Y7976209D01*
X-2288794Y7982051D01*
X-2290013Y7986877D01*
X-2291588Y7990890D01*
X-2291588Y8102447D01*
X-2292553Y8111134D01*
X-2296007Y8117382D01*
X-2299309Y8120888D01*
X-2304237Y8124088D01*
G37*
G36*
X-3112160Y8126069D02*
G01*
X-3284728Y8125815D01*
X-3292703Y8124088D01*
X-3296970Y8122920D01*
X-3301237Y8121243D01*
X-3313328Y8115249D01*
X-3322015Y8108340D01*
X-3328212Y8101990D01*
X-3330295Y8098180D01*
X-3333445Y8093405D01*
X-3335172Y8089646D01*
X-3336493Y8088071D01*
X-3339744Y8079536D01*
X-3341979Y8072577D01*
X-3343000Y8060436D01*
X-3299307Y8060436D01*
X-3297986Y8066887D01*
X-3293516Y8074202D01*
X-3289554Y8077403D01*
X-3285286Y8079892D01*
X-3279444Y8081416D01*
X-3140354Y8081416D01*
X-3137712Y8080044D01*
X-3137509Y8039404D01*
X-3139643Y8036661D01*
X-3279089Y8036661D01*
X-3286963Y8039150D01*
X-3291840Y8042554D01*
X-3295497Y8047075D01*
X-3298342Y8052663D01*
X-3299307Y8060436D01*
X-3343000Y8060436D01*
X-3343148Y8058759D01*
X-3342436Y8048244D01*
X-3339896Y8038439D01*
X-3336544Y8030006D01*
X-3325926Y8013293D01*
X-3321405Y8009229D01*
X-3315868Y8005013D01*
X-3315868Y8003743D01*
X-3315309Y8002219D01*
X-3321456Y7994700D01*
X-3328162Y7985556D01*
X-3329584Y7981543D01*
X-3334512Y7971790D01*
X-3334562Y7970367D01*
X-3335985Y7967522D01*
X-3339795Y7954365D01*
X-3340506Y7948523D01*
X-3341522Y7945018D01*
X-3342386Y7930388D01*
X-3341522Y7922920D01*
X-3339134Y7917637D01*
X-3335883Y7913268D01*
X-3331616Y7909966D01*
X-3326282Y7907223D01*
X-3318154Y7906562D01*
X-3312414Y7907883D01*
X-3307486Y7910525D01*
X-3302152Y7916011D01*
X-3299256Y7921599D01*
X-3296716Y7945374D01*
X-3293973Y7953857D01*
X-3289706Y7962341D01*
X-3286302Y7967827D01*
X-3279394Y7975752D01*
X-3271926Y7981594D01*
X-3263950Y7986318D01*
X-3248761Y7990281D01*
X-3236061Y7991906D01*
X-3140202Y7991906D01*
X-3137712Y7989874D01*
X-3137154Y7922920D01*
X-3133547Y7916214D01*
X-3129432Y7911998D01*
X-3123692Y7908340D01*
X-3118561Y7907172D01*
X-3111093Y7907172D01*
X-3107893Y7908188D01*
X-3103067Y7910372D01*
X-3097022Y7916062D01*
X-3093516Y7923479D01*
X-3093516Y8109356D01*
X-3097123Y8117128D01*
X-3103524Y8123072D01*
X-3108401Y8125256D01*
G37*
G36*
X-2205532Y7845958D02*
G01*
X-2211984Y7844536D01*
X-2216912Y7841640D01*
X-2220823Y7837322D01*
X-2223516Y7831480D01*
X-2223516Y7822285D01*
X-2220163Y7815732D01*
X-2215489Y7811414D01*
X-2210866Y7808925D01*
X-2148535Y7808671D01*
X-2146401Y7808214D01*
X-2145080Y7805978D01*
X-2145080Y7651800D01*
X-2144014Y7643368D01*
X-2141880Y7638948D01*
X-2138222Y7634681D01*
X-2131517Y7631023D01*
X-2121357Y7631023D01*
X-2115820Y7633970D01*
X-2112111Y7637221D01*
X-2108860Y7643012D01*
X-2107996Y7650225D01*
X-2108047Y7831836D01*
X-2110689Y7837170D01*
X-2114854Y7841691D01*
X-2118614Y7844028D01*
X-2125116Y7845907D01*
G37*
G36*
X-3349853Y7843824D02*
G01*
X-3355949Y7841132D01*
X-3359607Y7838338D01*
X-3363468Y7832598D01*
X-3364331Y7828127D01*
X-3364382Y7643164D01*
X-3363264Y7637475D01*
X-3359302Y7631684D01*
X-3350768Y7627518D01*
X-3340100Y7627924D01*
X-3332378Y7631988D01*
X-3328415Y7638491D01*
X-3328415Y7831836D01*
X-3331616Y7837373D01*
X-3336950Y7841742D01*
X-3340658Y7842758D01*
X-3342233Y7843824D01*
G37*
G36*
X-3498138Y7843824D02*
G01*
X-3504742Y7840827D01*
X-3508857Y7836255D01*
X-3511397Y7830616D01*
X-3512413Y7824419D01*
X-3512464Y7644282D01*
X-3509772Y7635849D01*
X-3506114Y7630871D01*
X-3499916Y7627874D01*
X-3488182Y7627874D01*
X-3481273Y7631684D01*
X-3477920Y7636052D01*
X-3475685Y7641996D01*
X-3475685Y7828635D01*
X-3477564Y7833461D01*
X-3480054Y7837881D01*
X-3485032Y7841640D01*
X-3490315Y7843774D01*
G37*
G36*
X-2310993Y7843723D02*
G01*
X-2528316Y7843570D01*
X-2535326Y7840268D01*
X-2539644Y7835747D01*
X-2542641Y7830261D01*
X-2543098Y7821523D01*
X-2539898Y7814818D01*
X-2535834Y7810144D01*
X-2532075Y7808569D01*
X-2526741Y7806893D01*
X-2310485Y7806283D01*
X-2307285Y7804505D01*
X-2303424Y7800441D01*
X-2301494Y7796682D01*
X-2301443Y7789265D01*
X-2304846Y7783931D01*
X-2310333Y7780172D01*
X-2511298Y7779613D01*
X-2520086Y7777276D01*
X-2526588Y7773974D01*
X-2532075Y7770215D01*
X-2537714Y7764729D01*
X-2542997Y7757109D01*
X-2542997Y7756499D01*
X-2545537Y7750911D01*
X-2547874Y7741564D01*
X-2547467Y7732268D01*
X-2545537Y7723886D01*
X-2543200Y7718907D01*
X-2539593Y7712608D01*
X-2533396Y7706004D01*
X-2527808Y7701686D01*
X-2520035Y7697825D01*
X-2511806Y7695539D01*
X-2311552Y7694980D01*
X-2309368Y7693914D01*
X-2304338Y7690713D01*
X-2304338Y7689596D01*
X-2301443Y7685379D01*
X-2301443Y7677912D01*
X-2304846Y7672070D01*
X-2310333Y7668310D01*
X-2530449Y7667802D01*
X-2533904Y7665923D01*
X-2535478Y7665923D01*
X-2541981Y7660538D01*
X-2545334Y7653934D01*
X-2545384Y7644333D01*
X-2541930Y7637729D01*
X-2537409Y7633309D01*
X-2531516Y7630515D01*
X-2309418Y7630515D01*
X-2298242Y7633004D01*
X-2288489Y7637678D01*
X-2279954Y7644079D01*
X-2274773Y7650225D01*
X-2272080Y7653934D01*
X-2268524Y7660284D01*
X-2266442Y7666177D01*
X-2265019Y7671511D01*
X-2263698Y7680756D01*
X-2264359Y7686446D01*
X-2265883Y7696301D01*
X-2267458Y7698689D01*
X-2268220Y7702397D01*
X-2270810Y7706410D01*
X-2270810Y7707274D01*
X-2274214Y7711998D01*
X-2279294Y7717993D01*
X-2287676Y7724394D01*
X-2295652Y7728661D01*
X-2307793Y7732166D01*
X-2506472Y7732775D01*
X-2509926Y7734858D01*
X-2510383Y7736078D01*
X-2509672Y7739380D01*
X-2507284Y7742123D01*
X-2321153Y7742123D01*
X-2305050Y7743139D01*
X-2293772Y7746898D01*
X-2287016Y7750860D01*
X-2281174Y7755128D01*
X-2276297Y7759953D01*
X-2271522Y7766354D01*
X-2266543Y7776514D01*
X-2263851Y7790942D01*
X-2263851Y7796225D01*
X-2265578Y7806283D01*
X-2270302Y7817205D01*
X-2271522Y7819593D01*
X-2278786Y7828737D01*
X-2283866Y7832953D01*
X-2287828Y7835900D01*
X-2298242Y7841030D01*
X-2308352Y7843316D01*
G37*
G36*
X-2041499Y7842250D02*
G01*
X-2048154Y7841132D01*
X-2054504Y7837830D01*
X-2060752Y7831328D01*
X-2063597Y7825536D01*
X-2064867Y7817662D01*
X-2063597Y7810246D01*
X-2060244Y7804150D01*
X-2055875Y7799527D01*
X-2050491Y7796072D01*
X-2046782Y7794904D01*
X-2039670Y7793583D01*
X-2031339Y7795412D01*
X-2026564Y7797698D01*
X-2021433Y7802473D01*
X-2018233Y7807248D01*
X-2016150Y7812684D01*
X-2015489Y7819136D01*
X-2017725Y7827924D01*
X-2020722Y7832902D01*
X-2026208Y7838236D01*
X-2031949Y7841132D01*
X-2037740Y7842097D01*
G37*
G36*
X-2702509Y7842097D02*
G01*
X-3250082Y7841996D01*
X-3256483Y7838287D01*
X-3260496Y7833969D01*
X-3262884Y7829194D01*
X-3262884Y7818526D01*
X-3260293Y7813243D01*
X-3256788Y7809382D01*
X-3249472Y7806029D01*
X-2701442Y7805724D01*
X-2689148Y7803489D01*
X-2680157Y7800644D01*
X-2668981Y7795107D01*
X-2662224Y7790027D01*
X-2661767Y7790027D01*
X-2655265Y7783931D01*
X-2648153Y7775397D01*
X-2645054Y7770622D01*
X-2641041Y7763002D01*
X-2636774Y7750251D01*
X-2635402Y7738618D01*
X-2635402Y7730642D01*
X-2636774Y7719110D01*
X-2640330Y7708290D01*
X-2644394Y7700264D01*
X-2649372Y7692288D01*
X-2656179Y7684770D01*
X-2665882Y7676642D01*
X-2672689Y7672679D01*
X-2680970Y7668615D01*
X-2682087Y7668615D01*
X-2690063Y7665872D01*
X-2703576Y7664145D01*
X-3250082Y7663535D01*
X-3255111Y7660944D01*
X-3258870Y7657896D01*
X-3262884Y7650734D01*
X-3262884Y7640116D01*
X-3260344Y7634884D01*
X-3257143Y7631277D01*
X-3250641Y7627823D01*
X-2701442Y7627569D01*
X-2690317Y7628636D01*
X-2675890Y7631277D01*
X-2665780Y7634325D01*
X-2655620Y7639405D01*
X-2647594Y7643875D01*
X-2642260Y7647787D01*
X-2630068Y7657896D01*
X-2625598Y7662976D01*
X-2615895Y7674711D01*
X-2606497Y7693914D01*
X-2602026Y7707731D01*
X-2599994Y7716824D01*
X-2598318Y7733842D01*
X-2599486Y7749286D01*
X-2601061Y7758328D01*
X-2606903Y7776616D01*
X-2609748Y7782306D01*
X-2611018Y7783931D01*
X-2611780Y7786573D01*
X-2615082Y7793481D01*
X-2617825Y7797241D01*
X-2626614Y7808061D01*
X-2636977Y7817002D01*
X-2645511Y7823809D01*
X-2661462Y7832699D01*
X-2666288Y7834884D01*
X-2686558Y7840725D01*
G37*
G36*
X-2706268Y7785150D02*
G01*
X-3248507Y7784998D01*
X-3254705Y7782509D01*
X-3260445Y7776972D01*
X-3262782Y7771688D01*
X-3263290Y7763662D01*
X-3261461Y7757515D01*
X-3256381Y7751368D01*
X-3248964Y7747965D01*
X-2704084Y7747711D01*
X-2698800Y7744256D01*
X-2695905Y7740599D01*
X-2694787Y7735773D01*
X-2695854Y7730337D01*
X-2698699Y7726578D01*
X-2704134Y7723479D01*
X-3245866Y7723428D01*
X-3251453Y7721955D01*
X-3255975Y7719618D01*
X-3259480Y7716266D01*
X-3261969Y7711998D01*
X-3263798Y7705496D01*
X-3262122Y7697470D01*
X-3259175Y7692796D01*
X-3254908Y7689037D01*
X-3248406Y7686192D01*
X-2703576Y7686192D01*
X-2697175Y7687106D01*
X-2689453Y7689392D01*
X-2683306Y7692339D01*
X-2680004Y7694675D01*
X-2679090Y7694726D01*
X-2673756Y7699603D01*
X-2672588Y7700264D01*
X-2665222Y7709357D01*
X-2660142Y7720279D01*
X-2658516Y7729067D01*
X-2657602Y7735874D01*
X-2660091Y7750352D01*
X-2663240Y7757820D01*
X-2665679Y7762087D01*
X-2670454Y7768488D01*
X-2676855Y7774279D01*
X-2680665Y7777073D01*
X-2687624Y7780883D01*
X-2695600Y7783728D01*
G37*
G36*
X-3425393Y7757007D02*
G01*
X-3431489Y7755432D01*
X-3435858Y7753197D01*
X-3440480Y7748930D01*
X-3443274Y7744206D01*
X-3445459Y7737551D01*
X-3445357Y7732877D01*
X-3442512Y7724394D01*
X-3435451Y7717231D01*
X-3428034Y7714488D01*
X-3422954Y7713827D01*
X-3414674Y7716062D01*
X-3409696Y7719263D01*
X-3405886Y7723936D01*
X-3402736Y7731404D01*
X-3402736Y7739481D01*
X-3406190Y7747558D01*
X-3410965Y7752537D01*
X-3416909Y7755940D01*
X-3422700Y7756906D01*
G37*
G36*
X-2053742Y7491425D02*
G01*
X-2751632Y7490002D01*
X-2833827Y7486650D01*
X-2861005Y7482382D01*
X-2887167Y7480401D01*
X-2905658Y7475931D01*
X-2930296Y7473137D01*
X-2942590Y7469936D01*
X-2964180Y7464856D01*
X-2985719Y7460691D01*
X-3008477Y7454442D01*
X-3011932Y7451699D01*
X-3028645Y7448194D01*
X-3032048Y7445349D01*
X-3044240Y7442301D01*
X-3065830Y7434173D01*
X-3076397Y7431024D01*
X-3087319Y7425181D01*
X-3090265Y7425181D01*
X-3145891Y7398867D01*
X-3170529Y7385202D01*
X-3178251Y7381290D01*
X-3201314Y7366253D01*
X-3225952Y7350506D01*
X-3240227Y7339685D01*
X-3248812Y7333538D01*
X-3267557Y7318603D01*
X-3269081Y7316368D01*
X-3286048Y7303211D01*
X-3299709Y7290714D01*
X-2951073Y7290714D01*
X-2945231Y7307325D01*
X-2936595Y7322566D01*
X-2925622Y7333538D01*
X-2906166Y7343851D01*
X-2882544Y7344714D01*
X-2867355Y7343343D01*
X-2859430Y7338161D01*
X-2848051Y7332370D01*
X-2836265Y7318146D01*
X-2831287Y7310272D01*
X-2829522Y7304278D01*
X-2814015Y7304278D01*
X-2814015Y7323632D01*
X-2809849Y7333538D01*
X-2797048Y7345070D01*
X-2785516Y7344664D01*
X-2774035Y7342784D01*
X-2757119Y7330440D01*
X-2755188Y7321753D01*
X-2756916Y7320076D01*
X-2760878Y7322108D01*
X-2768600Y7326579D01*
X-2780284Y7326579D01*
X-2787853Y7319060D01*
X-2787873Y7318705D01*
X-2755493Y7318705D01*
X-2752750Y7320432D01*
X-2749499Y7316470D01*
X-2752090Y7312304D01*
X-2755493Y7318705D01*
X-2787873Y7318705D01*
X-2788310Y7311948D01*
X-2788035Y7305497D01*
X-2747822Y7305497D01*
X-2743962Y7310120D01*
X-2742336Y7340295D01*
X-2740863Y7341666D01*
X-2722168Y7343800D01*
X-2717749Y7338466D01*
X-2716784Y7234986D01*
X-2716923Y7223506D01*
X-2698496Y7223506D01*
X-2698394Y7231888D01*
X-2693873Y7237882D01*
X-2693873Y7243267D01*
X-2690774Y7245146D01*
X-2677414Y7234224D01*
X-2665018Y7234224D01*
X-2656890Y7240625D01*
X-2652318Y7249464D01*
X-2652318Y7318857D01*
X-2659735Y7323683D01*
X-2686100Y7321550D01*
X-2693873Y7326680D01*
X-2693873Y7337602D01*
X-2690469Y7343952D01*
X-2663240Y7341920D01*
X-2652318Y7346442D01*
X-2652318Y7366863D01*
X-2649118Y7372807D01*
X-2646934Y7372603D01*
X-2631541Y7362190D01*
X-2626106Y7357414D01*
X-2626106Y7348423D01*
X-2624277Y7343546D01*
X-2609189Y7343546D01*
X-2602738Y7337094D01*
X-2604820Y7325817D01*
X-2607767Y7322769D01*
X-2625344Y7321194D01*
X-2625445Y7315453D01*
X-2587955Y7315453D01*
X-2583332Y7322769D01*
X-2581249Y7329779D01*
X-2573629Y7337399D01*
X-2572105Y7337399D01*
X-2563723Y7343597D01*
X-2539136Y7344918D01*
X-2533091Y7343190D01*
X-2525268Y7338314D01*
X-2510637Y7326325D01*
X-2510637Y7320127D01*
X-2522169Y7322362D01*
X-2547366Y7322769D01*
X-2555595Y7315047D01*
X-2558775Y7308900D01*
X-2501849Y7308900D01*
X-2501188Y7316571D01*
X-2500376Y7336586D01*
X-2499868Y7339990D01*
X-2491994Y7343546D01*
X-2475382Y7343546D01*
X-2473553Y7340600D01*
X-2473287Y7276134D01*
X-2444394Y7276134D01*
X-2444292Y7295032D01*
X-2438603Y7315962D01*
X-2433624Y7321448D01*
X-2433624Y7324852D01*
X-2419604Y7336332D01*
X-2403602Y7343851D01*
X-2372766Y7344968D01*
X-2363571Y7342327D01*
X-2302510Y7342327D01*
X-2292705Y7362190D01*
X-2272690Y7382967D01*
X-2260346Y7388301D01*
X-2251151Y7393330D01*
X-2203399Y7394244D01*
X-2194153Y7391603D01*
X-2180285Y7384745D01*
X-2166416Y7373620D01*
X-2158492Y7365847D01*
X-2147773Y7350455D01*
X-2139746Y7327392D01*
X-2138121Y7298537D01*
X-2141067Y7272731D01*
X-2147011Y7257643D01*
X-2157882Y7240625D01*
X-2171496Y7226858D01*
X-2184908Y7219035D01*
X-2206091Y7211110D01*
X-2239721Y7211110D01*
X-2260193Y7217714D01*
X-2271166Y7224014D01*
X-2281936Y7231888D01*
X-2284831Y7236510D01*
X-2293467Y7244130D01*
X-2293467Y7247026D01*
X-2297684Y7251903D01*
X-2301036Y7262012D01*
X-2299512Y7265974D01*
X-2285593Y7277608D01*
X-2278176Y7275728D01*
X-2275027Y7264247D01*
X-2263444Y7249058D01*
X-2248763Y7240066D01*
X-2231085Y7235850D01*
X-2214626Y7235748D01*
X-2197658Y7240676D01*
X-2188006Y7247432D01*
X-2178659Y7256525D01*
X-2170531Y7273493D01*
X-2166721Y7296556D01*
X-2166721Y7302753D01*
X-2170176Y7332014D01*
X-2179320Y7350810D01*
X-2188210Y7359700D01*
X-2198776Y7364831D01*
X-2211324Y7369962D01*
X-2241905Y7368743D01*
X-2256180Y7362799D01*
X-2266543Y7353452D01*
X-2275128Y7340346D01*
X-2278837Y7328966D01*
X-2284018Y7327950D01*
X-2302510Y7342327D01*
X-2363571Y7342327D01*
X-2349906Y7335520D01*
X-2331974Y7317130D01*
X-2331974Y7311948D01*
X-2325624Y7301585D01*
X-2322677Y7275525D01*
X-2327148Y7249820D01*
X-2332024Y7240422D01*
X-2339238Y7229805D01*
X-2343505Y7225639D01*
X-2358948Y7215886D01*
X-2371242Y7210704D01*
X-2407513Y7210806D01*
X-2411628Y7214209D01*
X-2426157Y7221931D01*
X-2439771Y7233310D01*
X-2439720Y7239609D01*
X-2427325Y7249871D01*
X-2422855Y7248144D01*
X-2422855Y7245248D01*
X-2407869Y7234529D01*
X-2391156Y7231024D01*
X-2370328Y7233970D01*
X-2355088Y7243775D01*
X-2354986Y7247280D01*
X-2349042Y7259624D01*
X-2348941Y7270953D01*
X-2354529Y7272731D01*
X-2439619Y7272172D01*
X-2444394Y7276134D01*
X-2473287Y7276134D01*
X-2472994Y7216495D01*
X-2475128Y7213041D01*
X-2489454Y7211415D01*
X-2498852Y7214108D01*
X-2501087Y7217714D01*
X-2501849Y7308900D01*
X-2558775Y7308900D01*
X-2559710Y7307122D01*
X-2560574Y7218121D01*
X-2566060Y7212634D01*
X-2574544Y7212330D01*
X-2586837Y7212939D01*
X-2587650Y7213701D01*
X-2587955Y7315453D01*
X-2625445Y7315453D01*
X-2626918Y7234986D01*
X-2633675Y7224166D01*
X-2647848Y7210348D01*
X-2679242Y7210602D01*
X-2698496Y7223506D01*
X-2716923Y7223506D01*
X-2716987Y7218273D01*
X-2721152Y7211872D01*
X-2739085Y7212279D01*
X-2743149Y7217867D01*
X-2743149Y7294372D01*
X-2747822Y7305497D01*
X-2788035Y7305497D01*
X-2787548Y7292848D01*
X-2795168Y7290917D01*
X-2808630Y7293559D01*
X-2814015Y7304278D01*
X-2829522Y7304278D01*
X-2825953Y7291933D01*
X-2824581Y7266482D01*
X-2831084Y7247280D01*
X-2836367Y7236510D01*
X-2845816Y7225030D01*
X-2857601Y7217003D01*
X-2873298Y7210856D01*
X-2904388Y7210856D01*
X-2916377Y7217257D01*
X-2918764Y7217257D01*
X-2932531Y7227265D01*
X-2946450Y7248855D01*
X-2946552Y7256525D01*
X-2950972Y7264247D01*
X-2951073Y7290714D01*
X-3299709Y7290714D01*
X-3313480Y7278116D01*
X-3338372Y7252919D01*
X-3366160Y7221118D01*
X-3379215Y7205167D01*
X-3379215Y7202322D01*
X-3385362Y7196785D01*
X-3385362Y7194143D01*
X-3390747Y7188301D01*
X-3397961Y7177989D01*
X-3403084Y7170064D01*
X-3128619Y7170064D01*
X-3122777Y7172401D01*
X-3104032Y7172604D01*
X-3102000Y7170521D01*
X-3102000Y7149236D01*
X-2636418Y7149236D01*
X-2636113Y7169962D01*
X-2629966Y7172401D01*
X-2611221Y7172604D01*
X-2609189Y7170521D01*
X-2609189Y7148271D01*
X-2614066Y7146442D01*
X-2629001Y7146442D01*
X-2636418Y7149236D01*
X-3102000Y7149236D01*
X-3102000Y6997649D01*
X-3075838Y6997649D01*
X-3075838Y7009536D01*
X-3072638Y7015530D01*
X-3065424Y7015530D01*
X-3061208Y7020559D01*
X-3060801Y7076338D01*
X-3056128Y7098792D01*
X-3048304Y7110628D01*
X-3034792Y7121702D01*
X-3013456Y7124801D01*
X-3002686Y7124496D01*
X-2986125Y7122058D01*
X-2970326Y7113524D01*
X-2954172Y7101382D01*
X-2954172Y7094677D01*
X-2967532Y7081570D01*
X-2984754Y7098334D01*
X-3004464Y7101738D01*
X-3013456Y7101738D01*
X-3023971Y7098741D01*
X-3032658Y7090460D01*
X-3034588Y7080199D01*
X-3029559Y7072477D01*
X-3023616Y7072477D01*
X-3021888Y7069632D01*
X-3010357Y7066025D01*
X-2971139Y7047839D01*
X-2968040Y7047839D01*
X-2968040Y7045045D01*
X-2957728Y7032752D01*
X-2953715Y7018375D01*
X-2958795Y7007707D01*
X-2958795Y7003338D01*
X-2964928Y6997649D01*
X-2927959Y6997649D01*
X-2927959Y7096353D01*
X-2920695Y7111949D01*
X-2907995Y7122007D01*
X-2888691Y7124801D01*
X-2881020Y7124547D01*
X-2868422Y7120991D01*
X-2852775Y7107174D01*
X-2851759Y7100976D01*
X-2858516Y7100011D01*
X-2866491Y7105243D01*
X-2886405Y7103668D01*
X-2896735Y7095794D01*
X-2845003Y7095794D01*
X-2841904Y7099553D01*
X-2840939Y7120991D01*
X-2817723Y7121906D01*
X-2815539Y7119721D01*
X-2815539Y7077913D01*
X-2785516Y7077913D01*
X-2778048Y7094829D01*
X-2769057Y7106412D01*
X-2750616Y7120636D01*
X-2737764Y7123684D01*
X-2716225Y7124090D01*
X-2700832Y7122210D01*
X-2698564Y7120991D01*
X-2636113Y7120991D01*
X-2609189Y7121906D01*
X-2609112Y7089851D01*
X-2581605Y7089851D01*
X-2575763Y7096353D01*
X-2566060Y7110780D01*
X-2548229Y7121601D01*
X-2528316Y7124852D01*
X-2512923Y7124649D01*
X-2496007Y7120128D01*
X-2485237Y7112812D01*
X-2467508Y7095642D01*
X-2467508Y7089292D01*
X-2461615Y7077760D01*
X-2459532Y7053224D01*
X-2462682Y7036308D01*
X-2468016Y7020915D01*
X-2478024Y7009587D01*
X-2482799Y7002373D01*
X-2489200Y6999173D01*
X-2442870Y6999173D01*
X-2442870Y7011822D01*
X-2439162Y7015530D01*
X-2432558Y7015530D01*
X-2427224Y7021423D01*
X-2426360Y7087108D01*
X-2420518Y7103668D01*
X-2408428Y7115809D01*
X-2395677Y7123277D01*
X-2365095Y7124801D01*
X-2348839Y7120280D01*
X-2338933Y7115251D01*
X-2323998Y7104075D01*
X-2319934Y7096252D01*
X-2332837Y7081367D01*
X-2351227Y7097115D01*
X-2373223Y7103668D01*
X-2389733Y7099757D01*
X-2399893Y7089597D01*
X-2398979Y7075068D01*
X-2377389Y7066280D01*
X-2368194Y7061809D01*
X-2358948Y7059675D01*
X-2346604Y7053072D01*
X-2337358Y7047077D01*
X-2326233Y7036308D01*
X-2320950Y7020153D01*
X-2326182Y7003948D01*
X-2332707Y6996988D01*
X-2291689Y6996988D01*
X-2291080Y7170013D01*
X-2284984Y7172401D01*
X-2268067Y7172553D01*
X-2264257Y7170115D01*
X-2263444Y7042505D01*
X-2258212Y7041489D01*
X-2253335Y7050176D01*
X-2247392Y7059422D01*
X-2242210Y7068667D01*
X-2231796Y7082485D01*
X-2209596Y7114844D01*
X-2190750Y7141108D01*
X-2185568Y7150252D01*
X-2168499Y7172604D01*
X-2147570Y7172604D01*
X-2144014Y7168337D01*
X-2144877Y6996938D01*
X-2149500Y6993839D01*
X-2167432Y6994956D01*
X-2170328Y6999325D01*
X-2169922Y7119467D01*
X-2172157Y7124852D01*
X-2174138Y7124750D01*
X-2200300Y7085025D01*
X-2222703Y7053224D01*
X-2227376Y7047077D01*
X-2257501Y7003948D01*
X-2267051Y6993940D01*
X-2286000Y6993940D01*
X-2291689Y6996988D01*
X-2332707Y6996988D01*
X-2333802Y6995820D01*
X-2350719Y6989318D01*
X-2361234Y6989318D01*
X-2380488Y6998462D01*
X-2390343Y7008926D01*
X-2392375Y7017054D01*
X-2388412Y7017054D01*
X-2383586Y7012686D01*
X-2366365Y7009536D01*
X-2351227Y7013397D01*
X-2347417Y7020915D01*
X-2349296Y7031685D01*
X-2359964Y7042912D01*
X-2371598Y7044740D01*
X-2375458Y7049414D01*
X-2378964Y7049414D01*
X-2393442Y7057085D01*
X-2397709Y7057085D01*
X-2403246Y7050989D01*
X-2401112Y7037831D01*
X-2399334Y7023303D01*
X-2404364Y7012736D01*
X-2404364Y7001865D01*
X-2414371Y6994702D01*
X-2438806Y6993585D01*
X-2442870Y6999173D01*
X-2489200Y6999173D01*
X-2499055Y6994245D01*
X-2521915Y6988809D01*
X-2541066Y6992061D01*
X-2560675Y7000494D01*
X-2575560Y7016292D01*
X-2581452Y7027672D01*
X-2579471Y7032853D01*
X-2560015Y7041896D01*
X-2553512Y7028027D01*
X-2537917Y7012431D01*
X-2512110Y7012431D01*
X-2499715Y7020610D01*
X-2489809Y7034784D01*
X-2489809Y7081012D01*
X-2501239Y7098233D01*
X-2519273Y7103313D01*
X-2529890Y7103262D01*
X-2541625Y7100011D01*
X-2553462Y7089343D01*
X-2559913Y7075576D01*
X-2567889Y7075576D01*
X-2575712Y7081723D01*
X-2579573Y7081723D01*
X-2581605Y7089851D01*
X-2609112Y7089851D01*
X-2609291Y6996379D01*
X-2613050Y6993839D01*
X-2633675Y6994804D01*
X-2635097Y6996277D01*
X-2636113Y7120991D01*
X-2698564Y7120991D01*
X-2684576Y7113422D01*
X-2669235Y7095286D01*
X-2669235Y7090460D01*
X-2664764Y7085482D01*
X-2659634Y7060184D01*
X-2664510Y7031380D01*
X-2672740Y7014768D01*
X-2690418Y6997750D01*
X-2707284Y6992416D01*
X-2732633Y6988809D01*
X-2741320Y6993940D01*
X-2744927Y6993940D01*
X-2761284Y7001459D01*
X-2777337Y7019696D01*
X-2785059Y7037831D01*
X-2785516Y7077913D01*
X-2815539Y7077913D01*
X-2815539Y6998817D01*
X-2820416Y6993940D01*
X-2838043Y6993940D01*
X-2841752Y6997649D01*
X-2841752Y7084059D01*
X-2845003Y7095794D01*
X-2896870Y7095693D01*
X-2901797Y7081164D01*
X-2901797Y6995820D01*
X-2906674Y6993940D01*
X-2924302Y6993940D01*
X-2927959Y6997649D01*
X-2964928Y6997649D01*
X-2967228Y6995515D01*
X-2986633Y6989013D01*
X-3007817Y6994245D01*
X-3019653Y7002932D01*
X-3026765Y7015530D01*
X-3021584Y7017512D01*
X-3019552Y7014159D01*
X-3010916Y7010908D01*
X-2989427Y7010908D01*
X-2981858Y7018477D01*
X-2981858Y7030516D01*
X-2987700Y7037831D01*
X-2998063Y7042962D01*
X-3015589Y7050938D01*
X-3017418Y7050938D01*
X-3026308Y7057491D01*
X-3034030Y7055561D01*
X-3034995Y7045553D01*
X-3032810Y7027062D01*
X-3034639Y7011670D01*
X-3038703Y7003643D01*
X-3049727Y6993940D01*
X-3072130Y6993940D01*
X-3075838Y6997649D01*
X-3102000Y6997649D01*
X-3102000Y6995820D01*
X-3106877Y6993940D01*
X-3122777Y6994194D01*
X-3128162Y6996277D01*
X-3128619Y7170064D01*
X-3403084Y7170064D01*
X-3410762Y7157974D01*
X-3419856Y7145985D01*
X-3424631Y7137196D01*
X-3442970Y7105599D01*
X-3459479Y7071715D01*
X-3462274Y7067092D01*
X-3468725Y7053224D01*
X-3479596Y7025538D01*
X-3482390Y7022592D01*
X-3482390Y7017816D01*
X-3487267Y7008571D01*
X-3496157Y6980885D01*
X-3499459Y6971639D01*
X-3507393Y6946646D01*
X-2516886Y6946646D01*
X-2511704Y6952386D01*
X-2494280Y6952386D01*
X-2490622Y6948678D01*
X-2490622Y6948170D01*
X-2256536Y6948170D01*
X-2253081Y6952386D01*
X-2235200Y6952386D01*
X-2230323Y6947509D01*
X-2230323Y6881520D01*
X-2221128Y6881520D01*
X-2216861Y6891528D01*
X-2207818Y6900062D01*
X-2190394Y6906158D01*
X-2181656Y6906158D01*
X-2160981Y6899198D01*
X-2148840Y6887413D01*
X-2141118Y6874205D01*
X-2134514Y6850125D01*
X-2134311Y6820712D01*
X-2139492Y6810857D01*
X-2139492Y6805320D01*
X-2147824Y6788810D01*
X-2161133Y6777126D01*
X-2171547Y6772148D01*
X-2189937Y6770268D01*
X-2205431Y6773976D01*
X-2211070Y6780225D01*
X-2217623Y6782765D01*
X-2219756Y6791198D01*
X-2225700Y6798716D01*
X-2223719Y6801916D01*
X-2219604Y6796278D01*
X-2208022Y6791807D01*
X-2192934Y6790334D01*
X-2177186Y6797497D01*
X-2170887Y6803745D01*
X-2163368Y6816090D01*
X-2163368Y6856120D01*
X-2168956Y6870598D01*
X-2179878Y6880199D01*
X-2188006Y6883450D01*
X-2204161Y6884720D01*
X-2224328Y6876643D01*
X-2228596Y6878269D01*
X-2229866Y6874611D01*
X-2226614Y6869328D01*
X-2230323Y6855307D01*
X-2230221Y6819138D01*
X-2227478Y6805320D01*
X-2230323Y6802374D01*
X-2230323Y6775399D01*
X-2235708Y6772706D01*
X-2255723Y6774484D01*
X-2256536Y6948170D01*
X-2490622Y6948170D01*
X-2490622Y6837324D01*
X-2405888Y6837324D01*
X-2405837Y6854596D01*
X-2401976Y6873036D01*
X-2389073Y6890461D01*
X-2374341Y6900468D01*
X-2351227Y6906158D01*
X-2338933Y6906006D01*
X-2323490Y6901281D01*
X-2317343Y6898335D01*
X-2307844Y6893102D01*
X-2295042Y6879234D01*
X-2293112Y6873036D01*
X-2287016Y6859422D01*
X-2285339Y6829552D01*
X-2289302Y6808368D01*
X-2297226Y6794500D01*
X-2310536Y6781393D01*
X-2325878Y6773672D01*
X-2351227Y6770217D01*
X-2375357Y6773925D01*
X-2391308Y6784136D01*
X-2401519Y6793687D01*
X-2399334Y6800697D01*
X-2388514Y6811264D01*
X-2382012Y6803644D01*
X-2371242Y6795973D01*
X-2363317Y6792518D01*
X-2343505Y6790537D01*
X-2326487Y6797649D01*
X-2318105Y6804202D01*
X-2318105Y6807200D01*
X-2311704Y6815328D01*
X-2311196Y6829044D01*
X-2314702Y6832498D01*
X-2400198Y6832193D01*
X-2405888Y6837324D01*
X-2490622Y6837324D01*
X-2490622Y6775450D01*
X-2494432Y6773113D01*
X-2512669Y6773621D01*
X-2516022Y6776974D01*
X-2516886Y6946646D01*
X-3507393Y6946646D01*
X-3511854Y6933133D01*
X-3515664Y6914642D01*
X-3519017Y6908495D01*
X-3521252Y6888734D01*
X-3525164Y6879234D01*
X-3527450Y6859270D01*
X-3531362Y6848144D01*
X-3533343Y6823760D01*
X-3537661Y6808368D01*
X-3538946Y6794195D01*
X-2786278Y6794195D01*
X-2786278Y6819493D01*
X-2777286Y6830872D01*
X-2766466Y6838188D01*
X-2751632Y6844842D01*
X-2736240Y6847433D01*
X-2720848Y6852513D01*
X-2709265Y6857390D01*
X-2705709Y6861657D01*
X-2705912Y6875780D01*
X-2713990Y6883857D01*
X-2743454Y6883400D01*
X-2760472Y6871665D01*
X-2763926Y6866128D01*
X-2771648Y6866229D01*
X-2780334Y6877659D01*
X-2778506Y6886905D01*
X-2775762Y6887870D01*
X-2758186Y6900164D01*
X-2731617Y6906056D01*
X-2722372Y6906056D01*
X-2710078Y6901586D01*
X-2701645Y6901535D01*
X-2696616Y6893864D01*
X-2689758Y6893864D01*
X-2681224Y6876948D01*
X-2681325Y6856831D01*
X-2687878Y6846265D01*
X-2702356Y6835952D01*
X-2719324Y6829399D01*
X-2733141Y6827469D01*
X-2758897Y6819392D01*
X-2763621Y6809486D01*
X-2761538Y6798411D01*
X-2750159Y6790690D01*
X-2731312Y6790690D01*
X-2711348Y6797903D01*
X-2700172Y6805523D01*
X-2693670Y6813753D01*
X-2689504Y6813753D01*
X-2678480Y6800900D01*
X-2678633Y6797598D01*
X-2690063Y6785051D01*
X-2697568Y6780936D01*
X-2666441Y6780936D01*
X-2663748Y6794500D01*
X-2654604Y6797192D01*
X-2649982Y6799478D01*
X-2649423Y6866890D01*
X-2642260Y6883857D01*
X-2636621Y6893102D01*
X-2625344Y6900418D01*
X-2602280Y6906158D01*
X-2593035Y6905955D01*
X-2579166Y6901586D01*
X-2573020Y6901484D01*
X-2565298Y6897065D01*
X-2557729Y6893712D01*
X-2541574Y6879894D01*
X-2547569Y6869785D01*
X-2554986Y6862775D01*
X-2560980Y6865975D01*
X-2571140Y6875475D01*
X-2587142Y6883095D01*
X-2603144Y6883095D01*
X-2614523Y6878320D01*
X-2621280Y6871970D01*
X-2623312Y6859879D01*
X-2618536Y6852513D01*
X-2608478Y6850329D01*
X-2602280Y6846316D01*
X-2590800Y6844233D01*
X-2587244Y6839966D01*
X-2583738Y6839966D01*
X-2573020Y6834225D01*
X-2565298Y6831838D01*
X-2550210Y6819290D01*
X-2544572Y6806844D01*
X-2544521Y6793788D01*
X-2549398Y6781596D01*
X-2559558Y6773824D01*
X-2579674Y6770624D01*
X-2596083Y6774078D01*
X-2613050Y6787896D01*
X-2615336Y6794042D01*
X-2613609Y6796836D01*
X-2609646Y6796836D01*
X-2603855Y6790385D01*
X-2576931Y6791452D01*
X-2569921Y6798462D01*
X-2569921Y6811568D01*
X-2580690Y6821373D01*
X-2587447Y6821474D01*
X-2589326Y6824522D01*
X-2611831Y6835343D01*
X-2619400Y6835343D01*
X-2625191Y6831075D01*
X-2624328Y6813346D01*
X-2621584Y6806031D01*
X-2624005Y6799935D01*
X-2616911Y6799935D01*
X-2616911Y6798360D01*
X-2618435Y6798360D01*
X-2618435Y6799935D01*
X-2624005Y6799935D01*
X-2624328Y6799122D01*
X-2627934Y6780580D01*
X-2639822Y6773722D01*
X-2663139Y6773722D01*
X-2666441Y6780936D01*
X-2697568Y6780936D01*
X-2710078Y6774078D01*
X-2730347Y6770674D01*
X-2743606Y6770674D01*
X-2763977Y6774383D01*
X-2776016Y6781190D01*
X-2786278Y6794195D01*
X-3538946Y6794195D01*
X-3541014Y6771436D01*
X-3543808Y6751421D01*
X-3545636Y6689801D01*
X-3548938Y6644487D01*
X-3546110Y6584645D01*
X-2778912Y6584645D01*
X-2777286Y6592773D01*
X-2772054Y6607454D01*
X-2759456Y6617411D01*
X-2748584Y6621525D01*
X-2737764Y6623964D01*
X-2726994Y6628688D01*
X-2711602Y6630924D01*
X-2700832Y6636359D01*
X-2695803Y6642049D01*
X-2693822Y6653123D01*
X-2700121Y6661099D01*
X-2717139Y6664655D01*
X-2739237Y6660692D01*
X-2759100Y6643827D01*
X-2770886Y6657086D01*
X-2770886Y6661556D01*
X-2753817Y6678269D01*
X-2750058Y6678269D01*
X-2739339Y6683959D01*
X-2711602Y6685635D01*
X-2703880Y6684213D01*
X-2690063Y6679184D01*
X-2677007Y6668719D01*
X-2669540Y6652818D01*
X-2671724Y6635902D01*
X-2679598Y6623558D01*
X-2688488Y6619087D01*
X-2693111Y6615328D01*
X-2697717Y6614058D01*
X-2649220Y6614058D01*
X-2649220Y6639509D01*
X-2637891Y6663639D01*
X-2625344Y6675323D01*
X-2606852Y6684213D01*
X-2583789Y6685686D01*
X-2568397Y6683248D01*
X-2556052Y6676136D01*
X-2544521Y6665925D01*
X-2541422Y6665925D01*
X-2541422Y6661708D01*
X-2535377Y6654038D01*
X-2527300Y6629755D01*
X-2528925Y6596380D01*
X-2533700Y6589014D01*
X-2533700Y6585407D01*
X-2544470Y6569202D01*
X-2546156Y6567779D01*
X-2520442Y6567779D01*
X-2515260Y6576872D01*
X-2515209Y6582003D01*
X-2512466Y6586321D01*
X-2498750Y6575044D01*
X-2485237Y6575094D01*
X-2477516Y6578955D01*
X-2472131Y6589674D01*
X-2472131Y6657848D01*
X-2476906Y6661810D01*
X-2512771Y6662928D01*
X-2514092Y6664248D01*
X-2514498Y6681063D01*
X-2512263Y6683248D01*
X-2475992Y6684772D01*
X-2472131Y6687870D01*
X-2472131Y6707276D01*
X-2470251Y6712153D01*
X-2466746Y6712102D01*
X-2460244Y6708292D01*
X-2447899Y6701485D01*
X-2445969Y6694424D01*
X-2445918Y6687566D01*
X-2439009Y6683044D01*
X-2429459Y6683349D01*
X-2425903Y6681165D01*
X-2425903Y6663232D01*
X-2444292Y6661150D01*
X-2446172Y6658203D01*
X-2446123Y6646316D01*
X-2415133Y6646316D01*
X-2415133Y6666026D01*
X-2409088Y6677914D01*
X-2392984Y6685940D01*
X-2383586Y6685635D01*
X-2373782Y6683298D01*
X-2356764Y6668719D01*
X-2354884Y6662877D01*
X-2356713Y6659880D01*
X-2365095Y6663436D01*
X-2369972Y6667449D01*
X-2379624Y6667449D01*
X-2390749Y6657695D01*
X-2390071Y6651802D01*
X-2352294Y6651802D01*
X-2351125Y6657441D01*
X-2348839Y6651650D01*
X-2350465Y6650024D01*
X-2352294Y6651802D01*
X-2390071Y6651802D01*
X-2389124Y6643573D01*
X-2388387Y6639559D01*
X-2347366Y6639559D01*
X-2347366Y6649923D01*
X-2344267Y6653022D01*
X-2343861Y6679031D01*
X-2339187Y6684416D01*
X-2324862Y6684416D01*
X-2318867Y6680047D01*
X-2318049Y6564274D01*
X-2298293Y6564274D01*
X-2293467Y6571132D01*
X-2293467Y6575856D01*
X-2288692Y6585000D01*
X-2274976Y6620560D01*
X-2274976Y6623253D01*
X-2269185Y6635902D01*
X-2244191Y6699300D01*
X-2244191Y6703669D01*
X-2236927Y6717538D01*
X-2235047Y6725208D01*
X-2228037Y6733692D01*
X-2218791Y6734759D01*
X-2200402Y6733540D01*
X-2196642Y6730390D01*
X-2194509Y6720586D01*
X-2188768Y6709867D01*
X-2188667Y6705193D01*
X-2184146Y6699199D01*
X-2184146Y6694728D01*
X-2178354Y6682079D01*
X-2172055Y6665163D01*
X-2169922Y6657441D01*
X-2166061Y6652818D01*
X-2164232Y6643065D01*
X-2156409Y6626859D01*
X-2156409Y6621830D01*
X-2151888Y6615887D01*
X-2151786Y6611721D01*
X-2146757Y6600494D01*
X-2141524Y6588150D01*
X-2134616Y6570573D01*
X-2130348Y6554368D01*
X-2134108Y6552082D01*
X-2151024Y6553098D01*
X-2155698Y6555079D01*
X-2164130Y6573520D01*
X-2164130Y6576618D01*
X-2170277Y6588099D01*
X-2170277Y6593535D01*
X-2176424Y6599681D01*
X-2248611Y6599681D01*
X-2256383Y6596786D01*
X-2259888Y6583527D01*
X-2262276Y6580428D01*
X-2270099Y6557772D01*
X-2275128Y6552742D01*
X-2297328Y6552742D01*
X-2298293Y6564274D01*
X-2318049Y6564274D01*
X-2318004Y6558229D01*
X-2324303Y6551980D01*
X-2339594Y6551980D01*
X-2344267Y6559092D01*
X-2344064Y6633362D01*
X-2347366Y6639559D01*
X-2388387Y6639559D01*
X-2387142Y6632498D01*
X-2401112Y6630924D01*
X-2408986Y6632397D01*
X-2415133Y6646316D01*
X-2446123Y6646316D01*
X-2445867Y6583883D01*
X-2451049Y6568135D01*
X-2458567Y6558178D01*
X-2475331Y6549999D01*
X-2499055Y6551676D01*
X-2512923Y6558584D01*
X-2520442Y6567779D01*
X-2546156Y6567779D01*
X-2554224Y6560972D01*
X-2573020Y6551828D01*
X-2600706Y6550101D01*
X-2613050Y6553301D01*
X-2626309Y6558178D01*
X-2636012Y6565036D01*
X-2641650Y6571234D01*
X-2644698Y6578650D01*
X-2634742Y6588912D01*
X-2628290Y6588912D01*
X-2617673Y6577888D01*
X-2609951Y6573926D01*
X-2580284Y6572453D01*
X-2571445Y6576212D01*
X-2557018Y6589014D01*
X-2554020Y6598920D01*
X-2552039Y6610502D01*
X-2560167Y6613601D01*
X-2614574Y6612280D01*
X-2649220Y6614058D01*
X-2697717Y6614058D01*
X-2717749Y6608572D01*
X-2732278Y6605727D01*
X-2748788Y6598462D01*
X-2753969Y6590588D01*
X-2753969Y6585559D01*
X-2748584Y6576212D01*
X-2735224Y6570421D01*
X-2726436Y6570421D01*
X-2706014Y6575196D01*
X-2690063Y6586220D01*
X-2683002Y6593535D01*
X-2678430Y6593535D01*
X-2669336Y6583527D01*
X-2669235Y6576822D01*
X-2677718Y6566611D01*
X-2679954Y6565595D01*
X-2690063Y6558737D01*
X-2716225Y6550406D01*
X-2737764Y6550507D01*
X-2748584Y6553301D01*
X-2759354Y6557365D01*
X-2772257Y6567728D01*
X-2774289Y6577380D01*
X-2778912Y6584645D01*
X-3546110Y6584645D01*
X-3543909Y6538874D01*
X-3539490Y6503466D01*
X-3538642Y6492900D01*
X-2559913Y6492900D01*
X-2559913Y6511594D01*
X-2555036Y6513474D01*
X-2537409Y6513474D01*
X-2533700Y6509766D01*
X-2533700Y6490970D01*
X-2537409Y6487261D01*
X-2554833Y6487261D01*
X-2559913Y6492900D01*
X-3538642Y6492900D01*
X-3537762Y6481876D01*
X-3531565Y6443370D01*
X-3528161Y6429552D01*
X-3524199Y6406438D01*
X-3519373Y6387947D01*
X-3519373Y6379565D01*
X-3514953Y6369456D01*
X-3509975Y6349441D01*
X-3507123Y6339230D01*
X-2707741Y6339230D01*
X-2707741Y6350203D01*
X-2701594Y6356400D01*
X-2695803Y6356400D01*
X-2692450Y6360414D01*
X-2692095Y6423355D01*
X-2686202Y6442811D01*
X-2675483Y6455918D01*
X-2659227Y6464096D01*
X-2637688Y6465468D01*
X-2618638Y6463131D01*
X-2610815Y6458000D01*
X-2606852Y6457950D01*
X-2593949Y6449212D01*
X-2586075Y6439865D01*
X-2586075Y6436004D01*
X-2598216Y6420713D01*
X-2607513Y6431330D01*
X-2619806Y6439865D01*
X-2644648Y6442862D01*
X-2660294Y6437630D01*
X-2664612Y6427317D01*
X-2664612Y6416294D01*
X-2654604Y6411620D01*
X-2646934Y6407251D01*
X-2640380Y6407200D01*
X-2636520Y6402578D01*
X-2631490Y6402578D01*
X-2620721Y6396888D01*
X-2612390Y6394856D01*
X-2598724Y6385610D01*
X-2589428Y6375044D01*
X-2587244Y6354521D01*
X-2590647Y6343142D01*
X-2595947Y6339230D01*
X-2559913Y6339230D01*
X-2559913Y6460998D01*
X-2553970Y6464198D01*
X-2551430Y6463639D01*
X-2536088Y6462420D01*
X-2533751Y6458813D01*
X-2533704Y6341110D01*
X-2498293Y6341110D01*
X-2498293Y6510274D01*
X-2492349Y6513474D01*
X-2477516Y6513372D01*
X-2472131Y6510223D01*
X-2472131Y6404914D01*
X-2442921Y6404914D01*
X-2439822Y6429044D01*
X-2431796Y6443827D01*
X-2418994Y6456222D01*
X-2400249Y6463995D01*
X-2377389Y6465519D01*
X-2363571Y6462928D01*
X-2348128Y6456070D01*
X-2333091Y6439306D01*
X-2325370Y6427978D01*
X-2323565Y6412534D01*
X-2298242Y6412534D01*
X-2296312Y6437223D01*
X-2291638Y6461861D01*
X-2287320Y6468668D01*
X-2287320Y6472834D01*
X-2277414Y6486296D01*
X-2264613Y6498082D01*
X-2253335Y6505702D01*
X-2244953Y6507734D01*
X-2241651Y6510324D01*
X-2220315Y6513423D01*
X-2147773Y6513474D01*
X-2144115Y6509766D01*
X-2144115Y6340144D01*
X-2148890Y6333286D01*
X-2206447Y6333286D01*
X-2241550Y6336588D01*
X-2252624Y6342532D01*
X-2255977Y6342532D01*
X-2271928Y6354419D01*
X-2279192Y6361785D01*
X-2291791Y6385204D01*
X-2293874Y6401816D01*
X-2298242Y6412534D01*
X-2323565Y6412534D01*
X-2323388Y6411061D01*
X-2320290Y6405626D01*
X-2322525Y6382308D01*
X-2328824Y6361785D01*
X-2344623Y6343294D01*
X-2351532Y6340195D01*
X-2356053Y6336436D01*
X-2375763Y6331407D01*
X-2397658Y6331051D01*
X-2415895Y6336995D01*
X-2432100Y6347460D01*
X-2438450Y6356400D01*
X-2428748Y6368694D01*
X-2422702Y6368694D01*
X-2415387Y6360820D01*
X-2398979Y6352540D01*
X-2371242Y6352895D01*
X-2357272Y6360922D01*
X-2350770Y6369710D01*
X-2346198Y6387541D01*
X-2351379Y6392722D01*
X-2438247Y6392265D01*
X-2440990Y6395669D01*
X-2442921Y6404914D01*
X-2472131Y6404914D01*
X-2472131Y6336995D01*
X-2475839Y6333286D01*
X-2494737Y6333286D01*
X-2498293Y6341110D01*
X-2533704Y6341110D01*
X-2533700Y6336741D01*
X-2537561Y6333794D01*
X-2556662Y6333185D01*
X-2559913Y6339230D01*
X-2595947Y6339230D01*
X-2599182Y6336842D01*
X-2609037Y6331712D01*
X-2628798Y6331712D01*
X-2641904Y6336334D01*
X-2655214Y6349441D01*
X-2657246Y6357924D01*
X-2652674Y6357924D01*
X-2649016Y6353505D01*
X-2633218Y6350101D01*
X-2617114Y6353454D01*
X-2614218Y6357162D01*
X-2612339Y6369659D01*
X-2617216Y6376619D01*
X-2623820Y6379514D01*
X-2639212Y6388709D01*
X-2643835Y6390487D01*
X-2656992Y6396431D01*
X-2665984Y6396431D01*
X-2667457Y6394043D01*
X-2665069Y6367932D01*
X-2668270Y6361785D01*
X-2668828Y6345732D01*
X-2673858Y6338011D01*
X-2689809Y6333286D01*
X-2704541Y6333286D01*
X-2707741Y6339230D01*
X-3507123Y6339230D01*
X-3499154Y6314033D01*
X-3497529Y6309410D01*
X-3494633Y6297676D01*
X-3490366Y6290919D01*
X-3488232Y6280150D01*
X-3476244Y6253632D01*
X-3476244Y6251092D01*
X-3470046Y6237782D01*
X-3463544Y6223152D01*
X-3444798Y6184646D01*
X-3431387Y6160770D01*
X-3428492Y6160770D01*
X-3428492Y6154978D01*
X-3402654Y6114948D01*
X-2932582Y6114948D01*
X-2932582Y6135776D01*
X-2920695Y6137656D01*
X-2917139Y6141923D01*
X-2916326Y6212382D01*
X-2907182Y6230416D01*
X-2896057Y6239256D01*
X-2881934Y6245301D01*
X-2856382Y6246926D01*
X-2837535Y6240119D01*
X-2833268Y6236614D01*
X-2826156Y6234430D01*
X-2812491Y6220764D01*
X-2812491Y6213500D01*
X-2823362Y6203899D01*
X-2827274Y6203899D01*
X-2833674Y6212535D01*
X-2852216Y6222390D01*
X-2870403Y6224320D01*
X-2884068Y6217412D01*
X-2890926Y6209284D01*
X-2891028Y6196126D01*
X-2882544Y6192824D01*
X-2870200Y6187440D01*
X-2856382Y6181039D01*
X-2848660Y6178956D01*
X-2825546Y6166459D01*
X-2817114Y6160211D01*
X-2817114Y6155334D01*
X-2812186Y6148324D01*
X-2812034Y6135370D01*
X-2815563Y6128512D01*
X-2798826Y6128512D01*
X-2796844Y6137554D01*
X-2790545Y6145580D01*
X-2782163Y6137554D01*
X-2771038Y6135776D01*
X-2756865Y6137910D01*
X-2753766Y6146038D01*
X-2752242Y6215481D01*
X-2756357Y6223152D01*
X-2791561Y6224727D01*
X-2793390Y6232398D01*
X-2792069Y6239560D01*
X-2784551Y6242405D01*
X-2759151Y6242405D01*
X-2753207Y6246774D01*
X-2752090Y6271666D01*
X-2745486Y6271361D01*
X-2730906Y6263182D01*
X-2724708Y6257848D01*
X-2724708Y6243878D01*
X-2719679Y6241948D01*
X-2706979Y6241643D01*
X-2706979Y6224727D01*
X-2723692Y6223152D01*
X-2726232Y6213906D01*
X-2725877Y6143091D01*
X-2731008Y6127496D01*
X-2743250Y6114897D01*
X-2744494Y6114592D01*
X-2695448Y6114592D01*
X-2695448Y6134506D01*
X-2689453Y6137706D01*
X-2683306Y6137706D01*
X-2680817Y6141567D01*
X-2680258Y6213144D01*
X-2673858Y6221272D01*
X-2673858Y6225743D01*
X-2659583Y6239662D01*
X-2642311Y6245148D01*
X-2628442Y6246418D01*
X-2622296Y6245453D01*
X-2605786Y6242100D01*
X-2591308Y6235446D01*
X-2576779Y6223508D01*
X-2575001Y6216396D01*
X-2585059Y6203899D01*
X-2589580Y6203899D01*
X-2599791Y6214770D01*
X-2620264Y6223914D01*
X-2630170Y6223914D01*
X-2645562Y6219393D01*
X-2652471Y6212027D01*
X-2651556Y6193993D01*
X-2642311Y6192113D01*
X-2621321Y6182156D01*
X-2557068Y6182156D01*
X-2552192Y6201105D01*
X-2552192Y6206286D01*
X-2546045Y6217767D01*
X-2546045Y6221069D01*
X-2537561Y6232296D01*
X-2528316Y6240881D01*
X-2520645Y6242608D01*
X-2510536Y6247028D01*
X-2502154Y6246622D01*
X-2494432Y6245301D01*
X-2480614Y6240322D01*
X-2474417Y6234125D01*
X-2467508Y6224879D01*
X-2467508Y6217767D01*
X-2469896Y6217767D01*
X-2474772Y6223457D01*
X-2499868Y6225387D01*
X-2506776Y6222746D01*
X-2518477Y6212382D01*
X-2460244Y6212382D01*
X-2457805Y6242405D01*
X-2437485Y6242050D01*
X-2432304Y6240678D01*
X-2430678Y6232398D01*
X-2431011Y6125921D01*
X-2409240Y6125921D01*
X-2407361Y6135827D01*
X-2393645Y6137859D01*
X-2391460Y6141364D01*
X-2390394Y6211468D01*
X-2382621Y6228435D01*
X-2368651Y6240729D01*
X-2352751Y6245301D01*
X-2334310Y6246876D01*
X-2320442Y6242558D01*
X-2312720Y6240983D01*
X-2288082Y6224727D01*
X-2285288Y6216599D01*
X-2295804Y6203950D01*
X-2297480Y6203899D01*
X-2315819Y6217259D01*
X-2336190Y6224524D01*
X-2354122Y6220510D01*
X-2362758Y6211874D01*
X-2362758Y6206083D01*
X-2366010Y6202832D01*
X-2360472Y6193231D01*
X-2351227Y6191250D01*
X-2346604Y6187541D01*
X-2323490Y6178804D01*
X-2310993Y6173114D01*
X-2307844Y6173114D01*
X-2289352Y6155080D01*
X-2287320Y6145022D01*
X-2287320Y6129680D01*
X-2292197Y6121501D01*
X-2298698Y6116523D01*
X-2273808Y6116523D01*
X-2272436Y6133185D01*
X-2269540Y6136081D01*
X-2168956Y6136386D01*
X-2163572Y6140348D01*
X-2170531Y6149238D01*
X-2185517Y6165342D01*
X-2188972Y6171793D01*
X-2194153Y6177432D01*
X-2201824Y6188659D01*
X-2218893Y6209385D01*
X-2227935Y6221628D01*
X-2237282Y6232956D01*
X-2254300Y6255512D01*
X-2267458Y6274358D01*
X-2266543Y6292443D01*
X-2141575Y6293459D01*
X-2137562Y6288582D01*
X-2139035Y6273038D01*
X-2142693Y6269380D01*
X-2209546Y6269380D01*
X-2230221Y6272123D01*
X-2233879Y6264046D01*
X-2219401Y6247790D01*
X-2195677Y6217869D01*
X-2186990Y6206236D01*
X-2177897Y6195466D01*
X-2145182Y6152845D01*
X-2131771Y6132830D01*
X-2131771Y6116320D01*
X-2134870Y6114389D01*
X-2270302Y6114338D01*
X-2273808Y6116523D01*
X-2298698Y6116523D01*
X-2302967Y6113221D01*
X-2319274Y6111189D01*
X-2339340Y6114338D01*
X-2353106Y6127699D01*
X-2356612Y6134404D01*
X-2356612Y6136132D01*
X-2351887Y6136132D01*
X-2345080Y6131864D01*
X-2327300Y6129782D01*
X-2317242Y6133084D01*
X-2311958Y6142024D01*
X-2311958Y6150914D01*
X-2323642Y6162344D01*
X-2326030Y6162344D01*
X-2355850Y6175908D01*
X-2365756Y6177940D01*
X-2367788Y6169761D01*
X-2365959Y6151829D01*
X-2367889Y6126124D01*
X-2379472Y6114491D01*
X-2408224Y6115354D01*
X-2409240Y6125921D01*
X-2431011Y6125921D01*
X-2431135Y6079134D01*
X-2425801Y6073800D01*
X-2406650Y6073800D01*
X-2406650Y6047740D01*
X-2413660Y6046063D01*
X-2432100Y6047079D01*
X-2433726Y6055309D01*
X-2436012Y6062980D01*
X-2456688Y6061913D01*
X-2458110Y6066078D01*
X-2460040Y6143091D01*
X-2459888Y6201613D01*
X-2460244Y6212382D01*
X-2518477Y6212382D01*
X-2521000Y6210147D01*
X-2526538Y6195466D01*
X-2527757Y6165291D01*
X-2522524Y6149492D01*
X-2510637Y6136589D01*
X-2496515Y6131204D01*
X-2478278Y6132474D01*
X-2469184Y6139230D01*
X-2467508Y6139230D01*
X-2467508Y6132677D01*
X-2473553Y6122873D01*
X-2488539Y6113170D01*
X-2500630Y6111240D01*
X-2522270Y6114237D01*
X-2536037Y6123635D01*
X-2544521Y6134455D01*
X-2544521Y6137300D01*
X-2550566Y6144971D01*
X-2557068Y6182156D01*
X-2621321Y6182156D01*
X-2618536Y6180836D01*
X-2615133Y6180836D01*
X-2597658Y6172606D01*
X-2589936Y6166713D01*
X-2578862Y6156502D01*
X-2575001Y6138316D01*
X-2578658Y6124905D01*
X-2590546Y6113475D01*
X-2612085Y6111341D01*
X-2623820Y6113424D01*
X-2634589Y6119723D01*
X-2642870Y6127851D01*
X-2644952Y6136132D01*
X-2639466Y6136132D01*
X-2634335Y6131509D01*
X-2610916Y6130747D01*
X-2601468Y6139789D01*
X-2601468Y6153048D01*
X-2614269Y6162344D01*
X-2618028Y6162344D01*
X-2625598Y6168288D01*
X-2634589Y6170472D01*
X-2639720Y6174892D01*
X-2654503Y6175400D01*
X-2656840Y6160008D01*
X-2652318Y6148425D01*
X-2652318Y6142837D01*
X-2658567Y6122873D01*
X-2671572Y6112916D01*
X-2677718Y6114542D01*
X-2744494Y6114592D01*
X-2758998Y6111087D01*
X-2782011Y6113018D01*
X-2796997Y6122771D01*
X-2798826Y6128512D01*
X-2815590Y6128461D01*
X-2819146Y6121501D01*
X-2827121Y6114745D01*
X-2842869Y6111087D01*
X-2863138Y6113272D01*
X-2874518Y6122314D01*
X-2876854Y6122314D01*
X-2880207Y6130747D01*
X-2883966Y6135979D01*
X-2881630Y6138367D01*
X-2868676Y6131814D01*
X-2849473Y6130036D01*
X-2838653Y6139535D01*
X-2838653Y6152692D01*
X-2853029Y6163868D01*
X-2856382Y6163868D01*
X-2888183Y6179312D01*
X-2890824Y6177686D01*
X-2892856Y6164326D01*
X-2889961Y6145479D01*
X-2893110Y6128258D01*
X-2904744Y6114999D01*
X-2926791Y6113424D01*
X-2932582Y6114948D01*
X-3402654Y6114948D01*
X-3400907Y6112306D01*
X-3388512Y6095339D01*
X-3376929Y6078423D01*
X-3366668Y6064554D01*
X-3362807Y6061456D01*
X-3334969Y6029147D01*
X-3289401Y5984443D01*
X-3282746Y5978296D01*
X-3257905Y5958281D01*
X-3243529Y5947511D01*
X-3225952Y5933389D01*
X-3213100Y5925921D01*
X-3195167Y5913932D01*
X-3182617Y5905906D01*
X-2974644Y5905906D01*
X-2973933Y5913577D01*
X-2972562Y5914948D01*
X-2959608Y5916676D01*
X-2957423Y5929020D01*
X-2957220Y5991402D01*
X-2946450Y6012535D01*
X-2934919Y6020511D01*
X-2922574Y6024829D01*
X-2902559Y6026302D01*
X-2891790Y6025134D01*
X-2874822Y6018428D01*
X-2863494Y6011468D01*
X-2851251Y5998413D01*
X-2859898Y5987034D01*
X-2827883Y5987034D01*
X-2827883Y6068161D01*
X-2819755Y6074562D01*
X-2801620Y6074562D01*
X-2800146Y6070701D01*
X-2800892Y5897219D01*
X-2765501Y5897219D01*
X-2765501Y6068263D01*
X-2760014Y6073749D01*
X-2743708Y6073800D01*
X-2738729Y6072835D01*
X-2737764Y6066078D01*
X-2738748Y5956249D01*
X-2710078Y5956249D01*
X-2709570Y5971489D01*
X-2704287Y5993688D01*
X-2694635Y6006998D01*
X-2688488Y6014466D01*
X-2667508Y6025286D01*
X-2633065Y6024930D01*
X-2617474Y6018326D01*
X-2578354Y6018326D01*
X-2576728Y6023457D01*
X-2564892Y6025489D01*
X-2553614Y6023356D01*
X-2547569Y6011519D01*
X-2547569Y6004356D01*
X-2541676Y5992723D01*
X-2539542Y5979820D01*
X-2536139Y5973673D01*
X-2530602Y5953658D01*
X-2524353Y5932119D01*
X-2521508Y5916980D01*
X-2518613Y5914034D01*
X-2515311Y5916066D01*
X-2509062Y5930188D01*
X-2509062Y5935726D01*
X-2498090Y5967526D01*
X-2494280Y5986068D01*
X-2491790Y5990082D01*
X-2487726Y6006033D01*
X-2482138Y6021933D01*
X-2480056Y6024016D01*
X-2456637Y6025184D01*
X-2453335Y6018022D01*
X-2459431Y6004458D01*
X-2461514Y5994755D01*
X-2467508Y5983020D01*
X-2467508Y5977686D01*
X-2470251Y5976010D01*
X-2474010Y5959805D01*
X-2477871Y5953607D01*
X-2479903Y5944362D01*
X-2492146Y5913831D01*
X-2492146Y5905906D01*
X-2433624Y5905906D01*
X-2433624Y6017717D01*
X-2425954Y6025337D01*
X-2407107Y6024626D01*
X-2405888Y6021425D01*
X-2406629Y5897219D01*
X-2371242Y5897219D01*
X-2371242Y6068060D01*
X-2365400Y6074562D01*
X-2346045Y6074562D01*
X-2344369Y6071870D01*
X-2344274Y5989828D01*
X-2316988Y5989828D01*
X-2312263Y6002934D01*
X-2310434Y6015685D01*
X-2303424Y6030874D01*
X-2293620Y6046165D01*
X-2273249Y6063742D01*
X-2250084Y6074714D01*
X-2214168Y6075984D01*
X-2198776Y6072987D01*
X-2175865Y6061456D01*
X-2159254Y6046266D01*
X-2147163Y6028131D01*
X-2145131Y6019901D01*
X-2141372Y6013704D01*
X-2137714Y5987846D01*
X-2139848Y5961380D01*
X-2144268Y5949035D01*
X-2147366Y5938926D01*
X-2156866Y5924397D01*
X-2169515Y5912104D01*
X-2181402Y5903214D01*
X-2206447Y5892292D01*
X-2246528Y5892495D01*
X-2258720Y5898997D01*
X-2265578Y5898997D01*
X-2267508Y5902096D01*
X-2279548Y5908243D01*
X-2290368Y5917742D01*
X-2304237Y5937656D01*
X-2304237Y5939840D01*
X-2310536Y5951524D01*
X-2315057Y5976772D01*
X-2316988Y5989828D01*
X-2344274Y5989828D01*
X-2344166Y5895848D01*
X-2346045Y5892850D01*
X-2365248Y5892850D01*
X-2371242Y5897219D01*
X-2406629Y5897219D01*
X-2406650Y5893612D01*
X-2420467Y5892596D01*
X-2430424Y5894476D01*
X-2433624Y5905906D01*
X-2492146Y5905906D01*
X-2492146Y5905347D01*
X-2495296Y5903366D01*
X-2499207Y5893816D01*
X-2532075Y5893155D01*
X-2539898Y5906465D01*
X-2539898Y5912154D01*
X-2544013Y5918250D01*
X-2547315Y5930544D01*
X-2555544Y5952134D01*
X-2559405Y5964428D01*
X-2564536Y5975908D01*
X-2564536Y5978296D01*
X-2573985Y6002934D01*
X-2578354Y6018326D01*
X-2617474Y6018326D01*
X-2616403Y6017869D01*
X-2598521Y6001512D01*
X-2595168Y5992164D01*
X-2589530Y5981395D01*
X-2587294Y5959043D01*
X-2591003Y5932119D01*
X-2597404Y5918250D01*
X-2617673Y5898997D01*
X-2620772Y5898997D01*
X-2633065Y5892190D01*
X-2671572Y5892038D01*
X-2679242Y5897118D01*
X-2686964Y5899404D01*
X-2698038Y5909005D01*
X-2704693Y5914339D01*
X-2704693Y5919114D01*
X-2691841Y5931306D01*
X-2690723Y5931306D01*
X-2675178Y5915914D01*
X-2669895Y5915914D01*
X-2651556Y5911138D01*
X-2629966Y5916472D01*
X-2618994Y5926734D01*
X-2613609Y5941822D01*
X-2614574Y5952134D01*
X-2707487Y5953658D01*
X-2710078Y5956249D01*
X-2738748Y5956249D01*
X-2739339Y5893612D01*
X-2759354Y5892698D01*
X-2765501Y5897219D01*
X-2800892Y5897219D01*
X-2800908Y5893612D01*
X-2814726Y5892596D01*
X-2824683Y5894476D01*
X-2827832Y5905906D01*
X-2827883Y5987034D01*
X-2859898Y5987034D01*
X-2862834Y5983325D01*
X-2868777Y5985205D01*
X-2880309Y5996432D01*
X-2891790Y6002680D01*
X-2919069Y6002324D01*
X-2925216Y5998260D01*
X-2934157Y5981395D01*
X-2923082Y5972149D01*
X-2899460Y5963412D01*
X-2885643Y5957062D01*
X-2876397Y5952490D01*
X-2861665Y5943244D01*
X-2853690Y5929680D01*
X-2854909Y5908243D01*
X-2868523Y5894425D01*
X-2879191Y5890869D01*
X-2901594Y5892596D01*
X-2918663Y5905195D01*
X-2922066Y5911545D01*
X-2920390Y5915914D01*
X-2916428Y5915914D01*
X-2907588Y5911291D01*
X-2886659Y5911291D01*
X-2878683Y5920790D01*
X-2878683Y5929985D01*
X-2886506Y5940196D01*
X-2927807Y5957874D01*
X-2932734Y5956046D01*
X-2931058Y5921451D01*
X-2934004Y5912104D01*
X-2935579Y5904280D01*
X-2949143Y5894730D01*
X-2969158Y5892647D01*
X-2974187Y5897676D01*
X-2974644Y5905906D01*
X-3182617Y5905906D01*
X-3170529Y5898337D01*
X-3148990Y5886907D01*
X-3130499Y5877763D01*
X-3090468Y5859068D01*
X-3062732Y5848299D01*
X-3053486Y5846165D01*
X-3042767Y5840476D01*
X-3035655Y5840476D01*
X-3028848Y5836158D01*
X-3014980Y5833922D01*
X-3008934Y5829706D01*
X-3001924Y5829706D01*
X-2984195Y5823762D01*
X-2970631Y5821629D01*
X-2961081Y5817717D01*
X-2941116Y5815431D01*
X-2930194Y5811570D01*
X-2907182Y5809437D01*
X-2892552Y5805220D01*
X-2865628Y5803239D01*
X-2854807Y5800394D01*
X-2800908Y5797397D01*
X-2739999Y5795924D01*
X-2737358Y5794298D01*
X-2055825Y5794248D01*
X-2048611Y5798972D01*
X-2048611Y7485735D01*
G37*
G36*
X-2381961Y7325055D02*
G01*
X-2388209Y7325004D01*
X-2404872Y7320584D01*
X-2416556Y7309154D01*
X-2421839Y7292289D01*
X-2416606Y7288479D01*
X-2352751Y7288936D01*
X-2348941Y7291374D01*
X-2348941Y7300061D01*
X-2358948Y7315047D01*
X-2375712Y7325055D01*
G37*
G36*
X-2881020Y7322870D02*
G01*
X-2893314Y7321854D01*
X-2906420Y7320280D01*
X-2916123Y7312050D01*
X-2922270Y7298131D01*
X-2923794Y7269683D01*
X-2920085Y7250988D01*
X-2914192Y7241133D01*
X-2902813Y7233412D01*
X-2877007Y7232345D01*
X-2868320Y7235952D01*
X-2859227Y7245756D01*
X-2853842Y7259624D01*
X-2852166Y7290409D01*
X-2858617Y7308900D01*
X-2872638Y7321803D01*
G37*
G36*
X-2726334Y7104837D02*
G01*
X-2743708Y7098741D01*
X-2751175Y7091730D01*
X-2754376Y7085736D01*
X-2760116Y7062876D01*
X-2760116Y7052513D01*
X-2757068Y7039406D01*
X-2755493Y7031177D01*
X-2745486Y7018070D01*
X-2734208Y7012279D01*
X-2712770Y7012228D01*
X-2695854Y7023049D01*
X-2687726Y7044944D01*
X-2687726Y7069988D01*
X-2694076Y7088682D01*
X-2701442Y7097115D01*
X-2717749Y7104583D01*
G37*
G36*
X-2348128Y6884212D02*
G01*
X-2361641Y6883095D01*
X-2372410Y6876440D01*
X-2381250Y6862470D01*
X-2381250Y6851091D01*
X-2377287Y6847789D01*
X-2316530Y6847331D01*
X-2311958Y6851091D01*
X-2311958Y6861403D01*
X-2318766Y6874611D01*
X-2321102Y6875576D01*
X-2331872Y6882892D01*
G37*
G36*
X-2215286Y6706057D02*
G01*
X-2219553Y6702501D01*
X-2219706Y6695948D01*
X-2224430Y6683654D01*
X-2228646Y6668262D01*
X-2236012Y6648196D01*
X-2244547Y6627114D01*
X-2241600Y6624218D01*
X-2192121Y6622542D01*
X-2185365Y6626148D01*
X-2187448Y6637426D01*
X-2192985Y6649770D01*
X-2199335Y6666687D01*
X-2202688Y6679641D01*
X-2205634Y6681470D01*
X-2207666Y6697014D01*
G37*
G36*
X-2592425Y6665925D02*
G01*
X-2608427Y6660743D01*
X-2617012Y6654495D01*
X-2624328Y6641388D01*
X-2626258Y6632549D01*
X-2621026Y6628180D01*
X-2557881Y6628993D01*
X-2553512Y6632600D01*
X-2555544Y6643471D01*
X-2560269Y6652818D01*
X-2569667Y6660540D01*
X-2585313Y6665620D01*
G37*
G36*
X-2178761Y6490004D02*
G01*
X-2226513Y6489039D01*
X-2242210Y6483299D01*
X-2254707Y6473393D01*
X-2262327Y6460337D01*
X-2268067Y6440322D01*
X-2267864Y6403340D01*
X-2261108Y6383324D01*
X-2249576Y6368135D01*
X-2231085Y6358686D01*
X-2173935Y6357670D01*
X-2170226Y6362141D01*
X-2171039Y6487922D01*
G37*
G36*
X-2392172Y6445707D02*
G01*
X-2404719Y6439306D01*
X-2416251Y6427927D01*
X-2418435Y6413144D01*
X-2414778Y6408724D01*
X-2350363Y6408724D01*
X-2347366Y6416649D01*
X-2349398Y6424726D01*
X-2358948Y6438341D01*
X-2374341Y6445453D01*
G37*
G36*
X-2236978Y6051448D02*
G01*
X-2254199Y6046165D01*
X-2270201Y6034532D01*
X-2277821Y6024524D01*
X-2282291Y6012180D01*
X-2287320Y5994958D01*
X-2287320Y5970625D01*
X-2282698Y5961786D01*
X-2282698Y5954318D01*
X-2275179Y5939485D01*
X-2267254Y5930036D01*
X-2253792Y5922162D01*
X-2240330Y5917692D01*
X-2223109Y5915609D01*
X-2195677Y5922518D01*
X-2191054Y5926328D01*
X-2178761Y5938367D01*
X-2169210Y5956757D01*
X-2165299Y5986373D01*
X-2168753Y6002324D01*
X-2168753Y6010046D01*
X-2176983Y6027572D01*
X-2194864Y6045149D01*
X-2206447Y6047232D01*
X-2214168Y6051346D01*
G37*
G36*
X-2634589Y6003950D02*
G01*
X-2667050Y6002934D01*
X-2679750Y5992876D01*
X-2684627Y5978499D01*
X-2684627Y5971844D01*
X-2677718Y5968796D01*
X-2619197Y5969355D01*
X-2613812Y5971692D01*
X-2613812Y5979515D01*
X-2620721Y5993384D01*
G37*
D10*
X-6422212Y3059099D02*
G01*
X-6422212Y2859100D01*
M02*
