G04 Layer: TopSolderMaskLayer*
G04 EasyEDA v6.5.54, 2026-02-11 12:30:12*
G04 eb789f6f9b4241e9a458f17a6f4b8d6f,92e600de7ff74937a4e092c024f19ce6,10*
G04 Gerber Generator version 0.2*
G04 Scale: 100 percent, Rotated: No, Reflected: No *
G04 Dimensions in millimeters *
G04 leading zeros omitted , absolute positions ,4 integer and 5 decimal *
%FSLAX45Y45*%
%MOMM*%

%ADD10C,2.4016*%
%ADD11O,2.901594X2.101596*%
%ADD12C,2.1016*%
%ADD13C,1.7016*%
%ADD14C,3.1013*%
%ADD15C,2.2032*%
%ADD16C,0.0129*%
%ADD17C,2.3876*%
%ADD18O,1.3716X2.6416*%
%ADD19O,1.39159X2.6416*%
%ADD20C,2.1020*%
%ADD21O,3.100019X1.400023*%
%ADD22O,1.500022X3.100019*%
%ADD23O,1.400023X3.100019*%

%LPD*%
D10*
G01*
X-3418867Y4353991D03*
G01*
X-3418867Y4053992D03*
G01*
X-3418867Y3753993D03*
G01*
X-1968883Y3801338D03*
G01*
X-1968883Y4301337D03*
D11*
G01*
X-2668882Y4601337D03*
G01*
X-2668882Y3501339D03*
D12*
G01*
X-6426202Y6692900D03*
G01*
X-6426202Y6946900D03*
G01*
X-6426202Y7200900D03*
G01*
X-6426202Y7454900D03*
G01*
X-6426202Y7708900D03*
G01*
X-6426202Y7962900D03*
G01*
X-6426202Y8216900D03*
G01*
X-6426202Y8470900D03*
D13*
G01*
X-1193802Y1447800D03*
G01*
X-1193802Y1193800D03*
G01*
X-1193802Y939800D03*
G01*
X-1193802Y685800D03*
G01*
X-1193802Y431800D03*
D14*
G01*
X1003297Y1460500D03*
G01*
X1003297Y457200D03*
D15*
G01*
X-924841Y1943100D03*
D17*
G01*
X815058Y2268397D03*
G01*
X815058Y2618409D03*
D15*
G01*
X-924841Y2959100D03*
G01*
X-924841Y2705100D03*
G01*
X-924841Y2451100D03*
G01*
X-924841Y2197100D03*
D13*
G01*
X-3309317Y406400D03*
G01*
X-1909269Y406400D03*
G01*
X-3309317Y2686812D03*
G01*
X-1909269Y2686812D03*
G01*
X-3056155Y2686812D03*
G01*
X-2163269Y2686812D03*
G01*
X-2164361Y405536D03*
G01*
X-3055444Y406247D03*
D18*
G01*
X-6177993Y2959100D03*
G01*
X-6376291Y2959100D03*
G01*
X-5776292Y2959100D03*
D19*
G01*
X-5976292Y2959100D03*
D12*
G01*
X-6731002Y5676900D03*
G01*
X-6731002Y5422900D03*
G01*
X-6731002Y5168900D03*
G01*
X-6731002Y4914900D03*
G01*
X-6731002Y4660900D03*
D20*
G01*
X-6731002Y4406900D03*
G01*
X-6731002Y4152900D03*
G01*
X-6731002Y3898900D03*
D12*
G01*
X-6489702Y5676900D03*
G01*
X-6489702Y5422900D03*
G01*
X-6489702Y5168900D03*
G01*
X-6489702Y4914900D03*
G01*
X-6489702Y4660900D03*
D20*
G01*
X-6489702Y4406900D03*
G01*
X-6489702Y4152900D03*
G01*
X-6489702Y3898900D03*
D13*
G01*
X-6293563Y4047286D03*
G01*
X-5593615Y4047286D03*
G01*
X-6293563Y3547313D03*
G01*
X-5593615Y3547313D03*
D12*
G01*
X-671934Y4428312D03*
G01*
X-671934Y4178325D03*
G01*
X-671934Y3928313D03*
G01*
X778050Y3928313D03*
G01*
X778050Y4428312D03*
D11*
G01*
X78051Y4728311D03*
G01*
X78051Y3628313D03*
D12*
G01*
X-674194Y8441486D03*
G01*
X-674194Y8191500D03*
G01*
X-674194Y7941487D03*
G01*
X775789Y7941487D03*
G01*
X775789Y8441486D03*
D11*
G01*
X75791Y8741486D03*
G01*
X75791Y7641488D03*
D12*
G01*
X-661494Y6371412D03*
G01*
X-661494Y6121425D03*
G01*
X-661494Y5871413D03*
G01*
X788489Y5871413D03*
G01*
X788489Y6371412D03*
D11*
G01*
X88491Y6671411D03*
G01*
X88491Y5571413D03*
D13*
G01*
X-3659304Y917117D03*
G01*
X-3659304Y1172159D03*
G01*
X-3659304Y1427200D03*
G01*
X-3659304Y5252999D03*
G01*
X-3659304Y2702458D03*
G01*
X-3659304Y3722674D03*
G01*
X-3659304Y4232782D03*
G01*
X-3659304Y2447417D03*
G01*
X-3659304Y4487824D03*
G01*
X-3659304Y3977741D03*
G01*
X-3659304Y3467633D03*
G01*
X-3659304Y5508040D03*
G01*
X-3659304Y4997932D03*
G01*
X-3659304Y2957525D03*
G01*
X-3659304Y1937308D03*
G01*
X-3659304Y1682267D03*
G01*
X-3659304Y2192375D03*
G01*
X-3659304Y5763107D03*
G01*
X-3659304Y3212566D03*
G01*
X-3659304Y4742891D03*
G01*
X-5205300Y4742891D03*
G01*
X-5205300Y3212566D03*
G01*
X-5205300Y5763107D03*
G01*
X-5205300Y2192375D03*
G01*
X-5205300Y1682267D03*
G01*
X-5205300Y1937308D03*
G01*
X-5205300Y2957525D03*
G01*
X-5205300Y4997932D03*
G01*
X-5205300Y5508040D03*
G01*
X-5205300Y3467633D03*
G01*
X-5205300Y3977741D03*
G01*
X-5205300Y4487824D03*
G01*
X-5205300Y2447417D03*
G01*
X-5205300Y4232782D03*
G01*
X-5205300Y3722674D03*
G01*
X-5205300Y2702458D03*
G01*
X-5205300Y5252999D03*
G01*
X-5205300Y1427200D03*
G01*
X-5205300Y1172159D03*
G01*
X-5205300Y917117D03*
D21*
G01*
X-6349443Y1699691D03*
D22*
G01*
X-5639437Y1749704D03*
D21*
G01*
X-6079441Y2419705D03*
G01*
X-5979441Y2679700D03*
D23*
G01*
X-6769432Y2159711D03*
D21*
G01*
X-6350002Y342900D03*
D22*
G01*
X-5651502Y393700D03*
D21*
G01*
X-6080000Y1062913D03*
G01*
X-5980000Y1322908D03*
D23*
G01*
X-6769991Y802919D03*
M02*
