G04 Layer: TopSilkscreenLayer*
G04 EasyEDA v6.5.54, 2026-02-11 12:30:12*
G04 eb789f6f9b4241e9a458f17a6f4b8d6f,92e600de7ff74937a4e092c024f19ce6,10*
G04 Gerber Generator version 0.2*
G04 Scale: 100 percent, Rotated: No, Reflected: No *
G04 Dimensions in millimeters *
G04 leading zeros omitted , absolute positions ,4 integer and 5 decimal *
%FSLAX45Y45*%
%MOMM*%

%ADD10C,0.2032*%
%ADD11C,0.1524*%
%ADD12C,0.1219*%
%ADD13C,0.1905*%
%ADD14C,0.2540*%
%ADD15C,0.8000*%
%ADD16C,0.3048*%
%ADD17C,0.0153*%
%ADD18C,0.1270*%
%ADD19C,0.2000*%

%LPD*%
G36*
X-3743655Y7292898D02*
G01*
X-3749294Y7286701D01*
X-3752951Y7278928D01*
X-3752951Y6775856D01*
X-3751326Y6772808D01*
X-3744315Y6768388D01*
X-3517239Y6768388D01*
X-3490620Y6771386D01*
X-3483051Y6771436D01*
X-3470148Y6776770D01*
X-3461918Y6779717D01*
X-3438550Y6784238D01*
X-3431438Y6787337D01*
X-3425698Y6791909D01*
X-3417620Y6795465D01*
X-3410915Y6797243D01*
X-3404870Y6800342D01*
X-3397250Y6807352D01*
X-3382822Y6814718D01*
X-3371291Y6825437D01*
X-3365093Y6829501D01*
X-3358946Y6837832D01*
X-3353206Y6841998D01*
X-3348888Y6845858D01*
X-3345789Y6851853D01*
X-3337051Y6860997D01*
X-3332479Y6870039D01*
X-3328720Y6878370D01*
X-3321608Y6885178D01*
X-3319373Y6889343D01*
X-3315563Y6902551D01*
X-3312058Y6910120D01*
X-3308096Y6915861D01*
X-3304997Y6924090D01*
X-3301898Y6940346D01*
X-3297377Y6959498D01*
X-3293668Y6967778D01*
X-3291332Y6976821D01*
X-3291332Y6990943D01*
X-3289046Y7004558D01*
X-3289046Y7051446D01*
X-3291382Y7077862D01*
X-3293516Y7093000D01*
X-3300476Y7113422D01*
X-3305606Y7139838D01*
X-3308705Y7148575D01*
X-3312668Y7153300D01*
X-3315411Y7158736D01*
X-3318865Y7169353D01*
X-3322421Y7176363D01*
X-3328568Y7183475D01*
X-3331362Y7188962D01*
X-3333343Y7195007D01*
X-3342690Y7204100D01*
X-3348177Y7212431D01*
X-3367024Y7231329D01*
X-3377031Y7240473D01*
X-3385870Y7245197D01*
X-3394049Y7253478D01*
X-3405632Y7258405D01*
X-3420008Y7268006D01*
X-3442817Y7274915D01*
X-3453434Y7280605D01*
X-3463290Y7283703D01*
X-3467100Y7284618D01*
X-3504336Y7288428D01*
X-3518712Y7290714D01*
X-3528314Y7292898D01*
G37*
G36*
X-2747873Y7292898D02*
G01*
X-2834640Y7292848D01*
X-2848203Y7288326D01*
X-2850184Y7286701D01*
X-2853994Y7278624D01*
X-2853994Y6775551D01*
X-2851353Y6772452D01*
X-2848813Y6770573D01*
X-2835402Y6768388D01*
X-2747264Y6768388D01*
X-2740202Y6772808D01*
X-2738577Y6775856D01*
X-2738628Y7278928D01*
X-2742234Y7286701D01*
G37*
G36*
X-2574798Y7292898D02*
G01*
X-2661513Y7292848D01*
X-2675077Y7288326D01*
X-2677058Y7286701D01*
X-2680919Y7278624D01*
X-2680919Y7205878D01*
X-2677058Y7197852D01*
X-2675077Y7196226D01*
X-2661005Y7191654D01*
X-2574798Y7191654D01*
X-2569159Y7197852D01*
X-2565501Y7205624D01*
X-2565501Y7278928D01*
X-2569159Y7286701D01*
G37*
G36*
X-3098850Y7158228D02*
G01*
X-3127705Y7155586D01*
X-3139287Y7152386D01*
X-3157880Y7143242D01*
X-3168599Y7140092D01*
X-3172510Y7137653D01*
X-3179572Y7131253D01*
X-3195167Y7123480D01*
X-3204260Y7113727D01*
X-3212744Y7108596D01*
X-3218484Y7098842D01*
X-3227374Y7089698D01*
X-3235045Y7074865D01*
X-3242106Y7068058D01*
X-3244443Y7063587D01*
X-3248660Y7046620D01*
X-3253333Y7038594D01*
X-3257092Y7031024D01*
X-3259480Y7021931D01*
X-3260720Y7005370D01*
X-3157016Y7005370D01*
X-3154781Y7011670D01*
X-3147212Y7025741D01*
X-3144113Y7035901D01*
X-3141522Y7040829D01*
X-3129330Y7054138D01*
X-3118307Y7059371D01*
X-3113278Y7063638D01*
X-3108502Y7066940D01*
X-3096564Y7069937D01*
X-3051810Y7069429D01*
X-3040938Y7065619D01*
X-3028797Y7057136D01*
X-3021431Y7053986D01*
X-3017875Y7050684D01*
X-3012744Y7040067D01*
X-3004667Y7029450D01*
X-3001467Y7019696D01*
X-2999587Y7005066D01*
X-3002432Y7001357D01*
X-3007360Y6998157D01*
X-3138525Y6998157D01*
X-3152038Y7000494D01*
X-3157016Y7005370D01*
X-3260720Y7005370D01*
X-3261004Y7001560D01*
X-3262477Y6992467D01*
X-3262477Y6931863D01*
X-3259480Y6902246D01*
X-3257092Y6890461D01*
X-3246678Y6868515D01*
X-3244138Y6859524D01*
X-3241141Y6853732D01*
X-3235909Y6847890D01*
X-3227527Y6830415D01*
X-3220364Y6825081D01*
X-3213404Y6815632D01*
X-3205175Y6809384D01*
X-3198266Y6800494D01*
X-3185617Y6794093D01*
X-3179775Y6788861D01*
X-3174034Y6785051D01*
X-3157372Y6778904D01*
X-3147974Y6772808D01*
X-3139948Y6769811D01*
X-3120136Y6767017D01*
X-3107740Y6765950D01*
X-3095091Y6761327D01*
X-3057093Y6760667D01*
X-3038144Y6762496D01*
X-3026714Y6765239D01*
X-2992577Y6770065D01*
X-2985719Y6772656D01*
X-2976372Y6778752D01*
X-2960116Y6784441D01*
X-2950057Y6793839D01*
X-2934563Y6801764D01*
X-2929432Y6808825D01*
X-2921406Y6815632D01*
X-2910586Y6827520D01*
X-2904134Y6831939D01*
X-2904134Y6848348D01*
X-2911348Y6853529D01*
X-2918155Y6861556D01*
X-2922625Y6865518D01*
X-2935630Y6878726D01*
X-2946247Y6889038D01*
X-2950260Y6893458D01*
X-2958287Y6900265D01*
X-2963468Y6907479D01*
X-2965297Y6907479D01*
X-2978150Y6899249D01*
X-2983077Y6895236D01*
X-2987903Y6886143D01*
X-2995320Y6879844D01*
X-3004007Y6871411D01*
X-3014726Y6867347D01*
X-3024428Y6860540D01*
X-3035858Y6856984D01*
X-3050184Y6854545D01*
X-3080816Y6854545D01*
X-3094329Y6856882D01*
X-3103422Y6861302D01*
X-3121914Y6872528D01*
X-3140913Y6891426D01*
X-3145790Y6901027D01*
X-3149346Y6911492D01*
X-3153867Y6919417D01*
X-3148990Y6924294D01*
X-3140608Y6928256D01*
X-2905963Y6929018D01*
X-2901848Y6931659D01*
X-2899664Y6935063D01*
X-2896463Y6951675D01*
X-2893568Y6964527D01*
X-2891790Y6981901D01*
X-2892501Y6991705D01*
X-2895803Y7002322D01*
X-2897276Y7019696D01*
X-2899664Y7034784D01*
X-2902000Y7046163D01*
X-2904185Y7051344D01*
X-2910230Y7059168D01*
X-2913126Y7068058D01*
X-2916428Y7079284D01*
X-2925165Y7088479D01*
X-2930194Y7098030D01*
X-2957931Y7125665D01*
X-2969006Y7131456D01*
X-2975864Y7137755D01*
X-2979521Y7139635D01*
X-2995422Y7144816D01*
X-3002432Y7148626D01*
X-3008528Y7152284D01*
X-3019145Y7154722D01*
X-3044952Y7157872D01*
G37*
G36*
X-2377592Y7158228D02*
G01*
X-2407615Y7155484D01*
X-2419350Y7153148D01*
X-2433015Y7146290D01*
X-2439060Y7144207D01*
X-2455519Y7140143D01*
X-2462631Y7137095D01*
X-2470200Y7131303D01*
X-2478532Y7128002D01*
X-2489200Y7122718D01*
X-2496769Y7115454D01*
X-2506218Y7110780D01*
X-2515006Y7101331D01*
X-2522220Y7096455D01*
X-2526385Y7090156D01*
X-2535682Y7080148D01*
X-2537256Y7077151D01*
X-2534920Y7072579D01*
X-2528417Y7065619D01*
X-2523845Y7056577D01*
X-2518206Y7049160D01*
X-2512618Y7043064D01*
X-2506929Y7031024D01*
X-2498801Y7022693D01*
X-2493416Y7012127D01*
X-2489200Y7007199D01*
X-2475788Y7002678D01*
X-2472944Y7002678D01*
X-2468372Y7009231D01*
X-2459837Y7017054D01*
X-2458618Y7017054D01*
X-2452370Y7025081D01*
X-2445156Y7030161D01*
X-2435047Y7039508D01*
X-2427681Y7042200D01*
X-2419807Y7045604D01*
X-2411730Y7051649D01*
X-2405684Y7054189D01*
X-2373020Y7060946D01*
X-2359355Y7062520D01*
X-2337308Y7057186D01*
X-2329738Y7056170D01*
X-2321712Y7052462D01*
X-2312517Y7041591D01*
X-2309418Y7035596D01*
X-2307336Y7021931D01*
X-2307336Y7018375D01*
X-2313889Y7011873D01*
X-2318359Y7010857D01*
X-2328519Y7007809D01*
X-2336190Y7002018D01*
X-2344166Y6999122D01*
X-2359355Y6996430D01*
X-2367686Y6992061D01*
X-2373782Y6987540D01*
X-2397912Y6981545D01*
X-2414371Y6973265D01*
X-2439822Y6965696D01*
X-2447290Y6960717D01*
X-2452725Y6957364D01*
X-2462631Y6954113D01*
X-2468067Y6951370D01*
X-2476195Y6944461D01*
X-2491079Y6936841D01*
X-2497277Y6928713D01*
X-2504440Y6924090D01*
X-2507640Y6920687D01*
X-2512466Y6910425D01*
X-2518460Y6903516D01*
X-2521305Y6897979D01*
X-2523642Y6889699D01*
X-2525574Y6876389D01*
X-2419197Y6876389D01*
X-2412949Y6884466D01*
X-2409799Y6891477D01*
X-2403094Y6897370D01*
X-2396540Y6899300D01*
X-2390546Y6902348D01*
X-2382875Y6908038D01*
X-2377186Y6910374D01*
X-2362809Y6914184D01*
X-2346299Y6923278D01*
X-2327859Y6928561D01*
X-2321407Y6931863D01*
X-2316124Y6936181D01*
X-2314397Y6936181D01*
X-2310333Y6932422D01*
X-2307336Y6925411D01*
X-2305761Y6919163D01*
X-2308707Y6889597D01*
X-2312517Y6882130D01*
X-2316632Y6878370D01*
X-2322576Y6869633D01*
X-2331923Y6859727D01*
X-2339136Y6856069D01*
X-2356154Y6851446D01*
X-2357628Y6850583D01*
X-2372258Y6847738D01*
X-2387701Y6847738D01*
X-2402636Y6851700D01*
X-2407158Y6853986D01*
X-2415844Y6860641D01*
X-2417368Y6866280D01*
X-2419197Y6876389D01*
X-2525574Y6876389D01*
X-2526385Y6870801D01*
X-2526385Y6838289D01*
X-2523642Y6819392D01*
X-2521305Y6811111D01*
X-2518410Y6805472D01*
X-2509875Y6795973D01*
X-2504643Y6788150D01*
X-2496769Y6782917D01*
X-2486152Y6773519D01*
X-2480310Y6770573D01*
X-2460345Y6765493D01*
X-2445918Y6761276D01*
X-2402840Y6760768D01*
X-2393188Y6764629D01*
X-2370937Y6769963D01*
X-2366924Y6772452D01*
X-2360117Y6778650D01*
X-2348738Y6784898D01*
X-2343099Y6789166D01*
X-2331262Y6804355D01*
X-2325420Y6810349D01*
X-2322576Y6815836D01*
X-2319578Y6823760D01*
X-2315514Y6829552D01*
X-2306929Y6825234D01*
X-2300833Y6818630D01*
X-2297582Y6813346D01*
X-2294280Y6803542D01*
X-2291181Y6798462D01*
X-2283206Y6793382D01*
X-2277364Y6785965D01*
X-2272792Y6782968D01*
X-2266696Y6781038D01*
X-2259634Y6777481D01*
X-2258568Y6775805D01*
X-2251862Y6772960D01*
X-2242413Y6770522D01*
X-2224938Y6768439D01*
X-2170734Y6768388D01*
X-2163470Y6770776D01*
X-2156256Y6775348D01*
X-2156256Y6847027D01*
X-2158847Y6851142D01*
X-2163114Y6856679D01*
X-2171141Y6862013D01*
X-2185466Y6864705D01*
X-2191004Y6869023D01*
X-2195525Y6875322D01*
X-2199538Y6890207D01*
X-2199538Y7032244D01*
X-2204059Y7054443D01*
X-2208428Y7078725D01*
X-2211730Y7085126D01*
X-2216810Y7090714D01*
X-2220010Y7097014D01*
X-2223871Y7107224D01*
X-2225700Y7109459D01*
X-2233676Y7115302D01*
X-2239873Y7123684D01*
X-2246071Y7127748D01*
X-2257755Y7138771D01*
X-2276297Y7144918D01*
X-2287219Y7152284D01*
X-2297836Y7154722D01*
X-2323642Y7157872D01*
G37*
G36*
X-2575001Y7153808D02*
G01*
X-2663037Y7153706D01*
X-2675890Y7150811D01*
X-2677871Y7148880D01*
X-2680868Y7135317D01*
X-2680868Y6775551D01*
X-2678226Y6772452D01*
X-2675686Y6770573D01*
X-2662275Y6768388D01*
X-2574137Y6768388D01*
X-2567127Y6772808D01*
X-2565501Y6775856D01*
X-2565501Y7135774D01*
X-2567889Y7147407D01*
X-2570124Y7150912D01*
G37*
G36*
X-2632760Y6732981D02*
G01*
X-2638501Y6726631D01*
X-2642158Y6718909D01*
X-2642158Y6689344D01*
X-2592019Y6689344D01*
X-2589479Y6692138D01*
X-2587548Y6689547D01*
X-2589174Y6687566D01*
X-2592019Y6689344D01*
X-2642158Y6689344D01*
X-2642158Y6646164D01*
X-2639212Y6642404D01*
X-2632456Y6638848D01*
X-2625090Y6643370D01*
X-2622550Y6648602D01*
X-2620010Y6660286D01*
X-2623870Y6669836D01*
X-2624886Y6675983D01*
X-2620721Y6685178D01*
X-2618130Y6687515D01*
X-2611424Y6683146D01*
X-2604008Y6675526D01*
X-2616281Y6661048D01*
X-2593848Y6661048D01*
X-2590292Y6664858D01*
X-2589326Y6664858D01*
X-2585262Y6660642D01*
X-2589225Y6654038D01*
X-2591968Y6657644D01*
X-2593848Y6661048D01*
X-2616281Y6661048D01*
X-2616454Y6660845D01*
X-2615539Y6657644D01*
X-2613050Y6646316D01*
X-2609951Y6642811D01*
X-2604770Y6639661D01*
X-2578455Y6642404D01*
X-2559862Y6641490D01*
X-2545638Y6644538D01*
X-2542184Y6642303D01*
X-2532583Y6639153D01*
X-2516936Y6639153D01*
X-2509672Y6641541D01*
X-2502712Y6645960D01*
X-2498801Y6653123D01*
X-2496515Y6660946D01*
X-2499563Y6666738D01*
X-2507792Y6674459D01*
X-2506827Y6679590D01*
X-2503932Y6684873D01*
X-2500934Y6689547D01*
X-2509164Y6697065D01*
X-2510942Y6703771D01*
X-2513482Y6706565D01*
X-2517597Y6708698D01*
X-2531973Y6708698D01*
X-2538526Y6705853D01*
X-2544064Y6701485D01*
X-2548483Y6699097D01*
X-2554732Y6689801D01*
X-2552598Y6680657D01*
X-2550312Y6676288D01*
X-2548839Y6675374D01*
X-2554325Y6668262D01*
X-2557985Y6660540D01*
X-2535123Y6660540D01*
X-2532583Y6663334D01*
X-2530602Y6663334D01*
X-2524201Y6660794D01*
X-2530195Y6658152D01*
X-2532329Y6658051D01*
X-2535123Y6660540D01*
X-2557985Y6660540D01*
X-2558745Y6658914D01*
X-2560828Y6657187D01*
X-2562961Y6661454D01*
X-2565501Y6673545D01*
X-2566720Y6691680D01*
X-2571597Y6701485D01*
X-2575001Y6705650D01*
X-2589072Y6708698D01*
X-2603855Y6707733D01*
X-2608884Y6704533D01*
X-2612491Y6697522D01*
X-2618028Y6691680D01*
X-2620314Y6694678D01*
X-2623362Y6701485D01*
X-2626207Y6721551D01*
X-2630017Y6729475D01*
G37*
G36*
X-3094482Y6732930D02*
G01*
X-3097682Y6724192D01*
X-3099257Y6718147D01*
X-3099257Y6702907D01*
X-3105810Y6689394D01*
X-3103880Y6684873D01*
X-3101390Y6674307D01*
X-3105404Y6661454D01*
X-3105454Y6659930D01*
X-3101797Y6645554D01*
X-3095498Y6639153D01*
X-3093364Y6639153D01*
X-3085947Y6644081D01*
X-3084220Y6650126D01*
X-3081629Y6675780D01*
X-3084830Y6693204D01*
X-3087878Y6704177D01*
X-3087878Y6718452D01*
X-3091434Y6727952D01*
G37*
G36*
X-2762656Y6732930D02*
G01*
X-2767330Y6725666D01*
X-2770632Y6715455D01*
X-2775458Y6708292D01*
X-2792882Y6708292D01*
X-2797200Y6706412D01*
X-2807106Y6699351D01*
X-2811373Y6693509D01*
X-2812999Y6685940D01*
X-2812999Y6674866D01*
X-2796235Y6674866D01*
X-2793238Y6680708D01*
X-2783027Y6688175D01*
X-2777032Y6695338D01*
X-2772105Y6685076D01*
X-2769565Y6674307D01*
X-2772714Y6661099D01*
X-2776728Y6655053D01*
X-2781503Y6658356D01*
X-2793238Y6668871D01*
X-2796235Y6674866D01*
X-2812999Y6674866D01*
X-2812999Y6659829D01*
X-2809189Y6652259D01*
X-2797454Y6641947D01*
X-2792120Y6639712D01*
X-2776067Y6640728D01*
X-2762199Y6638950D01*
X-2755290Y6643014D01*
X-2752750Y6646875D01*
X-2752953Y6718808D01*
X-2757474Y6727952D01*
G37*
G36*
X-3715054Y6732625D02*
G01*
X-3715867Y6731355D01*
X-3721455Y6728510D01*
X-3729482Y6726834D01*
X-3734358Y6724345D01*
X-3747719Y6710984D01*
X-3750564Y6704533D01*
X-3752392Y6688581D01*
X-3750564Y6669735D01*
X-3748582Y6659270D01*
X-3743299Y6654647D01*
X-3736238Y6650532D01*
X-3732072Y6643573D01*
X-3729024Y6639864D01*
X-3715054Y6637832D01*
X-3694887Y6641236D01*
X-3685794Y6644436D01*
X-3680510Y6650837D01*
X-3671163Y6660540D01*
X-3666439Y6657187D01*
X-3653536Y6651193D01*
X-3650843Y6647332D01*
X-3646424Y6642100D01*
X-3642512Y6640068D01*
X-3627272Y6639001D01*
X-3613658Y6642252D01*
X-3609492Y6646214D01*
X-3609492Y6659727D01*
X-3603955Y6674307D01*
X-3604920Y6689801D01*
X-3608171Y6696202D01*
X-3612692Y6701790D01*
X-3625596Y6708292D01*
X-3641953Y6708800D01*
X-3646525Y6706412D01*
X-3652367Y6699351D01*
X-3660038Y6695998D01*
X-3661918Y6693712D01*
X-3663099Y6689496D01*
X-3633876Y6689496D01*
X-3628186Y6694474D01*
X-3625443Y6690918D01*
X-3625392Y6689242D01*
X-3628288Y6686651D01*
X-3633876Y6689496D01*
X-3663099Y6689496D01*
X-3670147Y6663283D01*
X-3671468Y6660946D01*
X-3673601Y6665975D01*
X-3678834Y6671767D01*
X-3685895Y6675323D01*
X-3700373Y6660845D01*
X-3639870Y6660845D01*
X-3628847Y6665468D01*
X-3625799Y6664706D01*
X-3619957Y6660946D01*
X-3623360Y6657340D01*
X-3628288Y6655714D01*
X-3636721Y6658660D01*
X-3639870Y6660845D01*
X-3700373Y6660845D01*
X-3700830Y6660388D01*
X-3714597Y6657340D01*
X-3732987Y6674358D01*
X-3733952Y6689902D01*
X-3730091Y6701993D01*
X-3724910Y6707733D01*
X-3714953Y6712559D01*
X-3699764Y6711492D01*
X-3693363Y6707225D01*
X-3688130Y6699503D01*
X-3685336Y6698030D01*
X-3671417Y6701993D01*
X-3668572Y6703517D01*
X-3675430Y6710781D01*
X-3677056Y6717385D01*
X-3679139Y6721144D01*
X-3685336Y6725920D01*
X-3691839Y6726986D01*
X-3699459Y6730034D01*
G37*
G36*
X-2431034Y6732524D02*
G01*
X-2436266Y6725666D01*
X-2439365Y6720382D01*
X-2442616Y6711696D01*
X-2446070Y6707530D01*
X-2450134Y6699605D01*
X-2452752Y6689648D01*
X-2433624Y6689648D01*
X-2431034Y6693611D01*
X-2426614Y6690461D01*
X-2425852Y6689293D01*
X-2430830Y6684467D01*
X-2433624Y6689648D01*
X-2452752Y6689648D01*
X-2455367Y6679946D01*
X-2457754Y6675323D01*
X-2462834Y6668668D01*
X-2465832Y6660692D01*
X-2468473Y6645859D01*
X-2464917Y6642100D01*
X-2459837Y6638950D01*
X-2456332Y6640525D01*
X-2451049Y6645148D01*
X-2448560Y6651701D01*
X-2430881Y6667957D01*
X-2415946Y6666230D01*
X-2411628Y6661810D01*
X-2404364Y6645097D01*
X-2400960Y6642912D01*
X-2387447Y6640017D01*
X-2372614Y6639001D01*
X-2365857Y6642963D01*
X-2363520Y6646265D01*
X-2363520Y6674967D01*
X-2360422Y6681368D01*
X-2357983Y6683349D01*
X-2328773Y6683857D01*
X-2323236Y6678980D01*
X-2321458Y6675780D01*
X-2321220Y6673443D01*
X-2300528Y6673443D01*
X-2300528Y6676898D01*
X-2296566Y6688632D01*
X-2293315Y6692239D01*
X-2286457Y6696659D01*
X-2280361Y6696202D01*
X-2279920Y6689344D01*
X-2248103Y6689344D01*
X-2243226Y6694373D01*
X-2240534Y6690918D01*
X-2240534Y6689242D01*
X-2243480Y6686600D01*
X-2248103Y6689344D01*
X-2279920Y6689344D01*
X-2279192Y6678828D01*
X-2280005Y6669989D01*
X-2282799Y6663690D01*
X-2286000Y6660896D01*
X-2253488Y6660896D01*
X-2248357Y6664045D01*
X-2243277Y6666179D01*
X-2239264Y6664807D01*
X-2234082Y6660489D01*
X-2236927Y6657340D01*
X-2243378Y6654901D01*
X-2251049Y6658203D01*
X-2253488Y6660896D01*
X-2286000Y6660896D01*
X-2289606Y6661759D01*
X-2296007Y6666433D01*
X-2300528Y6673443D01*
X-2321220Y6673443D01*
X-2319731Y6658813D01*
X-2315311Y6652615D01*
X-2309876Y6644081D01*
X-2301646Y6639052D01*
X-2286457Y6640068D01*
X-2280259Y6643573D01*
X-2278278Y6645960D01*
X-2275840Y6650837D01*
X-2271826Y6653022D01*
X-2267864Y6650431D01*
X-2264105Y6644538D01*
X-2257602Y6640779D01*
X-2242413Y6639001D01*
X-2228850Y6642201D01*
X-2224024Y6645859D01*
X-2222246Y6655053D01*
X-2216759Y6665214D01*
X-2214118Y6671970D01*
X-2210581Y6660946D01*
X-2191258Y6660946D01*
X-2185619Y6664756D01*
X-2181199Y6662216D01*
X-2179777Y6660540D01*
X-2185365Y6656578D01*
X-2189784Y6659168D01*
X-2191258Y6660946D01*
X-2210581Y6660946D01*
X-2205431Y6646316D01*
X-2202180Y6642811D01*
X-2199335Y6641287D01*
X-2186228Y6639153D01*
X-2174087Y6639204D01*
X-2168144Y6640575D01*
X-2161946Y6644894D01*
X-2157984Y6653123D01*
X-2153970Y6659016D01*
X-2153970Y6661759D01*
X-2162403Y6670344D01*
X-2164638Y6674612D01*
X-2162149Y6689496D01*
X-2167788Y6703771D01*
X-2170633Y6706666D01*
X-2184704Y6708698D01*
X-2199132Y6706971D01*
X-2201570Y6705752D01*
X-2211476Y6689902D01*
X-2211630Y6689090D01*
X-2188362Y6689090D01*
X-2185720Y6694678D01*
X-2181098Y6689496D01*
X-2184501Y6686753D01*
X-2186432Y6686753D01*
X-2188362Y6689090D01*
X-2211630Y6689090D01*
X-2213305Y6680250D01*
X-2214422Y6678422D01*
X-2217115Y6689801D01*
X-2223770Y6698488D01*
X-2228799Y6704177D01*
X-2240127Y6708292D01*
X-2257602Y6707886D01*
X-2262174Y6704634D01*
X-2267813Y6698284D01*
X-2272182Y6696506D01*
X-2279650Y6696964D01*
X-2280056Y6703974D01*
X-2283561Y6707174D01*
X-2296109Y6712356D01*
X-2300986Y6716115D01*
X-2315565Y6714896D01*
X-2324404Y6708952D01*
X-2329891Y6705650D01*
X-2344064Y6708749D01*
X-2358644Y6705650D01*
X-2372715Y6708698D01*
X-2375814Y6706565D01*
X-2377948Y6703466D01*
X-2379522Y6695440D01*
X-2381707Y6672021D01*
X-2385517Y6660896D01*
X-2387244Y6658813D01*
X-2388768Y6659727D01*
X-2391511Y6665975D01*
X-2396337Y6685584D01*
X-2400604Y6695033D01*
X-2404567Y6700164D01*
X-2408377Y6711340D01*
X-2410663Y6720179D01*
X-2414168Y6725716D01*
X-2416657Y6727748D01*
G37*
G36*
X-3312210Y6730593D02*
G01*
X-3317544Y6727444D01*
X-3321862Y6723430D01*
X-3325520Y6717792D01*
X-3325520Y6689344D01*
X-3212338Y6689344D01*
X-3209747Y6692138D01*
X-3207867Y6689547D01*
X-3209442Y6687566D01*
X-3212338Y6689344D01*
X-3325520Y6689344D01*
X-3325520Y6646113D01*
X-3316782Y6643014D01*
X-3310788Y6641439D01*
X-3308400Y6643217D01*
X-3305810Y6646316D01*
X-3305708Y6665975D01*
X-3304540Y6676186D01*
X-3301441Y6680352D01*
X-3296462Y6683705D01*
X-3292348Y6680809D01*
X-3286251Y6668262D01*
X-3279292Y6661556D01*
X-3270910Y6645554D01*
X-3267405Y6642353D01*
X-3253282Y6641439D01*
X-3247593Y6644335D01*
X-3245916Y6646316D01*
X-3243376Y6656171D01*
X-3241294Y6661048D01*
X-3242767Y6661912D01*
X-3245612Y6667500D01*
X-3247948Y6675272D01*
X-3243732Y6684111D01*
X-3238855Y6687616D01*
X-3232505Y6683857D01*
X-3224276Y6675526D01*
X-3236600Y6661048D01*
X-3214166Y6661048D01*
X-3210610Y6664858D01*
X-3209645Y6664858D01*
X-3205581Y6660642D01*
X-3209544Y6654038D01*
X-3212287Y6657644D01*
X-3214166Y6661048D01*
X-3236600Y6661048D01*
X-3236772Y6660845D01*
X-3235858Y6657644D01*
X-3233369Y6646316D01*
X-3230219Y6642811D01*
X-3225088Y6639661D01*
X-3198723Y6642404D01*
X-3180588Y6641490D01*
X-3175711Y6644792D01*
X-3174441Y6647078D01*
X-3172256Y6652666D01*
X-3166211Y6654444D01*
X-3162655Y6652006D01*
X-3157321Y6644131D01*
X-3152444Y6640830D01*
X-3137154Y6638950D01*
X-3123031Y6642201D01*
X-3118459Y6647078D01*
X-3111906Y6661048D01*
X-3115564Y6665061D01*
X-3122930Y6670903D01*
X-3127552Y6667601D01*
X-3132277Y6660692D01*
X-3137103Y6655714D01*
X-3142894Y6658102D01*
X-3146145Y6661200D01*
X-3151835Y6674713D01*
X-3150260Y6678066D01*
X-3138779Y6693458D01*
X-3137204Y6694424D01*
X-3134563Y6689598D01*
X-3130804Y6685025D01*
X-3123438Y6679234D01*
X-3120644Y6680708D01*
X-3112160Y6688429D01*
X-3112160Y6689902D01*
X-3120491Y6700723D01*
X-3123539Y6704279D01*
X-3134563Y6708292D01*
X-3152038Y6707936D01*
X-3157321Y6701790D01*
X-3164281Y6694678D01*
X-3171748Y6690156D01*
X-3175152Y6678269D01*
X-3176778Y6665214D01*
X-3178200Y6659727D01*
X-3180638Y6657695D01*
X-3182518Y6660235D01*
X-3185820Y6673646D01*
X-3187039Y6691680D01*
X-3191916Y6701485D01*
X-3195269Y6705650D01*
X-3209391Y6708698D01*
X-3224123Y6707733D01*
X-3229203Y6704533D01*
X-3232353Y6698488D01*
X-3236163Y6693509D01*
X-3239109Y6691934D01*
X-3242767Y6695389D01*
X-3246526Y6703009D01*
X-3248202Y6718147D01*
X-3250438Y6724192D01*
X-3253130Y6727748D01*
X-3259836Y6724396D01*
X-3267811Y6718300D01*
X-3267811Y6697522D01*
X-3270199Y6696608D01*
X-3282035Y6696608D01*
X-3285642Y6699453D01*
X-3292043Y6712102D01*
X-3309670Y6730593D01*
G37*
G36*
X-2863748Y6727596D02*
G01*
X-2866694Y6722668D01*
X-2868320Y6718147D01*
X-2869133Y6694678D01*
X-2871368Y6671259D01*
X-2874467Y6661353D01*
X-2878175Y6657898D01*
X-2879648Y6660692D01*
X-2882849Y6673545D01*
X-2884068Y6691680D01*
X-2888945Y6701485D01*
X-2892348Y6705650D01*
X-2906471Y6708698D01*
X-2921203Y6707733D01*
X-2926232Y6704533D01*
X-2929890Y6697522D01*
X-2935224Y6691884D01*
X-2939440Y6695135D01*
X-2947771Y6700875D01*
X-2959150Y6707022D01*
X-2964688Y6708749D01*
X-2978861Y6705650D01*
X-2992983Y6708698D01*
X-2997149Y6706565D01*
X-2999994Y6703415D01*
X-3002788Y6693255D01*
X-3006039Y6675120D01*
X-3003651Y6660692D01*
X-3002737Y6645554D01*
X-2997301Y6640017D01*
X-2992983Y6638188D01*
X-2989173Y6640677D01*
X-2986481Y6644741D01*
X-2985566Y6676542D01*
X-2982214Y6684975D01*
X-2978658Y6689394D01*
X-2909366Y6689344D01*
X-2906826Y6692138D01*
X-2904896Y6689547D01*
X-2906522Y6687566D01*
X-2909366Y6689344D01*
X-2978500Y6689344D01*
X-2965399Y6685076D01*
X-2961944Y6681368D01*
X-2959557Y6674408D01*
X-2959557Y6646164D01*
X-2956610Y6642404D01*
X-2949803Y6638848D01*
X-2942437Y6643370D01*
X-2939897Y6648602D01*
X-2937408Y6660286D01*
X-2941269Y6669836D01*
X-2942285Y6676136D01*
X-2939694Y6682587D01*
X-2935884Y6687566D01*
X-2930042Y6684264D01*
X-2921355Y6675526D01*
X-2933677Y6661048D01*
X-2911195Y6661048D01*
X-2907639Y6664858D01*
X-2906674Y6664858D01*
X-2902661Y6660642D01*
X-2906623Y6654038D01*
X-2909366Y6657644D01*
X-2911195Y6661048D01*
X-2933677Y6661048D01*
X-2933852Y6660845D01*
X-2932887Y6657644D01*
X-2930347Y6645554D01*
X-2921812Y6636969D01*
X-2908300Y6640779D01*
X-2890062Y6640372D01*
X-2863494Y6641541D01*
X-2857398Y6642963D01*
X-2848711Y6646113D01*
X-2848711Y6718300D01*
X-2856687Y6724396D01*
X-2863037Y6727596D01*
G37*
G36*
X-3512921Y6722262D02*
G01*
X-3517239Y6717131D01*
X-3523284Y6708495D01*
X-3527856Y6705142D01*
X-3541369Y6702044D01*
X-3550615Y6707022D01*
X-3556050Y6708698D01*
X-3570376Y6706768D01*
X-3584041Y6708648D01*
X-3587496Y6706870D01*
X-3590290Y6702247D01*
X-3593693Y6689394D01*
X-3593795Y6671259D01*
X-3592626Y6646316D01*
X-3589121Y6640271D01*
X-3585311Y6636715D01*
X-3582466Y6637629D01*
X-3575659Y6644487D01*
X-3574897Y6677304D01*
X-3570528Y6686753D01*
X-3555746Y6686753D01*
X-3551377Y6677304D01*
X-3550615Y6644487D01*
X-3546805Y6640728D01*
X-3541115Y6638391D01*
X-3534460Y6644995D01*
X-3533648Y6683349D01*
X-3532073Y6699199D01*
X-3529380Y6701180D01*
X-3526383Y6700723D01*
X-3521964Y6691934D01*
X-3519881Y6677304D01*
X-3519881Y6659168D01*
X-3516782Y6646367D01*
X-3512820Y6642252D01*
X-3498596Y6638950D01*
X-3491382Y6640880D01*
X-3483762Y6644538D01*
X-3476193Y6640880D01*
X-3469081Y6638950D01*
X-3462223Y6642963D01*
X-3459886Y6646265D01*
X-3459886Y6674967D01*
X-3456787Y6681368D01*
X-3454603Y6683146D01*
X-3435858Y6681673D01*
X-3428898Y6678574D01*
X-3426053Y6674307D01*
X-3404615Y6674307D01*
X-3402736Y6681825D01*
X-3397605Y6692036D01*
X-3397097Y6692036D01*
X-3382619Y6684467D01*
X-3380079Y6680606D01*
X-3377946Y6674612D01*
X-3381806Y6662470D01*
X-3384651Y6659625D01*
X-3392678Y6657238D01*
X-3398164Y6656374D01*
X-3401415Y6660896D01*
X-3404615Y6674307D01*
X-3426053Y6674307D01*
X-3425037Y6672783D01*
X-3420516Y6658914D01*
X-3416554Y6651193D01*
X-3411220Y6642912D01*
X-3405632Y6639204D01*
X-3397250Y6637121D01*
X-3382924Y6638493D01*
X-3377539Y6641287D01*
X-3364992Y6652259D01*
X-3360826Y6660692D01*
X-3360928Y6687870D01*
X-3364077Y6693966D01*
X-3368395Y6697878D01*
X-3373272Y6699758D01*
X-3378758Y6706412D01*
X-3383127Y6708698D01*
X-3397453Y6708698D01*
X-3403346Y6706260D01*
X-3410153Y6701332D01*
X-3418535Y6699402D01*
X-3426358Y6695998D01*
X-3429965Y6700012D01*
X-3434029Y6705498D01*
X-3440734Y6708749D01*
X-3454908Y6705650D01*
X-3469436Y6708749D01*
X-3476193Y6705803D01*
X-3478834Y6703771D01*
X-3476447Y6675780D01*
X-3478326Y6668262D01*
X-3482492Y6659930D01*
X-3483508Y6653733D01*
X-3488436Y6658660D01*
X-3494430Y6660286D01*
X-3497834Y6660286D01*
X-3499967Y6664452D01*
X-3503168Y6674815D01*
X-3499916Y6689801D01*
X-3496310Y6693204D01*
X-3487775Y6703415D01*
X-3491382Y6707276D01*
X-3502050Y6714236D01*
X-3508298Y6719874D01*
G37*
G36*
X-3036925Y6708698D02*
G01*
X-3051048Y6708597D01*
X-3055823Y6706565D01*
X-3061665Y6701332D01*
X-3069234Y6698030D01*
X-3073552Y6693966D01*
X-3075533Y6690156D01*
X-3078122Y6675120D01*
X-3058363Y6675120D01*
X-3055264Y6683908D01*
X-3051352Y6689039D01*
X-3036316Y6689039D01*
X-3032353Y6683908D01*
X-3029305Y6675221D01*
X-3031947Y6666839D01*
X-3036671Y6660692D01*
X-3050286Y6658864D01*
X-3052114Y6659473D01*
X-3056483Y6668262D01*
X-3058363Y6675120D01*
X-3078122Y6675120D01*
X-3076295Y6659930D01*
X-3074009Y6655409D01*
X-3070758Y6651853D01*
X-3064713Y6648754D01*
X-3057448Y6642100D01*
X-3052216Y6639915D01*
X-3036620Y6639915D01*
X-3028797Y6643522D01*
X-3022955Y6648703D01*
X-3015843Y6652717D01*
X-3012643Y6657949D01*
X-3009442Y6674307D01*
X-3012084Y6690156D01*
X-3014065Y6693966D01*
X-3018383Y6698030D01*
X-3026003Y6701332D01*
X-3031845Y6706565D01*
G37*
G36*
X-2719222Y6708698D02*
G01*
X-2723845Y6705853D01*
X-2728468Y6700164D01*
X-2739745Y6694678D01*
X-2742946Y6689902D01*
X-2742986Y6689293D01*
X-2709773Y6689293D01*
X-2705557Y6692036D01*
X-2704490Y6692036D01*
X-2702966Y6689242D01*
X-2704541Y6687718D01*
X-2709773Y6689293D01*
X-2742986Y6689293D01*
X-2744012Y6674612D01*
X-2743047Y6661454D01*
X-2742738Y6660489D01*
X-2719120Y6660489D01*
X-2716225Y6662115D01*
X-2705557Y6665518D01*
X-2702509Y6664655D01*
X-2695346Y6661048D01*
X-2696210Y6658864D01*
X-2702610Y6655765D01*
X-2706420Y6655765D01*
X-2714701Y6658203D01*
X-2719120Y6660489D01*
X-2742738Y6660489D01*
X-2741472Y6656425D01*
X-2736951Y6651244D01*
X-2731312Y6648145D01*
X-2728366Y6643624D01*
X-2723438Y6640575D01*
X-2704439Y6637121D01*
X-2690622Y6642811D01*
X-2686964Y6646214D01*
X-2686964Y6661099D01*
X-2682646Y6669735D01*
X-2680766Y6675424D01*
X-2682290Y6690359D01*
X-2684780Y6695186D01*
X-2690164Y6701129D01*
X-2691688Y6701129D01*
X-2698750Y6706260D01*
X-2704642Y6708698D01*
G37*
G36*
X-3743451Y6627215D02*
G01*
X-3746855Y6624726D01*
X-3750665Y6618224D01*
X-3750665Y6560108D01*
X-3734003Y6560108D01*
X-3734003Y6603339D01*
X-3729024Y6608064D01*
X-3719931Y6609486D01*
X-3712616Y6609689D01*
X-3704488Y6605828D01*
X-3695446Y6596227D01*
X-3693007Y6589014D01*
X-3693007Y6573774D01*
X-3695141Y6566814D01*
X-3699103Y6559042D01*
X-3707790Y6554724D01*
X-3714750Y6552844D01*
X-3729024Y6555333D01*
X-3734003Y6560108D01*
X-3750665Y6560108D01*
X-3750665Y6544970D01*
X-3746246Y6537959D01*
X-3742791Y6536131D01*
X-3712362Y6537045D01*
X-3697833Y6539179D01*
X-3692601Y6541871D01*
X-3678834Y6555638D01*
X-3676446Y6562445D01*
X-3673398Y6575298D01*
X-3674059Y6587388D01*
X-3677208Y6604000D01*
X-3680764Y6610197D01*
X-3694023Y6621932D01*
X-3699256Y6624167D01*
X-3713124Y6626352D01*
G37*
G36*
X-3584854Y6627063D02*
G01*
X-3588207Y6624726D01*
X-3591864Y6618376D01*
X-3592677Y6585102D01*
X-3594455Y6574688D01*
X-3592779Y6563512D01*
X-3592779Y6545376D01*
X-3590594Y6541262D01*
X-3585311Y6536232D01*
X-3582314Y6537147D01*
X-3575304Y6544614D01*
X-3575304Y6618986D01*
X-3583432Y6627063D01*
G37*
G36*
X-3557320Y6627063D02*
G01*
X-3565448Y6618986D01*
X-3565347Y6614566D01*
X-3563365Y6603238D01*
X-3565398Y6591909D01*
X-3565448Y6544614D01*
X-3558438Y6537147D01*
X-3555492Y6536232D01*
X-3548938Y6540093D01*
X-3544163Y6545478D01*
X-3544214Y6551117D01*
X-3546348Y6574942D01*
X-3543604Y6582816D01*
X-3541623Y6587032D01*
X-3536187Y6581800D01*
X-3519474Y6574332D01*
X-3524808Y6571996D01*
X-3530041Y6570065D01*
X-3535172Y6565595D01*
X-3537915Y6560159D01*
X-3538931Y6545630D01*
X-3535172Y6541211D01*
X-3527247Y6536893D01*
X-3503574Y6539433D01*
X-3496716Y6539585D01*
X-3484016Y6536283D01*
X-3480460Y6538620D01*
X-3476447Y6545478D01*
X-3478987Y6553352D01*
X-3483457Y6560312D01*
X-3483457Y6573367D01*
X-3487115Y6584340D01*
X-3488740Y6590588D01*
X-3497478Y6599885D01*
X-3509873Y6601968D01*
X-3512413Y6603390D01*
X-3518103Y6600596D01*
X-3529025Y6598513D01*
X-3537254Y6594348D01*
X-3541420Y6590030D01*
X-3545789Y6596430D01*
X-3549396Y6603390D01*
X-3547364Y6611162D01*
X-3546297Y6618833D01*
X-3554577Y6627063D01*
G37*
G36*
X-3396030Y6627063D02*
G01*
X-3428390Y6626910D01*
X-3439007Y6624675D01*
X-3442512Y6622440D01*
X-3445357Y6617766D01*
X-3443122Y6614312D01*
X-3438245Y6612077D01*
X-3413099Y6608927D01*
X-3411372Y6608927D01*
X-3405987Y6603542D01*
X-3408273Y6599123D01*
X-3412439Y6596938D01*
X-3417163Y6592316D01*
X-3421786Y6582714D01*
X-3429508Y6577177D01*
X-3434232Y6567779D01*
X-3442512Y6559803D01*
X-3446018Y6552590D01*
X-3447948Y6545478D01*
X-3443935Y6538722D01*
X-3440582Y6536385D01*
X-3382060Y6536385D01*
X-3368395Y6539890D01*
X-3353968Y6537096D01*
X-3342589Y6539382D01*
X-3338779Y6539585D01*
X-3324199Y6536893D01*
X-3315970Y6540652D01*
X-3310483Y6545478D01*
X-3307384Y6540500D01*
X-3304336Y6530695D01*
X-3303371Y6516014D01*
X-3297224Y6509918D01*
X-3295446Y6509918D01*
X-3288385Y6514338D01*
X-3286658Y6517589D01*
X-3285794Y6531762D01*
X-3281730Y6535623D01*
X-3268929Y6536486D01*
X-3252622Y6539331D01*
X-3248456Y6541516D01*
X-3244494Y6545783D01*
X-3241243Y6558991D01*
X-3241192Y6578295D01*
X-3239668Y6588759D01*
X-3243122Y6592519D01*
X-3251911Y6598208D01*
X-3258312Y6599174D01*
X-3265424Y6601459D01*
X-3267151Y6603492D01*
X-3272586Y6600342D01*
X-3281730Y6597853D01*
X-3296615Y6603441D01*
X-3301085Y6596430D01*
X-3303473Y6589217D01*
X-3303473Y6574739D01*
X-3286709Y6574739D01*
X-3282289Y6580835D01*
X-3267405Y6583730D01*
X-3263341Y6579971D01*
X-3260953Y6575044D01*
X-3260953Y6559753D01*
X-3266795Y6553504D01*
X-3281019Y6555536D01*
X-3285896Y6560159D01*
X-3286709Y6574739D01*
X-3303473Y6574739D01*
X-3303473Y6559753D01*
X-3306470Y6551320D01*
X-3310483Y6546088D01*
X-3313379Y6548678D01*
X-3317443Y6557162D01*
X-3318560Y6580581D01*
X-3320135Y6588556D01*
X-3321558Y6591147D01*
X-3325164Y6594500D01*
X-3336391Y6599123D01*
X-3338525Y6600901D01*
X-3354019Y6603288D01*
X-3357016Y6600444D01*
X-3362350Y6597751D01*
X-3369157Y6595770D01*
X-3372408Y6593738D01*
X-3374745Y6588963D01*
X-3372713Y6585102D01*
X-3368395Y6581140D01*
X-3354120Y6578803D01*
X-3349751Y6574434D01*
X-3353765Y6570421D01*
X-3368852Y6565493D01*
X-3373932Y6557873D01*
X-3376828Y6555333D01*
X-3382416Y6552996D01*
X-3398672Y6552996D01*
X-3412286Y6554724D01*
X-3417366Y6559194D01*
X-3417366Y6561937D01*
X-3412337Y6566966D01*
X-3407562Y6571234D01*
X-3402584Y6580581D01*
X-3394151Y6588912D01*
X-3382060Y6608927D01*
X-3377742Y6617157D01*
X-3380536Y6621983D01*
X-3384346Y6624726D01*
G37*
G36*
X-2978912Y6627063D02*
G01*
X-2983484Y6626859D01*
X-2995015Y6625640D01*
X-3007766Y6622389D01*
X-3011119Y6620256D01*
X-3016605Y6611569D01*
X-3025444Y6603238D01*
X-3028238Y6591147D01*
X-3028238Y6573875D01*
X-3007360Y6573875D01*
X-3007360Y6589522D01*
X-3004413Y6592671D01*
X-2997098Y6605371D01*
X-2993339Y6608114D01*
X-2979674Y6609435D01*
X-2976626Y6608724D01*
X-2970885Y6605828D01*
X-2961690Y6596684D01*
X-2958033Y6588912D01*
X-2958033Y6574383D01*
X-2962554Y6565341D01*
X-2972917Y6555384D01*
X-2979369Y6553454D01*
X-2993339Y6555282D01*
X-2997098Y6558025D01*
X-3004413Y6570725D01*
X-3007360Y6573875D01*
X-3028238Y6573875D01*
X-3028238Y6572250D01*
X-3025394Y6560159D01*
X-3017418Y6552539D01*
X-3012541Y6543954D01*
X-3008274Y6540347D01*
X-2994101Y6537147D01*
X-2979674Y6536181D01*
X-2963316Y6539382D01*
X-2957880Y6541617D01*
X-2946501Y6552590D01*
X-2943047Y6559397D01*
X-2940558Y6573977D01*
X-2940558Y6589318D01*
X-2943098Y6604609D01*
X-2947822Y6610807D01*
X-2953105Y6614261D01*
X-2956915Y6619849D01*
X-2962960Y6624015D01*
G37*
G36*
X-2921254Y6627063D02*
G01*
X-2924606Y6624726D01*
X-2928213Y6618376D01*
X-2929178Y6599478D01*
X-2930702Y6590385D01*
X-2930702Y6573012D01*
X-2929178Y6563918D01*
X-2928213Y6545072D01*
X-2924556Y6538620D01*
X-2920898Y6536232D01*
X-2918053Y6537756D01*
X-2911703Y6544665D01*
X-2911703Y6618986D01*
X-2919831Y6627063D01*
G37*
G36*
X-2893720Y6627063D02*
G01*
X-2901848Y6618986D01*
X-2901797Y6614566D01*
X-2899765Y6603238D01*
X-2901797Y6591909D01*
X-2901848Y6544462D01*
X-2893720Y6536385D01*
X-2891078Y6536385D01*
X-2883255Y6543802D01*
X-2882442Y6577533D01*
X-2878277Y6589420D01*
X-2882188Y6604000D01*
X-2883052Y6619138D01*
X-2890977Y6627063D01*
G37*
G36*
X-2733700Y6627063D02*
G01*
X-2737053Y6624726D01*
X-2740863Y6618224D01*
X-2740863Y6601002D01*
X-2742438Y6585102D01*
X-2745130Y6574637D01*
X-2741625Y6562648D01*
X-2741625Y6545376D01*
X-2739491Y6541262D01*
X-2734208Y6536232D01*
X-2731160Y6537147D01*
X-2724150Y6544614D01*
X-2724150Y6618986D01*
X-2732278Y6627063D01*
G37*
G36*
X-2706166Y6627063D02*
G01*
X-2714294Y6618986D01*
X-2714294Y6544614D01*
X-2707335Y6537147D01*
X-2704388Y6536232D01*
X-2699258Y6539433D01*
X-2693822Y6545427D01*
X-2695295Y6574485D01*
X-2693009Y6588963D01*
X-2695295Y6603238D01*
X-2695295Y6618986D01*
X-2703423Y6627063D01*
G37*
G36*
X-3152140Y6618071D02*
G01*
X-3154273Y6615480D01*
X-3169107Y6604304D01*
X-3169107Y6603238D01*
X-3171291Y6593179D01*
X-3173780Y6588353D01*
X-3171190Y6585559D01*
X-3166008Y6583832D01*
X-3161944Y6576059D01*
X-3161893Y6574536D01*
X-3144977Y6574536D01*
X-3141827Y6583375D01*
X-3137865Y6588506D01*
X-3123641Y6588506D01*
X-3112363Y6580428D01*
X-3103422Y6576872D01*
X-3099968Y6574688D01*
X-3102559Y6571843D01*
X-3110585Y6569506D01*
X-3118002Y6562852D01*
X-3122879Y6552742D01*
X-3138271Y6553758D01*
X-3141726Y6556044D01*
X-3144266Y6559905D01*
X-3144977Y6574536D01*
X-3161893Y6574536D01*
X-3160979Y6545478D01*
X-3156966Y6540246D01*
X-3152241Y6536944D01*
X-3135325Y6536740D01*
X-3123336Y6542379D01*
X-3109518Y6536893D01*
X-3095853Y6538976D01*
X-3079140Y6538518D01*
X-3065678Y6536283D01*
X-3062122Y6538620D01*
X-3058058Y6545478D01*
X-3060649Y6553352D01*
X-3065068Y6560312D01*
X-3065068Y6574078D01*
X-3068015Y6579057D01*
X-3072028Y6591553D01*
X-3079140Y6599174D01*
X-3088995Y6600647D01*
X-3094583Y6603390D01*
X-3097072Y6601968D01*
X-3109366Y6599834D01*
X-3115665Y6596176D01*
X-3123387Y6589268D01*
X-3134258Y6589268D01*
X-3137204Y6590842D01*
X-3137204Y6603288D01*
G37*
G36*
X-2661767Y6603593D02*
G01*
X-2663545Y6601459D01*
X-2670657Y6599174D01*
X-2677464Y6598158D01*
X-2684729Y6594297D01*
X-2687828Y6589268D01*
X-2686862Y6586220D01*
X-2683002Y6581648D01*
X-2677464Y6578904D01*
X-2669895Y6577075D01*
X-2664815Y6574434D01*
X-2668727Y6571843D01*
X-2678226Y6569456D01*
X-2683205Y6565747D01*
X-2685999Y6560159D01*
X-2686964Y6545783D01*
X-2684475Y6542227D01*
X-2677566Y6537858D01*
X-2660751Y6538010D01*
X-2647086Y6539077D01*
X-2632710Y6536385D01*
X-2630170Y6537147D01*
X-2623210Y6544614D01*
X-2623210Y6545986D01*
X-2627731Y6560159D01*
X-2627731Y6574790D01*
X-2630678Y6581343D01*
X-2639568Y6594043D01*
X-2646426Y6599834D01*
X-2658668Y6601968D01*
G37*
G36*
X-2820416Y6603492D02*
G01*
X-2835503Y6588150D01*
X-2848914Y6571843D01*
X-2851759Y6576059D01*
X-2854756Y6585661D01*
X-2854807Y6588150D01*
X-2858465Y6596075D01*
X-2862732Y6601358D01*
X-2866542Y6601307D01*
X-2872740Y6598513D01*
X-2875991Y6594398D01*
X-2877464Y6589166D01*
X-2872333Y6573012D01*
X-2869895Y6564375D01*
X-2860141Y6553809D01*
X-2857652Y6545072D01*
X-2853994Y6539636D01*
X-2849372Y6536283D01*
X-2837688Y6537959D01*
X-2832709Y6539484D01*
X-2828798Y6544665D01*
X-2824632Y6565442D01*
X-2822194Y6570116D01*
X-2820009Y6571945D01*
X-2816707Y6566662D01*
X-2814074Y6559956D01*
X-2788716Y6559956D01*
X-2785313Y6562598D01*
X-2777794Y6567322D01*
X-2776728Y6567322D01*
X-2768904Y6560362D01*
X-2772105Y6556959D01*
X-2777134Y6554266D01*
X-2788716Y6559956D01*
X-2814074Y6559956D01*
X-2813050Y6557365D01*
X-2808884Y6551879D01*
X-2797454Y6540347D01*
X-2792222Y6537706D01*
X-2774645Y6537502D01*
X-2763266Y6538823D01*
X-2757017Y6542328D01*
X-2754630Y6546037D01*
X-2758084Y6560362D01*
X-2751023Y6574332D01*
X-2755392Y6590944D01*
X-2762351Y6598310D01*
X-2767838Y6598361D01*
X-2773730Y6599986D01*
X-2777134Y6603339D01*
X-2780385Y6602171D01*
X-2790596Y6601256D01*
X-2805430Y6594246D01*
X-2813405Y6598158D01*
G37*
G36*
X-3209696Y6603390D02*
G01*
X-3214268Y6600698D01*
X-3224885Y6599021D01*
X-3232505Y6593840D01*
X-3237585Y6588658D01*
X-3234588Y6581952D01*
X-3230016Y6578701D01*
X-3221024Y6576618D01*
X-3216656Y6574332D01*
X-3221126Y6572097D01*
X-3228695Y6570268D01*
X-3233521Y6566611D01*
X-3235909Y6560159D01*
X-3233115Y6544411D01*
X-3225190Y6536893D01*
X-3195269Y6539839D01*
X-3180588Y6536181D01*
X-3176320Y6539484D01*
X-3172155Y6544919D01*
X-3172155Y6547662D01*
X-3175254Y6555943D01*
X-3180130Y6560007D01*
X-3180943Y6575298D01*
X-3184194Y6589572D01*
X-3194659Y6599936D01*
X-3205530Y6601307D01*
G37*
G36*
X-3628186Y6603238D02*
G01*
X-3641750Y6601206D01*
X-3650081Y6596989D01*
X-3660292Y6593890D01*
X-3664508Y6591706D01*
X-3667302Y6588607D01*
X-3669334Y6575298D01*
X-3666286Y6562445D01*
X-3665637Y6560413D01*
X-3642461Y6560413D01*
X-3636467Y6563918D01*
X-3628847Y6567271D01*
X-3627882Y6567322D01*
X-3618484Y6560464D01*
X-3620058Y6558534D01*
X-3627831Y6554317D01*
X-3638702Y6558330D01*
X-3642461Y6560413D01*
X-3665637Y6560413D01*
X-3663187Y6552590D01*
X-3658819Y6543954D01*
X-3651605Y6540347D01*
X-3643477Y6537706D01*
X-3625799Y6537502D01*
X-3614420Y6538823D01*
X-3608171Y6542328D01*
X-3605733Y6546088D01*
X-3608070Y6554114D01*
X-3610356Y6560362D01*
X-3606292Y6568389D01*
X-3604107Y6574485D01*
X-3606698Y6590284D01*
X-3612997Y6596837D01*
X-3616045Y6596837D01*
X-3623767Y6599123D01*
G37*
G36*
X-4712411Y5643930D02*
G01*
X-4717135Y5641746D01*
X-4719066Y5640476D01*
X-4721961Y5639104D01*
X-4728921Y5631738D01*
X-4732274Y5624474D01*
X-4733137Y5618124D01*
X-4734306Y5618124D01*
X-4734306Y5609082D01*
X-4733137Y5609082D01*
X-4732172Y5603189D01*
X-4730089Y5598922D01*
X-4725111Y5591657D01*
X-4718151Y5586679D01*
X-4709464Y5583275D01*
X-4413250Y5583326D01*
X-4408068Y5584799D01*
X-4404512Y5585510D01*
X-4403039Y5587441D01*
X-4400854Y5587441D01*
X-4392371Y5596331D01*
X-4388205Y5605780D01*
X-4388713Y5623356D01*
X-4390644Y5628538D01*
X-4396486Y5636666D01*
X-4403496Y5641543D01*
X-4408068Y5643575D01*
G37*
G36*
X-4560468Y5545632D02*
G01*
X-4567428Y5542991D01*
X-4570730Y5541111D01*
X-4577334Y5535879D01*
X-4582363Y5528564D01*
X-4584496Y5523687D01*
X-4586579Y5516676D01*
X-4586478Y5504840D01*
X-4584547Y5497880D01*
X-4582363Y5493004D01*
X-4576876Y5485130D01*
X-4571847Y5480862D01*
X-4564837Y5477052D01*
X-4559046Y5475833D01*
X-4553305Y5475071D01*
X-4543501Y5476798D01*
X-4537659Y5480100D01*
X-4534509Y5481523D01*
X-4526635Y5490210D01*
X-4522520Y5499252D01*
X-4520234Y5509260D01*
X-4521657Y5518099D01*
X-4522876Y5522976D01*
X-4526280Y5530646D01*
X-4531664Y5537403D01*
X-4536998Y5541060D01*
X-4540250Y5542940D01*
X-4547311Y5545632D01*
G37*
G36*
X-4417771Y5436260D02*
G01*
X-4708702Y5435701D01*
X-4715205Y5434279D01*
X-4722012Y5430418D01*
X-4728311Y5423611D01*
X-4732375Y5415381D01*
X-4732375Y5412536D01*
X-4734306Y5410454D01*
X-4734306Y5399938D01*
X-4733086Y5399938D01*
X-4732172Y5394706D01*
X-4728159Y5386476D01*
X-4721301Y5380024D01*
X-4716119Y5376926D01*
X-4710633Y5375198D01*
X-4415180Y5374741D01*
X-4406087Y5376468D01*
X-4398772Y5380532D01*
X-4392371Y5387695D01*
X-4388205Y5397347D01*
X-4388662Y5414924D01*
X-4393031Y5423916D01*
X-4399280Y5430469D01*
X-4407408Y5434584D01*
G37*
G36*
X-4704435Y5293969D02*
G01*
X-4714544Y5292039D01*
X-4721656Y5288381D01*
X-4728311Y5281371D01*
X-4732375Y5273192D01*
X-4732375Y5270347D01*
X-4734306Y5268264D01*
X-4734306Y5094630D01*
X-4732883Y5094122D01*
X-4732324Y5082336D01*
X-4728311Y5061407D01*
X-4723841Y5046065D01*
X-4718964Y5032806D01*
X-4712716Y5018887D01*
X-4709007Y5012893D01*
X-4709007Y5012283D01*
X-4704892Y5004917D01*
X-4695190Y4990998D01*
X-4687316Y4981295D01*
X-4678730Y4972151D01*
X-4672330Y4965903D01*
X-4664100Y4958943D01*
X-4651095Y4949393D01*
X-4638751Y4941874D01*
X-4636770Y4941062D01*
X-4634636Y4939842D01*
X-4626406Y4936032D01*
X-4619955Y4933391D01*
X-4607001Y4928819D01*
X-4600498Y4926990D01*
X-4587544Y4924501D01*
X-4573219Y4922164D01*
X-4542840Y4922824D01*
X-4533087Y4924501D01*
X-4523384Y4926584D01*
X-4513681Y4929225D01*
X-4507179Y4931308D01*
X-4502658Y4932984D01*
X-4492955Y4937099D01*
X-4476089Y4946091D01*
X-4470755Y4949291D01*
X-4461205Y4956098D01*
X-4451451Y4964023D01*
X-4447590Y4968036D01*
X-4438802Y4976164D01*
X-4425950Y4991709D01*
X-4419600Y5000752D01*
X-4412284Y5012740D01*
X-4410964Y5016093D01*
X-4407001Y5023053D01*
X-4401718Y5035600D01*
X-4396587Y5050282D01*
X-4395622Y5054498D01*
X-4394098Y5057495D01*
X-4394098Y5060543D01*
X-4392218Y5066995D01*
X-4390237Y5076952D01*
X-4390237Y5080914D01*
X-4388307Y5091887D01*
X-4388307Y5269179D01*
X-4390745Y5276138D01*
X-4392523Y5279644D01*
X-4396232Y5284876D01*
X-4402836Y5290108D01*
X-4407408Y5291988D01*
X-4415180Y5293309D01*
X-4417110Y5293410D01*
X-4424883Y5292344D01*
X-4432655Y5288280D01*
X-4437634Y5283149D01*
X-4442053Y5276697D01*
X-4444644Y5267807D01*
X-4444644Y5099050D01*
X-4446727Y5084419D01*
X-4448657Y5076037D01*
X-4454804Y5056835D01*
X-4456328Y5055209D01*
X-4456328Y5052872D01*
X-4458258Y5051145D01*
X-4458258Y5048605D01*
X-4459630Y5047691D01*
X-4460900Y5044694D01*
X-4463440Y5040477D01*
X-4464354Y5038394D01*
X-4471771Y5027930D01*
X-4482541Y5016042D01*
X-4488383Y5010454D01*
X-4496155Y5004155D01*
X-4498136Y5003190D01*
X-4501997Y5000447D01*
X-4504791Y4999075D01*
X-4505655Y4997602D01*
X-4507992Y4997602D01*
X-4509617Y4995519D01*
X-4511903Y4995519D01*
X-4513376Y4993589D01*
X-4516272Y4992878D01*
X-4523384Y4989880D01*
X-4529226Y4987848D01*
X-4537659Y4985562D01*
X-4549952Y4983480D01*
X-4570679Y4983327D01*
X-4582363Y4985207D01*
X-4598568Y4989830D01*
X-4605223Y4992573D01*
X-4611522Y4995672D01*
X-4622546Y5002123D01*
X-4627016Y5005628D01*
X-4629200Y5007000D01*
X-4638751Y5015382D01*
X-4648708Y5026202D01*
X-4656328Y5037023D01*
X-4661611Y5046065D01*
X-4668012Y5060035D01*
X-4669586Y5064150D01*
X-4672939Y5075682D01*
X-4676292Y5089296D01*
X-4677054Y5267096D01*
X-4678375Y5272684D01*
X-4681982Y5280812D01*
X-4688840Y5288178D01*
X-4697374Y5292547D01*
X-4701997Y5292547D01*
G37*
G36*
X-4513427Y5293969D02*
G01*
X-4515866Y5292547D01*
X-4519980Y5292547D01*
X-4524705Y5290312D01*
X-4526635Y5289042D01*
X-4529226Y5287772D01*
X-4535170Y5281015D01*
X-4537608Y5276850D01*
X-4539589Y5271973D01*
X-4540300Y5107432D01*
X-4542231Y5101132D01*
X-4546092Y5094630D01*
X-4551883Y5089906D01*
X-4557776Y5087569D01*
X-4566970Y5087569D01*
X-4572000Y5090007D01*
X-4577943Y5094427D01*
X-4580382Y5098389D01*
X-4583023Y5103266D01*
X-4583734Y5267096D01*
X-4585055Y5272684D01*
X-4588662Y5280812D01*
X-4595520Y5288178D01*
X-4603089Y5292039D01*
X-4611725Y5293817D01*
X-4621225Y5292039D01*
X-4628692Y5288127D01*
X-4635652Y5280253D01*
X-4638903Y5273344D01*
X-4640986Y5260797D01*
X-4640834Y5109514D01*
X-4638446Y5091379D01*
X-4636516Y5084419D01*
X-4634433Y5078171D01*
X-4628591Y5065572D01*
X-4621276Y5055158D01*
X-4612640Y5045862D01*
X-4602429Y5038242D01*
X-4594860Y5033822D01*
X-4582363Y5029149D01*
X-4573117Y5026914D01*
X-4550613Y5026914D01*
X-4545431Y5028387D01*
X-4540250Y5029454D01*
X-4537405Y5031079D01*
X-4535170Y5031079D01*
X-4520793Y5038648D01*
X-4511192Y5046421D01*
X-4506518Y5051145D01*
X-4501337Y5057241D01*
X-4497324Y5062829D01*
X-4493971Y5069078D01*
X-4489500Y5078831D01*
X-4487621Y5084419D01*
X-4485538Y5092090D01*
X-4484878Y5097678D01*
X-4483608Y5103926D01*
X-4483557Y5265724D01*
X-4485894Y5275122D01*
X-4487418Y5276799D01*
X-4487418Y5279136D01*
X-4495698Y5288178D01*
X-4503318Y5292039D01*
G37*
G36*
X-4560976Y4842459D02*
G01*
X-4568748Y4842408D01*
X-4579112Y4840071D01*
X-4588814Y4836312D01*
X-4595063Y4832400D01*
X-4595723Y4832400D01*
X-4605883Y4824018D01*
X-4615383Y4812741D01*
X-4618888Y4806238D01*
X-4623257Y4796485D01*
X-4625390Y4788814D01*
X-4627372Y4780127D01*
X-4627372Y4539081D01*
X-4629861Y4531410D01*
X-4631588Y4528058D01*
X-4637430Y4521301D01*
X-4645863Y4516932D01*
X-4655820Y4516374D01*
X-4662068Y4518863D01*
X-4668824Y4523638D01*
X-4673244Y4530140D01*
X-4675987Y4536948D01*
X-4675987Y4813909D01*
X-4678070Y4820869D01*
X-4680559Y4826711D01*
X-4686604Y4833874D01*
X-4689246Y4835194D01*
X-4693818Y4838141D01*
X-4703470Y4840833D01*
X-4709363Y4839970D01*
X-4713884Y4838496D01*
X-4722012Y4834280D01*
X-4728514Y4826457D01*
X-4732020Y4818786D01*
X-4732223Y4529429D01*
X-4731004Y4524552D01*
X-4729988Y4518964D01*
X-4728311Y4513376D01*
X-4723942Y4502251D01*
X-4721352Y4498035D01*
X-4720488Y4495952D01*
X-4712665Y4484878D01*
X-4705400Y4477054D01*
X-4695088Y4468774D01*
X-4683455Y4462322D01*
X-4673701Y4458512D01*
X-4667707Y4457395D01*
X-4662728Y4455871D01*
X-4640884Y4455871D01*
X-4628997Y4459122D01*
X-4625746Y4460189D01*
X-4620564Y4462322D01*
X-4610862Y4467301D01*
X-4601159Y4474311D01*
X-4588002Y4488383D01*
X-4580991Y4500168D01*
X-4576978Y4509211D01*
X-4575048Y4514799D01*
X-4571390Y4528718D01*
X-4570679Y4773472D01*
X-4568901Y4776927D01*
X-4566818Y4779518D01*
X-4563567Y4780940D01*
X-4560112Y4782058D01*
X-4553813Y4778908D01*
X-4551273Y4774844D01*
X-4550460Y4535728D01*
X-4549140Y4524552D01*
X-4547768Y4520387D01*
X-4545126Y4510938D01*
X-4539640Y4498746D01*
X-4533087Y4488281D01*
X-4522114Y4476394D01*
X-4515866Y4470958D01*
X-4506518Y4464913D01*
X-4495546Y4460138D01*
X-4489043Y4458004D01*
X-4479798Y4455871D01*
X-4458614Y4455871D01*
X-4449521Y4458106D01*
X-4441748Y4460697D01*
X-4436465Y4462780D01*
X-4426864Y4468215D01*
X-4418736Y4474057D01*
X-4405172Y4488637D01*
X-4398975Y4499000D01*
X-4394250Y4509211D01*
X-4392320Y4514799D01*
X-4390288Y4522470D01*
X-4388612Y4530801D01*
X-4388612Y4816703D01*
X-4392930Y4826304D01*
X-4399737Y4833620D01*
X-4408678Y4838293D01*
X-4424273Y4838293D01*
X-4432655Y4833874D01*
X-4440123Y4825746D01*
X-4442561Y4820158D01*
X-4444644Y4814214D01*
X-4444644Y4539132D01*
X-4447133Y4531512D01*
X-4448962Y4527753D01*
X-4455363Y4520946D01*
X-4463135Y4516932D01*
X-4473143Y4516374D01*
X-4479950Y4518964D01*
X-4485487Y4522927D01*
X-4490821Y4529582D01*
X-4492904Y4535017D01*
X-4493666Y4775555D01*
X-4495292Y4785309D01*
X-4497273Y4793691D01*
X-4501032Y4802479D01*
X-4501032Y4803698D01*
X-4508906Y4816348D01*
X-4517542Y4825898D01*
X-4522724Y4830064D01*
X-4528566Y4833670D01*
X-4537659Y4838395D01*
X-4545431Y4840630D01*
X-4553204Y4842459D01*
G37*
G36*
X-4708702Y4374286D02*
G01*
X-4715814Y4371390D01*
X-4720386Y4367834D01*
X-4725974Y4362094D01*
X-4728311Y4357217D01*
X-4730394Y4351934D01*
X-4730394Y4201058D01*
X-4728514Y4197553D01*
X-4728464Y4195876D01*
X-4724704Y4189882D01*
X-4719726Y4184954D01*
X-4715560Y4181856D01*
X-4714341Y4181856D01*
X-4710633Y4179773D01*
X-4409033Y4179773D01*
X-4400905Y4183938D01*
X-4396384Y4188510D01*
X-4392472Y4194048D01*
X-4390339Y4198924D01*
X-4388104Y4207611D01*
X-4388866Y4214723D01*
X-4390390Y4219854D01*
X-4392472Y4224731D01*
X-4396943Y4231335D01*
X-4402836Y4235907D01*
X-4406087Y4237786D01*
X-4415180Y4240377D01*
X-4674057Y4240428D01*
X-4674057Y4347464D01*
X-4676648Y4356354D01*
X-4680153Y4363313D01*
X-4687265Y4370120D01*
X-4688687Y4370120D01*
X-4690160Y4371695D01*
X-4697018Y4374286D01*
G37*
G36*
X-4701590Y4098188D02*
G01*
X-4709363Y4095546D01*
X-4716475Y4091584D01*
X-4726228Y4081119D01*
X-4729988Y4072737D01*
X-4732375Y4063085D01*
X-4732274Y4051147D01*
X-4729378Y4042003D01*
X-4726381Y4035806D01*
X-4722418Y4030218D01*
X-4718405Y4026154D01*
X-4711750Y4021531D01*
X-4706112Y4019296D01*
X-4697018Y4017314D01*
X-4691888Y4017314D01*
X-4682388Y4019448D01*
X-4675022Y4023207D01*
X-4667808Y4029049D01*
X-4662576Y4036517D01*
X-4660798Y4039971D01*
X-4659071Y4044848D01*
X-4657140Y4052417D01*
X-4656429Y4060190D01*
X-4659071Y4071365D01*
X-4660849Y4076649D01*
X-4662373Y4078274D01*
X-4662373Y4079494D01*
X-4666589Y4085285D01*
X-4672787Y4091482D01*
X-4675682Y4093210D01*
X-4680204Y4095496D01*
X-4687265Y4098188D01*
G37*
G36*
X-4706112Y3937101D02*
G01*
X-4713224Y3934714D01*
X-4720996Y3929938D01*
X-4728159Y3922115D01*
X-4732375Y3913581D01*
X-4732375Y3910736D01*
X-4734306Y3908653D01*
X-4734255Y3741572D01*
X-4732375Y3739794D01*
X-4732375Y3737051D01*
X-4728260Y3728618D01*
X-4720996Y3720541D01*
X-4714646Y3716528D01*
X-4705502Y3713327D01*
X-4695037Y3713327D01*
X-4687976Y3715512D01*
X-4683455Y3717848D01*
X-4676038Y3723843D01*
X-4670501Y3731818D01*
X-4668723Y3735120D01*
X-4666640Y3741572D01*
X-4665929Y3863594D01*
X-4415840Y3864305D01*
X-4409795Y3866591D01*
X-4402632Y3870350D01*
X-4394250Y3879392D01*
X-4390390Y3887978D01*
X-4388154Y3897731D01*
X-4388916Y3908196D01*
X-4390390Y3913073D01*
X-4394454Y3922115D01*
X-4401566Y3929938D01*
X-4409338Y3934714D01*
X-4416501Y3937101D01*
G37*
G36*
X-4627727Y3632555D02*
G01*
X-4646523Y3631336D01*
X-4660747Y3627424D01*
X-4669840Y3623614D01*
X-4682794Y3616807D01*
X-4688636Y3612642D01*
X-4696409Y3606393D01*
X-4702048Y3600704D01*
X-4708296Y3593744D01*
X-4716576Y3581908D01*
X-4720183Y3575761D01*
X-4725771Y3563772D01*
X-4727854Y3557524D01*
X-4732274Y3541471D01*
X-4733036Y3533089D01*
X-4734306Y3532632D01*
X-4734306Y3522776D01*
X-4666284Y3522776D01*
X-4663795Y3533089D01*
X-4659782Y3541623D01*
X-4654448Y3548126D01*
X-4647133Y3554069D01*
X-4637024Y3558794D01*
X-4620564Y3558692D01*
X-4614773Y3556304D01*
X-4606696Y3551834D01*
X-4598822Y3543554D01*
X-4597552Y3540760D01*
X-4594910Y3536035D01*
X-4592066Y3528923D01*
X-4591710Y3340862D01*
X-4593183Y3338931D01*
X-4662728Y3338931D01*
X-4665573Y3339744D01*
X-4666132Y3342030D01*
X-4666284Y3522776D01*
X-4734306Y3522776D01*
X-4734306Y3295700D01*
X-4733086Y3295700D01*
X-4732172Y3290468D01*
X-4727956Y3281375D01*
X-4721656Y3274263D01*
X-4715814Y3270300D01*
X-4711293Y3268370D01*
X-4699660Y3265728D01*
X-4421530Y3265728D01*
X-4409998Y3268268D01*
X-4402328Y3272180D01*
X-4393031Y3282086D01*
X-4388713Y3291840D01*
X-4387646Y3301644D01*
X-4387596Y3303727D01*
X-4388815Y3313480D01*
X-4390542Y3318357D01*
X-4394606Y3326079D01*
X-4402378Y3333699D01*
X-4412945Y3338931D01*
X-4521606Y3338931D01*
X-4523130Y3340862D01*
X-4521911Y3470351D01*
X-4520336Y3478022D01*
X-4516526Y3491280D01*
X-4514443Y3496157D01*
X-4513326Y3498240D01*
X-4512005Y3501745D01*
X-4506671Y3511499D01*
X-4500829Y3519830D01*
X-4490364Y3531463D01*
X-4480610Y3539439D01*
X-4474768Y3543604D01*
X-4462475Y3550005D01*
X-4457293Y3552088D01*
X-4450842Y3554374D01*
X-4448606Y3554374D01*
X-4442866Y3556457D01*
X-4416501Y3557778D01*
X-4410659Y3558997D01*
X-4401566Y3563620D01*
X-4392371Y3573627D01*
X-4388713Y3581908D01*
X-4387545Y3587496D01*
X-4386834Y3597097D01*
X-4388459Y3604920D01*
X-4391152Y3612286D01*
X-4397044Y3620211D01*
X-4404614Y3626764D01*
X-4410659Y3629050D01*
X-4420362Y3631184D01*
X-4436567Y3630320D01*
X-4450181Y3629151D01*
X-4458614Y3627475D01*
X-4466996Y3625392D01*
X-4474159Y3623157D01*
X-4481271Y3620668D01*
X-4488383Y3617722D01*
X-4491736Y3616604D01*
X-4494225Y3615080D01*
X-4507839Y3607815D01*
X-4511700Y3604920D01*
X-4516272Y3602278D01*
X-4523740Y3596182D01*
X-4524705Y3596182D01*
X-4537659Y3584244D01*
X-4541062Y3581552D01*
X-4544110Y3586987D01*
X-4549292Y3593744D01*
X-4559655Y3604920D01*
X-4565700Y3610254D01*
X-4574286Y3616451D01*
X-4582363Y3621125D01*
X-4590796Y3625240D01*
X-4598568Y3627780D01*
X-4603445Y3629660D01*
X-4606747Y3629660D01*
X-4609338Y3631184D01*
G37*
G36*
X-4423308Y3190392D02*
G01*
X-4570679Y3190290D01*
X-4596841Y3187700D01*
X-4599432Y3186226D01*
X-4603597Y3186226D01*
X-4617974Y3181858D01*
X-4622241Y3179927D01*
X-4624120Y3179927D01*
X-4639665Y3172968D01*
X-4650384Y3166973D01*
X-4661814Y3159048D01*
X-4662424Y3159048D01*
X-4675530Y3148380D01*
X-4689805Y3133598D01*
X-4700930Y3119475D01*
X-4708702Y3107842D01*
X-4716170Y3093821D01*
X-4716881Y3091738D01*
X-4718100Y3089656D01*
X-4722164Y3079953D01*
X-4723180Y3076397D01*
X-4725974Y3068726D01*
X-4729784Y3054807D01*
X-4731004Y3047847D01*
X-4732375Y3042970D01*
X-4732375Y3036417D01*
X-4734306Y3034334D01*
X-4734306Y2990291D01*
X-4733086Y2990291D01*
X-4732324Y2982315D01*
X-4730292Y2971850D01*
X-4728311Y2963468D01*
X-4726381Y2956509D01*
X-4724450Y2950921D01*
X-4722622Y2946349D01*
X-4722622Y2944977D01*
X-4716068Y2929991D01*
X-4710633Y2919526D01*
X-4701895Y2905607D01*
X-4694682Y2895854D01*
X-4681169Y2880868D01*
X-4668977Y2869793D01*
X-4657496Y2861665D01*
X-4649724Y2856484D01*
X-4641342Y2851708D01*
X-4632604Y2847390D01*
X-4630877Y2847390D01*
X-4629505Y2845866D01*
X-4625136Y2844698D01*
X-4616043Y2841294D01*
X-4602429Y2837434D01*
X-4594656Y2836316D01*
X-4588814Y2834894D01*
X-4507636Y2834843D01*
X-4492802Y2832100D01*
X-4483862Y2828290D01*
X-4474768Y2821940D01*
X-4468266Y2814929D01*
X-4464253Y2809392D01*
X-4460341Y2801721D01*
X-4458462Y2796133D01*
X-4456125Y2788208D01*
X-4456023Y2467762D01*
X-4458614Y2460091D01*
X-4462881Y2452116D01*
X-4471111Y2444038D01*
X-4478020Y2440076D01*
X-4487113Y2437434D01*
X-4495241Y2437384D01*
X-4504537Y2440178D01*
X-4505807Y2441600D01*
X-4507636Y2441600D01*
X-4516069Y2448458D01*
X-4521758Y2456586D01*
X-4524146Y2462174D01*
X-4526330Y2469134D01*
X-4526330Y2722219D01*
X-4528769Y2731973D01*
X-4532477Y2739796D01*
X-4536389Y2744520D01*
X-4541824Y2749143D01*
X-4548022Y2752699D01*
X-4557064Y2755290D01*
X-4563567Y2755341D01*
X-4573270Y2752699D01*
X-4580077Y2748838D01*
X-4587748Y2740914D01*
X-4592066Y2732684D01*
X-4594301Y2725013D01*
X-4594352Y2472639D01*
X-4596790Y2462174D01*
X-4598568Y2457958D01*
X-4603242Y2450287D01*
X-4607610Y2445918D01*
X-4613452Y2441956D01*
X-4617364Y2440076D01*
X-4625136Y2437434D01*
X-4634128Y2437384D01*
X-4641951Y2439670D01*
X-4649876Y2443886D01*
X-4656328Y2450287D01*
X-4660138Y2455875D01*
X-4661712Y2458669D01*
X-4664659Y2465628D01*
X-4665421Y2721508D01*
X-4666792Y2729179D01*
X-4668875Y2735122D01*
X-4674158Y2743504D01*
X-4680102Y2748940D01*
X-4686960Y2752598D01*
X-4695088Y2755341D01*
X-4703419Y2755341D01*
X-4710633Y2753106D01*
X-4714341Y2751175D01*
X-4715459Y2751175D01*
X-4721301Y2746908D01*
X-4728159Y2738729D01*
X-4732375Y2728976D01*
X-4732375Y2724759D01*
X-4734306Y2722676D01*
X-4734306Y2467508D01*
X-4732985Y2467051D01*
X-4731766Y2453792D01*
X-4730496Y2449626D01*
X-4728514Y2441244D01*
X-4725771Y2432862D01*
X-4719980Y2420315D01*
X-4712309Y2407615D01*
X-4702708Y2395931D01*
X-4698339Y2391664D01*
X-4687925Y2383180D01*
X-4679035Y2377338D01*
X-4676292Y2376068D01*
X-4674362Y2374849D01*
X-4665980Y2371090D01*
X-4658817Y2368550D01*
X-4651044Y2366365D01*
X-4638649Y2364181D01*
X-4622546Y2364181D01*
X-4608931Y2366416D01*
X-4601159Y2368600D01*
X-4589119Y2373020D01*
X-4587595Y2374646D01*
X-4585970Y2374646D01*
X-4580737Y2377592D01*
X-4580026Y2378862D01*
X-4578248Y2378862D01*
X-4570679Y2384247D01*
X-4560468Y2392730D01*
X-4556810Y2389936D01*
X-4555998Y2388565D01*
X-4543501Y2379624D01*
X-4529886Y2372360D01*
X-4527296Y2371191D01*
X-4514392Y2366822D01*
X-4507179Y2365705D01*
X-4501337Y2364282D01*
X-4481931Y2364181D01*
X-4470247Y2366365D01*
X-4462475Y2368448D01*
X-4458614Y2369921D01*
X-4454245Y2371039D01*
X-4452823Y2372563D01*
X-4451197Y2372563D01*
X-4441748Y2377490D01*
X-4428794Y2386380D01*
X-4423664Y2391054D01*
X-4413453Y2401519D01*
X-4403852Y2414981D01*
X-4403852Y2415946D01*
X-4399940Y2422144D01*
X-4399940Y2423972D01*
X-4398010Y2425750D01*
X-4398010Y2428189D01*
X-4396079Y2429916D01*
X-4396079Y2431338D01*
X-4392320Y2441956D01*
X-4390288Y2449626D01*
X-4388256Y2460091D01*
X-4388612Y2796844D01*
X-4391304Y2810052D01*
X-4393285Y2817723D01*
X-4396181Y2826816D01*
X-4401210Y2838653D01*
X-4404156Y2844241D01*
X-4411827Y2856788D01*
X-4422546Y2870047D01*
X-4433976Y2880563D01*
X-4441748Y2886862D01*
X-4443679Y2887827D01*
X-4448251Y2890824D01*
X-4459224Y2896768D01*
X-4470603Y2901746D01*
X-4472787Y2901746D01*
X-4478020Y2903677D01*
X-4485182Y2905506D01*
X-4505248Y2907944D01*
X-4582363Y2907995D01*
X-4592066Y2910230D01*
X-4599178Y2912414D01*
X-4604359Y2914446D01*
X-4608271Y2916224D01*
X-4621174Y2923387D01*
X-4630928Y2931312D01*
X-4637887Y2937662D01*
X-4646269Y2948127D01*
X-4653635Y2960217D01*
X-4658614Y2971139D01*
X-4660290Y2975305D01*
X-4662220Y2981604D01*
X-4664202Y2989986D01*
X-4666284Y3000400D01*
X-4666284Y3023463D01*
X-4664303Y3031490D01*
X-4664303Y3035604D01*
X-4662576Y3040837D01*
X-4660188Y3049219D01*
X-4654296Y3062478D01*
X-4648555Y3072231D01*
X-4642967Y3080105D01*
X-4633518Y3090468D01*
X-4626406Y3096056D01*
X-4624628Y3098393D01*
X-4623562Y3098393D01*
X-4618634Y3102000D01*
X-4611522Y3106064D01*
X-4601819Y3110484D01*
X-4595977Y3112363D01*
X-4588205Y3114497D01*
X-4572609Y3116681D01*
X-4412589Y3117545D01*
X-4405223Y3121050D01*
X-4403090Y3122269D01*
X-4394606Y3130753D01*
X-4393438Y3133598D01*
X-4390847Y3138220D01*
X-4388307Y3146094D01*
X-4388307Y3159506D01*
X-4390288Y3166364D01*
X-4394454Y3175203D01*
X-4402683Y3183534D01*
X-4405477Y3184855D01*
X-4410456Y3187750D01*
G37*
G36*
X-4535119Y3052368D02*
G01*
X-4542180Y3049676D01*
X-4545838Y3047644D01*
X-4553356Y3041345D01*
X-4559046Y3033166D01*
X-4560671Y3030016D01*
X-4563110Y3022752D01*
X-4564380Y3011576D01*
X-4563160Y3003194D01*
X-4561078Y2996234D01*
X-4557217Y2988564D01*
X-4554931Y2986176D01*
X-4553204Y2983636D01*
X-4545380Y2977388D01*
X-4542536Y2975660D01*
X-4535068Y2973019D01*
X-4525975Y2972206D01*
X-4515408Y2973374D01*
X-4504232Y2979216D01*
X-4495901Y2988005D01*
X-4494530Y2991358D01*
X-4491939Y2995980D01*
X-4489348Y3003854D01*
X-4489348Y3021380D01*
X-4491939Y3029254D01*
X-4494530Y3033877D01*
X-4495850Y3037128D01*
X-4503521Y3045358D01*
X-4506518Y3046780D01*
X-4510836Y3049574D01*
X-4518152Y3052368D01*
G37*
G36*
X-4634839Y2284730D02*
G01*
X-4646523Y2282545D01*
X-4654296Y2280462D01*
X-4660747Y2278329D01*
X-4668215Y2275179D01*
X-4673244Y2272487D01*
X-4675682Y2271471D01*
X-4679543Y2268778D01*
X-4684572Y2265832D01*
X-4694478Y2257653D01*
X-4702860Y2248763D01*
X-4710074Y2239772D01*
X-4718507Y2225802D01*
X-4724603Y2212340D01*
X-4724603Y2209749D01*
X-4726533Y2207056D01*
X-4726533Y2204364D01*
X-4728362Y2197912D01*
X-4729988Y2190953D01*
X-4731207Y2177694D01*
X-4731715Y1986432D01*
X-4729835Y1975510D01*
X-4728057Y1970227D01*
X-4726533Y1968601D01*
X-4726533Y1967433D01*
X-4721250Y1959914D01*
X-4717135Y1956562D01*
X-4715205Y1955596D01*
X-4710887Y1952802D01*
X-4703572Y1950059D01*
X-4520082Y1950059D01*
X-4512614Y1947976D01*
X-4509668Y1947976D01*
X-4497476Y1943201D01*
X-4489907Y1938934D01*
X-4485589Y1935429D01*
X-4484725Y1935429D01*
X-4480712Y1931568D01*
X-4471111Y1921256D01*
X-4464304Y1909978D01*
X-4460341Y1900885D01*
X-4458411Y1894636D01*
X-4456023Y1885543D01*
X-4456023Y1711248D01*
X-4458360Y1699412D01*
X-4460392Y1691741D01*
X-4462170Y1687169D01*
X-4462170Y1685798D01*
X-4468774Y1671523D01*
X-4474972Y1661058D01*
X-4482388Y1651355D01*
X-4489094Y1644294D01*
X-4497324Y1637334D01*
X-4499406Y1635963D01*
X-4503928Y1632356D01*
X-4520285Y1623771D01*
X-4521708Y1623771D01*
X-4525975Y1621790D01*
X-4533747Y1619656D01*
X-4543856Y1617472D01*
X-4569409Y1617522D01*
X-4574590Y1618894D01*
X-4581702Y1620215D01*
X-4590440Y1623110D01*
X-4602429Y1628241D01*
X-4609592Y1632305D01*
X-4618634Y1638604D01*
X-4626406Y1644904D01*
X-4638090Y1657604D01*
X-4642815Y1663852D01*
X-4649927Y1675333D01*
X-4655159Y1686915D01*
X-4657953Y1693824D01*
X-4662373Y1709369D01*
X-4662373Y1713636D01*
X-4664303Y1721662D01*
X-4664303Y1835251D01*
X-4666437Y1844395D01*
X-4670501Y1852777D01*
X-4678273Y1861261D01*
X-4686655Y1865833D01*
X-4697679Y1868525D01*
X-4703521Y1867662D01*
X-4710023Y1865782D01*
X-4715205Y1863445D01*
X-4722215Y1857806D01*
X-4726178Y1853031D01*
X-4729886Y1845919D01*
X-4732324Y1837436D01*
X-4732223Y1716836D01*
X-4728006Y1690319D01*
X-4725263Y1679651D01*
X-4721961Y1668729D01*
X-4717592Y1657197D01*
X-4711192Y1643278D01*
X-4703013Y1628292D01*
X-4693259Y1614322D01*
X-4681982Y1600403D01*
X-4675632Y1594104D01*
X-4665218Y1584604D01*
X-4651756Y1573885D01*
X-4649114Y1572209D01*
X-4646523Y1570888D01*
X-4641596Y1567281D01*
X-4639767Y1567281D01*
X-4639056Y1565960D01*
X-4628997Y1560830D01*
X-4627067Y1559610D01*
X-4610201Y1552803D01*
X-4595977Y1548536D01*
X-4588865Y1546860D01*
X-4581042Y1545742D01*
X-4575251Y1544320D01*
X-4538319Y1544269D01*
X-4516932Y1548536D01*
X-4510430Y1550416D01*
X-4496155Y1555343D01*
X-4485182Y1560372D01*
X-4476699Y1564995D01*
X-4468977Y1569567D01*
X-4466894Y1571447D01*
X-4465929Y1571447D01*
X-4461002Y1575663D01*
X-4460138Y1575663D01*
X-4446930Y1586382D01*
X-4427423Y1607362D01*
X-4415586Y1624228D01*
X-4413250Y1629003D01*
X-4410456Y1633169D01*
X-4404461Y1645005D01*
X-4399940Y1655825D01*
X-4399889Y1657553D01*
X-4398010Y1660245D01*
X-4398010Y1662684D01*
X-4396181Y1666646D01*
X-4392320Y1681276D01*
X-4388815Y1699412D01*
X-4387392Y1720291D01*
X-4387545Y1878584D01*
X-4388713Y1895297D01*
X-4390339Y1904390D01*
X-4392269Y1912721D01*
X-4396282Y1926691D01*
X-4399788Y1935073D01*
X-4407458Y1951075D01*
X-4414520Y1962404D01*
X-4422190Y1972716D01*
X-4435906Y1987346D01*
X-4448860Y1997913D01*
X-4450842Y1998929D01*
X-4453432Y2000605D01*
X-4457293Y2003501D01*
X-4466386Y2008530D01*
X-4473549Y2012035D01*
X-4486452Y2016810D01*
X-4493564Y2018944D01*
X-4502200Y2021179D01*
X-4507179Y2021179D01*
X-4512360Y2022856D01*
X-4662728Y2023618D01*
X-4662728Y2179777D01*
X-4660188Y2187448D01*
X-4658512Y2189632D01*
X-4658512Y2191359D01*
X-4653076Y2199081D01*
X-4645812Y2205075D01*
X-4638090Y2209342D01*
X-4629556Y2211527D01*
X-4621326Y2211527D01*
X-4614113Y2209292D01*
X-4610455Y2207310D01*
X-4609338Y2207310D01*
X-4601819Y2201875D01*
X-4596434Y2195830D01*
X-4592777Y2189530D01*
X-4590999Y2184654D01*
X-4588865Y2177694D01*
X-4588154Y2096820D01*
X-4586020Y2091232D01*
X-4583125Y2084984D01*
X-4574844Y2075688D01*
X-4568088Y2071928D01*
X-4560316Y2069287D01*
X-4548682Y2069287D01*
X-4540910Y2071928D01*
X-4534001Y2075789D01*
X-4524349Y2086813D01*
X-4524349Y2089302D01*
X-4522419Y2091080D01*
X-4522419Y2093518D01*
X-4520488Y2098497D01*
X-4520488Y2112162D01*
X-4518456Y2126081D01*
X-4516424Y2134463D01*
X-4514088Y2142134D01*
X-4511548Y2148586D01*
X-4508093Y2156104D01*
X-4505604Y2160270D01*
X-4504690Y2162352D01*
X-4497324Y2172817D01*
X-4486808Y2184247D01*
X-4476750Y2192426D01*
X-4467656Y2198217D01*
X-4459224Y2202332D01*
X-4451451Y2205024D01*
X-4444339Y2207209D01*
X-4432554Y2209393D01*
X-4413250Y2209444D01*
X-4405477Y2212086D01*
X-4400905Y2214372D01*
X-4398162Y2216099D01*
X-4393133Y2220976D01*
X-4388612Y2227173D01*
X-4386986Y2230272D01*
X-4384294Y2238705D01*
X-4384751Y2256485D01*
X-4388916Y2265527D01*
X-4392574Y2271115D01*
X-4400296Y2277821D01*
X-4405477Y2280361D01*
X-4411929Y2282647D01*
X-4438650Y2282647D01*
X-4445660Y2281174D01*
X-4454702Y2279904D01*
X-4468317Y2276246D01*
X-4472178Y2274824D01*
X-4477359Y2273503D01*
X-4478629Y2272182D01*
X-4481372Y2272182D01*
X-4483862Y2270099D01*
X-4485487Y2270099D01*
X-4499406Y2263089D01*
X-4505909Y2259228D01*
X-4511395Y2255418D01*
X-4512106Y2255418D01*
X-4519269Y2249627D01*
X-4524248Y2246020D01*
X-4533087Y2238197D01*
X-4536744Y2234488D01*
X-4538472Y2234488D01*
X-4545990Y2245309D01*
X-4557064Y2257247D01*
X-4567478Y2265730D01*
X-4572000Y2268372D01*
X-4577181Y2271877D01*
X-4589475Y2277719D01*
X-4597247Y2280361D01*
X-4605020Y2282494D01*
X-4618634Y2284730D01*
G37*
G36*
X-4270857Y7874863D02*
G01*
X-4288942Y7873136D01*
X-4305858Y7871104D01*
X-4321556Y7868107D01*
X-4334865Y7864957D01*
X-4345736Y7861655D01*
X-4348022Y7859725D01*
X-4351426Y7859725D01*
X-4369866Y7850327D01*
X-4382363Y7841386D01*
X-4393539Y7828788D01*
X-4402937Y7812328D01*
X-4410659Y7792059D01*
X-4415028Y7766456D01*
X-4415028Y7713421D01*
X-4410405Y7694066D01*
X-4406696Y7683855D01*
X-4404664Y7679791D01*
X-4396689Y7665974D01*
X-4389170Y7657134D01*
X-4380331Y7648854D01*
X-4362602Y7637729D01*
X-4344314Y7630515D01*
X-4322775Y7624470D01*
X-4294987Y7619136D01*
X-4276902Y7617155D01*
X-4255160Y7615174D01*
X-4198010Y7610856D01*
X-4196588Y7606385D01*
X-4196588Y7582662D01*
X-4199585Y7580630D01*
X-4212894Y7579410D01*
X-4280001Y7576972D01*
X-4323994Y7579359D01*
X-4350562Y7582255D01*
X-4365040Y7584541D01*
X-4396587Y7590586D01*
X-4401921Y7590586D01*
X-4404258Y7585354D01*
X-4404258Y7579868D01*
X-4407712Y7566609D01*
X-4415282Y7527899D01*
X-4422902Y7491475D01*
X-4418888Y7488986D01*
X-4388002Y7483703D01*
X-4365040Y7480503D01*
X-4336034Y7477506D01*
X-4307078Y7474864D01*
X-4183887Y7474864D01*
X-4163364Y7477556D01*
X-4146448Y7480706D01*
X-4133189Y7483602D01*
X-4119879Y7486853D01*
X-4101795Y7493101D01*
X-4098137Y7495336D01*
X-4091076Y7498334D01*
X-4072483Y7513624D01*
X-4063288Y7525867D01*
X-4052874Y7543546D01*
X-4052874Y7545679D01*
X-4049522Y7552385D01*
X-4046423Y7560513D01*
X-4043222Y7573772D01*
X-4039666Y7601305D01*
X-4039615Y7619644D01*
X-4043121Y7643114D01*
X-4050690Y7663891D01*
X-4059885Y7679181D01*
X-4070705Y7691018D01*
X-4084929Y7702499D01*
X-4101795Y7711592D01*
X-4121454Y7719059D01*
X-4124045Y7719059D01*
X-4131970Y7721904D01*
X-4158234Y7728203D01*
X-4165041Y7728203D01*
X-4171645Y7730337D01*
X-4191152Y7732369D01*
X-4215282Y7734350D01*
X-4232198Y7736382D01*
X-4258208Y7737703D01*
X-4259478Y7741970D01*
X-4258767Y7767472D01*
X-4226153Y7770063D01*
X-4157319Y7769199D01*
X-4128363Y7767015D01*
X-4085590Y7761630D01*
X-4081830Y7762849D01*
X-4081830Y7769504D01*
X-4079544Y7776667D01*
X-4077055Y7793990D01*
X-4074769Y7803134D01*
X-4070858Y7826603D01*
X-4068318Y7838846D01*
X-4064711Y7859420D01*
X-4071569Y7861757D01*
X-4100576Y7865922D01*
X-4112666Y7868005D01*
X-4130751Y7869885D01*
X-4157319Y7872018D01*
X-4174236Y7874203D01*
G37*
G36*
X-3043936Y7865922D02*
G01*
X-3229660Y7865364D01*
X-3246831Y7806232D01*
X-3248761Y7799070D01*
X-3250996Y7792872D01*
X-3253384Y7783779D01*
X-3271570Y7720584D01*
X-3285744Y7672730D01*
X-3287877Y7672171D01*
X-3290671Y7673695D01*
X-3319322Y7772298D01*
X-3324707Y7789062D01*
X-3324707Y7792770D01*
X-3328162Y7803134D01*
X-3345535Y7862316D01*
X-3347720Y7865872D01*
X-3534206Y7865821D01*
X-3537102Y7864297D01*
X-3543198Y7772552D01*
X-3544570Y7760360D01*
X-3550361Y7673695D01*
X-3553002Y7630871D01*
X-3555390Y7614564D01*
X-3557828Y7571740D01*
X-3563975Y7486396D01*
X-3562654Y7483500D01*
X-3412236Y7484059D01*
X-3410762Y7503414D01*
X-3404412Y7632903D01*
X-3403092Y7666431D01*
X-3401923Y7667447D01*
X-3398367Y7664450D01*
X-3365550Y7555433D01*
X-3363671Y7548270D01*
X-3358134Y7530947D01*
X-3356356Y7523835D01*
X-3351123Y7507478D01*
X-3347567Y7495286D01*
X-3345027Y7485075D01*
X-3342182Y7483551D01*
X-3233420Y7483551D01*
X-3230524Y7485989D01*
X-3230524Y7490002D01*
X-3227019Y7500366D01*
X-3197910Y7598765D01*
X-3177286Y7666990D01*
X-3174746Y7668310D01*
X-3172663Y7666532D01*
X-3164078Y7483551D01*
X-3013252Y7483551D01*
X-3012033Y7485278D01*
X-3014167Y7520736D01*
X-3020364Y7604353D01*
X-3024073Y7651242D01*
X-3023971Y7662468D01*
X-3027578Y7704277D01*
X-3033776Y7788909D01*
X-3036062Y7826603D01*
X-3038398Y7848041D01*
X-3038500Y7864805D01*
G37*
G36*
X-2957626Y7865922D02*
G01*
X-2958795Y7863331D01*
X-2958493Y7675727D01*
X-2813862Y7675727D01*
X-2813862Y7766608D01*
X-2812288Y7767980D01*
X-2784297Y7767828D01*
X-2756509Y7766050D01*
X-2745638Y7764170D01*
X-2739593Y7761376D01*
X-2734767Y7757261D01*
X-2730550Y7747101D01*
X-2730550Y7694117D01*
X-2734564Y7684871D01*
X-2739542Y7680198D01*
X-2749600Y7676438D01*
X-2773426Y7673848D01*
X-2811830Y7673035D01*
X-2813862Y7675727D01*
X-2958493Y7675727D01*
X-2958185Y7484059D01*
X-2814472Y7484059D01*
X-2813304Y7574788D01*
X-2698546Y7575956D01*
X-2678023Y7579207D01*
X-2668371Y7581544D01*
X-2657500Y7584846D01*
X-2652725Y7587538D01*
X-2649728Y7587538D01*
X-2629103Y7597800D01*
X-2613456Y7610195D01*
X-2600452Y7624724D01*
X-2590647Y7641081D01*
X-2586685Y7650225D01*
X-2583078Y7660436D01*
X-2579573Y7672679D01*
X-2577185Y7686954D01*
X-2574798Y7698028D01*
X-2574798Y7748879D01*
X-2578557Y7768488D01*
X-2583230Y7784795D01*
X-2590495Y7801914D01*
X-2600452Y7817408D01*
X-2610713Y7828635D01*
X-2627325Y7842097D01*
X-2640584Y7849260D01*
X-2658719Y7856372D01*
X-2669590Y7859522D01*
X-2697327Y7865211D01*
G37*
G36*
X-1816455Y7865922D02*
G01*
X-1817624Y7863331D01*
X-1817466Y7765440D01*
X-1672742Y7765440D01*
X-1671574Y7767980D01*
X-1643125Y7767828D01*
X-1615338Y7766050D01*
X-1604467Y7764170D01*
X-1598422Y7761376D01*
X-1593596Y7757261D01*
X-1589379Y7747101D01*
X-1589379Y7712354D01*
X-1593748Y7701889D01*
X-1597050Y7698536D01*
X-1604314Y7695336D01*
X-1626209Y7691475D01*
X-1672082Y7692034D01*
X-1672742Y7765440D01*
X-1817466Y7765440D01*
X-1817014Y7484059D01*
X-1673301Y7484059D01*
X-1672082Y7596174D01*
X-1645513Y7596784D01*
X-1640078Y7595666D01*
X-1640078Y7592415D01*
X-1636776Y7587030D01*
X-1630680Y7575803D01*
X-1624177Y7562545D01*
X-1621993Y7560614D01*
X-1621993Y7558125D01*
X-1607515Y7531404D01*
X-1607515Y7530439D01*
X-1596796Y7510576D01*
X-1585671Y7489139D01*
X-1582623Y7484059D01*
X-1424686Y7483500D01*
X-1422958Y7485075D01*
X-1495501Y7603337D01*
X-1498803Y7607350D01*
X-1498803Y7610703D01*
X-1483004Y7619339D01*
X-1468729Y7630464D01*
X-1456842Y7644130D01*
X-1448257Y7658404D01*
X-1444853Y7665516D01*
X-1441856Y7672679D01*
X-1438300Y7684871D01*
X-1433626Y7707325D01*
X-1433626Y7755229D01*
X-1438452Y7777683D01*
X-1441704Y7788909D01*
X-1448409Y7803134D01*
X-1455826Y7815376D01*
X-1468374Y7829651D01*
X-1481277Y7840014D01*
X-1496974Y7849209D01*
X-1513332Y7855712D01*
X-1524609Y7858912D01*
X-1538071Y7861909D01*
X-1557375Y7865262D01*
G37*
G36*
X-3691890Y7865872D02*
G01*
X-3913378Y7865821D01*
X-3915968Y7864348D01*
X-3917797Y7860233D01*
X-3919778Y7852105D01*
X-3928770Y7823555D01*
X-3934256Y7803845D01*
X-3935780Y7801762D01*
X-3937965Y7792974D01*
X-3943248Y7776667D01*
X-3945128Y7769504D01*
X-3956202Y7733842D01*
X-3959606Y7721244D01*
X-3961129Y7719161D01*
X-3963314Y7710373D01*
X-3968597Y7694066D01*
X-3970477Y7686954D01*
X-3979468Y7658404D01*
X-3983319Y7644790D01*
X-3835857Y7644790D01*
X-3832047Y7656372D01*
X-3807561Y7745018D01*
X-3804920Y7747711D01*
X-3799992Y7747101D01*
X-3796792Y7737906D01*
X-3785870Y7697114D01*
X-3783939Y7688986D01*
X-3781298Y7680807D01*
X-3777284Y7664500D01*
X-3774135Y7654290D01*
X-3771646Y7644130D01*
X-3775608Y7641590D01*
X-3834384Y7641590D01*
X-3835857Y7644790D01*
X-3983319Y7644790D01*
X-3984955Y7638694D01*
X-3986479Y7636611D01*
X-3988714Y7627823D01*
X-3993946Y7611465D01*
X-3995877Y7604353D01*
X-4004868Y7575803D01*
X-4010355Y7556093D01*
X-4011879Y7554010D01*
X-4014063Y7545222D01*
X-4019296Y7528915D01*
X-4021226Y7521752D01*
X-4030218Y7493203D01*
X-4032148Y7485075D01*
X-4030370Y7483500D01*
X-3879596Y7484059D01*
X-3875684Y7495286D01*
X-3867810Y7524851D01*
X-3864508Y7534402D01*
X-3864508Y7539177D01*
X-3860749Y7543698D01*
X-3744823Y7543698D01*
X-3741318Y7536637D01*
X-3741318Y7532725D01*
X-3737914Y7522768D01*
X-3733800Y7506462D01*
X-3730701Y7496302D01*
X-3729075Y7488123D01*
X-3725570Y7483551D01*
X-3574796Y7483551D01*
X-3573729Y7485075D01*
X-3577082Y7495286D01*
X-3579266Y7503414D01*
X-3595471Y7555433D01*
X-3597300Y7562545D01*
X-3602736Y7578852D01*
X-3604615Y7586014D01*
X-3620820Y7637983D01*
X-3622649Y7645146D01*
X-3628085Y7661452D01*
X-3629964Y7668564D01*
X-3646220Y7720584D01*
X-3647998Y7727696D01*
X-3653485Y7744002D01*
X-3655314Y7751165D01*
X-3671570Y7803134D01*
X-3673398Y7810296D01*
X-3678834Y7826603D01*
X-3680663Y7833766D01*
X-3689400Y7861960D01*
G37*
G36*
X-2530144Y7865872D02*
G01*
X-2531313Y7863331D01*
X-2530703Y7484059D01*
X-2242108Y7484059D01*
X-2242108Y7580884D01*
X-2385771Y7581950D01*
X-2386990Y7865364D01*
G37*
G36*
X-2200503Y7865872D02*
G01*
X-2201621Y7863331D01*
X-2201011Y7484059D01*
X-1879803Y7484059D01*
X-1879803Y7580884D01*
X-2056130Y7581950D01*
X-2056130Y7626756D01*
X-1912416Y7627823D01*
X-1912416Y7715503D01*
X-2055469Y7716012D01*
X-2056790Y7720584D01*
X-2056130Y7767472D01*
X-1900377Y7768488D01*
X-1898497Y7776667D01*
X-1896211Y7791602D01*
X-1894992Y7795006D01*
X-1892503Y7812328D01*
X-1890166Y7821523D01*
X-1886305Y7843926D01*
X-1882648Y7860690D01*
X-1883410Y7865364D01*
G37*
G36*
X1071880Y2572512D02*
G01*
X1071880Y2566924D01*
X1078484Y2566924D01*
X1113790Y2542286D01*
X1078484Y2542286D01*
X1078484Y2566924D01*
X1071880Y2566924D01*
X1071880Y2542286D01*
X1048766Y2542286D01*
X1048766Y2533396D01*
X1071880Y2533396D01*
X1071880Y2521712D01*
X1078484Y2521712D01*
X1078484Y2533396D01*
X1124458Y2533396D01*
X1124458Y2539492D01*
X1077214Y2572512D01*
G37*
G36*
X1073404Y2515362D02*
G01*
X1073404Y2489454D01*
X1080008Y2489454D01*
X1080008Y2515362D01*
G37*
G36*
X1065530Y2480056D02*
G01*
X1057706Y2478379D01*
X1051966Y2473655D01*
X1048410Y2466441D01*
X1047242Y2457196D01*
X1047321Y2456688D01*
X1051560Y2456688D01*
X1052626Y2462580D01*
X1055674Y2467152D01*
X1060450Y2470099D01*
X1066546Y2471166D01*
X1071880Y2470505D01*
X1076248Y2468473D01*
X1080058Y2465070D01*
X1083564Y2460244D01*
X1080490Y2454656D01*
X1090422Y2454656D01*
X1094689Y2461869D01*
X1099108Y2466289D01*
X1103630Y2468524D01*
X1108202Y2469134D01*
X1113282Y2468168D01*
X1117142Y2465527D01*
X1119530Y2461615D01*
X1120394Y2456942D01*
X1119327Y2452166D01*
X1116482Y2448560D01*
X1112418Y2446324D01*
X1107694Y2445512D01*
X1102461Y2446020D01*
X1098092Y2447594D01*
X1094181Y2450439D01*
X1090422Y2454656D01*
X1080490Y2454656D01*
X1079093Y2452116D01*
X1074826Y2446883D01*
X1070356Y2444089D01*
X1065530Y2443226D01*
X1059789Y2444191D01*
X1055370Y2446934D01*
X1052525Y2451150D01*
X1051560Y2456688D01*
X1047321Y2456688D01*
X1048664Y2448052D01*
X1052728Y2440838D01*
X1059027Y2436063D01*
X1067054Y2434336D01*
X1073810Y2435352D01*
X1079449Y2438450D01*
X1084275Y2443683D01*
X1088644Y2451100D01*
X1093216Y2444597D01*
X1098042Y2440482D01*
X1102817Y2438298D01*
X1107440Y2437638D01*
X1114298Y2438958D01*
X1119784Y2442768D01*
X1123391Y2448763D01*
X1124712Y2456688D01*
X1123391Y2464866D01*
X1119682Y2471470D01*
X1113840Y2475890D01*
X1106119Y2477516D01*
X1099972Y2476754D01*
X1094486Y2474264D01*
X1089609Y2469997D01*
X1085342Y2463800D01*
X1081278Y2470861D01*
X1076756Y2475941D01*
X1071524Y2479040D01*
G37*
G36*
X1067562Y2424684D02*
G01*
X1048766Y2423668D01*
X1048766Y2393696D01*
X1055624Y2393696D01*
X1058976Y2397404D01*
X1062736Y2400757D01*
X1066850Y2403652D01*
X1071270Y2406091D01*
X1075994Y2408072D01*
X1080871Y2409545D01*
X1085951Y2410409D01*
X1091184Y2410714D01*
X1097127Y2410307D01*
X1102664Y2409190D01*
X1107592Y2407310D01*
X1111808Y2404770D01*
X1115314Y2401570D01*
X1117904Y2397760D01*
X1119530Y2393340D01*
X1120140Y2388362D01*
X1119530Y2383383D01*
X1117904Y2379014D01*
X1115314Y2375255D01*
X1111808Y2372055D01*
X1107592Y2369566D01*
X1102664Y2367737D01*
X1097127Y2366619D01*
X1091184Y2366264D01*
X1085951Y2366568D01*
X1080871Y2367483D01*
X1075994Y2368905D01*
X1071270Y2370886D01*
X1066850Y2373325D01*
X1062736Y2376220D01*
X1058976Y2379573D01*
X1055624Y2383282D01*
X1048766Y2383282D01*
X1048766Y2353310D01*
X1067562Y2352294D01*
X1067562Y2358136D01*
X1056640Y2360676D01*
X1056640Y2376424D01*
X1059840Y2372258D01*
X1063396Y2368397D01*
X1067308Y2364892D01*
X1071524Y2361844D01*
X1075994Y2359355D01*
X1080820Y2357475D01*
X1085850Y2356256D01*
X1091184Y2355850D01*
X1098905Y2356561D01*
X1105662Y2358542D01*
X1111453Y2361641D01*
X1116228Y2365705D01*
X1119987Y2370582D01*
X1122730Y2376119D01*
X1124407Y2382062D01*
X1124966Y2388362D01*
X1124407Y2394813D01*
X1122730Y2400858D01*
X1119987Y2406446D01*
X1116228Y2411323D01*
X1111453Y2415387D01*
X1105662Y2418486D01*
X1098905Y2420416D01*
X1091184Y2421128D01*
X1085850Y2420721D01*
X1080820Y2419502D01*
X1075994Y2417622D01*
X1071524Y2415082D01*
X1067308Y2412034D01*
X1063396Y2408478D01*
X1059840Y2404567D01*
X1056640Y2400300D01*
X1056640Y2416302D01*
X1067562Y2418842D01*
G37*
D10*
X-6385844Y3316483D02*
G01*
X-6385844Y3122681D01*
X-6385844Y3316483D02*
G01*
X-6302786Y3316483D01*
X-6275100Y3307339D01*
X-6265702Y3298195D01*
X-6256558Y3279653D01*
X-6256558Y3261111D01*
X-6265702Y3242569D01*
X-6275100Y3233425D01*
X-6302786Y3224281D01*
X-6385844Y3224281D01*
X-6321074Y3224281D02*
G01*
X-6256558Y3122681D01*
X-6195598Y3316483D02*
G01*
X-6195598Y3122681D01*
X-6195598Y3316483D02*
G01*
X-6075456Y3316483D01*
X-6195598Y3224281D02*
G01*
X-6121684Y3224281D01*
X-6195598Y3122681D02*
G01*
X-6075456Y3122681D01*
X-5885210Y3288797D02*
G01*
X-5903752Y3307339D01*
X-5931438Y3316483D01*
X-5968268Y3316483D01*
X-5995954Y3307339D01*
X-6014496Y3288797D01*
X-6014496Y3270255D01*
X-6005352Y3251967D01*
X-5995954Y3242569D01*
X-5977666Y3233425D01*
X-5922294Y3214883D01*
X-5903752Y3205739D01*
X-5894354Y3196595D01*
X-5885210Y3178053D01*
X-5885210Y3150367D01*
X-5903752Y3131825D01*
X-5931438Y3122681D01*
X-5968268Y3122681D01*
X-5995954Y3131825D01*
X-6014496Y3150367D01*
X-5824250Y3316483D02*
G01*
X-5824250Y3122681D01*
X-5824250Y3316483D02*
G01*
X-5704108Y3316483D01*
X-5824250Y3224281D02*
G01*
X-5750336Y3224281D01*
X-5824250Y3122681D02*
G01*
X-5704108Y3122681D01*
X-5578632Y3316483D02*
G01*
X-5578632Y3122681D01*
X-5643148Y3316483D02*
G01*
X-5513862Y3316483D01*
X294358Y5333237D02*
G01*
X294358Y5237734D01*
X324330Y5333237D02*
G01*
X324330Y5237734D01*
X324330Y5333237D02*
G01*
X388084Y5237734D01*
X388084Y5333237D02*
G01*
X388084Y5237734D01*
X418056Y5333237D02*
G01*
X418056Y5237734D01*
X516100Y5310631D02*
G01*
X511528Y5319776D01*
X502638Y5328665D01*
X493494Y5333237D01*
X475206Y5333237D01*
X466062Y5328665D01*
X457172Y5319776D01*
X452600Y5310631D01*
X448028Y5296915D01*
X448028Y5274310D01*
X452600Y5260594D01*
X457172Y5251450D01*
X466062Y5242305D01*
X475206Y5237734D01*
X493494Y5237734D01*
X502638Y5242305D01*
X511528Y5251450D01*
X516100Y5260594D01*
X546072Y5333237D02*
G01*
X546072Y5237734D01*
X603476Y5333237D02*
G01*
X594332Y5328665D01*
X585188Y5319776D01*
X580616Y5310631D01*
X576298Y5296915D01*
X576298Y5274310D01*
X580616Y5260594D01*
X585188Y5251450D01*
X594332Y5242305D01*
X603476Y5237734D01*
X621510Y5237734D01*
X630654Y5242305D01*
X639798Y5251450D01*
X644370Y5260594D01*
X648942Y5274310D01*
X648942Y5296915D01*
X644370Y5310631D01*
X639798Y5319776D01*
X630654Y5328665D01*
X621510Y5333237D01*
X603476Y5333237D01*
X760702Y5351526D02*
G01*
X678914Y5205984D01*
X860778Y5333237D02*
G01*
X860778Y5237734D01*
X860778Y5333237D02*
G01*
X919706Y5333237D01*
X860778Y5287771D02*
G01*
X897100Y5287771D01*
X949932Y5333237D02*
G01*
X949932Y5237734D01*
X979904Y5333237D02*
G01*
X979904Y5237734D01*
X979904Y5333237D02*
G01*
X1043404Y5237734D01*
X1043404Y5333237D02*
G01*
X1043404Y5237734D01*
X192758Y9092437D02*
G01*
X192758Y8996934D01*
X192758Y9092437D02*
G01*
X233652Y9092437D01*
X247368Y9087865D01*
X251940Y9083294D01*
X256512Y9074404D01*
X256512Y9065260D01*
X251940Y9056115D01*
X247368Y9051544D01*
X233652Y9046971D01*
X192758Y9046971D01*
X224508Y9046971D02*
G01*
X256512Y8996934D01*
X286484Y9092437D02*
G01*
X286484Y8996934D01*
X286484Y9092437D02*
G01*
X345412Y9092437D01*
X286484Y9046971D02*
G01*
X322806Y9046971D01*
X286484Y8996934D02*
G01*
X345412Y8996934D01*
X375384Y9092437D02*
G01*
X411960Y8996934D01*
X448282Y9092437D02*
G01*
X411960Y8996934D01*
X478254Y9092437D02*
G01*
X478254Y8996934D01*
X478254Y9092437D02*
G01*
X537182Y9092437D01*
X478254Y9046971D02*
G01*
X514576Y9046971D01*
X478254Y8996934D02*
G01*
X537182Y8996934D01*
X567408Y9092437D02*
G01*
X567408Y8996934D01*
X567408Y9092437D02*
G01*
X608302Y9092437D01*
X621764Y9087865D01*
X626336Y9083294D01*
X630908Y9074404D01*
X630908Y9065260D01*
X626336Y9056115D01*
X621764Y9051544D01*
X608302Y9046971D01*
X567408Y9046971D01*
X599158Y9046971D02*
G01*
X630908Y8996934D01*
X660880Y9092437D02*
G01*
X660880Y8996934D01*
X660880Y9092437D02*
G01*
X701774Y9092437D01*
X715490Y9087865D01*
X720062Y9083294D01*
X724634Y9074404D01*
X724634Y9065260D01*
X720062Y9056115D01*
X715490Y9051544D01*
X701774Y9046971D01*
X660880Y9046971D02*
G01*
X701774Y9046971D01*
X715490Y9042400D01*
X720062Y9038081D01*
X724634Y9028937D01*
X724634Y9015221D01*
X720062Y9006078D01*
X715490Y9001505D01*
X701774Y8996934D01*
X660880Y8996934D01*
X383258Y7416037D02*
G01*
X383258Y7320534D01*
X383258Y7416037D02*
G01*
X415008Y7416037D01*
X428724Y7411465D01*
X437868Y7402576D01*
X442440Y7393431D01*
X447012Y7379715D01*
X447012Y7357110D01*
X442440Y7343394D01*
X437868Y7334250D01*
X428724Y7325105D01*
X415008Y7320534D01*
X383258Y7320534D01*
X476984Y7416037D02*
G01*
X476984Y7320534D01*
X476984Y7416037D02*
G01*
X535912Y7416037D01*
X476984Y7370571D02*
G01*
X513306Y7370571D01*
X476984Y7320534D02*
G01*
X535912Y7320534D01*
X565884Y7416037D02*
G01*
X565884Y7320534D01*
X565884Y7320534D02*
G01*
X620494Y7320534D01*
X686788Y7416037D02*
G01*
X650466Y7320534D01*
X686788Y7416037D02*
G01*
X723364Y7320534D01*
X664182Y7352537D02*
G01*
X709648Y7352537D01*
X753336Y7416037D02*
G01*
X789658Y7370571D01*
X789658Y7320534D01*
X825980Y7416037D02*
G01*
X789658Y7370571D01*
X1003780Y5688837D02*
G01*
X967458Y5593334D01*
X1003780Y5688837D02*
G01*
X1040102Y5593334D01*
X981174Y5625337D02*
G01*
X1026640Y5625337D01*
X1005558Y5130037D02*
G01*
X1005558Y5034534D01*
X1005558Y5130037D02*
G01*
X1046452Y5130037D01*
X1060168Y5125465D01*
X1064740Y5120894D01*
X1069312Y5112004D01*
X1069312Y5102860D01*
X1064740Y5093715D01*
X1060168Y5089144D01*
X1046452Y5084571D01*
X1005558Y5084571D02*
G01*
X1046452Y5084571D01*
X1060168Y5080000D01*
X1064740Y5075681D01*
X1069312Y5066537D01*
X1069312Y5052821D01*
X1064740Y5043678D01*
X1060168Y5039105D01*
X1046452Y5034534D01*
X1005558Y5034534D01*
X-6650989Y6670299D02*
G01*
X-6656323Y6667505D01*
X-6661911Y6662171D01*
X-6664451Y6656583D01*
X-6664451Y6645661D01*
X-6661911Y6640327D01*
X-6656323Y6634739D01*
X-6650989Y6632199D01*
X-6642607Y6629405D01*
X-6629145Y6629405D01*
X-6621017Y6632199D01*
X-6615429Y6634739D01*
X-6610095Y6640327D01*
X-6607301Y6645661D01*
X-6607301Y6656583D01*
X-6610095Y6662171D01*
X-6615429Y6667505D01*
X-6621017Y6670299D01*
X-6629145Y6670299D01*
X-6629145Y6656583D02*
G01*
X-6629145Y6670299D01*
X-6664451Y6688333D02*
G01*
X-6607301Y6688333D01*
X-6664451Y6688333D02*
G01*
X-6607301Y6726433D01*
X-6664451Y6726433D02*
G01*
X-6607301Y6726433D01*
X-6664451Y6744467D02*
G01*
X-6607301Y6744467D01*
X-6664451Y6744467D02*
G01*
X-6664451Y6763517D01*
X-6661911Y6771645D01*
X-6656323Y6777233D01*
X-6650989Y6780027D01*
X-6642607Y6782567D01*
X-6629145Y6782567D01*
X-6621017Y6780027D01*
X-6615429Y6777233D01*
X-6610095Y6771645D01*
X-6607301Y6763517D01*
X-6607301Y6744467D01*
X-6664451Y6842765D02*
G01*
X-6607301Y6864609D01*
X-6664451Y6886199D02*
G01*
X-6607301Y6864609D01*
X-6650989Y6945127D02*
G01*
X-6656323Y6942587D01*
X-6661911Y6936999D01*
X-6664451Y6931665D01*
X-6664451Y6920743D01*
X-6661911Y6915155D01*
X-6656323Y6909821D01*
X-6650989Y6907027D01*
X-6642607Y6904233D01*
X-6629145Y6904233D01*
X-6621017Y6907027D01*
X-6615429Y6909821D01*
X-6610095Y6915155D01*
X-6607301Y6920743D01*
X-6607301Y6931665D01*
X-6610095Y6936999D01*
X-6615429Y6942587D01*
X-6621017Y6945127D01*
X-6650989Y7004055D02*
G01*
X-6656323Y7001515D01*
X-6661911Y6995927D01*
X-6664451Y6990593D01*
X-6664451Y6979671D01*
X-6661911Y6974083D01*
X-6656323Y6968749D01*
X-6650989Y6965955D01*
X-6642607Y6963161D01*
X-6629145Y6963161D01*
X-6621017Y6965955D01*
X-6615429Y6968749D01*
X-6610095Y6974083D01*
X-6607301Y6979671D01*
X-6607301Y6990593D01*
X-6610095Y6995927D01*
X-6615429Y7001515D01*
X-6621017Y7004055D01*
X-6656323Y7186427D02*
G01*
X-6661911Y7180839D01*
X-6664451Y7172711D01*
X-6664451Y7161789D01*
X-6661911Y7153661D01*
X-6656323Y7148073D01*
X-6650989Y7148073D01*
X-6645401Y7150867D01*
X-6642607Y7153661D01*
X-6640067Y7158995D01*
X-6634479Y7175505D01*
X-6631939Y7180839D01*
X-6629145Y7183633D01*
X-6623557Y7186427D01*
X-6615429Y7186427D01*
X-6610095Y7180839D01*
X-6607301Y7172711D01*
X-6607301Y7161789D01*
X-6610095Y7153661D01*
X-6615429Y7148073D01*
X-6650989Y7245101D02*
G01*
X-6656323Y7242561D01*
X-6661911Y7236973D01*
X-6664451Y7231639D01*
X-6664451Y7220717D01*
X-6661911Y7215129D01*
X-6656323Y7209795D01*
X-6650989Y7207001D01*
X-6642607Y7204207D01*
X-6629145Y7204207D01*
X-6621017Y7207001D01*
X-6615429Y7209795D01*
X-6610095Y7215129D01*
X-6607301Y7220717D01*
X-6607301Y7231639D01*
X-6610095Y7236973D01*
X-6615429Y7242561D01*
X-6621017Y7245101D01*
X-6664451Y7263135D02*
G01*
X-6607301Y7263135D01*
X-6607301Y7263135D02*
G01*
X-6607301Y7295901D01*
X-6656323Y7436109D02*
G01*
X-6661911Y7430775D01*
X-6664451Y7422393D01*
X-6664451Y7411471D01*
X-6661911Y7403343D01*
X-6656323Y7398009D01*
X-6650989Y7398009D01*
X-6645401Y7400803D01*
X-6642607Y7403343D01*
X-6640067Y7408931D01*
X-6634479Y7425187D01*
X-6631939Y7430775D01*
X-6629145Y7433315D01*
X-6623557Y7436109D01*
X-6615429Y7436109D01*
X-6610095Y7430775D01*
X-6607301Y7422393D01*
X-6607301Y7411471D01*
X-6610095Y7403343D01*
X-6615429Y7398009D01*
X-6664451Y7454143D02*
G01*
X-6607301Y7454143D01*
X-6664451Y7454143D02*
G01*
X-6664451Y7473193D01*
X-6661911Y7481321D01*
X-6656323Y7486909D01*
X-6650989Y7489703D01*
X-6642607Y7492243D01*
X-6629145Y7492243D01*
X-6621017Y7489703D01*
X-6615429Y7486909D01*
X-6610095Y7481321D01*
X-6607301Y7473193D01*
X-6607301Y7454143D01*
X-6664451Y7532121D02*
G01*
X-6607301Y7510277D01*
X-6664451Y7532121D02*
G01*
X-6607301Y7553965D01*
X-6626351Y7518405D02*
G01*
X-6626351Y7545837D01*
X-6664451Y7656073D02*
G01*
X-6607301Y7656073D01*
X-6664451Y7656073D02*
G01*
X-6664451Y7680457D01*
X-6661911Y7688585D01*
X-6659117Y7691379D01*
X-6653529Y7694173D01*
X-6648195Y7694173D01*
X-6642607Y7691379D01*
X-6640067Y7688585D01*
X-6637273Y7680457D01*
X-6637273Y7656073D01*
X-6637273Y7675123D02*
G01*
X-6607301Y7694173D01*
X-6664451Y7712207D02*
G01*
X-6607301Y7712207D01*
X-6664451Y7712207D02*
G01*
X-6664451Y7747513D01*
X-6637273Y7712207D02*
G01*
X-6637273Y7734051D01*
X-6607301Y7712207D02*
G01*
X-6607301Y7747513D01*
X-6656323Y7803647D02*
G01*
X-6661911Y7798313D01*
X-6664451Y7790185D01*
X-6664451Y7779263D01*
X-6661911Y7771135D01*
X-6656323Y7765547D01*
X-6650989Y7765547D01*
X-6645401Y7768341D01*
X-6642607Y7771135D01*
X-6640067Y7776469D01*
X-6634479Y7792979D01*
X-6631939Y7798313D01*
X-6629145Y7801107D01*
X-6623557Y7803647D01*
X-6615429Y7803647D01*
X-6610095Y7798313D01*
X-6607301Y7790185D01*
X-6607301Y7779263D01*
X-6610095Y7771135D01*
X-6615429Y7765547D01*
X-6664451Y7905755D02*
G01*
X-6607301Y7905755D01*
X-6664451Y7905755D02*
G01*
X-6664451Y7924805D01*
X-6661911Y7932933D01*
X-6656323Y7938521D01*
X-6650989Y7941315D01*
X-6642607Y7943855D01*
X-6629145Y7943855D01*
X-6621017Y7941315D01*
X-6615429Y7938521D01*
X-6610095Y7932933D01*
X-6607301Y7924805D01*
X-6607301Y7905755D01*
X-6650989Y8002783D02*
G01*
X-6656323Y8000243D01*
X-6661911Y7994655D01*
X-6664451Y7989321D01*
X-6664451Y7978399D01*
X-6661911Y7972811D01*
X-6656323Y7967477D01*
X-6650989Y7964683D01*
X-6642607Y7961889D01*
X-6629145Y7961889D01*
X-6621017Y7964683D01*
X-6615429Y7967477D01*
X-6610095Y7972811D01*
X-6607301Y7978399D01*
X-6607301Y7989321D01*
X-6610095Y7994655D01*
X-6615429Y8000243D01*
X-6621017Y8002783D01*
X-6650989Y8145785D02*
G01*
X-6656323Y8142991D01*
X-6661911Y8137657D01*
X-6664451Y8132069D01*
X-6664451Y8121147D01*
X-6661911Y8115813D01*
X-6656323Y8110225D01*
X-6650989Y8107685D01*
X-6642607Y8104891D01*
X-6629145Y8104891D01*
X-6621017Y8107685D01*
X-6615429Y8110225D01*
X-6610095Y8115813D01*
X-6607301Y8121147D01*
X-6607301Y8132069D01*
X-6610095Y8137657D01*
X-6615429Y8142991D01*
X-6621017Y8145785D01*
X-6656323Y8201919D02*
G01*
X-6661911Y8196585D01*
X-6664451Y8188203D01*
X-6664451Y8177281D01*
X-6661911Y8169153D01*
X-6656323Y8163819D01*
X-6650989Y8163819D01*
X-6645401Y8166613D01*
X-6642607Y8169153D01*
X-6640067Y8174741D01*
X-6634479Y8190997D01*
X-6631939Y8196585D01*
X-6629145Y8199125D01*
X-6623557Y8201919D01*
X-6615429Y8201919D01*
X-6610095Y8196585D01*
X-6607301Y8188203D01*
X-6607301Y8177281D01*
X-6610095Y8169153D01*
X-6615429Y8163819D01*
X-6664451Y8345937D02*
G01*
X-6607301Y8345937D01*
X-6664451Y8345937D02*
G01*
X-6664451Y8370575D01*
X-6661911Y8378703D01*
X-6659117Y8381497D01*
X-6653529Y8384037D01*
X-6648195Y8384037D01*
X-6642607Y8381497D01*
X-6640067Y8378703D01*
X-6637273Y8370575D01*
X-6637273Y8345937D02*
G01*
X-6637273Y8370575D01*
X-6634479Y8378703D01*
X-6631939Y8381497D01*
X-6626351Y8384037D01*
X-6618223Y8384037D01*
X-6612635Y8381497D01*
X-6610095Y8378703D01*
X-6607301Y8370575D01*
X-6607301Y8345937D01*
X-6664451Y8402071D02*
G01*
X-6607301Y8402071D01*
X-6607301Y8402071D02*
G01*
X-6607301Y8434837D01*
X-6395570Y4813330D02*
G01*
X-6338420Y4813330D01*
X-6395570Y4813330D02*
G01*
X-6395570Y4848636D01*
X-6368392Y4813330D02*
G01*
X-6368392Y4835174D01*
X-6395570Y4866670D02*
G01*
X-6338420Y4880386D01*
X-6395570Y4894102D02*
G01*
X-6338420Y4880386D01*
X-6395570Y4894102D02*
G01*
X-6338420Y4907564D01*
X-6395570Y4921280D02*
G01*
X-6338420Y4907564D01*
X-6395570Y4939314D02*
G01*
X-6338420Y4939314D01*
X-6395570Y4939314D02*
G01*
X-6395570Y4958364D01*
X-6392776Y4966492D01*
X-6387442Y4972080D01*
X-6381854Y4974874D01*
X-6373726Y4977414D01*
X-6360010Y4977414D01*
X-6351882Y4974874D01*
X-6346548Y4972080D01*
X-6340960Y4966492D01*
X-6338420Y4958364D01*
X-6338420Y4939314D01*
X-6395570Y5037612D02*
G01*
X-6338420Y5037612D01*
X-6395570Y5037612D02*
G01*
X-6395570Y5061996D01*
X-6392776Y5070124D01*
X-6390236Y5072918D01*
X-6384648Y5075712D01*
X-6376520Y5075712D01*
X-6370932Y5072918D01*
X-6368392Y5070124D01*
X-6365598Y5061996D01*
X-6365598Y5037612D01*
X-6395570Y5093746D02*
G01*
X-6338420Y5093746D01*
X-6338420Y5093746D02*
G01*
X-6338420Y5126512D01*
X-6395570Y5166136D02*
G01*
X-6338420Y5144292D01*
X-6395570Y5166136D02*
G01*
X-6338420Y5187980D01*
X-6357470Y5152674D02*
G01*
X-6357470Y5179852D01*
X-6395570Y5206014D02*
G01*
X-6368392Y5227858D01*
X-6338420Y5227858D01*
X-6395570Y5249702D02*
G01*
X-6368392Y5227858D01*
X-6395570Y5309646D02*
G01*
X-6338420Y5309646D01*
X-6395570Y5309646D02*
G01*
X-6395570Y5334284D01*
X-6392776Y5342412D01*
X-6390236Y5345206D01*
X-6384648Y5347746D01*
X-6379314Y5347746D01*
X-6373726Y5345206D01*
X-6370932Y5342412D01*
X-6368392Y5334284D01*
X-6368392Y5309646D01*
X-6368392Y5328696D02*
G01*
X-6338420Y5347746D01*
X-6395570Y5365780D02*
G01*
X-6338420Y5365780D01*
X-6395570Y5365780D02*
G01*
X-6395570Y5401340D01*
X-6368392Y5365780D02*
G01*
X-6368392Y5387624D01*
X-6338420Y5365780D02*
G01*
X-6338420Y5401340D01*
X-6381854Y5460268D02*
G01*
X-6387442Y5457474D01*
X-6392776Y5452140D01*
X-6395570Y5446552D01*
X-6395570Y5435630D01*
X-6392776Y5430296D01*
X-6387442Y5424708D01*
X-6381854Y5421914D01*
X-6373726Y5419374D01*
X-6360010Y5419374D01*
X-6351882Y5421914D01*
X-6346548Y5424708D01*
X-6340960Y5430296D01*
X-6338420Y5435630D01*
X-6338420Y5446552D01*
X-6340960Y5452140D01*
X-6346548Y5457474D01*
X-6351882Y5460268D01*
X-6381854Y5561106D02*
G01*
X-6387442Y5558312D01*
X-6392776Y5552978D01*
X-6395570Y5547390D01*
X-6395570Y5536468D01*
X-6392776Y5531134D01*
X-6387442Y5525546D01*
X-6381854Y5523006D01*
X-6373726Y5520212D01*
X-6360010Y5520212D01*
X-6351882Y5523006D01*
X-6346548Y5525546D01*
X-6340960Y5531134D01*
X-6338420Y5536468D01*
X-6338420Y5547390D01*
X-6340960Y5552978D01*
X-6346548Y5558312D01*
X-6351882Y5561106D01*
X-6360010Y5561106D01*
X-6360010Y5547390D02*
G01*
X-6360010Y5561106D01*
X-6395570Y5579140D02*
G01*
X-6338420Y5579140D01*
X-6395570Y5579140D02*
G01*
X-6338420Y5617240D01*
X-6395570Y5617240D02*
G01*
X-6338420Y5617240D01*
X-6395570Y5635274D02*
G01*
X-6338420Y5635274D01*
X-6395570Y5635274D02*
G01*
X-6395570Y5654324D01*
X-6392776Y5662452D01*
X-6387442Y5668040D01*
X-6381854Y5670834D01*
X-6373726Y5673374D01*
X-6360010Y5673374D01*
X-6351882Y5670834D01*
X-6346548Y5668040D01*
X-6340960Y5662452D01*
X-6338420Y5654324D01*
X-6338420Y5635274D01*
X-4595116Y4050619D02*
G01*
X-4595116Y3955115D01*
X-4595116Y4050619D02*
G01*
X-4554222Y4050619D01*
X-4540506Y4046047D01*
X-4535934Y4041475D01*
X-4531616Y4032331D01*
X-4531616Y4018869D01*
X-4535934Y4009725D01*
X-4540506Y4005153D01*
X-4554222Y4000581D01*
X-4595116Y4000581D01*
X-4501390Y4050619D02*
G01*
X-4501390Y3955115D01*
X-4439668Y4050619D02*
G01*
X-4439668Y3955115D01*
X-4471418Y4050619D02*
G01*
X-4407918Y4050619D01*
X-4309620Y4028013D02*
G01*
X-4314192Y4036903D01*
X-4323336Y4046047D01*
X-4332480Y4050619D01*
X-4350514Y4050619D01*
X-4359658Y4046047D01*
X-4368802Y4036903D01*
X-4373374Y4028013D01*
X-4377946Y4014297D01*
X-4377946Y3991437D01*
X-4373374Y3977975D01*
X-4368802Y3968831D01*
X-4359658Y3959687D01*
X-4350514Y3955115D01*
X-4332480Y3955115D01*
X-4323336Y3959687D01*
X-4314192Y3968831D01*
X-4309620Y3977975D01*
X-4279648Y4050619D02*
G01*
X-4279648Y3955115D01*
X-4216148Y4050619D02*
G01*
X-4216148Y3955115D01*
X-4279648Y4005153D02*
G01*
X-4216148Y4005153D01*
X-4480161Y2641625D02*
G01*
X-4384657Y2641625D01*
X-4480161Y2641625D02*
G01*
X-4480161Y2673375D01*
X-4475589Y2687091D01*
X-4466445Y2696235D01*
X-4457555Y2700807D01*
X-4443839Y2705125D01*
X-4420979Y2705125D01*
X-4407517Y2700807D01*
X-4398373Y2696235D01*
X-4389229Y2687091D01*
X-4384657Y2673375D01*
X-4384657Y2641625D01*
X-4480161Y2771673D02*
G01*
X-4384657Y2735351D01*
X-4480161Y2771673D02*
G01*
X-4384657Y2807995D01*
X-4416407Y2748813D02*
G01*
X-4416407Y2794279D01*
X-4480161Y2837967D02*
G01*
X-4384657Y2837967D01*
X-4466445Y2931693D02*
G01*
X-4475589Y2922549D01*
X-4480161Y2908833D01*
X-4480161Y2890799D01*
X-4475589Y2877083D01*
X-4466445Y2867939D01*
X-4457555Y2867939D01*
X-4448411Y2872511D01*
X-4443839Y2877083D01*
X-4439267Y2886227D01*
X-4430123Y2913405D01*
X-4425551Y2922549D01*
X-4420979Y2927121D01*
X-4412089Y2931693D01*
X-4398373Y2931693D01*
X-4389229Y2922549D01*
X-4384657Y2908833D01*
X-4384657Y2890799D01*
X-4389229Y2877083D01*
X-4398373Y2867939D01*
X-4480161Y2961665D02*
G01*
X-4434695Y2997987D01*
X-4384657Y2997987D01*
X-4480161Y3034309D02*
G01*
X-4434695Y2997987D01*
X-4466445Y3197885D02*
G01*
X-4475589Y3188995D01*
X-4480161Y3175279D01*
X-4480161Y3156991D01*
X-4475589Y3143529D01*
X-4466445Y3134385D01*
X-4457555Y3134385D01*
X-4448411Y3138957D01*
X-4443839Y3143529D01*
X-4439267Y3152419D01*
X-4430123Y3179851D01*
X-4425551Y3188995D01*
X-4420979Y3193313D01*
X-4412089Y3197885D01*
X-4398373Y3197885D01*
X-4389229Y3188995D01*
X-4384657Y3175279D01*
X-4384657Y3156991D01*
X-4389229Y3143529D01*
X-4398373Y3134385D01*
X-4480161Y3227857D02*
G01*
X-4384657Y3227857D01*
X-4480161Y3227857D02*
G01*
X-4480161Y3287039D01*
X-4434695Y3227857D02*
G01*
X-4434695Y3264433D01*
X-4384657Y3227857D02*
G01*
X-4384657Y3287039D01*
X-4480161Y3317011D02*
G01*
X-4384657Y3317011D01*
X-4480161Y3317011D02*
G01*
X-4480161Y3376193D01*
X-4434695Y3317011D02*
G01*
X-4434695Y3353333D01*
X-4384657Y3317011D02*
G01*
X-4384657Y3376193D01*
X-4480161Y3406165D02*
G01*
X-4384657Y3406165D01*
X-4480161Y3406165D02*
G01*
X-4480161Y3437915D01*
X-4475589Y3451631D01*
X-4466445Y3460775D01*
X-4457555Y3465347D01*
X-4443839Y3469665D01*
X-4420979Y3469665D01*
X-4407517Y3465347D01*
X-4398373Y3460775D01*
X-4389229Y3451631D01*
X-4384657Y3437915D01*
X-4384657Y3406165D01*
X-2425014Y838225D02*
G01*
X-2329510Y838225D01*
X-2425014Y838225D02*
G01*
X-2425014Y897407D01*
X-2379548Y838225D02*
G01*
X-2379548Y874547D01*
X-2329510Y838225D02*
G01*
X-2329510Y897407D01*
X-2425014Y927379D02*
G01*
X-2329510Y927379D01*
X-2425014Y927379D02*
G01*
X-2329510Y990879D01*
X-2425014Y990879D02*
G01*
X-2329510Y990879D01*
X-2425014Y1020851D02*
G01*
X-2329510Y1020851D01*
X-2425014Y1020851D02*
G01*
X-2425014Y1080033D01*
X-2379548Y1020851D02*
G01*
X-2379548Y1057173D01*
X-2329510Y1020851D02*
G01*
X-2329510Y1080033D01*
X-2425014Y1110005D02*
G01*
X-2329510Y1110005D01*
X-2425014Y1110005D02*
G01*
X-2425014Y1150899D01*
X-2420442Y1164615D01*
X-2415870Y1169187D01*
X-2406726Y1173759D01*
X-2397836Y1173759D01*
X-2388692Y1169187D01*
X-2384120Y1164615D01*
X-2379548Y1150899D01*
X-2379548Y1110005D01*
X-2379548Y1141755D02*
G01*
X-2329510Y1173759D01*
X-2402408Y1271803D02*
G01*
X-2411298Y1267231D01*
X-2420442Y1258087D01*
X-2425014Y1249197D01*
X-2425014Y1230909D01*
X-2420442Y1221765D01*
X-2411298Y1212621D01*
X-2402408Y1208303D01*
X-2388692Y1203731D01*
X-2365832Y1203731D01*
X-2352370Y1208303D01*
X-2343226Y1212621D01*
X-2334082Y1221765D01*
X-2329510Y1230909D01*
X-2329510Y1249197D01*
X-2334082Y1258087D01*
X-2343226Y1267231D01*
X-2352370Y1271803D01*
X-2365832Y1271803D01*
X-2365832Y1249197D02*
G01*
X-2365832Y1271803D01*
X-2425014Y1301775D02*
G01*
X-2329510Y1301775D01*
X-2425014Y1368323D02*
G01*
X-2329510Y1331747D01*
X-2425014Y1368323D02*
G01*
X-2329510Y1404645D01*
X-2361260Y1345463D02*
G01*
X-2361260Y1390929D01*
X-2411298Y1498117D02*
G01*
X-2420442Y1489227D01*
X-2425014Y1475511D01*
X-2425014Y1457223D01*
X-2420442Y1443761D01*
X-2411298Y1434617D01*
X-2402408Y1434617D01*
X-2393264Y1439189D01*
X-2388692Y1443761D01*
X-2384120Y1452651D01*
X-2374976Y1480083D01*
X-2370404Y1489227D01*
X-2365832Y1493545D01*
X-2356942Y1498117D01*
X-2343226Y1498117D01*
X-2334082Y1489227D01*
X-2329510Y1475511D01*
X-2329510Y1457223D01*
X-2334082Y1443761D01*
X-2343226Y1434617D01*
X-5904745Y1723567D02*
G01*
X-5904745Y1819071D01*
X-5904745Y1723567D02*
G01*
X-5963927Y1723567D01*
X-5904745Y1769033D02*
G01*
X-5941067Y1769033D01*
X-5904745Y1819071D02*
G01*
X-5963927Y1819071D01*
X-5993899Y1723567D02*
G01*
X-5993899Y1819071D01*
X-5993899Y1723567D02*
G01*
X-6057399Y1819071D01*
X-6057399Y1723567D02*
G01*
X-6057399Y1819071D01*
X-6119375Y1723567D02*
G01*
X-6119375Y1819071D01*
X-6087371Y1723567D02*
G01*
X-6151125Y1723567D01*
X-6181097Y1723567D02*
G01*
X-6181097Y1819071D01*
X-6181097Y1723567D02*
G01*
X-6221991Y1723567D01*
X-6235707Y1728139D01*
X-6240279Y1732711D01*
X-6244851Y1741601D01*
X-6244851Y1750745D01*
X-6240279Y1759889D01*
X-6235707Y1764461D01*
X-6221991Y1769033D01*
X-6181097Y1769033D01*
X-6212847Y1769033D02*
G01*
X-6244851Y1819071D01*
X-6311145Y1723567D02*
G01*
X-6274823Y1819071D01*
X-6311145Y1723567D02*
G01*
X-6347467Y1819071D01*
X-6288285Y1787067D02*
G01*
X-6333751Y1787067D01*
X-6377439Y1723567D02*
G01*
X-6377439Y1819071D01*
X-6377439Y1723567D02*
G01*
X-6409189Y1723567D01*
X-6422905Y1728139D01*
X-6432049Y1737029D01*
X-6436621Y1746173D01*
X-6441193Y1759889D01*
X-6441193Y1782495D01*
X-6436621Y1796211D01*
X-6432049Y1805355D01*
X-6422905Y1814499D01*
X-6409189Y1819071D01*
X-6377439Y1819071D01*
X-6507487Y1723567D02*
G01*
X-6471165Y1819071D01*
X-6507487Y1723567D02*
G01*
X-6543809Y1819071D01*
X-6484627Y1787067D02*
G01*
X-6530093Y1787067D01*
X-2971802Y8495614D02*
G01*
X-2971802Y8400110D01*
X-2971802Y8495614D02*
G01*
X-2930908Y8495614D01*
X-2917192Y8491042D01*
X-2912620Y8486470D01*
X-2908048Y8477326D01*
X-2908048Y8468436D01*
X-2912620Y8459292D01*
X-2917192Y8454720D01*
X-2930908Y8450148D01*
X-2971802Y8450148D02*
G01*
X-2930908Y8450148D01*
X-2917192Y8445576D01*
X-2912620Y8441004D01*
X-2908048Y8431860D01*
X-2908048Y8418398D01*
X-2912620Y8409254D01*
X-2917192Y8404682D01*
X-2930908Y8400110D01*
X-2971802Y8400110D01*
X-2878076Y8441004D02*
G01*
X-2796288Y8441004D01*
X-2336802Y8838514D02*
G01*
X-2336802Y8743010D01*
X-2336802Y8838514D02*
G01*
X-2295908Y8838514D01*
X-2282192Y8833942D01*
X-2277620Y8829370D01*
X-2273048Y8820226D01*
X-2273048Y8811336D01*
X-2277620Y8802192D01*
X-2282192Y8797620D01*
X-2295908Y8793048D01*
X-2336802Y8793048D01*
X-2305052Y8793048D02*
G01*
X-2273048Y8743010D01*
X-2243076Y8838514D02*
G01*
X-2243076Y8743010D01*
X-2243076Y8838514D02*
G01*
X-2184148Y8838514D01*
X-2243076Y8793048D02*
G01*
X-2206754Y8793048D01*
X-2243076Y8743010D02*
G01*
X-2184148Y8743010D01*
X-2122172Y8838514D02*
G01*
X-2122172Y8743010D01*
X-2154176Y8838514D02*
G01*
X-2090422Y8838514D01*
X-2033272Y8838514D02*
G01*
X-2042162Y8833942D01*
X-2051306Y8824798D01*
X-2055878Y8815908D01*
X-2060450Y8802192D01*
X-2060450Y8779332D01*
X-2055878Y8765870D01*
X-2051306Y8756726D01*
X-2042162Y8747582D01*
X-2033272Y8743010D01*
X-2014984Y8743010D01*
X-2005840Y8747582D01*
X-1996696Y8756726D01*
X-1992378Y8765870D01*
X-1987806Y8779332D01*
X-1987806Y8802192D01*
X-1992378Y8815908D01*
X-1996696Y8824798D01*
X-2005840Y8833942D01*
X-2014984Y8838514D01*
X-2033272Y8838514D01*
X-1957834Y8838514D02*
G01*
X-1957834Y8743010D01*
X-1957834Y8838514D02*
G01*
X-1916686Y8838514D01*
X-1903224Y8833942D01*
X-1898652Y8829370D01*
X-1894080Y8820226D01*
X-1894080Y8811336D01*
X-1898652Y8802192D01*
X-1903224Y8797620D01*
X-1916686Y8793048D01*
X-1957834Y8793048D01*
X-1925830Y8793048D02*
G01*
X-1894080Y8743010D01*
X-1864108Y8838514D02*
G01*
X-1864108Y8743010D01*
X-1864108Y8838514D02*
G01*
X-1800354Y8743010D01*
X-1800354Y8838514D02*
G01*
X-1800354Y8743010D01*
X-1743204Y8838514D02*
G01*
X-1752348Y8833942D01*
X-1761238Y8824798D01*
X-1765810Y8815908D01*
X-1770382Y8802192D01*
X-1770382Y8779332D01*
X-1765810Y8765870D01*
X-1761238Y8756726D01*
X-1752348Y8747582D01*
X-1743204Y8743010D01*
X-1724916Y8743010D01*
X-1715772Y8747582D01*
X-1706882Y8756726D01*
X-1702310Y8765870D01*
X-1697738Y8779332D01*
X-1697738Y8802192D01*
X-1702310Y8815908D01*
X-1706882Y8824798D01*
X-1715772Y8833942D01*
X-1724916Y8838514D01*
X-1743204Y8838514D01*
X-1597662Y8838514D02*
G01*
X-1597662Y8743010D01*
X-1597662Y8838514D02*
G01*
X-1556768Y8838514D01*
X-1543052Y8833942D01*
X-1538734Y8829370D01*
X-1534162Y8820226D01*
X-1534162Y8811336D01*
X-1538734Y8802192D01*
X-1543052Y8797620D01*
X-1556768Y8793048D01*
X-1597662Y8793048D02*
G01*
X-1556768Y8793048D01*
X-1543052Y8788476D01*
X-1538734Y8783904D01*
X-1534162Y8774760D01*
X-1534162Y8761298D01*
X-1538734Y8752154D01*
X-1543052Y8747582D01*
X-1556768Y8743010D01*
X-1597662Y8743010D01*
X-1463042Y8824798D02*
G01*
X-1463042Y8743010D01*
X-1504190Y8783904D02*
G01*
X-1422148Y8783904D01*
X-3556002Y8660714D02*
G01*
X-3556002Y8565210D01*
X-3556002Y8660714D02*
G01*
X-3515108Y8660714D01*
X-3501392Y8656142D01*
X-3496820Y8651570D01*
X-3492248Y8642426D01*
X-3492248Y8633536D01*
X-3496820Y8624392D01*
X-3501392Y8619820D01*
X-3515108Y8615248D01*
X-3556002Y8615248D02*
G01*
X-3515108Y8615248D01*
X-3501392Y8610676D01*
X-3496820Y8606104D01*
X-3492248Y8596960D01*
X-3492248Y8583498D01*
X-3496820Y8574354D01*
X-3501392Y8569782D01*
X-3515108Y8565210D01*
X-3556002Y8565210D01*
X-3421382Y8646998D02*
G01*
X-3421382Y8565210D01*
X-3462276Y8606104D02*
G01*
X-3380488Y8606104D01*
X-3280666Y8660714D02*
G01*
X-3280666Y8565210D01*
X-3280666Y8660714D02*
G01*
X-3248662Y8660714D01*
X-3235200Y8656142D01*
X-3226056Y8646998D01*
X-3221484Y8638108D01*
X-3216912Y8624392D01*
X-3216912Y8601532D01*
X-3221484Y8588070D01*
X-3226056Y8578926D01*
X-3235200Y8569782D01*
X-3248662Y8565210D01*
X-3280666Y8565210D01*
X-3186940Y8660714D02*
G01*
X-3186940Y8565210D01*
X-3156968Y8660714D02*
G01*
X-3156968Y8565210D01*
X-3156968Y8660714D02*
G01*
X-3116074Y8660714D01*
X-3102358Y8656142D01*
X-3097786Y8651570D01*
X-3093214Y8642426D01*
X-3093214Y8633536D01*
X-3097786Y8624392D01*
X-3102358Y8619820D01*
X-3116074Y8615248D01*
X-3156968Y8615248D01*
X-3125218Y8615248D02*
G01*
X-3093214Y8565210D01*
X-3063242Y8660714D02*
G01*
X-3063242Y8565210D01*
X-3063242Y8660714D02*
G01*
X-3004060Y8660714D01*
X-3063242Y8615248D02*
G01*
X-3026920Y8615248D01*
X-3063242Y8565210D02*
G01*
X-3004060Y8565210D01*
X-2906016Y8638108D02*
G01*
X-2910588Y8646998D01*
X-2919732Y8656142D01*
X-2928622Y8660714D01*
X-2946910Y8660714D01*
X-2956054Y8656142D01*
X-2965198Y8646998D01*
X-2969516Y8638108D01*
X-2974088Y8624392D01*
X-2974088Y8601532D01*
X-2969516Y8588070D01*
X-2965198Y8578926D01*
X-2956054Y8569782D01*
X-2946910Y8565210D01*
X-2928622Y8565210D01*
X-2919732Y8569782D01*
X-2910588Y8578926D01*
X-2906016Y8588070D01*
X-2844294Y8660714D02*
G01*
X-2844294Y8565210D01*
X-2876044Y8660714D02*
G01*
X-2812290Y8660714D01*
X-6289471Y4648202D02*
G01*
X-6346621Y4648202D01*
X-6289471Y4630168D02*
G01*
X-6346621Y4630168D01*
X-6289471Y4630168D02*
G01*
X-6346621Y4592068D01*
X-6289471Y4592068D02*
G01*
X-6346621Y4592068D01*
X-6289471Y4515614D02*
G01*
X-6292265Y4521202D01*
X-6297599Y4526536D01*
X-6303187Y4529330D01*
X-6311315Y4532124D01*
X-6325031Y4532124D01*
X-6333159Y4529330D01*
X-6338493Y4526536D01*
X-6344081Y4521202D01*
X-6346621Y4515614D01*
X-6346621Y4504692D01*
X-6344081Y4499358D01*
X-6338493Y4493770D01*
X-6333159Y4491230D01*
X-6325031Y4488436D01*
X-6311315Y4488436D01*
X-6303187Y4491230D01*
X-6297599Y4493770D01*
X-6292265Y4499358D01*
X-6289471Y4504692D01*
X-6289471Y4515614D01*
X-6289471Y4470402D02*
G01*
X-6330365Y4470402D01*
X-6338493Y4467608D01*
X-6344081Y4462274D01*
X-6346621Y4453892D01*
X-6346621Y4448558D01*
X-6344081Y4440430D01*
X-6338493Y4434842D01*
X-6330365Y4432302D01*
X-6289471Y4432302D01*
X-6289471Y4395218D02*
G01*
X-6346621Y4395218D01*
X-6289471Y4414268D02*
G01*
X-6289471Y4375914D01*
D11*
X-1703308Y4051259D02*
G01*
X-1781286Y4051259D01*
X-1796780Y4046179D01*
X-1807194Y4035765D01*
X-1812528Y4020271D01*
X-1812528Y4009857D01*
X-1807194Y3994109D01*
X-1796780Y3983695D01*
X-1781286Y3978615D01*
X-1703308Y3978615D01*
X-1703308Y3882095D02*
G01*
X-1703308Y3933911D01*
X-1750044Y3939245D01*
X-1744964Y3933911D01*
X-1739630Y3918417D01*
X-1739630Y3902669D01*
X-1744964Y3887175D01*
X-1755378Y3876761D01*
X-1770872Y3871681D01*
X-1781286Y3871681D01*
X-1796780Y3876761D01*
X-1807194Y3887175D01*
X-1812528Y3902669D01*
X-1812528Y3918417D01*
X-1807194Y3933911D01*
X-1802114Y3939245D01*
X-1791700Y3944325D01*
X-1703308Y3806149D02*
G01*
X-1708642Y3821643D01*
X-1724136Y3832057D01*
X-1750044Y3837391D01*
X-1765792Y3837391D01*
X-1791700Y3832057D01*
X-1807194Y3821643D01*
X-1812528Y3806149D01*
X-1812528Y3795735D01*
X-1807194Y3780241D01*
X-1791700Y3769827D01*
X-1765792Y3764493D01*
X-1750044Y3764493D01*
X-1724136Y3769827D01*
X-1708642Y3780241D01*
X-1703308Y3795735D01*
X-1703308Y3806149D01*
X-6058992Y7543825D02*
G01*
X-5981014Y7543825D01*
X-5965520Y7548905D01*
X-5955106Y7559319D01*
X-5949772Y7575067D01*
X-5949772Y7585481D01*
X-5955106Y7600975D01*
X-5965520Y7611389D01*
X-5981014Y7616469D01*
X-6058992Y7616469D01*
X-6022670Y7718323D02*
G01*
X-6006922Y7713243D01*
X-5996508Y7702829D01*
X-5991428Y7687081D01*
X-5991428Y7682001D01*
X-5996508Y7666507D01*
X-6006922Y7656093D01*
X-6022670Y7650759D01*
X-6027750Y7650759D01*
X-6043244Y7656093D01*
X-6053658Y7666507D01*
X-6058992Y7682001D01*
X-6058992Y7687081D01*
X-6053658Y7702829D01*
X-6043244Y7713243D01*
X-6022670Y7718323D01*
X-5996508Y7718323D01*
X-5970600Y7713243D01*
X-5955106Y7702829D01*
X-5949772Y7687081D01*
X-5949772Y7676921D01*
X-5955106Y7661173D01*
X-5965520Y7656093D01*
X-50774Y1626692D02*
G01*
X-50774Y1548714D01*
X-45694Y1533220D01*
X-35280Y1522806D01*
X-19532Y1517472D01*
X-9118Y1517472D01*
X6375Y1522806D01*
X16789Y1533220D01*
X21869Y1548714D01*
X21869Y1626692D01*
X108229Y1626692D02*
G01*
X56159Y1553794D01*
X134137Y1553794D01*
X108229Y1626692D02*
G01*
X108229Y1517472D01*
X235991Y1590370D02*
G01*
X230911Y1574622D01*
X220497Y1564208D01*
X204749Y1559128D01*
X199669Y1559128D01*
X183921Y1564208D01*
X173761Y1574622D01*
X168427Y1590370D01*
X168427Y1595450D01*
X173761Y1610944D01*
X183921Y1621358D01*
X199669Y1626692D01*
X204749Y1626692D01*
X220497Y1621358D01*
X230911Y1610944D01*
X235991Y1590370D01*
X235991Y1564208D01*
X230911Y1538300D01*
X220497Y1522806D01*
X204749Y1517472D01*
X194335Y1517472D01*
X178841Y1522806D01*
X173761Y1533220D01*
X-1002029Y382270D02*
G01*
X-1009141Y378713D01*
X-1016000Y371855D01*
X-1019555Y364744D01*
X-1019555Y351028D01*
X-1016000Y344170D01*
X-1009141Y337057D01*
X-1002029Y333755D01*
X-991869Y330200D01*
X-974343Y330200D01*
X-963929Y333755D01*
X-957071Y337057D01*
X-950213Y344170D01*
X-946657Y351028D01*
X-946657Y364744D01*
X-950213Y371855D01*
X-957071Y378713D01*
X-963929Y382270D01*
X-974343Y382270D01*
X-974343Y364744D02*
G01*
X-974343Y382270D01*
X-1019555Y405129D02*
G01*
X-946657Y405129D01*
X-1019555Y405129D02*
G01*
X-946657Y453389D01*
X-1019555Y453389D02*
G01*
X-946657Y453389D01*
X-1019555Y476250D02*
G01*
X-946657Y476250D01*
X-1019555Y476250D02*
G01*
X-1019555Y500634D01*
X-1016000Y511047D01*
X-1009141Y517905D01*
X-1002029Y521462D01*
X-991869Y524763D01*
X-974343Y524763D01*
X-963929Y521462D01*
X-957071Y517905D01*
X-950213Y511047D01*
X-946657Y500634D01*
X-946657Y476250D01*
X-989329Y973073D02*
G01*
X-992885Y980186D01*
X-999743Y987044D01*
X-1006855Y990600D01*
X-1020571Y990600D01*
X-1027429Y987044D01*
X-1034541Y980186D01*
X-1037843Y973073D01*
X-1041400Y962913D01*
X-1041400Y945387D01*
X-1037843Y934973D01*
X-1034541Y928115D01*
X-1027429Y921257D01*
X-1020571Y917702D01*
X-1006855Y917702D01*
X-999743Y921257D01*
X-992885Y928115D01*
X-989329Y934973D01*
X-989329Y945387D01*
X-1006855Y945387D02*
G01*
X-989329Y945387D01*
X-1054074Y734898D02*
G01*
X-1033246Y686384D01*
X-1012418Y734898D02*
G01*
X-1033246Y686384D01*
X-948156Y759028D02*
G01*
X-948156Y686384D01*
X-948156Y724484D02*
G01*
X-955014Y731342D01*
X-961872Y734898D01*
X-972286Y734898D01*
X-979398Y731342D01*
X-986256Y724484D01*
X-989558Y714070D01*
X-989558Y707212D01*
X-986256Y696798D01*
X-979398Y689940D01*
X-972286Y686384D01*
X-961872Y686384D01*
X-955014Y689940D01*
X-948156Y696798D01*
X-883640Y759028D02*
G01*
X-883640Y686384D01*
X-883640Y724484D02*
G01*
X-890498Y731342D01*
X-897610Y734898D01*
X-908024Y734898D01*
X-914882Y731342D01*
X-921740Y724484D01*
X-925296Y714070D01*
X-925296Y707212D01*
X-921740Y696798D01*
X-914882Y689940D01*
X-908024Y686384D01*
X-897610Y686384D01*
X-890498Y689940D01*
X-883640Y696798D01*
X-995171Y1257300D02*
G01*
X-1002029Y1253744D01*
X-1009141Y1246886D01*
X-1012443Y1239773D01*
X-1016000Y1229613D01*
X-1016000Y1212087D01*
X-1012443Y1201673D01*
X-1009141Y1194815D01*
X-1002029Y1187957D01*
X-995171Y1184402D01*
X-981455Y1184402D01*
X-974343Y1187957D01*
X-967485Y1194815D01*
X-963929Y1201673D01*
X-960627Y1212087D01*
X-960627Y1229613D01*
X-963929Y1239773D01*
X-967485Y1246886D01*
X-974343Y1253744D01*
X-981455Y1257300D01*
X-995171Y1257300D01*
X-937768Y1232915D02*
G01*
X-937768Y1198371D01*
X-934211Y1187957D01*
X-927353Y1184402D01*
X-916939Y1184402D01*
X-910081Y1187957D01*
X-899668Y1198371D01*
X-899668Y1232915D02*
G01*
X-899668Y1184402D01*
X-866393Y1257300D02*
G01*
X-866393Y1198371D01*
X-862837Y1187957D01*
X-855979Y1184402D01*
X-849121Y1184402D01*
X-876807Y1232915D02*
G01*
X-852423Y1232915D01*
X-1001013Y1498600D02*
G01*
X-1028700Y1425702D01*
X-1001013Y1498600D02*
G01*
X-973327Y1425702D01*
X-1018285Y1450086D02*
G01*
X-983741Y1450086D01*
X-950468Y1498600D02*
G01*
X-950468Y1425702D01*
X-950468Y1498600D02*
G01*
X-919225Y1498600D01*
X-908811Y1495044D01*
X-905509Y1491487D01*
X-901953Y1484629D01*
X-901953Y1477771D01*
X-905509Y1470913D01*
X-908811Y1467357D01*
X-919225Y1463802D01*
X-950468Y1463802D01*
X-926084Y1463802D02*
G01*
X-901953Y1425702D01*
X-279400Y381000D02*
G01*
X-279400Y308102D01*
X-279400Y381000D02*
G01*
X-251713Y308102D01*
X-224027Y381000D02*
G01*
X-251713Y308102D01*
X-224027Y381000D02*
G01*
X-224027Y308102D01*
X-173481Y381000D02*
G01*
X-201168Y308102D01*
X-173481Y381000D02*
G01*
X-145795Y308102D01*
X-190753Y332486D02*
G01*
X-156209Y332486D01*
X-122935Y381000D02*
G01*
X-74421Y308102D01*
X-74421Y381000D02*
G01*
X-122935Y308102D01*
X-6350Y356615D02*
G01*
X-9905Y346202D01*
X-16763Y339344D01*
X-27177Y335787D01*
X-30734Y335787D01*
X-41147Y339344D01*
X-48005Y346202D01*
X-51561Y356615D01*
X-51561Y360171D01*
X-48005Y370586D01*
X-41147Y377444D01*
X-30734Y381000D01*
X-27177Y381000D01*
X-16763Y377444D01*
X-9905Y370586D01*
X-6350Y356615D01*
X-6350Y339344D01*
X-9905Y322071D01*
X-16763Y311657D01*
X-27177Y308102D01*
X-34289Y308102D01*
X-44450Y311657D01*
X-48005Y318515D01*
X33781Y381000D02*
G01*
X23368Y377444D01*
X19812Y370586D01*
X19812Y363473D01*
X23368Y356615D01*
X30226Y353313D01*
X44196Y349757D01*
X54610Y346202D01*
X61468Y339344D01*
X64770Y332486D01*
X64770Y322071D01*
X61468Y315213D01*
X57912Y311657D01*
X47498Y308102D01*
X33781Y308102D01*
X23368Y311657D01*
X19812Y315213D01*
X16510Y322071D01*
X16510Y332486D01*
X19812Y339344D01*
X26670Y346202D01*
X37084Y349757D01*
X51054Y353313D01*
X57912Y356615D01*
X61468Y363473D01*
X61468Y370586D01*
X57912Y377444D01*
X47498Y381000D01*
X33781Y381000D01*
X87630Y367029D02*
G01*
X94742Y370586D01*
X105156Y381000D01*
X105156Y308102D01*
X162560Y381000D02*
G01*
X128015Y332486D01*
X179831Y332486D01*
X162560Y381000D02*
G01*
X162560Y308102D01*
X-35841Y3353815D02*
G01*
X-35841Y3275837D01*
X-30761Y3260344D01*
X-20347Y3249929D01*
X-4599Y3244850D01*
X5814Y3244850D01*
X21308Y3249929D01*
X31722Y3260344D01*
X36802Y3275837D01*
X36802Y3353815D01*
X71092Y3332987D02*
G01*
X81506Y3338321D01*
X97254Y3353815D01*
X97254Y3244850D01*
D12*
X-834288Y2201186D02*
G01*
X-838906Y2201186D01*
X-848144Y2205804D01*
X-852761Y2210424D01*
X-857379Y2219660D01*
X-857379Y2238133D01*
X-852761Y2247369D01*
X-848144Y2251986D01*
X-838906Y2256604D01*
X-829670Y2256604D01*
X-820435Y2251986D01*
X-806579Y2242751D01*
X-760397Y2196569D01*
X-760397Y2261224D01*
X-801961Y2291704D02*
G01*
X-801961Y2374831D01*
X-857379Y2460729D02*
G01*
X-857379Y2414546D01*
X-815817Y2409929D01*
X-820435Y2414546D01*
X-825052Y2428402D01*
X-825052Y2442255D01*
X-820435Y2456111D01*
X-811197Y2465346D01*
X-797344Y2469964D01*
X-788106Y2469964D01*
X-774252Y2465346D01*
X-765017Y2456111D01*
X-760397Y2442255D01*
X-760397Y2428402D01*
X-765017Y2414546D01*
X-769635Y2409929D01*
X-778870Y2405311D01*
X-857379Y2500444D02*
G01*
X-760397Y2537391D01*
X-857379Y2574335D02*
G01*
X-760397Y2537391D01*
X-857379Y2604815D02*
G01*
X-760397Y2604815D01*
X-857379Y2604815D02*
G01*
X-857379Y2637144D01*
X-852761Y2650997D01*
X-843526Y2660233D01*
X-834288Y2664853D01*
X-820435Y2669471D01*
X-797344Y2669471D01*
X-783488Y2664853D01*
X-774252Y2660233D01*
X-765017Y2650997D01*
X-760397Y2637144D01*
X-760397Y2604815D01*
X-834288Y2769224D02*
G01*
X-843526Y2764604D01*
X-852761Y2755369D01*
X-857379Y2746133D01*
X-857379Y2727660D01*
X-852761Y2718424D01*
X-843526Y2709186D01*
X-834288Y2704569D01*
X-820435Y2699951D01*
X-797344Y2699951D01*
X-783488Y2704569D01*
X-774252Y2709186D01*
X-765017Y2718424D01*
X-760397Y2727660D01*
X-760397Y2746133D01*
X-765017Y2755369D01*
X-774252Y2764604D01*
X-783488Y2769224D01*
D13*
X-656414Y2764561D02*
G01*
X-777826Y2810789D01*
X-656414Y2764561D02*
G01*
X-777826Y2718333D01*
X-737186Y2793517D02*
G01*
X-737186Y2735859D01*
X-725756Y2680233D02*
G01*
X-725756Y2576347D01*
X-487199Y1890013D02*
G01*
X-487199Y1895855D01*
X-481611Y1907286D01*
X-475769Y1913128D01*
X-464085Y1918970D01*
X-440971Y1918970D01*
X-429541Y1913128D01*
X-423699Y1907286D01*
X-418111Y1895855D01*
X-418111Y1884171D01*
X-423699Y1872742D01*
X-435383Y1855470D01*
X-493041Y1797557D01*
X-412269Y1797557D01*
X-368327Y1826513D02*
G01*
X-374169Y1820671D01*
X-368327Y1814829D01*
X-362485Y1820671D01*
X-368327Y1826513D01*
X-255297Y1918970D02*
G01*
X-312955Y1918970D01*
X-318797Y1866900D01*
X-312955Y1872742D01*
X-295683Y1878329D01*
X-278411Y1878329D01*
X-260885Y1872742D01*
X-249455Y1861057D01*
X-243613Y1843786D01*
X-243613Y1832355D01*
X-249455Y1814829D01*
X-260885Y1803400D01*
X-278411Y1797557D01*
X-295683Y1797557D01*
X-312955Y1803400D01*
X-318797Y1809242D01*
X-324385Y1820671D01*
X-205513Y1918970D02*
G01*
X-176811Y1797557D01*
X-147855Y1918970D02*
G01*
X-176811Y1797557D01*
X-147855Y1918970D02*
G01*
X-118899Y1797557D01*
X-90197Y1918970D02*
G01*
X-118899Y1797557D01*
X83030Y1918970D02*
G01*
X36802Y1797557D01*
X83030Y1918970D02*
G01*
X129258Y1797557D01*
X54328Y1837944D02*
G01*
X111986Y1837944D01*
X167358Y1878329D02*
G01*
X167358Y1797557D01*
X167358Y1855470D02*
G01*
X184630Y1872742D01*
X196314Y1878329D01*
X213586Y1878329D01*
X225016Y1872742D01*
X230858Y1855470D01*
X230858Y1797557D01*
X230858Y1855470D02*
G01*
X248130Y1872742D01*
X259814Y1878329D01*
X277086Y1878329D01*
X288516Y1872742D01*
X294358Y1855470D01*
X294358Y1797557D01*
X332458Y1878329D02*
G01*
X332458Y1757171D01*
X332458Y1861057D02*
G01*
X343888Y1872742D01*
X355572Y1878329D01*
X372844Y1878329D01*
X384528Y1872742D01*
X395958Y1861057D01*
X401800Y1843786D01*
X401800Y1832355D01*
X395958Y1814829D01*
X384528Y1803400D01*
X372844Y1797557D01*
X355572Y1797557D01*
X343888Y1803400D01*
X332458Y1814829D01*
X-518441Y3091942D02*
G01*
X-518441Y2970529D01*
X-518441Y3091942D02*
G01*
X-466371Y3091942D01*
X-449099Y3086100D01*
X-443511Y3080257D01*
X-437669Y3068828D01*
X-437669Y3051555D01*
X-443511Y3039871D01*
X-449099Y3034029D01*
X-466371Y3028442D01*
X-518441Y3028442D01*
X-353341Y3091942D02*
G01*
X-399569Y2970529D01*
X-353341Y3091942D02*
G01*
X-307113Y2970529D01*
X-382297Y3011170D02*
G01*
X-324385Y3011170D01*
X-269013Y3091942D02*
G01*
X-269013Y2970529D01*
X-269013Y3091942D02*
G01*
X-222785Y2970529D01*
X-176811Y3091942D02*
G01*
X-222785Y2970529D01*
X-176811Y3091942D02*
G01*
X-176811Y2970529D01*
X-109755Y3091942D02*
G01*
X-127027Y3086100D01*
X-132869Y3074670D01*
X-132869Y3062986D01*
X-127027Y3051555D01*
X-115597Y3045713D01*
X-92483Y3039871D01*
X-75211Y3034029D01*
X-63527Y3022600D01*
X-57685Y3011170D01*
X-57685Y2993644D01*
X-63527Y2982213D01*
X-69369Y2976371D01*
X-86641Y2970529D01*
X-109755Y2970529D01*
X-127027Y2976371D01*
X-132869Y2982213D01*
X-138711Y2993644D01*
X-138711Y3011170D01*
X-132869Y3022600D01*
X-121185Y3034029D01*
X-103913Y3039871D01*
X-80799Y3045713D01*
X-69369Y3051555D01*
X-63527Y3062986D01*
X-63527Y3074670D01*
X-69369Y3086100D01*
X-86641Y3091942D01*
X-109755Y3091942D01*
X-8155Y3091942D02*
G01*
X55344Y3091942D01*
X20800Y3045713D01*
X38072Y3045713D01*
X49502Y3039871D01*
X55344Y3034029D01*
X61186Y3016757D01*
X61186Y3005328D01*
X55344Y2988055D01*
X43914Y2976371D01*
X26388Y2970529D01*
X9116Y2970529D01*
X-8155Y2976371D01*
X-13997Y2982213D01*
X-19585Y2993644D01*
X133830Y3091942D02*
G01*
X116558Y3086100D01*
X105128Y3068828D01*
X99286Y3039871D01*
X99286Y3022600D01*
X105128Y2993644D01*
X116558Y2976371D01*
X133830Y2970529D01*
X145514Y2970529D01*
X162786Y2976371D01*
X174216Y2993644D01*
X180058Y3022600D01*
X180058Y3039871D01*
X174216Y3068828D01*
X162786Y3086100D01*
X145514Y3091942D01*
X133830Y3091942D01*
X224000Y3062986D02*
G01*
X224000Y3068828D01*
X229588Y3080257D01*
X235430Y3086100D01*
X247114Y3091942D01*
X270228Y3091942D01*
X281658Y3086100D01*
X287500Y3080257D01*
X293088Y3068828D01*
X293088Y3057144D01*
X287500Y3045713D01*
X275816Y3028442D01*
X218158Y2970529D01*
X298930Y2970529D01*
X383258Y3091942D02*
G01*
X337030Y2970529D01*
X383258Y3091942D02*
G01*
X429486Y2970529D01*
X354302Y3011170D02*
G01*
X412214Y3011170D01*
X-1062255Y2027936D02*
G01*
X-1050571Y2033778D01*
X-1039141Y2045207D01*
X-1033299Y2056892D01*
X-1033299Y2080005D01*
X-1039141Y2091436D01*
X-1050571Y2103120D01*
X-1062255Y2108707D01*
X-1079527Y2114550D01*
X-1108483Y2114550D01*
X-1125755Y2108707D01*
X-1137185Y2103120D01*
X-1148869Y2091436D01*
X-1154711Y2080005D01*
X-1154711Y2056892D01*
X-1148869Y2045207D01*
X-1137185Y2033778D01*
X-1125755Y2027936D01*
X-1108483Y2027936D01*
X-1108483Y2056892D02*
G01*
X-1108483Y2027936D01*
X-1073685Y1989836D02*
G01*
X-1154711Y1989836D01*
X-1096799Y1989836D02*
G01*
X-1079527Y1972563D01*
X-1073685Y1960879D01*
X-1073685Y1943607D01*
X-1079527Y1932178D01*
X-1096799Y1926336D01*
X-1154711Y1926336D01*
X-1033299Y1818894D02*
G01*
X-1154711Y1818894D01*
X-1091211Y1818894D02*
G01*
X-1079527Y1830578D01*
X-1073685Y1842007D01*
X-1073685Y1859279D01*
X-1079527Y1870963D01*
X-1091211Y1882394D01*
X-1108483Y1888236D01*
X-1119913Y1888236D01*
X-1137185Y1882394D01*
X-1148869Y1870963D01*
X-1154711Y1859279D01*
X-1154711Y1842007D01*
X-1148869Y1830578D01*
X-1137185Y1818894D01*
X-1050571Y2497328D02*
G01*
X-1039141Y2508757D01*
X-1033299Y2526029D01*
X-1033299Y2549144D01*
X-1039141Y2566670D01*
X-1050571Y2578100D01*
X-1062255Y2578100D01*
X-1073685Y2572257D01*
X-1079527Y2566670D01*
X-1085369Y2554986D01*
X-1096799Y2520442D01*
X-1102641Y2508757D01*
X-1108483Y2503170D01*
X-1119913Y2497328D01*
X-1137185Y2497328D01*
X-1148869Y2508757D01*
X-1154711Y2526029D01*
X-1154711Y2549144D01*
X-1148869Y2566670D01*
X-1137185Y2578100D01*
X-1033299Y2459228D02*
G01*
X-1154711Y2459228D01*
X-1033299Y2459228D02*
G01*
X-1033299Y2418842D01*
X-1039141Y2401570D01*
X-1050571Y2389886D01*
X-1062255Y2384044D01*
X-1079527Y2378455D01*
X-1108483Y2378455D01*
X-1125755Y2384044D01*
X-1137185Y2389886D01*
X-1148869Y2401570D01*
X-1154711Y2418842D01*
X-1154711Y2459228D01*
X-1033299Y3027171D02*
G01*
X-1154711Y3073400D01*
X-1033299Y3027171D02*
G01*
X-1154711Y2980944D01*
X-1114071Y3056128D02*
G01*
X-1114071Y2998470D01*
X-1050571Y2891028D02*
G01*
X-1154711Y2891028D01*
X-1102641Y2942844D02*
G01*
X-1102641Y2838957D01*
D10*
X-3394709Y2109978D02*
G01*
X-3390137Y2100834D01*
X-3380993Y2091436D01*
X-3371850Y2086863D01*
X-3358387Y2082800D01*
X-3335527Y2082800D01*
X-3321811Y2086863D01*
X-3312921Y2091436D01*
X-3303777Y2100834D01*
X-3299205Y2109978D01*
X-3299205Y2127757D01*
X-3303777Y2136902D01*
X-3312921Y2146554D01*
X-3321811Y2150363D01*
X-3335527Y2154936D01*
X-3358387Y2154936D01*
X-3371850Y2150363D01*
X-3380993Y2146554D01*
X-3390137Y2136902D01*
X-3394709Y2127757D01*
X-3394709Y2109978D01*
X-3394709Y2184907D02*
G01*
X-3326384Y2184907D01*
X-3312921Y2189734D01*
X-3303777Y2198878D01*
X-3299205Y2212339D01*
X-3299205Y2221484D01*
X-3303777Y2235454D01*
X-3312921Y2244089D01*
X-3326384Y2248662D01*
X-3394709Y2248662D01*
X-3394709Y2310384D02*
G01*
X-3299205Y2310384D01*
X-3394709Y2278634D02*
G01*
X-3394709Y2342387D01*
X-3380993Y2413507D02*
G01*
X-3299205Y2413507D01*
X-3340100Y2372360D02*
G01*
X-3340100Y2454402D01*
X-3115309Y2247900D02*
G01*
X-3019805Y2247900D01*
X-3115309Y2247900D02*
G01*
X-3115309Y2288031D01*
X-3110737Y2302255D01*
X-3106165Y2306828D01*
X-3097021Y2311654D01*
X-3087877Y2311654D01*
X-3078987Y2306828D01*
X-3074415Y2302255D01*
X-3069843Y2288031D01*
X-3069843Y2247900D02*
G01*
X-3069843Y2288031D01*
X-3065271Y2302255D01*
X-3060700Y2306828D01*
X-3051555Y2311654D01*
X-3038093Y2311654D01*
X-3028950Y2306828D01*
X-3024377Y2302255D01*
X-3019805Y2288031D01*
X-3019805Y2247900D01*
X-3101593Y2381757D02*
G01*
X-3019805Y2381757D01*
X-3060700Y2341626D02*
G01*
X-3060700Y2422905D01*
X-2243327Y2366771D02*
G01*
X-2147569Y2366771D01*
X-2243327Y2366771D02*
G01*
X-2243327Y2407412D01*
X-2238755Y2421381D01*
X-2233929Y2425954D01*
X-2224785Y2430526D01*
X-2215895Y2430526D01*
X-2207005Y2425954D01*
X-2202179Y2421381D01*
X-2197607Y2407412D01*
X-2197607Y2366771D02*
G01*
X-2197607Y2407412D01*
X-2193035Y2421381D01*
X-2188718Y2425954D01*
X-2179319Y2430526D01*
X-2165857Y2430526D01*
X-2156968Y2425954D01*
X-2152395Y2421381D01*
X-2147569Y2407412D01*
X-2147569Y2366771D01*
X-2188718Y2460497D02*
G01*
X-2188718Y2542286D01*
X-1953768Y2230120D02*
G01*
X-1949195Y2221992D01*
X-1940051Y2212594D01*
X-1930907Y2207768D01*
X-1917445Y2203195D01*
X-1894585Y2203195D01*
X-1880869Y2207768D01*
X-1871979Y2212594D01*
X-1862835Y2221992D01*
X-1858263Y2230120D01*
X-1858263Y2248915D01*
X-1862835Y2257552D01*
X-1871979Y2266695D01*
X-1880869Y2271268D01*
X-1894585Y2276094D01*
X-1917445Y2276094D01*
X-1930907Y2271268D01*
X-1940051Y2266695D01*
X-1949195Y2257552D01*
X-1953768Y2248915D01*
X-1953768Y2230120D01*
X-1953768Y2306065D02*
G01*
X-1885441Y2306065D01*
X-1871979Y2310892D01*
X-1862835Y2319273D01*
X-1858263Y2333244D01*
X-1858263Y2342642D01*
X-1862835Y2355595D01*
X-1871979Y2364994D01*
X-1885441Y2369820D01*
X-1953768Y2369820D01*
X-1953768Y2431542D02*
G01*
X-1858263Y2431542D01*
X-1953768Y2399792D02*
G01*
X-1953768Y2463545D01*
X-1899157Y2493518D02*
G01*
X-1899157Y2574797D01*
X-3346168Y558800D02*
G01*
X-3250664Y558800D01*
X-3346168Y588771D02*
G01*
X-3250664Y588771D01*
X-3346168Y588771D02*
G01*
X-3250664Y652526D01*
X-3346168Y652526D02*
G01*
X-3250664Y652526D01*
X-3332452Y723392D02*
G01*
X-3250664Y723392D01*
X-3291558Y682497D02*
G01*
X-3291558Y764286D01*
X-1951989Y565150D02*
G01*
X-1856485Y565150D01*
X-1951989Y595121D02*
G01*
X-1856485Y595121D01*
X-1951989Y595121D02*
G01*
X-1856485Y658876D01*
X-1951989Y658876D02*
G01*
X-1856485Y658876D01*
X-1897379Y688847D02*
G01*
X-1897379Y770636D01*
X-3655059Y838200D02*
G01*
X-3658869Y846328D01*
X-3671061Y858520D01*
X-3586225Y858520D01*
D11*
X-6159499Y2513584D02*
G01*
X-6159499Y2622550D01*
X-6159499Y2513584D02*
G01*
X-6195821Y2513584D01*
X-6211569Y2518663D01*
X-6221729Y2529078D01*
X-6227063Y2539492D01*
X-6232143Y2555239D01*
X-6232143Y2581147D01*
X-6227063Y2596642D01*
X-6221729Y2607055D01*
X-6211569Y2617470D01*
X-6195821Y2622550D01*
X-6159499Y2622550D01*
X-6271767Y2539492D02*
G01*
X-6271767Y2534412D01*
X-6276847Y2523997D01*
X-6282181Y2518663D01*
X-6292595Y2513584D01*
X-6313169Y2513584D01*
X-6323583Y2518663D01*
X-6328917Y2523997D01*
X-6333997Y2534412D01*
X-6333997Y2544826D01*
X-6328917Y2555239D01*
X-6318503Y2570734D01*
X-6266433Y2622550D01*
X-6339331Y2622550D01*
X-5870955Y4328921D02*
G01*
X-5881369Y4339336D01*
X-5896863Y4344415D01*
X-5917691Y4344415D01*
X-5933185Y4339336D01*
X-5943599Y4328921D01*
X-5943599Y4318507D01*
X-5938519Y4308094D01*
X-5933185Y4302760D01*
X-5922771Y4297679D01*
X-5891529Y4287265D01*
X-5881369Y4282186D01*
X-5876035Y4276852D01*
X-5870955Y4266437D01*
X-5870955Y4250944D01*
X-5881369Y4240529D01*
X-5896863Y4235450D01*
X-5917691Y4235450D01*
X-5933185Y4240529D01*
X-5943599Y4250944D01*
X-5836665Y4344415D02*
G01*
X-5810503Y4235450D01*
X-5784595Y4344415D02*
G01*
X-5810503Y4235450D01*
X-5784595Y4344415D02*
G01*
X-5758687Y4235450D01*
X-5732779Y4344415D02*
G01*
X-5758687Y4235450D01*
X-5693155Y4318507D02*
G01*
X-5693155Y4323587D01*
X-5688075Y4334002D01*
X-5682741Y4339336D01*
X-5672327Y4344415D01*
X-5651499Y4344415D01*
X-5641339Y4339336D01*
X-5636005Y4334002D01*
X-5630925Y4323587D01*
X-5630925Y4313173D01*
X-5636005Y4302760D01*
X-5646419Y4287265D01*
X-5698489Y4235450D01*
X-5625591Y4235450D01*
X1043658Y4178300D02*
G01*
X965680Y4178300D01*
X950186Y4173220D01*
X939772Y4162805D01*
X934438Y4147057D01*
X934438Y4136644D01*
X939772Y4121150D01*
X950186Y4110736D01*
X965680Y4105655D01*
X1043658Y4105655D01*
X1043658Y4008881D02*
G01*
X1043658Y4060952D01*
X996922Y4066031D01*
X1002002Y4060952D01*
X1007336Y4045204D01*
X1007336Y4029710D01*
X1002002Y4014215D01*
X991588Y4003802D01*
X976094Y3998468D01*
X965680Y3998468D01*
X950186Y4003802D01*
X939772Y4014215D01*
X934438Y4029710D01*
X934438Y4045204D01*
X939772Y4060952D01*
X944852Y4066031D01*
X955266Y4071365D01*
X1041336Y8191588D02*
G01*
X963358Y8191588D01*
X947864Y8186254D01*
X937450Y8175840D01*
X932116Y8160346D01*
X932116Y8149932D01*
X937450Y8134438D01*
X947864Y8124024D01*
X963358Y8118690D01*
X1041336Y8118690D01*
X1041336Y8011756D02*
G01*
X932116Y8063826D01*
X1041336Y8084400D02*
G01*
X1041336Y8011756D01*
X1054036Y6121488D02*
G01*
X976058Y6121488D01*
X960564Y6116154D01*
X950150Y6105740D01*
X944816Y6090246D01*
X944816Y6079832D01*
X950150Y6064338D01*
X960564Y6053924D01*
X976058Y6048590D01*
X1054036Y6048590D01*
X1054036Y5988392D02*
G01*
X1048956Y6003886D01*
X1038542Y6009220D01*
X1028128Y6009220D01*
X1017714Y6003886D01*
X1012380Y5993726D01*
X1007300Y5972898D01*
X1001966Y5957150D01*
X991806Y5946736D01*
X981392Y5941656D01*
X965644Y5941656D01*
X955230Y5946736D01*
X950150Y5952070D01*
X944816Y5967564D01*
X944816Y5988392D01*
X950150Y6003886D01*
X955230Y6009220D01*
X965644Y6014300D01*
X981392Y6014300D01*
X991806Y6009220D01*
X1001966Y5998806D01*
X1007300Y5983312D01*
X1012380Y5962484D01*
X1017714Y5952070D01*
X1028128Y5946736D01*
X1038542Y5946736D01*
X1048956Y5952070D01*
X1054036Y5967564D01*
X1054036Y5988392D01*
X-4533900Y481584D02*
G01*
X-4533900Y559562D01*
X-4538979Y575055D01*
X-4549393Y585470D01*
X-4565141Y590550D01*
X-4575555Y590550D01*
X-4591050Y585470D01*
X-4601463Y575055D01*
X-4606543Y559562D01*
X-4606543Y481584D01*
X-4640834Y502412D02*
G01*
X-4651247Y497078D01*
X-4666995Y481584D01*
X-4666995Y590550D01*
X-4732273Y481584D02*
G01*
X-4716779Y486663D01*
X-4706365Y502412D01*
X-4701285Y528320D01*
X-4701285Y543813D01*
X-4706365Y569976D01*
X-4716779Y585470D01*
X-4732273Y590550D01*
X-4742687Y590550D01*
X-4758435Y585470D01*
X-4768850Y569976D01*
X-4773929Y543813D01*
X-4773929Y528320D01*
X-4768850Y502412D01*
X-4758435Y486663D01*
X-4742687Y481584D01*
X-4732273Y481584D01*
D10*
X-3784597Y856736D02*
G01*
X-3784597Y971290D01*
X-3784597Y856736D02*
G01*
X-3822697Y856736D01*
X-3839207Y862324D01*
X-3850129Y873246D01*
X-3855463Y884168D01*
X-3861051Y900424D01*
X-3861051Y927602D01*
X-3855463Y944112D01*
X-3850129Y955034D01*
X-3839207Y965956D01*
X-3822697Y971290D01*
X-3784597Y971290D01*
X-3929631Y856736D02*
G01*
X-3913375Y862324D01*
X-3902453Y878580D01*
X-3896865Y906012D01*
X-3896865Y922268D01*
X-3902453Y949446D01*
X-3913375Y965956D01*
X-3929631Y971290D01*
X-3940553Y971290D01*
X-3957063Y965956D01*
X-3967985Y949446D01*
X-3973319Y922268D01*
X-3973319Y906012D01*
X-3967985Y878580D01*
X-3957063Y862324D01*
X-3940553Y856736D01*
X-3929631Y856736D01*
X-3797218Y1123419D02*
G01*
X-3797218Y1237973D01*
X-3797218Y1123419D02*
G01*
X-3835572Y1123419D01*
X-3851828Y1129007D01*
X-3862750Y1139929D01*
X-3868084Y1150851D01*
X-3873672Y1167107D01*
X-3873672Y1194539D01*
X-3868084Y1210795D01*
X-3862750Y1221717D01*
X-3851828Y1232639D01*
X-3835572Y1237973D01*
X-3797218Y1237973D01*
X-3909740Y1145263D02*
G01*
X-3920662Y1139929D01*
X-3936918Y1123419D01*
X-3936918Y1237973D01*
X-3784521Y1377429D02*
G01*
X-3784521Y1491983D01*
X-3784521Y1377429D02*
G01*
X-3822875Y1377429D01*
X-3839131Y1383017D01*
X-3850053Y1393939D01*
X-3855387Y1404861D01*
X-3860975Y1421117D01*
X-3860975Y1448549D01*
X-3855387Y1464805D01*
X-3850053Y1475727D01*
X-3839131Y1486649D01*
X-3822875Y1491983D01*
X-3784521Y1491983D01*
X-3902377Y1404861D02*
G01*
X-3902377Y1399273D01*
X-3907965Y1388351D01*
X-3913299Y1383017D01*
X-3924221Y1377429D01*
X-3946065Y1377429D01*
X-3956987Y1383017D01*
X-3962321Y1388351D01*
X-3967909Y1399273D01*
X-3967909Y1410195D01*
X-3962321Y1421117D01*
X-3951399Y1437627D01*
X-3897043Y1491983D01*
X-3973243Y1491983D01*
X-3784521Y1644114D02*
G01*
X-3784521Y1758668D01*
X-3784521Y1644114D02*
G01*
X-3822875Y1644114D01*
X-3839131Y1649702D01*
X-3850053Y1660624D01*
X-3855387Y1671546D01*
X-3860975Y1687802D01*
X-3860975Y1715234D01*
X-3855387Y1731490D01*
X-3850053Y1742412D01*
X-3839131Y1753334D01*
X-3822875Y1758668D01*
X-3784521Y1758668D01*
X-3907965Y1644114D02*
G01*
X-3967909Y1644114D01*
X-3935143Y1687802D01*
X-3951399Y1687802D01*
X-3962321Y1693390D01*
X-3967909Y1698724D01*
X-3973243Y1715234D01*
X-3973243Y1725902D01*
X-3967909Y1742412D01*
X-3956987Y1753334D01*
X-3940477Y1758668D01*
X-3924221Y1758668D01*
X-3907965Y1753334D01*
X-3902377Y1747746D01*
X-3897043Y1736824D01*
X-3797221Y1885424D02*
G01*
X-3797221Y1999978D01*
X-3797221Y1885424D02*
G01*
X-3835575Y1885424D01*
X-3851831Y1891012D01*
X-3862753Y1901934D01*
X-3868087Y1912856D01*
X-3873675Y1929112D01*
X-3873675Y1956544D01*
X-3868087Y1972800D01*
X-3862753Y1983722D01*
X-3851831Y1994644D01*
X-3835575Y1999978D01*
X-3797221Y1999978D01*
X-3964099Y1885424D02*
G01*
X-3909743Y1961878D01*
X-3991531Y1961878D01*
X-3964099Y1885424D02*
G01*
X-3964099Y1999978D01*
X-3822621Y2152108D02*
G01*
X-3822621Y2266662D01*
X-3822621Y2152108D02*
G01*
X-3860975Y2152108D01*
X-3877231Y2157696D01*
X-3888153Y2168618D01*
X-3893487Y2179540D01*
X-3899075Y2195796D01*
X-3899075Y2223228D01*
X-3893487Y2239484D01*
X-3888153Y2250406D01*
X-3877231Y2261328D01*
X-3860975Y2266662D01*
X-3822621Y2266662D01*
X-4000421Y2152108D02*
G01*
X-3946065Y2152108D01*
X-3940477Y2201384D01*
X-3946065Y2195796D01*
X-3962321Y2190462D01*
X-3978577Y2190462D01*
X-3995087Y2195796D01*
X-4006009Y2206718D01*
X-4011343Y2223228D01*
X-4011343Y2233896D01*
X-4006009Y2250406D01*
X-3995087Y2261328D01*
X-3978577Y2266662D01*
X-3962321Y2266662D01*
X-3946065Y2261328D01*
X-3940477Y2255740D01*
X-3935143Y2244818D01*
X-3797221Y2380719D02*
G01*
X-3797221Y2495273D01*
X-3797221Y2380719D02*
G01*
X-3835575Y2380719D01*
X-3851831Y2386307D01*
X-3862753Y2397229D01*
X-3868087Y2408151D01*
X-3873675Y2424407D01*
X-3873675Y2451839D01*
X-3868087Y2468095D01*
X-3862753Y2479017D01*
X-3851831Y2489939D01*
X-3835575Y2495273D01*
X-3797221Y2495273D01*
X-3975021Y2397229D02*
G01*
X-3969687Y2386307D01*
X-3953177Y2380719D01*
X-3942509Y2380719D01*
X-3925999Y2386307D01*
X-3915077Y2402563D01*
X-3909743Y2429995D01*
X-3909743Y2457173D01*
X-3915077Y2479017D01*
X-3925999Y2489939D01*
X-3942509Y2495273D01*
X-3947843Y2495273D01*
X-3964099Y2489939D01*
X-3975021Y2479017D01*
X-3980609Y2462507D01*
X-3980609Y2457173D01*
X-3975021Y2440917D01*
X-3964099Y2429995D01*
X-3947843Y2424407D01*
X-3942509Y2424407D01*
X-3925999Y2429995D01*
X-3915077Y2440917D01*
X-3909743Y2457173D01*
X-3784521Y2545829D02*
G01*
X-3784521Y2660383D01*
X-3784521Y2545829D02*
G01*
X-3822875Y2545829D01*
X-3839131Y2551417D01*
X-3850053Y2562339D01*
X-3855387Y2573261D01*
X-3860975Y2589517D01*
X-3860975Y2616949D01*
X-3855387Y2633205D01*
X-3850053Y2644127D01*
X-3839131Y2655049D01*
X-3822875Y2660383D01*
X-3784521Y2660383D01*
X-3973243Y2545829D02*
G01*
X-3918887Y2660383D01*
X-3897043Y2545829D02*
G01*
X-3973243Y2545829D01*
X-3975021Y2901414D02*
G01*
X-3975021Y3015968D01*
X-3975021Y2901414D02*
G01*
X-4013375Y2901414D01*
X-4029631Y2907002D01*
X-4040553Y2917924D01*
X-4045887Y2928846D01*
X-4051475Y2945102D01*
X-4051475Y2972534D01*
X-4045887Y2988790D01*
X-4040553Y2999712D01*
X-4029631Y3010634D01*
X-4013375Y3015968D01*
X-3975021Y3015968D01*
X-4114721Y2901414D02*
G01*
X-4098465Y2907002D01*
X-4092877Y2917924D01*
X-4092877Y2928846D01*
X-4098465Y2939768D01*
X-4109387Y2945102D01*
X-4130977Y2950690D01*
X-4147487Y2956024D01*
X-4158409Y2966946D01*
X-4163743Y2977868D01*
X-4163743Y2994124D01*
X-4158409Y3005046D01*
X-4152821Y3010634D01*
X-4136565Y3015968D01*
X-4114721Y3015968D01*
X-4098465Y3010634D01*
X-4092877Y3005046D01*
X-4087543Y2994124D01*
X-4087543Y2977868D01*
X-4092877Y2966946D01*
X-4103799Y2956024D01*
X-4120309Y2950690D01*
X-4141899Y2945102D01*
X-4152821Y2939768D01*
X-4158409Y2928846D01*
X-4158409Y2917924D01*
X-4152821Y2907002D01*
X-4136565Y2901414D01*
X-4114721Y2901414D01*
X-3771821Y3155424D02*
G01*
X-3771821Y3269978D01*
X-3771821Y3155424D02*
G01*
X-3810175Y3155424D01*
X-3826431Y3161012D01*
X-3837353Y3171934D01*
X-3842687Y3182856D01*
X-3848275Y3199112D01*
X-3848275Y3226544D01*
X-3842687Y3242800D01*
X-3837353Y3253722D01*
X-3826431Y3264644D01*
X-3810175Y3269978D01*
X-3771821Y3269978D01*
X-3955209Y3193778D02*
G01*
X-3949621Y3210034D01*
X-3938699Y3220956D01*
X-3922443Y3226544D01*
X-3917109Y3226544D01*
X-3900599Y3220956D01*
X-3889677Y3210034D01*
X-3884343Y3193778D01*
X-3884343Y3188190D01*
X-3889677Y3171934D01*
X-3900599Y3161012D01*
X-3917109Y3155424D01*
X-3922443Y3155424D01*
X-3938699Y3161012D01*
X-3949621Y3171934D01*
X-3955209Y3193778D01*
X-3955209Y3220956D01*
X-3949621Y3248134D01*
X-3938699Y3264644D01*
X-3922443Y3269978D01*
X-3911521Y3269978D01*
X-3895265Y3264644D01*
X-3889677Y3253722D01*
X-3162226Y3404735D02*
G01*
X-3162226Y3519289D01*
X-3162226Y3404735D02*
G01*
X-3200580Y3404735D01*
X-3216836Y3410323D01*
X-3227758Y3421245D01*
X-3233092Y3432167D01*
X-3238680Y3448423D01*
X-3238680Y3475855D01*
X-3233092Y3492111D01*
X-3227758Y3503033D01*
X-3216836Y3513955D01*
X-3200580Y3519289D01*
X-3162226Y3519289D01*
X-3274748Y3426579D02*
G01*
X-3285670Y3421245D01*
X-3301926Y3404735D01*
X-3301926Y3519289D01*
X-3370760Y3404735D02*
G01*
X-3354250Y3410323D01*
X-3343328Y3426579D01*
X-3337994Y3454011D01*
X-3337994Y3470267D01*
X-3343328Y3497445D01*
X-3354250Y3513955D01*
X-3370760Y3519289D01*
X-3381682Y3519289D01*
X-3397938Y3513955D01*
X-3408860Y3497445D01*
X-3414194Y3470267D01*
X-3414194Y3454011D01*
X-3408860Y3426579D01*
X-3397938Y3410323D01*
X-3381682Y3404735D01*
X-3370760Y3404735D01*
X-3809918Y3663419D02*
G01*
X-3809918Y3777973D01*
X-3809918Y3663419D02*
G01*
X-3848272Y3663419D01*
X-3864528Y3669007D01*
X-3875450Y3679929D01*
X-3880784Y3690851D01*
X-3886372Y3707107D01*
X-3886372Y3734539D01*
X-3880784Y3750795D01*
X-3875450Y3761717D01*
X-3864528Y3772639D01*
X-3848272Y3777973D01*
X-3809918Y3777973D01*
X-3922440Y3685263D02*
G01*
X-3933362Y3679929D01*
X-3949618Y3663419D01*
X-3949618Y3777973D01*
X-3985686Y3685263D02*
G01*
X-3996608Y3679929D01*
X-4012864Y3663419D01*
X-4012864Y3777973D01*
X-3797221Y3917429D02*
G01*
X-3797221Y4031983D01*
X-3797221Y3917429D02*
G01*
X-3835575Y3917429D01*
X-3851831Y3923017D01*
X-3862753Y3933939D01*
X-3868087Y3944861D01*
X-3873675Y3961117D01*
X-3873675Y3988549D01*
X-3868087Y4004805D01*
X-3862753Y4015727D01*
X-3851831Y4026649D01*
X-3835575Y4031983D01*
X-3797221Y4031983D01*
X-3909743Y3939273D02*
G01*
X-3920665Y3933939D01*
X-3936921Y3917429D01*
X-3936921Y4031983D01*
X-3978323Y3944861D02*
G01*
X-3978323Y3939273D01*
X-3983911Y3928351D01*
X-3989245Y3923017D01*
X-4000167Y3917429D01*
X-4022011Y3917429D01*
X-4032933Y3923017D01*
X-4038267Y3928351D01*
X-4043855Y3939273D01*
X-4043855Y3950195D01*
X-4038267Y3961117D01*
X-4027599Y3977627D01*
X-3972989Y4031983D01*
X-4049189Y4031983D01*
X-3797221Y4184114D02*
G01*
X-3797221Y4298668D01*
X-3797221Y4184114D02*
G01*
X-3835575Y4184114D01*
X-3851831Y4189702D01*
X-3862753Y4200624D01*
X-3868087Y4211546D01*
X-3873675Y4227802D01*
X-3873675Y4255234D01*
X-3868087Y4271490D01*
X-3862753Y4282412D01*
X-3851831Y4293334D01*
X-3835575Y4298668D01*
X-3797221Y4298668D01*
X-3909743Y4205958D02*
G01*
X-3920665Y4200624D01*
X-3936921Y4184114D01*
X-3936921Y4298668D01*
X-3983911Y4184114D02*
G01*
X-4043855Y4184114D01*
X-4011089Y4227802D01*
X-4027599Y4227802D01*
X-4038267Y4233390D01*
X-4043855Y4238724D01*
X-4049189Y4255234D01*
X-4049189Y4265902D01*
X-4043855Y4282412D01*
X-4032933Y4293334D01*
X-4016677Y4298668D01*
X-4000167Y4298668D01*
X-3983911Y4293334D01*
X-3978323Y4287746D01*
X-3972989Y4276824D01*
X-3797221Y4412724D02*
G01*
X-3797221Y4527278D01*
X-3797221Y4412724D02*
G01*
X-3835575Y4412724D01*
X-3851831Y4418312D01*
X-3862753Y4429234D01*
X-3868087Y4440156D01*
X-3873675Y4456412D01*
X-3873675Y4483844D01*
X-3868087Y4500100D01*
X-3862753Y4511022D01*
X-3851831Y4521944D01*
X-3835575Y4527278D01*
X-3797221Y4527278D01*
X-3909743Y4434568D02*
G01*
X-3920665Y4429234D01*
X-3936921Y4412724D01*
X-3936921Y4527278D01*
X-4027599Y4412724D02*
G01*
X-3972989Y4489178D01*
X-4054777Y4489178D01*
X-4027599Y4412724D02*
G01*
X-4027599Y4527278D01*
X-3809921Y4679408D02*
G01*
X-3815509Y4684996D01*
X-3820843Y4679408D01*
X-3815509Y4674074D01*
X-3809921Y4679408D01*
X-3815509Y4717762D02*
G01*
X-3815509Y4793962D01*
X-3856911Y4717762D02*
G01*
X-3856911Y4793962D01*
X-3856911Y4739606D02*
G01*
X-3873167Y4723096D01*
X-3884089Y4717762D01*
X-3900599Y4717762D01*
X-3911521Y4723096D01*
X-3916855Y4739606D01*
X-3916855Y4793962D01*
X-3952923Y4679408D02*
G01*
X-3952923Y4793962D01*
X-3952923Y4793962D02*
G01*
X-4018455Y4793962D01*
X-3194738Y4943881D02*
G01*
X-3200326Y4949469D01*
X-3205660Y4943881D01*
X-3200326Y4938547D01*
X-3194738Y4943881D01*
X-3200326Y4982235D02*
G01*
X-3200326Y5058435D01*
X-3241728Y4982235D02*
G01*
X-3241728Y5058435D01*
X-3241728Y5004079D02*
G01*
X-3257984Y4987569D01*
X-3268906Y4982235D01*
X-3285416Y4982235D01*
X-3296338Y4987569D01*
X-3301672Y5004079D01*
X-3301672Y5058435D01*
X-3337740Y4943881D02*
G01*
X-3337740Y5058435D01*
X-3337740Y4943881D02*
G01*
X-3386762Y4943881D01*
X-3403272Y4949469D01*
X-3408606Y4954803D01*
X-3414194Y4965725D01*
X-3414194Y4976647D01*
X-3408606Y4987569D01*
X-3403272Y4993157D01*
X-3386762Y4998491D01*
X-3337740Y4998491D01*
X-3375840Y4998491D02*
G01*
X-3414194Y5058435D01*
X-3093646Y5236982D02*
G01*
X-3082724Y5242316D01*
X-3071802Y5253238D01*
X-3066214Y5269748D01*
X-3066214Y5280416D01*
X-3071802Y5296926D01*
X-3082724Y5307848D01*
X-3093646Y5313182D01*
X-3109902Y5313182D01*
X-3120824Y5307848D01*
X-3131746Y5296926D01*
X-3137080Y5280416D01*
X-3137080Y5269748D01*
X-3131746Y5253238D01*
X-3120824Y5242316D01*
X-3109902Y5236982D01*
X-3093646Y5236982D01*
X-3173148Y5236982D02*
G01*
X-3173148Y5291338D01*
X-3178736Y5307848D01*
X-3189658Y5313182D01*
X-3205914Y5313182D01*
X-3216836Y5307848D01*
X-3233092Y5291338D01*
X-3233092Y5236982D02*
G01*
X-3233092Y5313182D01*
X-3285670Y5198628D02*
G01*
X-3285670Y5291338D01*
X-3291004Y5307848D01*
X-3301926Y5313182D01*
X-3312848Y5313182D01*
X-3269160Y5236982D02*
G01*
X-3307260Y5236982D01*
X-3348916Y5198628D02*
G01*
X-3348916Y5313182D01*
X-3348916Y5313182D02*
G01*
X-3414194Y5313182D01*
X-3082724Y5491728D02*
G01*
X-3071802Y5497062D01*
X-3060880Y5507984D01*
X-3055292Y5524494D01*
X-3055292Y5535162D01*
X-3060880Y5551672D01*
X-3071802Y5562594D01*
X-3082724Y5567928D01*
X-3098980Y5567928D01*
X-3109902Y5562594D01*
X-3120824Y5551672D01*
X-3126158Y5535162D01*
X-3126158Y5524494D01*
X-3120824Y5507984D01*
X-3109902Y5497062D01*
X-3098980Y5491728D01*
X-3082724Y5491728D01*
X-3162226Y5491728D02*
G01*
X-3162226Y5546084D01*
X-3167814Y5562594D01*
X-3178736Y5567928D01*
X-3194992Y5567928D01*
X-3205914Y5562594D01*
X-3222170Y5546084D01*
X-3222170Y5491728D02*
G01*
X-3222170Y5567928D01*
X-3274748Y5453374D02*
G01*
X-3274748Y5546084D01*
X-3280082Y5562594D01*
X-3291004Y5567928D01*
X-3301926Y5567928D01*
X-3258238Y5491728D02*
G01*
X-3296338Y5491728D01*
X-3337994Y5453374D02*
G01*
X-3337994Y5567928D01*
X-3337994Y5453374D02*
G01*
X-3387016Y5453374D01*
X-3403272Y5458962D01*
X-3408860Y5464296D01*
X-3414194Y5475218D01*
X-3414194Y5486140D01*
X-3408860Y5497062D01*
X-3403272Y5502650D01*
X-3387016Y5507984D01*
X-3337994Y5507984D01*
X-3376094Y5507984D02*
G01*
X-3414194Y5567928D01*
X-3104311Y5784321D02*
G01*
X-3060623Y5898875D01*
X-3104311Y5784321D02*
G01*
X-3147999Y5898875D01*
X-3077133Y5860775D02*
G01*
X-3131489Y5860775D01*
X-3265855Y5811753D02*
G01*
X-3260267Y5800831D01*
X-3249345Y5789909D01*
X-3238423Y5784321D01*
X-3216579Y5784321D01*
X-3205911Y5789909D01*
X-3194989Y5800831D01*
X-3189401Y5811753D01*
X-3184067Y5828009D01*
X-3184067Y5855441D01*
X-3189401Y5871697D01*
X-3194989Y5882619D01*
X-3205911Y5893541D01*
X-3216579Y5898875D01*
X-3238423Y5898875D01*
X-3249345Y5893541D01*
X-3260267Y5882619D01*
X-3265855Y5871697D01*
X-3265855Y5855441D01*
X-3238423Y5855441D02*
G01*
X-3265855Y5855441D01*
X-3301669Y5784321D02*
G01*
X-3301669Y5898875D01*
X-3301669Y5784321D02*
G01*
X-3378123Y5898875D01*
X-3378123Y5784321D02*
G01*
X-3378123Y5898875D01*
X-3414191Y5784321D02*
G01*
X-3414191Y5898875D01*
X-3414191Y5784321D02*
G01*
X-3452291Y5784321D01*
X-3468801Y5789909D01*
X-3479723Y5800831D01*
X-3485057Y5811753D01*
X-3490391Y5828009D01*
X-3490391Y5855441D01*
X-3485057Y5871697D01*
X-3479723Y5882619D01*
X-3468801Y5893541D01*
X-3452291Y5898875D01*
X-3414191Y5898875D01*
X-4671819Y5720847D02*
G01*
X-4731763Y5720847D01*
X-4698997Y5764535D01*
X-4715507Y5764535D01*
X-4726429Y5770123D01*
X-4731763Y5775457D01*
X-4737351Y5791713D01*
X-4737351Y5802635D01*
X-4731763Y5819145D01*
X-4720841Y5830067D01*
X-4704585Y5835401D01*
X-4688075Y5835401D01*
X-4671819Y5830067D01*
X-4666231Y5824479D01*
X-4660897Y5813557D01*
X-4773165Y5720847D02*
G01*
X-4816853Y5835401D01*
X-4860541Y5720847D02*
G01*
X-4816853Y5835401D01*
X-4907531Y5720847D02*
G01*
X-4967475Y5720847D01*
X-4934709Y5764535D01*
X-4950965Y5764535D01*
X-4961887Y5770123D01*
X-4967475Y5775457D01*
X-4972809Y5791713D01*
X-4972809Y5802635D01*
X-4967475Y5819145D01*
X-4956553Y5830067D01*
X-4940043Y5835401D01*
X-4923787Y5835401D01*
X-4907531Y5830067D01*
X-4901943Y5824479D01*
X-4896609Y5813557D01*
X-5052565Y5720847D02*
G01*
X-5008877Y5835401D01*
X-5052565Y5720847D02*
G01*
X-5096253Y5835401D01*
X-5025133Y5797301D02*
G01*
X-5079743Y5797301D01*
X-4882385Y5441421D02*
G01*
X-4838697Y5555975D01*
X-4882385Y5441421D02*
G01*
X-4926073Y5555975D01*
X-4854953Y5517875D02*
G01*
X-4909563Y5517875D01*
X-4994653Y5441421D02*
G01*
X-4978397Y5447009D01*
X-4967475Y5463265D01*
X-4961887Y5490697D01*
X-4961887Y5506953D01*
X-4967475Y5534131D01*
X-4978397Y5550641D01*
X-4994653Y5555975D01*
X-5005575Y5555975D01*
X-5022085Y5550641D01*
X-5033007Y5534131D01*
X-5038341Y5506953D01*
X-5038341Y5490697D01*
X-5033007Y5463265D01*
X-5022085Y5447009D01*
X-5005575Y5441421D01*
X-4994653Y5441421D01*
X-4933185Y5200121D02*
G01*
X-4889497Y5314675D01*
X-4933185Y5200121D02*
G01*
X-4976873Y5314675D01*
X-4905753Y5276575D02*
G01*
X-4960363Y5276575D01*
X-5012687Y5221965D02*
G01*
X-5023609Y5216631D01*
X-5040119Y5200121D01*
X-5040119Y5314675D01*
X-4895085Y4920696D02*
G01*
X-4851397Y5035250D01*
X-4895085Y4920696D02*
G01*
X-4938773Y5035250D01*
X-4867653Y4997150D02*
G01*
X-4922263Y4997150D01*
X-4980175Y4948128D02*
G01*
X-4980175Y4942540D01*
X-4985509Y4931618D01*
X-4991097Y4926284D01*
X-5002019Y4920696D01*
X-5023863Y4920696D01*
X-5034785Y4926284D01*
X-5040119Y4931618D01*
X-5045707Y4942540D01*
X-5045707Y4953462D01*
X-5040119Y4964384D01*
X-5029197Y4980894D01*
X-4974587Y5035250D01*
X-5051041Y5035250D01*
X-5479366Y4683485D02*
G01*
X-5435678Y4797785D01*
X-5479366Y4683485D02*
G01*
X-5523054Y4797785D01*
X-5451934Y4759685D02*
G01*
X-5506544Y4759685D01*
X-5569790Y4683485D02*
G01*
X-5629988Y4683485D01*
X-5597222Y4726919D01*
X-5613478Y4726919D01*
X-5624400Y4732507D01*
X-5629988Y4737841D01*
X-5635322Y4754351D01*
X-5635322Y4765273D01*
X-5629988Y4781529D01*
X-5619066Y4792451D01*
X-5602556Y4797785D01*
X-5586300Y4797785D01*
X-5569790Y4792451D01*
X-5564456Y4787117D01*
X-5558868Y4776195D01*
X-5479366Y4423389D02*
G01*
X-5435678Y4537943D01*
X-5479366Y4423389D02*
G01*
X-5523054Y4537943D01*
X-5451934Y4499589D02*
G01*
X-5506544Y4499589D01*
X-5613478Y4423389D02*
G01*
X-5558868Y4499589D01*
X-5640656Y4499589D01*
X-5613478Y4423389D02*
G01*
X-5613478Y4537943D01*
X-5479366Y4168627D02*
G01*
X-5435678Y4283181D01*
X-5479366Y4168627D02*
G01*
X-5523054Y4283181D01*
X-5451934Y4244827D02*
G01*
X-5506544Y4244827D01*
X-5624400Y4168627D02*
G01*
X-5569790Y4168627D01*
X-5564456Y4217649D01*
X-5569790Y4212061D01*
X-5586300Y4206727D01*
X-5602556Y4206727D01*
X-5619066Y4212061D01*
X-5629988Y4222983D01*
X-5635322Y4239493D01*
X-5635322Y4250415D01*
X-5629988Y4266671D01*
X-5619066Y4277593D01*
X-5602556Y4283181D01*
X-5586300Y4283181D01*
X-5569790Y4277593D01*
X-5564456Y4272259D01*
X-5558868Y4261337D01*
X-5479366Y3913865D02*
G01*
X-5435678Y4028419D01*
X-5479366Y3913865D02*
G01*
X-5523054Y4028419D01*
X-5451934Y3990065D02*
G01*
X-5506544Y3990065D01*
X-5624400Y3930121D02*
G01*
X-5619066Y3919199D01*
X-5602556Y3913865D01*
X-5591634Y3913865D01*
X-5575378Y3919199D01*
X-5564456Y3935709D01*
X-5558868Y3962887D01*
X-5558868Y3990065D01*
X-5564456Y4011909D01*
X-5575378Y4022831D01*
X-5591634Y4028419D01*
X-5597222Y4028419D01*
X-5613478Y4022831D01*
X-5624400Y4011909D01*
X-5629988Y3995653D01*
X-5629988Y3990065D01*
X-5624400Y3973809D01*
X-5613478Y3962887D01*
X-5597222Y3957299D01*
X-5591634Y3957299D01*
X-5575378Y3962887D01*
X-5564456Y3973809D01*
X-5558868Y3990065D01*
X-4945885Y3688974D02*
G01*
X-4902197Y3803528D01*
X-4945885Y3688974D02*
G01*
X-4989573Y3803528D01*
X-4918453Y3765174D02*
G01*
X-4973063Y3765174D01*
X-5101841Y3688974D02*
G01*
X-5047231Y3803528D01*
X-5025387Y3688974D02*
G01*
X-5101841Y3688974D01*
X-4920485Y3409548D02*
G01*
X-4876797Y3524102D01*
X-4920485Y3409548D02*
G01*
X-4964173Y3524102D01*
X-4893053Y3485748D02*
G01*
X-4947663Y3485748D01*
X-5027419Y3409548D02*
G01*
X-5010909Y3414882D01*
X-5005575Y3425804D01*
X-5005575Y3436726D01*
X-5010909Y3447648D01*
X-5021831Y3453236D01*
X-5043675Y3458570D01*
X-5060185Y3464158D01*
X-5071107Y3475080D01*
X-5076441Y3485748D01*
X-5076441Y3502258D01*
X-5071107Y3513180D01*
X-5065519Y3518514D01*
X-5049263Y3524102D01*
X-5027419Y3524102D01*
X-5010909Y3518514D01*
X-5005575Y3513180D01*
X-4999987Y3502258D01*
X-4999987Y3485748D01*
X-5005575Y3475080D01*
X-5016497Y3464158D01*
X-5032753Y3458570D01*
X-5054597Y3453236D01*
X-5065519Y3447648D01*
X-5071107Y3436726D01*
X-5071107Y3425804D01*
X-5065519Y3414882D01*
X-5049263Y3409548D01*
X-5027419Y3409548D01*
X-4933185Y3155548D02*
G01*
X-4889497Y3270102D01*
X-4933185Y3155548D02*
G01*
X-4976873Y3270102D01*
X-4905753Y3232002D02*
G01*
X-4960363Y3232002D01*
X-5083807Y3193648D02*
G01*
X-5078219Y3210158D01*
X-5067297Y3221080D01*
X-5051041Y3226414D01*
X-5045453Y3226414D01*
X-5029197Y3221080D01*
X-5018275Y3210158D01*
X-5012687Y3193648D01*
X-5012687Y3188314D01*
X-5018275Y3171804D01*
X-5029197Y3160882D01*
X-5045453Y3155548D01*
X-5051041Y3155548D01*
X-5067297Y3160882D01*
X-5078219Y3171804D01*
X-5083807Y3193648D01*
X-5083807Y3221080D01*
X-5078219Y3248258D01*
X-5067297Y3264514D01*
X-5051041Y3270102D01*
X-5040119Y3270102D01*
X-5023609Y3264514D01*
X-5018275Y3253592D01*
X-4869685Y2901523D02*
G01*
X-4825997Y3016077D01*
X-4869685Y2901523D02*
G01*
X-4913373Y3016077D01*
X-4842253Y2977977D02*
G01*
X-4896863Y2977977D01*
X-4949187Y2923367D02*
G01*
X-4960109Y2917779D01*
X-4976619Y2901523D01*
X-4976619Y3016077D01*
X-5045199Y2901523D02*
G01*
X-5028943Y2906857D01*
X-5018021Y2923367D01*
X-5012433Y2950545D01*
X-5012433Y2967055D01*
X-5018021Y2994233D01*
X-5028943Y3010489D01*
X-5045199Y3016077D01*
X-5056121Y3016077D01*
X-5072631Y3010489D01*
X-5083553Y2994233D01*
X-5088887Y2967055D01*
X-5088887Y2950545D01*
X-5083553Y2923367D01*
X-5072631Y2906857D01*
X-5056121Y2901523D01*
X-5045199Y2901523D01*
X-4800597Y2647497D02*
G01*
X-4800597Y2762051D01*
X-4800597Y2647497D02*
G01*
X-4838697Y2647497D01*
X-4855207Y2652831D01*
X-4866129Y2663753D01*
X-4871463Y2674675D01*
X-4877051Y2691185D01*
X-4877051Y2718363D01*
X-4871463Y2734873D01*
X-4866129Y2745795D01*
X-4855207Y2756463D01*
X-4838697Y2762051D01*
X-4800597Y2762051D01*
X-4918453Y2674675D02*
G01*
X-4918453Y2669341D01*
X-4923787Y2658419D01*
X-4929375Y2652831D01*
X-4940297Y2647497D01*
X-4962141Y2647497D01*
X-4973063Y2652831D01*
X-4978397Y2658419D01*
X-4983985Y2669341D01*
X-4983985Y2680263D01*
X-4978397Y2691185D01*
X-4967475Y2707441D01*
X-4912865Y2762051D01*
X-4989319Y2762051D01*
X-5090665Y2663753D02*
G01*
X-5085331Y2652831D01*
X-5069075Y2647497D01*
X-5058153Y2647497D01*
X-5041643Y2652831D01*
X-5030721Y2669341D01*
X-5025387Y2696519D01*
X-5025387Y2723951D01*
X-5030721Y2745795D01*
X-5041643Y2756463D01*
X-5058153Y2762051D01*
X-5063487Y2762051D01*
X-5079997Y2756463D01*
X-5090665Y2745795D01*
X-5096253Y2729285D01*
X-5096253Y2723951D01*
X-5090665Y2707441D01*
X-5079997Y2696519D01*
X-5063487Y2691185D01*
X-5058153Y2691185D01*
X-5041643Y2696519D01*
X-5030721Y2707441D01*
X-5025387Y2723951D01*
X-4775197Y2393497D02*
G01*
X-4775197Y2508051D01*
X-4775197Y2393497D02*
G01*
X-4813297Y2393497D01*
X-4829807Y2399085D01*
X-4840729Y2409753D01*
X-4846063Y2420675D01*
X-4851651Y2437185D01*
X-4851651Y2464363D01*
X-4846063Y2480873D01*
X-4840729Y2491795D01*
X-4829807Y2502717D01*
X-4813297Y2508051D01*
X-4775197Y2508051D01*
X-4893053Y2420675D02*
G01*
X-4893053Y2415341D01*
X-4898387Y2404419D01*
X-4903975Y2399085D01*
X-4914897Y2393497D01*
X-4936741Y2393497D01*
X-4947663Y2399085D01*
X-4952997Y2404419D01*
X-4958585Y2415341D01*
X-4958585Y2426263D01*
X-4952997Y2437185D01*
X-4942075Y2453441D01*
X-4887465Y2508051D01*
X-4963919Y2508051D01*
X-5076187Y2393497D02*
G01*
X-5021831Y2508051D01*
X-4999987Y2393497D02*
G01*
X-5076187Y2393497D01*
X-4450585Y2139472D02*
G01*
X-4406897Y2254026D01*
X-4450585Y2139472D02*
G01*
X-4494273Y2254026D01*
X-4423153Y2215926D02*
G01*
X-4477763Y2215926D01*
X-4530087Y2161316D02*
G01*
X-4541009Y2155982D01*
X-4557519Y2139472D01*
X-4557519Y2254026D01*
X-4593333Y2161316D02*
G01*
X-4604255Y2155982D01*
X-4620765Y2139472D01*
X-4620765Y2254026D01*
X-4754877Y2117628D02*
G01*
X-4656833Y2292126D01*
X-4790945Y2139472D02*
G01*
X-4790945Y2254026D01*
X-4790945Y2139472D02*
G01*
X-4829045Y2139472D01*
X-4845555Y2145060D01*
X-4856477Y2155982D01*
X-4861811Y2166650D01*
X-4867145Y2183160D01*
X-4867145Y2210338D01*
X-4861811Y2226848D01*
X-4856477Y2237770D01*
X-4845555Y2248692D01*
X-4829045Y2254026D01*
X-4790945Y2254026D01*
X-4908801Y2166650D02*
G01*
X-4908801Y2161316D01*
X-4914135Y2150394D01*
X-4919723Y2145060D01*
X-4930645Y2139472D01*
X-4952235Y2139472D01*
X-4963157Y2145060D01*
X-4968745Y2150394D01*
X-4974079Y2161316D01*
X-4974079Y2172238D01*
X-4968745Y2183160D01*
X-4957823Y2199416D01*
X-4903213Y2254026D01*
X-4979667Y2254026D01*
X-5042913Y2139472D02*
G01*
X-5026657Y2145060D01*
X-5021069Y2155982D01*
X-5021069Y2166650D01*
X-5026657Y2177572D01*
X-5037325Y2183160D01*
X-5059169Y2188494D01*
X-5075679Y2194082D01*
X-5086601Y2205004D01*
X-5091935Y2215926D01*
X-5091935Y2232182D01*
X-5086601Y2243104D01*
X-5081013Y2248692D01*
X-5064757Y2254026D01*
X-5042913Y2254026D01*
X-5026657Y2248692D01*
X-5021069Y2243104D01*
X-5015735Y2232182D01*
X-5015735Y2215926D01*
X-5021069Y2205004D01*
X-5031991Y2194082D01*
X-5048247Y2188494D01*
X-5070091Y2183160D01*
X-5081013Y2177572D01*
X-5086601Y2166650D01*
X-5086601Y2155982D01*
X-5081013Y2145060D01*
X-5064757Y2139472D01*
X-5042913Y2139472D01*
X-4787897Y1872772D02*
G01*
X-4787897Y1987326D01*
X-4787897Y1872772D02*
G01*
X-4825997Y1872772D01*
X-4842507Y1878360D01*
X-4853429Y1889282D01*
X-4858763Y1900204D01*
X-4864351Y1916460D01*
X-4864351Y1943638D01*
X-4858763Y1960148D01*
X-4853429Y1971070D01*
X-4842507Y1981992D01*
X-4825997Y1987326D01*
X-4787897Y1987326D01*
X-4905753Y1900204D02*
G01*
X-4905753Y1894616D01*
X-4911087Y1883694D01*
X-4916675Y1878360D01*
X-4927597Y1872772D01*
X-4949441Y1872772D01*
X-4960363Y1878360D01*
X-4965697Y1883694D01*
X-4971285Y1894616D01*
X-4971285Y1905538D01*
X-4965697Y1916460D01*
X-4954775Y1932716D01*
X-4900165Y1987326D01*
X-4976619Y1987326D01*
X-5083553Y1910872D02*
G01*
X-5077965Y1927382D01*
X-5067297Y1938304D01*
X-5050787Y1943638D01*
X-5045453Y1943638D01*
X-5028943Y1938304D01*
X-5018021Y1927382D01*
X-5012687Y1910872D01*
X-5012687Y1905538D01*
X-5018021Y1889282D01*
X-5028943Y1878360D01*
X-5045453Y1872772D01*
X-5050787Y1872772D01*
X-5067297Y1878360D01*
X-5077965Y1889282D01*
X-5083553Y1910872D01*
X-5083553Y1938304D01*
X-5077965Y1965482D01*
X-5067297Y1981992D01*
X-5050787Y1987326D01*
X-5039865Y1987326D01*
X-5023609Y1981992D01*
X-5018021Y1971070D01*
X-4787897Y1631447D02*
G01*
X-4787897Y1746001D01*
X-4787897Y1631447D02*
G01*
X-4825997Y1631447D01*
X-4842507Y1637035D01*
X-4853429Y1647957D01*
X-4858763Y1658879D01*
X-4864351Y1675135D01*
X-4864351Y1702313D01*
X-4858763Y1718823D01*
X-4853429Y1729745D01*
X-4842507Y1740667D01*
X-4825997Y1746001D01*
X-4787897Y1746001D01*
X-4911087Y1631447D02*
G01*
X-4971285Y1631447D01*
X-4938519Y1675135D01*
X-4954775Y1675135D01*
X-4965697Y1680723D01*
X-4971285Y1686057D01*
X-4976619Y1702313D01*
X-4976619Y1713235D01*
X-4971285Y1729745D01*
X-4960363Y1740667D01*
X-4943853Y1746001D01*
X-4927597Y1746001D01*
X-4911087Y1740667D01*
X-4905753Y1735079D01*
X-4900165Y1724157D01*
X-5045453Y1631447D02*
G01*
X-5028943Y1637035D01*
X-5018021Y1653291D01*
X-5012687Y1680723D01*
X-5012687Y1696979D01*
X-5018021Y1724157D01*
X-5028943Y1740667D01*
X-5045453Y1746001D01*
X-5056375Y1746001D01*
X-5072631Y1740667D01*
X-5083553Y1724157D01*
X-5088887Y1696979D01*
X-5088887Y1680723D01*
X-5083553Y1653291D01*
X-5072631Y1637035D01*
X-5056375Y1631447D01*
X-5045453Y1631447D01*
X-4671819Y1377421D02*
G01*
X-4731763Y1377421D01*
X-4698997Y1421109D01*
X-4715507Y1421109D01*
X-4726429Y1426697D01*
X-4731763Y1432031D01*
X-4737351Y1448287D01*
X-4737351Y1459209D01*
X-4731763Y1475719D01*
X-4720841Y1486641D01*
X-4704585Y1491975D01*
X-4688075Y1491975D01*
X-4671819Y1486641D01*
X-4666231Y1481053D01*
X-4660897Y1470131D01*
X-4773165Y1377421D02*
G01*
X-4816853Y1491975D01*
X-4860541Y1377421D02*
G01*
X-4816853Y1491975D01*
X-4907531Y1377421D02*
G01*
X-4967475Y1377421D01*
X-4934709Y1421109D01*
X-4950965Y1421109D01*
X-4961887Y1426697D01*
X-4967475Y1432031D01*
X-4972809Y1448287D01*
X-4972809Y1459209D01*
X-4967475Y1475719D01*
X-4956553Y1486641D01*
X-4940297Y1491975D01*
X-4923787Y1491975D01*
X-4907531Y1486641D01*
X-4901943Y1481053D01*
X-4896609Y1470131D01*
X-5008877Y1377421D02*
G01*
X-5008877Y1491975D01*
X-5008877Y1377421D02*
G01*
X-5046977Y1377421D01*
X-5063487Y1383009D01*
X-5074409Y1393931D01*
X-5079743Y1404853D01*
X-5085331Y1421109D01*
X-5085331Y1448287D01*
X-5079743Y1464797D01*
X-5074409Y1475719D01*
X-5063487Y1486641D01*
X-5046977Y1491975D01*
X-5008877Y1491975D01*
X-4813297Y1136121D02*
G01*
X-4856985Y1250675D01*
X-4900673Y1136121D02*
G01*
X-4856985Y1250675D01*
X-4936487Y1136121D02*
G01*
X-4936487Y1250675D01*
X-4972555Y1136121D02*
G01*
X-4972555Y1250675D01*
X-4972555Y1136121D02*
G01*
X-5049009Y1250675D01*
X-5049009Y1136121D02*
G01*
X-5049009Y1250675D01*
X-4660973Y869421D02*
G01*
X-4660973Y983975D01*
X-4660973Y869421D02*
G01*
X-4699073Y869421D01*
X-4715329Y875009D01*
X-4726251Y885931D01*
X-4731839Y896853D01*
X-4737173Y913109D01*
X-4737173Y940541D01*
X-4731839Y956797D01*
X-4726251Y967719D01*
X-4715329Y978641D01*
X-4699073Y983975D01*
X-4660973Y983975D01*
X-4855029Y896853D02*
G01*
X-4849695Y885931D01*
X-4838773Y875009D01*
X-4827851Y869421D01*
X-4806007Y869421D01*
X-4795085Y875009D01*
X-4784163Y885931D01*
X-4778829Y896853D01*
X-4773241Y913109D01*
X-4773241Y940541D01*
X-4778829Y956797D01*
X-4784163Y967719D01*
X-4795085Y978641D01*
X-4806007Y983975D01*
X-4827851Y983975D01*
X-4838773Y978641D01*
X-4849695Y967719D01*
X-4855029Y956797D01*
X-4855029Y940541D01*
X-4827851Y940541D02*
G01*
X-4855029Y940541D01*
X-4891097Y869421D02*
G01*
X-4891097Y983975D01*
X-4891097Y869421D02*
G01*
X-4967551Y983975D01*
X-4967551Y869421D02*
G01*
X-4967551Y983975D01*
X-5003365Y869421D02*
G01*
X-5003365Y983975D01*
X-5003365Y869421D02*
G01*
X-5041719Y869421D01*
X-5057975Y875009D01*
X-5068897Y885931D01*
X-5074231Y896853D01*
X-5079819Y913109D01*
X-5079819Y940541D01*
X-5074231Y956797D01*
X-5068897Y967719D01*
X-5057975Y978641D01*
X-5041719Y983975D01*
X-5003365Y983975D01*
D14*
X-6940633Y2752707D02*
G01*
X-5518233Y2752707D01*
X-5518233Y1609707D01*
X-6940633Y1609707D01*
X-6940633Y2752707D01*
D15*
X-6388099Y8928100D02*
G01*
X-1282700Y8928100D01*
X-1282700Y5930900D01*
X-6375399Y5930900D01*
X-6375399Y8928100D01*
D14*
X-6941182Y1395912D02*
G01*
X-5518782Y1395912D01*
X-5518782Y252912D01*
X-6941182Y252912D01*
X-6941182Y1395912D01*
X-6941182Y1122862D02*
G01*
X-7296782Y1122862D01*
X-7296782Y519612D01*
X-6941182Y519612D01*
X-6940633Y2479657D02*
G01*
X-7296233Y2479657D01*
X-7296233Y1876407D01*
X-6940633Y1876407D01*
X-2822681Y4648243D02*
G01*
X-3265373Y4648243D01*
X-2071971Y4351510D02*
G01*
X-2071971Y4648243D01*
X-2515062Y4648243D01*
X-2071971Y3843510D02*
G01*
X-2071971Y4259176D01*
X-2071971Y3602944D02*
G01*
X-2071971Y3751176D01*
X-2822681Y3454443D02*
G01*
X-3265373Y3454443D01*
X-3265373Y4648243D01*
X-2071971Y3514044D02*
G01*
X-2071971Y3454443D01*
X-2515062Y3454443D01*
X-3265771Y3602944D02*
G01*
X-3265771Y3514044D01*
X-2071971Y3602944D02*
G01*
X-2071971Y3514044D01*
X-6551198Y6835203D02*
G01*
X-6301198Y6835203D01*
X-6551198Y6581902D02*
G01*
X-6551198Y8581897D01*
X-6301198Y8581897D01*
X-6301198Y6581902D01*
X-6551198Y6581902D01*
D11*
X-1333500Y1473200D02*
G01*
X-1333500Y444500D01*
X-1143000Y254000D02*
G01*
X1016000Y254000D01*
X1206500Y444500D02*
G01*
X1206500Y1473200D01*
X1016000Y1663700D02*
G01*
X-1143000Y1663700D01*
D14*
X1183360Y2959102D02*
G01*
X1183360Y1943102D01*
D10*
X475155Y2098319D02*
G01*
X1174927Y2098319D01*
X1174927Y2798343D01*
X468043Y2798343D01*
X468043Y2098319D01*
X475155Y2098319D01*
D14*
X-975639Y3213102D02*
G01*
X929360Y3213102D01*
X929360Y1689102D02*
G01*
X-975639Y1689102D01*
X-1229639Y1943102D02*
G01*
X-1229639Y2959102D01*
D16*
X676935Y1981202D02*
G01*
X597560Y1981202D01*
X649960Y2868627D02*
G01*
X649960Y2947972D01*
X610285Y2908302D02*
G01*
X689635Y2908302D01*
D10*
X992858Y2095500D02*
G01*
X992858Y2795501D01*
D14*
X-1738706Y266395D02*
G01*
X-1738706Y1546402D01*
X-1738706Y2836392D01*
X-3468700Y2836392D01*
X-3472687Y261162D01*
X-1738706Y266395D01*
X-2952953Y199542D02*
G01*
X-2912287Y199542D01*
X-2312847Y199542D02*
G01*
X-2272207Y199542D01*
X-2952953Y199542D02*
G01*
X-2952953Y270637D01*
X-2952953Y270637D02*
G01*
X-2952953Y699896D01*
X-2272207Y699896D02*
G01*
X-2272207Y270637D01*
X-2272207Y270637D02*
G01*
X-2272207Y199542D01*
X-2952953Y199542D02*
G01*
X-3011347Y141096D01*
X-2272207Y199542D02*
G01*
X-2213787Y141096D01*
X-2912287Y199542D02*
G01*
X-2912287Y161442D01*
X-2891967Y136042D02*
G01*
X-2338247Y136042D01*
X-2312847Y156337D02*
G01*
X-2312847Y199542D01*
X-2952953Y539877D02*
G01*
X-2952953Y699896D01*
X-2952953Y699896D02*
G01*
X-2833547Y699896D01*
X-2272207Y699896D02*
G01*
X-2391587Y699896D01*
X-2272207Y539877D02*
G01*
X-2272207Y699896D01*
X-2952953Y270637D02*
G01*
X-2272207Y270637D01*
X-2833547Y699896D02*
G01*
X-2833547Y560196D01*
X-2833547Y560196D02*
G01*
X-2391587Y560196D01*
X-2391587Y560196D02*
G01*
X-2391587Y699896D01*
D18*
X-6422212Y3059099D02*
G01*
X-6422212Y2859100D01*
D14*
X-6616699Y5778500D02*
G01*
X-6616699Y3797300D01*
X-6845299Y3797300D01*
X-6845299Y5778500D01*
X-6616699Y5778500D01*
X-6375399Y5778500D02*
G01*
X-6375399Y3797300D01*
X-6603999Y3797300D01*
X-6603999Y5778500D01*
X-6375399Y5778500D01*
D18*
X-6342989Y4198594D02*
G01*
X-5544210Y4198594D01*
X-5544210Y3396005D02*
G01*
X-6342989Y3396005D01*
X-6343599Y4197299D02*
G01*
X-6343599Y4147286D01*
X-6343599Y3947312D02*
G01*
X-6343599Y3647287D01*
X-6343599Y3447313D02*
G01*
X-6343599Y3397300D01*
X-5543600Y3397300D02*
G01*
X-5543600Y3447313D01*
X-5543600Y3647287D02*
G01*
X-5543600Y3947312D01*
X-5543600Y4197299D02*
G01*
X-5543600Y4147286D01*
D14*
X-75745Y4775212D02*
G01*
X-518436Y4775212D01*
X674964Y4478479D02*
G01*
X674964Y4775212D01*
X231874Y4775212D01*
X674964Y3970479D02*
G01*
X674964Y4386145D01*
X674964Y3729913D02*
G01*
X674964Y3878145D01*
X-75745Y3581412D02*
G01*
X-518436Y3581412D01*
X-518436Y4775212D01*
X674964Y3641013D02*
G01*
X674964Y3581412D01*
X231874Y3581412D01*
X-518835Y3729913D02*
G01*
X-518835Y3641013D01*
X674964Y3729913D02*
G01*
X674964Y3641013D01*
X-78003Y8788412D02*
G01*
X-520694Y8788412D01*
X672706Y8491679D02*
G01*
X672706Y8788412D01*
X229615Y8788412D01*
X672706Y7983679D02*
G01*
X672706Y8399345D01*
X672706Y7743113D02*
G01*
X672706Y7891345D01*
X-78003Y7594612D02*
G01*
X-520694Y7594612D01*
X-520694Y8788412D01*
X672706Y7654213D02*
G01*
X672706Y7594612D01*
X229615Y7594612D01*
X-521093Y7743113D02*
G01*
X-521093Y7654213D01*
X672706Y7743113D02*
G01*
X672706Y7654213D01*
X-65303Y6718312D02*
G01*
X-507994Y6718312D01*
X685406Y6421579D02*
G01*
X685406Y6718312D01*
X242315Y6718312D01*
X685406Y5913579D02*
G01*
X685406Y6329245D01*
X685406Y5673013D02*
G01*
X685406Y5821245D01*
X-65303Y5524512D02*
G01*
X-507994Y5524512D01*
X-507994Y6718312D01*
X685406Y5584113D02*
G01*
X685406Y5524512D01*
X242315Y5524512D01*
X-508393Y5673013D02*
G01*
X-508393Y5584113D01*
X685406Y5673013D02*
G01*
X685406Y5584113D01*
X-3532301Y790117D02*
G01*
X-5332298Y790117D01*
X-5332298Y5890107D01*
X-3532301Y5890107D01*
X-3532301Y790117D01*
X-4076700Y640105D02*
G01*
X-4782311Y640105D01*
X-4782311Y787400D01*
X-4076700Y787400D01*
X-4076700Y640105D01*
D11*
G75*
G01*
X-1333500Y444500D02*
G03*
X-1143000Y254000I190500J0D01*
G75*
G01*
X1015995Y254000D02*
G03*
X1206495Y444500I0J190500D01*
G75*
G01*
X1206495Y1473200D02*
G03*
X1015995Y1663697I-190500J-2D01*
G75*
G01*
X-1143000Y1663697D02*
G03*
X-1333500Y1473200I0J-190499D01*
D14*
G75*
G01*
X-975642Y1689100D02*
G02*
X-1229642Y1943100I0J254000D01*
G75*
G01*
X1183358Y1943100D02*
G02*
X929358Y1689100I-254000J0D01*
G75*
G01*
X929358Y3213100D02*
G02*
X1183358Y2959100I0J-254000D01*
G75*
G01*
X-1229642Y2959100D02*
G02*
X-975642Y3213100I254000J0D01*
D10*
G75*
G01*
X1096668Y1917916D02*
G03*
X1096668Y1917484I-180010J-216D01*
G75*
G01*
X1096668Y2984718D02*
G03*
X1096668Y2984287I-180010J-215D01*
G75*
G01*
X715414Y1981200D02*
G03*
X715414Y1980794I-78181J-203D01*
G75*
G01*
X571777Y2908300D02*
G03*
X571777Y2908706I78181J203D01*
D14*
G75*
G01*
X-2912872Y160020D02*
G03*
X-2892806Y135128I23840J-1316D01*
G75*
G01*
X-2337816Y135128D02*
G03*
X-2312924Y154940I1358J23837D01*
D18*
G75*
G01*
X-6422212Y3059100D02*
G02*
X-6422212Y2859100I250008J-100000D01*
D14*
G75*
G01
X-2384605Y4051351D02*
G03X-2384605Y4051351I-309270J0D01*
G75*
G01
X1178557Y1460500D02*
G03X1178557Y1460500I-175260J0D01*
G75*
G01
X1178557Y457200D02*
G03X1178557Y457200I-175260J0D01*
D19*
G75*
G01
X1022982Y958596D02*
G03X1022982Y958596I-499999J0D01*
D14*
G75*
G01
X362328Y4178325D02*
G03X362328Y4178325I-309270J0D01*
G75*
G01
X360068Y8191500D02*
G03X360068Y8191500I-309270J0D01*
G75*
G01
X372768Y6121425D02*
G03X372768Y6121425I-309270J0D01*
M02*
