G04 Layer: BottomLayer*
G04 EasyEDA v6.5.54, 2026-02-11 12:30:12*
G04 eb789f6f9b4241e9a458f17a6f4b8d6f,92e600de7ff74937a4e092c024f19ce6,10*
G04 Gerber Generator version 0.2*
G04 Scale: 100 percent, Rotated: No, Reflected: No *
G04 Dimensions in millimeters *
G04 leading zeros omitted , absolute positions ,4 integer and 5 decimal *
%FSLAX45Y45*%
%MOMM*%

%ADD10C,0.5000*%
%ADD11C,0.2000*%
%ADD12C,0.8000*%
%ADD13C,0.2500*%
%ADD14C,0.7000*%
%ADD15C,0.6000*%
%ADD16C,2.3000*%
%ADD17C,0.0128*%
%ADD18O,2.799994X1.999996*%
%ADD19C,2.0000*%
%ADD20C,1.6000*%
%ADD21C,2.9997*%
%ADD22C,2.1844*%
%ADD23O,1.27X2.54*%
%ADD24O,1.28999X2.54*%
%ADD25O,2.999994X1.299997*%
%ADD26O,1.399997X2.999994*%
%ADD27O,1.299997X2.999994*%
%ADD28C,1.4000*%
%ADD29C,0.6200*%

%LPD*%
D10*
X-3924302Y635000D02*
G01*
X-2755902Y635000D01*
X-2730500Y609597D01*
X-2730502Y1562100D02*
G01*
X-2730423Y1562178D01*
X-1981200Y1562178D01*
X-1854200Y1435178D01*
X-1587500Y1435178D01*
X-1587500Y1028778D01*
X-1244600Y685878D01*
X-1193800Y685878D01*
X-1765302Y2705100D02*
G01*
X-1727326Y2705100D01*
X-1727260Y2705166D01*
X-924816Y2705178D01*
X-3659301Y5763107D02*
G01*
X-3657600Y5892800D01*
X-5791199Y5892797D01*
X-5803902Y5905500D01*
X-3659301Y5763107D02*
G01*
X-1663702Y5763082D01*
X-1663702Y5765800D01*
D11*
X-3659380Y5508066D02*
G01*
X-3771902Y5524576D01*
X-4419602Y5524576D01*
X-3659301Y5252999D02*
G01*
X-3659301Y5252999D01*
X-1422405Y5245097D01*
X-1409702Y5257800D01*
X-3659301Y4742891D02*
G01*
X-3841239Y4749878D01*
X-4267202Y4749878D01*
X-4267202Y4749800D01*
X-3659301Y4487824D02*
G01*
X-3776063Y4470400D01*
X-3898902Y4470400D01*
X-3659301Y4232782D02*
G01*
X-3780360Y4254500D01*
X-3949702Y4254500D01*
D12*
X-3659301Y3467633D02*
G01*
X-3071141Y3467633D01*
D11*
X-3659301Y3212566D02*
G01*
X-2868498Y3213100D01*
X-3210816Y2959176D02*
G01*
X-3659301Y2957525D01*
X-3659301Y2702458D02*
G01*
X-3949702Y2717878D01*
X-3949702Y2717800D01*
X-3659301Y2447417D02*
G01*
X-3762885Y2451100D01*
X-4457702Y2451100D01*
D13*
X-3659299Y2192378D02*
G01*
X-3400577Y2451100D01*
X-2387602Y2451100D01*
X-3659380Y1937334D02*
G01*
X-3644902Y1937334D01*
X-3543302Y2038934D01*
X-3543302Y2197176D01*
X-3378202Y2362276D01*
X-1511302Y2362276D01*
X-1498602Y2374976D01*
X-3492502Y2032076D02*
G01*
X-3492502Y2184476D01*
X-3352802Y2324176D01*
X-1435102Y2324176D01*
X-3659299Y1682269D02*
G01*
X-3498372Y1682269D01*
X-3492502Y1676400D01*
X-3659301Y1172159D02*
G01*
X-3659301Y1172159D01*
X-3365502Y1168400D01*
X-3314702Y914400D02*
G01*
X-3659301Y917117D01*
X-3659301Y917117D01*
D10*
X-3784602Y1041400D02*
G01*
X-3111502Y1041400D01*
X-3111500Y1041397D01*
D11*
X-5205298Y4232782D02*
G01*
X-5205298Y4232782D01*
X-4165602Y4241797D01*
X-4165602Y4241800D01*
X-5205298Y3977741D02*
G01*
X-5205298Y3977741D01*
X-4216402Y3949700D01*
X-5205300Y3212564D02*
G01*
X-4331238Y3212564D01*
X-4318002Y3225800D01*
X-5205298Y2957525D02*
G01*
X-5205298Y2957525D01*
X-4000502Y2959100D01*
X-5205298Y2702458D02*
G01*
X-5304538Y2620340D01*
X-5346702Y2578176D01*
X-6376418Y2578176D01*
X-6376418Y2959176D01*
X-5205298Y2447417D02*
G01*
X-5304538Y2497912D01*
X-5334002Y2527376D01*
X-6184902Y2527376D01*
X-4584702Y2171700D02*
G01*
X-5205298Y2192375D01*
X-5205298Y2192375D01*
X-4508502Y1930400D02*
G01*
X-5205298Y1937308D01*
X-5205298Y1937308D01*
D10*
X-5205300Y1427203D02*
G01*
X-5197403Y1435100D01*
X-4076702Y1435100D01*
X-5205300Y1172161D02*
G01*
X-3848102Y1172161D01*
X-3848102Y1168400D01*
X-5714999Y3340097D02*
G01*
X-4597400Y3340097D01*
D11*
X-6591302Y3416376D02*
G01*
X-5702302Y4305376D01*
X-5435602Y4305376D01*
X-5384802Y4356176D01*
X-4432302Y4356176D01*
X-4419602Y4368876D01*
D14*
X-1968756Y3801440D02*
G01*
X-1445516Y3801440D01*
X-1068580Y4178376D01*
X-671832Y4178376D01*
D11*
X-4267202Y5981700D02*
G01*
X-4267205Y5981697D01*
X-5727705Y5981697D01*
X-6079441Y2419708D02*
G01*
X-6086149Y2413000D01*
X-6667502Y2413000D01*
D10*
X-2781300Y5334000D02*
G01*
X-3202754Y4621098D01*
D11*
X-1536700Y5867397D02*
G01*
X-665507Y5867397D01*
X-661489Y5871415D01*
X-1397147Y6667497D02*
G01*
X-660400Y6667497D01*
X-3949702Y6286576D02*
G01*
X-3949702Y6667576D01*
X-1384302Y6667576D01*
X-1803400Y7581900D02*
G01*
X-1549402Y7327976D01*
X279397Y7327976D01*
X-4013202Y8216976D02*
G01*
X-1803402Y8216976D01*
X-1803402Y7835722D01*
X-1803400Y7581900D01*
X-1968502Y8267776D02*
G01*
X-1765302Y8267776D01*
X-1765302Y7607376D01*
X-1549402Y7391476D01*
X393697Y7391476D01*
X-1930402Y8331276D02*
G01*
X-1727202Y8331276D01*
X-1727202Y7632776D01*
X-1524002Y7429576D01*
X330197Y7429576D01*
X-4241802Y8242376D02*
G01*
X-4241802Y8331276D01*
X-1930402Y8331276D01*
X-1892302Y8394776D02*
G01*
X-1689102Y8394776D01*
X-1689102Y7645476D01*
X-1524002Y7480376D01*
X444497Y7480376D01*
X457197Y7493076D01*
X-4292600Y8394697D02*
G01*
X-1892300Y8394700D01*
X-4165602Y8242376D02*
G01*
X-4165602Y8267776D01*
X-1968500Y8267700D01*
D13*
X-2451102Y2209800D02*
G01*
X-3263902Y2209800D01*
X-3340100Y2133602D01*
X-3340100Y2031997D01*
X-3416300Y2031997D02*
G01*
X-3416300Y2158997D01*
X-3301997Y2273300D01*
X-2514602Y2273300D01*
X-3251202Y800100D02*
G01*
X-5930902Y800100D01*
X-5930905Y800097D01*
X-749300Y1803478D02*
G01*
X-1003300Y1803478D01*
X-1231900Y2032078D01*
X-3263823Y2032078D01*
X-3263902Y2032000D01*
D11*
X-977902Y8597900D02*
G01*
X647171Y8597900D01*
X762162Y8482909D01*
X775792Y8441484D01*
X-711202Y546100D02*
G01*
X-2522298Y546100D01*
X-2585801Y482597D01*
X-2740581Y482597D01*
X-2778757Y520778D01*
X-5435600Y520778D01*
X-5537205Y622378D01*
X-6654805Y622378D01*
X-2667002Y558800D02*
G01*
X-5422907Y558800D01*
X-5549905Y685797D01*
X-5791205Y685797D01*
D10*
X-1524002Y431876D02*
G01*
X-1193802Y431876D01*
D11*
X-6553202Y5397576D02*
G01*
X-5702302Y5397576D01*
X-5557776Y5253050D01*
X-5304538Y5253050D01*
X-6553202Y5143576D02*
G01*
X-6553202Y5130876D01*
X-5715002Y5130876D01*
X-5582160Y4998034D01*
X-5304538Y4998034D01*
X-6553202Y4889576D02*
G01*
X-6540502Y4876876D01*
X-5727702Y4876876D01*
X-5588002Y4737176D01*
X-5310380Y4737176D01*
X-5304538Y4742764D01*
D15*
X-5461002Y4381500D02*
G01*
X-5461081Y4381578D01*
X-6794505Y4381578D01*
D10*
X-6654802Y3454400D02*
G01*
X-6654802Y3048081D01*
X-6756405Y2946478D01*
D11*
X-6350005Y342978D02*
G01*
X-6350083Y342900D01*
X-6604002Y342900D01*
D10*
X-3111502Y1422476D02*
G01*
X-2311402Y1422476D01*
X-2286002Y1447876D01*
X-2095502Y1447876D01*
X-2032002Y1384376D01*
X-2032000Y787400D02*
G01*
X-1879602Y787400D01*
D11*
X-1689100Y3048078D02*
G01*
X-1179065Y3048078D01*
X-1039365Y3187778D01*
X-304800Y3187778D01*
X-292100Y1981278D01*
X165100Y1981278D01*
X165100Y762078D01*
X-279476Y317500D01*
X-1651002Y317500D01*
D10*
X-3187702Y2082800D02*
G01*
X-1039139Y2082800D01*
X-924841Y2197097D01*
X-5304642Y917120D02*
G01*
X-3784602Y917120D01*
X-3784602Y914400D01*
X-5304543Y917013D02*
G01*
X-5727705Y917013D01*
X-5727705Y939800D01*
X-6540502Y939800D01*
X-863600Y419178D02*
G01*
X-431881Y419178D01*
X-419102Y406400D01*
D14*
X-3056155Y2686812D02*
G01*
X-3056130Y2925648D01*
X-2654302Y3327476D01*
X-1536702Y3327476D01*
D10*
X-3848102Y736600D02*
G01*
X-3187702Y736600D01*
X-3187700Y736597D01*
D11*
X-2400302Y3124200D02*
G01*
X-1574797Y3124200D01*
X-952500Y3746497D01*
D10*
X596900Y5333997D02*
G01*
X-2781955Y5333997D01*
X-661415Y6121478D02*
G01*
X-76200Y6121478D01*
X173733Y5871286D01*
X788418Y5871540D01*
X775718Y7941386D02*
G01*
X6598Y7941386D01*
X-243593Y8191578D01*
X-674115Y8191578D01*
D12*
X-671934Y4178327D02*
G01*
X528043Y4178327D01*
X778050Y3928315D01*
D11*
X-901702Y7937500D02*
G01*
X-897712Y7941490D01*
X-674189Y7941490D01*
X457200Y4432297D02*
G01*
X774054Y4432297D01*
X778050Y4428309D01*
X279400Y6413497D02*
G01*
X746399Y6413497D01*
X788492Y6371409D01*
X393700Y4470397D02*
G01*
X-629838Y4470397D01*
X-671934Y4428309D01*
X395958Y3936997D02*
G01*
X-663252Y3936997D01*
X-671934Y3928315D01*
D14*
X-1968759Y3801440D02*
G01*
X-1968759Y3848178D01*
D10*
X-647702Y1943176D02*
G01*
X-647702Y1943176D01*
X-924816Y1943938D01*
X-924816Y1943176D01*
D11*
X-3073402Y6172276D02*
G01*
X-3975102Y6172276D01*
X-4546602Y6743776D01*
X-4546602Y6845376D01*
D10*
X-4597402Y3848100D02*
G01*
X-5992776Y3848100D01*
X-6293561Y3547315D01*
X-5461002Y8826500D02*
G01*
X-1473276Y8826500D01*
X-1460500Y8839278D01*
X-5549902Y8750300D02*
G01*
X-2806702Y8750300D01*
X-2794000Y8737597D01*
X-1193802Y431800D02*
G01*
X-1155697Y419100D01*
X-863602Y419100D01*
D13*
X-4394202Y8229600D02*
G01*
X-6388102Y8229600D01*
X-6426205Y8191497D01*
X-4559302Y7366000D02*
G01*
X-6362707Y7366000D01*
X-6426205Y7429497D01*
D10*
X-6794505Y5651497D02*
G01*
X-6553205Y5651497D01*
X-6553202Y5651500D01*
X-4597402Y5638800D02*
G01*
X-6540507Y5638800D01*
X-6553205Y5651497D01*
X-6426205Y6667497D02*
G01*
X-6032505Y6667497D01*
X-4597405Y6667497D01*
X-4597402Y6667500D01*
X-924841Y2501900D02*
G01*
X-1356641Y2501900D01*
X-6426205Y8445497D02*
G01*
X-6400802Y8470900D01*
X-4076702Y8470900D01*
X-4076702Y6921500D02*
G01*
X-4076702Y6921497D01*
X-5334000Y6921497D01*
X-6426205Y6921578D01*
D14*
X-2705102Y8648776D02*
G01*
X-2794002Y8737676D01*
D11*
X-924841Y2959097D02*
G01*
X-749305Y2959097D01*
X-749302Y2959100D01*
X-1320802Y3657676D02*
G01*
X-2194816Y3657676D01*
X-2194816Y3668090D01*
X-2552702Y4025976D01*
X-2781302Y4025976D01*
X-2908302Y3898976D01*
X-3210816Y3898976D01*
D13*
X-4495802Y7734300D02*
G01*
X-6375402Y7734300D01*
X-6426205Y7683497D01*
X-4445002Y7874000D02*
G01*
X-6361610Y7874000D01*
X-6425951Y7938340D01*
D11*
X-2514602Y3759200D02*
G01*
X-3413660Y3759200D01*
X-3418865Y3753995D01*
X-5776290Y2959097D02*
G01*
X-5649287Y3086100D01*
X-4572002Y3086100D01*
D14*
X-6794505Y5397497D02*
G01*
X-6553205Y5397497D01*
X-6553202Y5397500D01*
X-6794505Y5143497D02*
G01*
X-6553205Y5143497D01*
X-6553202Y5143500D01*
X-6794505Y4889497D02*
G01*
X-6553205Y4889497D01*
X-6553202Y4889500D01*
X-6794505Y4635497D02*
G01*
X-6553205Y4635497D01*
X-6553202Y4635500D01*
X-5549902Y4635500D02*
G01*
X-6794502Y4635500D01*
X-6794505Y4635497D01*
D12*
X-1193802Y685800D02*
G01*
X-1193802Y939800D01*
D14*
X-2705102Y8445576D02*
G01*
X-2489202Y8445576D01*
D11*
X-3898900Y6235697D02*
G01*
X-1536705Y6235697D01*
X-1536702Y6235700D01*
X-2095502Y4699000D02*
G01*
X-1305839Y4699000D01*
X-1293141Y4711697D01*
X-4368802Y3784600D02*
G01*
X-4229102Y3784600D01*
X-3962400Y4051302D01*
X-3962400Y4076697D01*
X-5727705Y3517897D02*
G01*
X-5727705Y3505202D01*
X-5448302Y3225800D01*
X-5435602Y2679700D02*
G01*
X-5979340Y2679700D01*
X-5979416Y2679778D01*
X-3418842Y4353890D02*
G01*
X-3418842Y4343400D01*
X-2451102Y4343400D01*
X-2918716Y4064076D02*
G01*
X-2918716Y4286072D01*
X-1953516Y4286072D01*
X-1968756Y4301312D01*
X-1193800Y1193797D02*
G01*
X-1193800Y1168400D01*
X-711202Y1168400D01*
D13*
X-6426205Y7175578D02*
G01*
X-6388026Y7137400D01*
X-4343402Y7137400D01*
D11*
X-4343400Y8559797D02*
G01*
X-2095502Y8559797D01*
X-2095502Y8559800D01*
D16*
G01*
X-3418867Y4353991D03*
G01*
X-3418867Y4053992D03*
G01*
X-3418867Y3753993D03*
G01*
X-1968883Y3801338D03*
G01*
X-1968883Y4301337D03*
D18*
G01*
X-2668882Y4601337D03*
G01*
X-2668882Y3501339D03*
D19*
G01*
X-6426202Y6692900D03*
G01*
X-6426202Y6946900D03*
G01*
X-6426202Y7200900D03*
G01*
X-6426202Y7454900D03*
G01*
X-6426202Y7708900D03*
G01*
X-6426202Y7962900D03*
G01*
X-6426202Y8216900D03*
G01*
X-6426202Y8470900D03*
D20*
G01*
X-1193802Y1447800D03*
G01*
X-1193802Y1193800D03*
G01*
X-1193802Y939800D03*
G01*
X-1193802Y685800D03*
G01*
X-1193802Y431800D03*
D21*
G01*
X1003297Y1460500D03*
G01*
X1003297Y457200D03*
D19*
G01*
X-924841Y1943100D03*
D22*
G01*
X815058Y2268397D03*
G01*
X815058Y2618409D03*
D19*
G01*
X-924841Y2959100D03*
G01*
X-924841Y2705100D03*
G01*
X-924841Y2451100D03*
G01*
X-924841Y2197100D03*
D20*
G01*
X-3309317Y406400D03*
G01*
X-1909269Y406400D03*
G01*
X-3309317Y2686812D03*
G01*
X-1909269Y2686812D03*
G01*
X-3056155Y2686812D03*
G01*
X-2163269Y2686812D03*
G01*
X-2164361Y405536D03*
G01*
X-3055444Y406247D03*
D23*
G01*
X-6177993Y2959100D03*
G01*
X-6376291Y2959100D03*
G01*
X-5776292Y2959100D03*
D24*
G01*
X-5976292Y2959100D03*
D19*
G01*
X-6731002Y5676900D03*
G01*
X-6731002Y5422900D03*
G01*
X-6731002Y5168900D03*
G01*
X-6731002Y4914900D03*
G01*
X-6731002Y4660900D03*
G01*
X-6731002Y4406900D03*
G01*
X-6731002Y4152900D03*
G01*
X-6731002Y3898900D03*
G01*
X-6489702Y5676900D03*
G01*
X-6489702Y5422900D03*
G01*
X-6489702Y5168900D03*
G01*
X-6489702Y4914900D03*
G01*
X-6489702Y4660900D03*
G01*
X-6489702Y4406900D03*
G01*
X-6489702Y4152900D03*
G01*
X-6489702Y3898900D03*
D20*
G01*
X-6293563Y4047286D03*
G01*
X-5593615Y4047286D03*
G01*
X-6293563Y3547313D03*
G01*
X-5593615Y3547313D03*
D19*
G01*
X-671934Y4428312D03*
G01*
X-671934Y4178325D03*
G01*
X-671934Y3928313D03*
G01*
X778050Y3928313D03*
G01*
X778050Y4428312D03*
D18*
G01*
X78051Y4728311D03*
G01*
X78051Y3628313D03*
D19*
G01*
X-674194Y8441486D03*
G01*
X-674194Y8191500D03*
G01*
X-674194Y7941487D03*
G01*
X775789Y7941487D03*
G01*
X775789Y8441486D03*
D18*
G01*
X75791Y8741486D03*
G01*
X75791Y7641488D03*
D19*
G01*
X-661494Y6371412D03*
G01*
X-661494Y6121425D03*
G01*
X-661494Y5871413D03*
G01*
X788489Y5871413D03*
G01*
X788489Y6371412D03*
D18*
G01*
X88491Y6671411D03*
G01*
X88491Y5571413D03*
D20*
G01*
X-3659304Y917117D03*
G01*
X-3659304Y1172159D03*
G01*
X-3659304Y1427200D03*
G01*
X-3659304Y5252999D03*
G01*
X-3659304Y2702458D03*
G01*
X-3659304Y3722674D03*
G01*
X-3659304Y4232782D03*
G01*
X-3659304Y2447417D03*
G01*
X-3659304Y4487824D03*
G01*
X-3659304Y3977741D03*
G01*
X-3659304Y3467633D03*
G01*
X-3659304Y5508040D03*
G01*
X-3659304Y4997932D03*
G01*
X-3659304Y2957525D03*
G01*
X-3659304Y1937308D03*
G01*
X-3659304Y1682267D03*
G01*
X-3659304Y2192375D03*
G01*
X-3659304Y5763107D03*
G01*
X-3659304Y3212566D03*
G01*
X-3659304Y4742891D03*
G01*
X-5205300Y4742891D03*
G01*
X-5205300Y3212566D03*
G01*
X-5205300Y5763107D03*
G01*
X-5205300Y2192375D03*
G01*
X-5205300Y1682267D03*
G01*
X-5205300Y1937308D03*
G01*
X-5205300Y2957525D03*
G01*
X-5205300Y4997932D03*
G01*
X-5205300Y5508040D03*
G01*
X-5205300Y3467633D03*
G01*
X-5205300Y3977741D03*
G01*
X-5205300Y4487824D03*
G01*
X-5205300Y2447417D03*
G01*
X-5205300Y4232782D03*
G01*
X-5205300Y3722674D03*
G01*
X-5205300Y2702458D03*
G01*
X-5205300Y5252999D03*
G01*
X-5205300Y1427200D03*
G01*
X-5205300Y1172159D03*
G01*
X-5205300Y917117D03*
D25*
G01*
X-6349443Y1699691D03*
D26*
G01*
X-5639437Y1749704D03*
D25*
G01*
X-6079441Y2419705D03*
G01*
X-5979441Y2679700D03*
D27*
G01*
X-6769432Y2159711D03*
D25*
G01*
X-6350002Y342900D03*
D26*
G01*
X-5651502Y393700D03*
D25*
G01*
X-6080000Y1062913D03*
G01*
X-5980000Y1322908D03*
D27*
G01*
X-6769991Y802919D03*
D15*
G01*
X-3848102Y1168400D03*
G01*
X-3848102Y736600D03*
G01*
X-3187702Y736600D03*
G01*
X-3784602Y914400D03*
G01*
X-3784602Y1041400D03*
G01*
X-4076702Y1435100D03*
G01*
X-4076702Y6921500D03*
G01*
X-1879602Y787400D03*
G01*
X-4076702Y8470900D03*
G01*
X-711202Y1168400D03*
G01*
X-3924302Y635000D03*
G01*
X-2730502Y609600D03*
G01*
X-863602Y419100D03*
G01*
X-647702Y1943100D03*
G01*
X-1409702Y5257800D03*
G01*
X-1663702Y5765800D03*
G01*
X-1356641Y2501900D03*
G01*
X-1587502Y1435100D03*
G01*
X-3202764Y4621047D03*
G01*
X-2451102Y2209800D03*
G01*
X-2514602Y2273300D03*
G01*
X-2514602Y3759200D03*
G01*
X-2918741Y3212566D03*
G01*
X-2918741Y4064000D03*
G01*
X-1435102Y2324100D03*
G01*
X-1498602Y2374900D03*
G01*
X-901702Y7937500D03*
G01*
X-2387602Y2451100D03*
G01*
X-977902Y8597900D03*
G01*
X-3949702Y4254500D03*
G01*
X-3949702Y6286500D03*
G01*
X-660402Y6667500D03*
G01*
X-3898902Y4470400D03*
G01*
X-3898902Y6235700D03*
G01*
X-1536702Y6235700D03*
G01*
X-1536702Y5867400D03*
G01*
X-4000502Y2959100D03*
G01*
X-4013202Y8216900D03*
G01*
X279397Y7327900D03*
G01*
X279397Y6413500D03*
G01*
X-4165602Y4241800D03*
G01*
X-4165602Y8242300D03*
G01*
X393697Y7391400D03*
G01*
X393697Y4470400D03*
G01*
X-4216402Y3949700D03*
G01*
X-4241802Y8242300D03*
G01*
X330197Y7429500D03*
G01*
X395958Y3937000D03*
G01*
X-4318002Y3225800D03*
G01*
X-4292602Y8394700D03*
G01*
X457197Y7493000D03*
G01*
X457197Y4432300D03*
G01*
X-419102Y406400D03*
G01*
X596897Y3886200D03*
G01*
X-4597402Y5638800D03*
G01*
X-4597402Y6667500D03*
G01*
X-3949702Y2717800D03*
G01*
X-3962402Y4076700D03*
G01*
X-4368802Y3784600D03*
G01*
X-4394202Y8229600D03*
G01*
X-4457702Y2451100D03*
G01*
X-4495802Y7734300D03*
D28*
G01*
X-3071141Y3467633D03*
D15*
G01*
X-3073402Y6172200D03*
G01*
X-4546602Y6845300D03*
G01*
X-2095502Y8559800D03*
G01*
X-2095502Y4699000D03*
G01*
X-1293141Y4711700D03*
G01*
X-1320802Y3657600D03*
G01*
X-3210841Y3898900D03*
G01*
X-3210841Y2959100D03*
G01*
X-749302Y2959100D03*
G01*
X-749302Y1803400D03*
G01*
X-4419602Y5524500D03*
G01*
X-4419602Y4368800D03*
G01*
X-6184902Y2527300D03*
G01*
X-4584702Y2171700D03*
G01*
X-2451102Y4343400D03*
G01*
X-5727702Y5981700D03*
G01*
X-4267202Y5981700D03*
G01*
X-4597402Y3848100D03*
G01*
X-2705102Y8648700D03*
G01*
X-2705102Y8445500D03*
G01*
X-2489202Y8445500D03*
G01*
X-4267202Y4749800D03*
G01*
X-6756402Y2946400D03*
G01*
X-6667502Y2413000D03*
G01*
X584197Y7937500D03*
G01*
X596897Y5867400D03*
G01*
X596897Y5334000D03*
G01*
X-5461002Y4381500D03*
G01*
X-5549902Y4635500D03*
G01*
X-4559302Y7366000D03*
G01*
X-1536702Y3327400D03*
G01*
X-952502Y3746500D03*
G01*
X-1689102Y3048000D03*
G01*
X-1765302Y2705100D03*
G01*
X-2400302Y3124200D03*
G01*
X-5448302Y3225800D03*
G01*
X-5435602Y2679700D03*
G01*
X-5727702Y3517900D03*
G01*
X-4343402Y7137400D03*
G01*
X-4343402Y8559800D03*
D29*
G01*
X-4508502Y1930400D03*
G01*
X-4572002Y3086100D03*
D15*
G01*
X-5816602Y876300D03*
G01*
X-3187702Y2082800D03*
G01*
X-4445002Y7874000D03*
G01*
X-5549902Y8750300D03*
G01*
X-5461002Y8826500D03*
G01*
X-1460502Y8839276D03*
G01*
X-6540502Y939800D03*
G01*
X-711202Y546100D03*
G01*
X-6654802Y622300D03*
G01*
X-5791202Y685800D03*
G01*
X-5930902Y800100D03*
G01*
X-2667002Y1346200D03*
G01*
X-2667002Y558800D03*
G01*
X-2730502Y1562100D03*
G01*
X-1651002Y317500D03*
G01*
X-2032002Y1384376D03*
G01*
X-2032002Y787400D03*
G01*
X-3111502Y1041400D03*
G01*
X-3111502Y1422400D03*
G01*
X-6604002Y342900D03*
G01*
X-6591302Y3416300D03*
G01*
X-5803902Y5905500D03*
G01*
X-6654802Y3454400D03*
G01*
X-1523977Y431876D03*
G01*
X-3263902Y2032000D03*
G01*
X-3251202Y800100D03*
G01*
X-3340102Y2032000D03*
G01*
X-3314702Y914400D03*
G01*
X-3365502Y1168400D03*
G01*
X-3416302Y2032000D03*
G01*
X-3492502Y1676400D03*
G01*
X-3492502Y2032000D03*
G01*
X-5715002Y3340100D03*
G01*
X-4597402Y3340100D03*
M02*
